<svg width="238" height="263" viewBox="0 0 238 263" fill="none" xmlns="http://www.w3.org/2000/svg">
<path d="M175.286 4.27899C174.026 6.48358 172.115 8.67618 169.555 10.8568C167.958 12.2191 168.823 13.6415 170.191 14.7578C172.516 16.6703 174.504 18.8889 176.157 21.4136C177.585 23.6042 179.289 23.0521 180.52 21.0115C182.112 18.3788 184.341 15.9802 187.206 13.8156C188.652 12.7233 187.95 11.2889 186.779 10.2626C184.255 8.06201 182.09 5.38929 180.286 2.24443C179.85 1.48823 179.139 1.07412 178.155 1.0021C178.053 0.994384 177.95 1.00799 177.853 1.04207C177.756 1.07615 177.667 1.12997 177.591 1.20015C176.823 1.91635 176.054 2.94262 175.286 4.27899Z" stroke="#97949A" stroke-width="2"/>
<path d="M86.6602 237.046C78.674 235.474 72.4643 237.87 68.0311 244.236C66.7408 246.096 64.3882 251.072 64.6822 253.1C65.2884 257.241 72.5744 258.664 75.8032 259.534C84.7217 261.941 96.5929 262.523 104.767 257.53C104.851 257.478 104.947 257.449 105.046 257.445C105.145 257.44 105.243 257.461 105.331 257.505C113.758 261.833 124.765 261.263 133.641 259C136.948 258.16 143.916 256.533 144.666 252.71C145.032 250.874 142.745 245.964 141.707 244.344C137.418 237.67 131.13 235.043 122.844 236.464C122.6 236.508 122.512 236.412 122.58 236.176C123.138 234.105 123.798 232.665 122.16 230.948C120.929 229.658 119.441 228.578 117.767 229.994C117.726 230.029 117.677 230.051 117.624 230.059C117.572 230.068 117.518 230.061 117.469 230.041C117.42 230.02 117.377 229.986 117.346 229.943C117.315 229.9 117.296 229.849 117.292 229.796C116.62 219.357 116.528 208.914 117.016 198.467C117.028 198.247 117.144 198.129 117.365 198.113C128.592 197.129 139.707 195.423 150.71 192.994C155.475 191.938 155.517 189.525 155.193 185.12C155.133 184.256 155.439 183.619 155.913 182.965C157.817 180.337 159.728 177.708 161.644 175.079C163.169 172.997 166.47 172.018 166.254 169.078C165.353 157.134 164.643 145.195 164.123 133.26C164.121 133.206 164.134 133.152 164.161 133.105C164.187 133.058 164.227 133.02 164.274 132.994C164.322 132.968 164.376 132.957 164.43 132.96C164.484 132.964 164.535 132.982 164.579 133.014C166.704 134.55 168.882 136.081 171.115 137.605C173.318 139.117 174.944 139.303 177.297 137.719C182.45 134.246 187.664 130.679 192.937 127.018C193.019 126.961 193.113 126.923 193.211 126.907C193.31 126.89 193.411 126.896 193.507 126.924C193.603 126.951 193.691 127 193.766 127.066C193.841 127.132 193.9 127.214 193.939 127.306C196.058 132.24 203.578 134.886 206.135 128.489C206.215 128.288 206.361 128.202 206.573 128.23C213.09 129.131 219.312 128.324 225.238 125.812C229.781 123.885 238.567 119.516 234.702 113.094C234.586 112.894 234.596 112.702 234.732 112.518C236.689 109.893 236.949 107.083 235.513 104.086C235.408 103.872 235.378 103.629 235.428 103.396C237.787 92.2027 223.533 91.6025 216.595 93.6911C216.549 93.7056 216.5 93.7083 216.453 93.6988C216.405 93.6894 216.361 93.6681 216.324 93.637C216.287 93.6059 216.258 93.566 216.241 93.5209C216.223 93.4758 216.217 93.427 216.223 93.379C216.685 89.64 215.527 84.5146 212.238 82.4981C209.099 80.5835 204.142 82.12 204.058 86.5672C204.01 89.2919 204 91.5005 204.028 93.193C204.056 94.7334 203.88 96.0017 203.5 96.998C202.616 99.3306 201.249 101.397 199.401 103.198C199.257 103.338 199.085 103.4 198.885 103.384C197.936 103.3 196.992 103.25 196.052 103.234C188.22 103.09 188.928 111.78 191.299 116.473C191.395 116.669 191.353 116.829 191.173 116.953L174.812 128.092C174.651 128.203 174.459 128.261 174.262 128.257C174.066 128.254 173.874 128.19 173.714 128.074L164.399 121.269C164.233 121.147 164.097 120.989 164.001 120.807C163.905 120.625 163.853 120.424 163.847 120.218C163.107 92.3627 163.853 64.5372 166.086 36.7417C166.458 32.1624 163.511 31.2082 159.508 31.2622C145.656 31.4342 131.776 31.6243 117.869 31.8323C117.617 31.8363 117.521 31.7183 117.581 31.4782C119.749 22.4438 122.374 13.5434 125.455 4.777C125.514 4.61155 125.533 4.43437 125.509 4.26017C125.486 4.08597 125.421 3.91977 125.32 3.7754C125.219 3.63102 125.085 3.51263 124.929 3.43005C124.773 3.34747 124.599 3.3031 124.422 3.30061C122.978 3.2846 121.478 3.71072 119.921 4.57895C115.148 7.23567 110.345 9.87239 105.511 12.4891C105.409 12.5441 105.295 12.5739 105.179 12.5761C105.063 12.5784 104.948 12.5529 104.843 12.5019C104.739 12.4509 104.648 12.3758 104.579 12.2827C104.509 12.1897 104.463 12.0815 104.443 11.967C104.161 10.2805 104.323 7.98788 102.258 7.18366C102.09 7.11964 101.926 7.13164 101.766 7.21967C99.4537 8.55203 97.8152 10.3085 96.851 12.4891C94.3463 18.1746 92.6418 24.6164 91.7376 31.8143C91.7096 32.0464 91.5795 32.1644 91.3475 32.1684C78.3119 32.3365 65.2744 32.4925 52.2349 32.6366C51.1306 32.6486 49.7262 33.1947 48.7479 33.7469C43.9826 36.4356 39.2473 39.1783 34.5421 41.9751C33.3577 42.6793 32.6816 43.5855 32.5135 44.6938C29.3807 65.3234 28.0483 85.951 28.5164 106.577C28.524 107.043 28.3546 107.496 28.0423 107.843C21.1004 115.485 14.1545 123.109 7.20466 130.715C3.84375 134.394 5.74626 137.803 9.76135 139.213C12.9742 140.338 16.2091 141.692 19.466 143.277C19.5329 143.308 19.5883 143.359 19.6245 143.424C19.6608 143.488 19.676 143.562 19.6681 143.635C19.6601 143.709 19.6294 143.778 19.5803 143.833C19.5311 143.888 19.466 143.926 19.394 143.943C16.5212 144.627 15.3169 146.409 15.781 149.29C15.913 150.148 16.4052 151.133 16.6452 152.117C16.6698 152.224 16.6713 152.336 16.6495 152.443C16.6278 152.551 16.5833 152.652 16.5192 152.741C15.4229 154.229 14.6507 155.872 14.2026 157.668C14.1906 157.716 14.1693 157.761 14.1399 157.8C14.1105 157.839 14.0735 157.871 14.0314 157.895C13.9893 157.919 13.9428 157.935 13.8948 157.94C13.8469 157.945 13.7984 157.941 13.7524 157.927C10.6156 156.986 7.56676 157.072 4.60595 158.185C-0.357391 160.051 1.01698 163.082 1.73117 167.079C2.42736 170.974 3.91577 173.447 8.16492 173.897C8.35818 173.916 8.53759 174.006 8.66906 174.149C12.9242 178.794 19.7241 183.457 25.7257 179.844C29.2306 177.736 32.5415 175.353 35.6584 172.697C35.8024 172.576 35.8944 172.608 35.9344 172.793C37.2108 178.626 38.5752 184.44 40.0276 190.233C41.1018 194.5 43.3284 194.446 47.5836 195.203C51.9768 195.983 56.408 196.631 60.8772 197.147C61.0813 197.171 61.1873 197.285 61.1953 197.489C61.4754 203.439 61.9135 209.372 62.5096 215.29C62.7377 217.595 63.674 222.948 66.5007 223.32C68.1032 223.53 69.4835 222.174 70.8219 221.28C74.843 218.603 77.4417 222.864 81.2107 222.816C84.9197 222.768 85.5859 218.171 85.3218 215.14C84.8737 210.051 84.6576 204.865 84.6736 199.584C84.6736 199.348 84.7857 199.19 85.0097 199.11C86.126 198.714 86.7982 199.092 87.0023 200.262C88.6547 209.733 90.0151 219.347 91.0834 229.106C91.1394 229.606 90.9173 229.886 90.4172 229.946C86.3241 230.462 85.5859 233.391 86.8702 236.8C86.9503 237.008 86.8803 237.09 86.6602 237.046Z" stroke="#97949A" stroke-width="2"/>
<path d="M206.369 36.1776C207.425 34.1291 208.721 32.3626 210.258 30.8782C210.412 30.729 210.53 30.5464 210.602 30.3445C210.675 30.1426 210.701 29.9268 210.677 29.7135C210.653 29.5003 210.581 29.2953 210.465 29.1143C210.35 28.9334 210.195 28.7812 210.012 28.6696C207.811 27.3332 205.885 25.6628 204.232 23.6583C203.134 22.3199 201.591 21.7737 200.739 23.7123C199.511 26.497 197.988 28.9537 196.172 31.0823C196.045 31.2322 195.983 31.4283 195.998 31.6284C196.05 32.3006 196.382 32.8367 196.994 33.2369C199.095 34.6092 200.987 36.2177 202.672 38.0622C204.472 40.0427 205.69 37.486 206.369 36.1776Z" stroke="#97949A" stroke-width="2"/>
<path d="M174.122 62.5547C176.979 65.8136 178.983 69.4746 180.676 73.4476C180.745 73.6097 180.873 73.7403 181.036 73.8137C181.964 74.2259 182.878 74.2259 183.779 73.8137C183.951 73.7377 184.095 73.6257 184.211 73.4777C185.855 71.4171 187.75 69.6266 189.894 68.1062C191.941 66.6598 197.468 65.5195 194.509 61.8165C192.081 58.7757 190.224 55.4228 188.94 51.7578C187.902 48.799 186.077 48.6249 184.073 51.0016C181.564 53.9864 178.621 56.465 175.244 58.4376C173.444 59.4939 172.525 60.7362 174.122 62.5547Z" stroke="#97949A" stroke-width="2"/>
<path d="M177.627 19.4151C177.727 19.5831 177.833 19.7171 177.945 19.8172C177.98 19.8474 178.022 19.8695 178.067 19.8818C178.112 19.8941 178.159 19.8963 178.204 19.8882C178.25 19.8802 178.293 19.8621 178.33 19.8352C178.367 19.8084 178.398 19.7735 178.419 19.7331C179.995 16.7683 182.17 14.3417 184.943 12.4532C184.983 12.426 185.016 12.3899 185.04 12.3477C185.063 12.3055 185.077 12.2584 185.079 12.2101C185.081 12.1618 185.072 12.1136 185.053 12.0693C185.034 12.0251 185.004 11.9859 184.967 11.955C182.334 9.81445 180.224 7.24975 178.635 4.26094C178.612 4.21751 178.577 4.18109 178.534 4.15568C178.492 4.13026 178.444 4.11682 178.395 4.11682C178.346 4.11682 178.298 4.13026 178.257 4.15568C178.216 4.18109 178.183 4.21751 178.161 4.26094C176.589 7.38579 174.444 10.0525 171.727 12.2611C171.674 12.3044 171.632 12.3592 171.603 12.4213C171.574 12.4834 171.56 12.5511 171.562 12.619C171.564 12.687 171.581 12.7535 171.613 12.8132C171.645 12.8729 171.69 12.9243 171.745 12.9633C174.142 14.6958 176.102 16.8464 177.627 19.4151Z" stroke="#97949A" stroke-width="2"/>
<path d="M101.232 10.5206C99.6234 12.7232 98.441 14.9018 97.5828 17.6386C95.2862 24.9686 93.7658 32.4826 93.0216 40.1807C93.0056 40.3487 93.0836 40.4307 93.2556 40.4267L113.859 40.1987C114.031 40.1987 114.121 40.1127 114.129 39.9406C114.277 36.6477 114.471 34.4271 114.711 33.2788C116.576 24.3244 118.999 15.574 121.979 7.02769C121.999 6.9692 122.001 6.90606 121.984 6.8466C121.968 6.78713 121.933 6.73411 121.886 6.6945C121.838 6.65489 121.78 6.63055 121.719 6.62468C121.657 6.6188 121.595 6.63167 121.541 6.66159C116.844 9.20628 112.179 11.735 107.546 14.2476C106.777 14.6638 105.829 14.9038 104.701 14.9678C102.222 15.1059 101.88 12.3331 101.604 10.6107C101.597 10.5699 101.578 10.5319 101.549 10.5015C101.521 10.4711 101.484 10.4498 101.444 10.4401C101.405 10.4305 101.363 10.433 101.325 10.4473C101.287 10.4617 101.255 10.4872 101.232 10.5206Z" stroke="#855053" stroke-width="2"/>
<path d="M161.002 115.237C160.578 87.3294 161.415 61.0663 163.511 36.4476C163.667 34.6651 163.277 33.8249 161.333 33.8489C146.881 34.0009 132.429 34.199 117.977 34.443C117.353 34.449 116.866 34.7911 116.891 35.4393C116.894 35.5274 116.931 35.6107 116.995 35.6714C117.059 35.732 117.144 35.765 117.233 35.7634C130.216 35.6114 143.184 35.5994 156.135 35.7274C157.58 35.7434 158.768 35.8794 159.7 36.1355C159.897 36.1899 160.068 36.3136 160.18 36.4836C160.516 37.0077 160.664 37.5439 160.624 38.092C158.812 63.947 157.732 90.0541 158.944 115.957C159.004 117.189 159.596 117.948 160.72 118.232C160.94 118.288 161.06 118.204 161.08 117.98C161.176 117.055 161.008 115.903 161.002 115.237Z" stroke="#738487" stroke-width="2"/>
<path d="M91.083 35.1799C91.0825 35.0907 91.0466 35.0055 90.9833 34.9428C90.9199 34.8801 90.8343 34.8451 90.7452 34.8456L61.0975 35.0008C61.0534 35.001 61.0097 35.0099 60.969 35.027C60.9284 35.0441 60.8914 35.0691 60.8604 35.1005C60.8293 35.1319 60.8048 35.169 60.7881 35.2099C60.7714 35.2508 60.763 35.2945 60.7632 35.3387L60.7634 35.3627C60.7638 35.4518 60.7997 35.5371 60.8631 35.5998C60.9264 35.6625 61.0121 35.6974 61.1012 35.697L90.7488 35.5418C90.793 35.5415 90.8366 35.5326 90.8773 35.5155C90.918 35.4984 90.9549 35.4735 90.986 35.4421C91.017 35.4107 91.0416 35.3735 91.0583 35.3326C91.0749 35.2918 91.0834 35.248 91.0832 35.2039L91.083 35.1799Z" stroke="#738487" stroke-width="2"/>
<path d="M52.4896 35.2138C52.3874 35.034 51.5707 35.2696 50.2194 35.869C48.8681 36.4684 47.0927 37.3824 45.2838 38.41C43.475 39.4376 41.7808 40.4945 40.574 41.3483C39.3672 42.2022 38.7466 42.7829 38.8488 42.9629C38.951 43.1428 39.7676 42.9071 41.119 42.3077C42.4703 41.7083 44.2457 40.7943 46.0546 39.7667C47.8634 38.7392 49.5575 37.6822 50.7643 36.8284C51.9711 35.9746 52.5917 35.3938 52.4896 35.2138Z" stroke="#738487" stroke-width="2"/>
<path d="M116.074 42.4732C108.028 42.7413 99.9741 42.8433 91.9119 42.7793C89.2652 42.7613 90.6215 40.0786 90.5795 38.4581C90.5755 38.2581 90.4735 38.1581 90.2734 38.1581C78.7223 38.142 67.1632 38.074 55.596 37.954C54.5638 37.942 53.6215 38.144 52.7693 38.5602C50.3286 39.7525 47.99 41.1589 45.7534 42.7793C45.4813 42.9754 45.5133 43.0874 45.8494 43.1154C80.4828 45.9722 115.172 47.0325 149.918 46.2963C150.012 46.2942 150.106 46.2723 150.191 46.232C150.277 46.1917 150.354 46.1339 150.416 46.0622L156.693 38.7702C156.741 38.7163 156.772 38.6498 156.782 38.5787C156.793 38.5077 156.783 38.435 156.753 38.3697C156.723 38.3043 156.675 38.249 156.614 38.2103C156.554 38.1717 156.483 38.1515 156.411 38.1521L116.921 38.2241C116.673 38.2281 116.549 38.3521 116.549 38.5962L116.525 42.0171C116.521 42.3132 116.371 42.4652 116.074 42.4732Z" stroke="#8E7256" stroke-width="2"/>
<path d="M149.173 85.1268C148.885 95.6617 148.933 106.179 149.317 116.677C149.32 116.736 149.341 116.793 149.377 116.84C149.413 116.886 149.462 116.921 149.518 116.939C149.575 116.956 149.635 116.956 149.691 116.939C149.748 116.921 149.797 116.886 149.833 116.839C151.314 114.875 153.322 114.113 155.859 114.553C155.913 114.563 155.969 114.56 156.023 114.546C156.077 114.531 156.126 114.505 156.168 114.468C156.21 114.432 156.243 114.387 156.266 114.336C156.288 114.285 156.299 114.23 156.297 114.175C155.637 90.3682 156.157 66.5878 157.857 42.8333C157.865 42.7173 157.901 42.5633 157.965 42.3712C158.113 41.9271 157.945 41.697 157.461 41.681C157.397 41.6809 157.334 41.6948 157.276 41.7218C157.218 41.7487 157.166 41.7881 157.125 41.8371C155.393 43.9696 153.614 46.0382 151.79 48.0428C151.358 48.5169 151.322 48.913 151.268 49.5011C150.195 61.3564 149.497 73.2316 149.173 85.1268Z" stroke="#795B43" stroke-width="2"/>
<path d="M146.904 82.2761C147.088 75.0462 147.744 63.9612 148.873 49.0211C148.889 48.8211 148.795 48.723 148.591 48.727C111.541 49.3192 74.5506 48.0809 37.6206 45.012C36.9124 44.952 36.4563 44.706 35.8322 44.5499C35.7325 44.5244 35.6286 44.5202 35.5272 44.5376C35.4258 44.555 35.3292 44.5935 35.2437 44.6507C35.1582 44.7079 35.0857 44.7824 35.031 44.8695C34.9762 44.9566 34.9404 45.0542 34.9259 45.1561C27.828 94.1294 30.3607 142.372 42.524 189.885C42.8661 191.212 43.4782 191.992 44.7926 192.232C80.1622 198.586 115.414 198.034 150.547 190.576C152.248 190.215 152.95 189.101 152.654 187.233C151.349 179.046 150.271 170.194 149.419 160.675C147.078 134.592 146.24 108.459 146.904 82.2761Z" stroke="#738487" stroke-width="2"/>
<path d="M213.649 95.8458C213.477 95.2496 213.469 94.4494 213.625 93.4451C214.135 90.1142 212.64 81.7359 207.215 84.8448C207.052 84.9378 206.929 85.087 206.867 85.2649C206.147 87.3955 206.591 91.5126 206.579 93.8652C206.575 95.5097 206.341 96.9021 205.877 98.0424C204.86 100.543 203.348 102.746 201.339 104.65C201.313 104.674 201.293 104.704 201.279 104.736C201.264 104.769 201.257 104.804 201.257 104.839C201.257 104.875 201.264 104.91 201.279 104.942C201.293 104.975 201.313 105.004 201.339 105.028C205.751 109.019 206.657 116.263 206.039 121.893C206.015 122.109 205.895 122.223 205.679 122.235L204.646 122.295C203.914 122.335 203.578 121.991 203.638 121.263C204.006 116.673 203.186 112.486 201.177 108.701C199.941 106.369 197.939 105.41 195.17 105.826C193.615 106.055 192.697 106.667 192.445 108.323C192.085 110.712 192.235 113.497 193.999 115.357C197.06 118.592 196.976 121.743 196.394 125.992C196.367 126.195 196.402 126.4 196.496 126.58C197.128 127.78 198.035 128.659 199.215 129.215C201.531 130.307 203.866 128.963 203.956 126.406C203.962 126.251 204.001 126.099 204.072 125.96C204.142 125.822 204.241 125.7 204.363 125.603C204.485 125.506 204.626 125.437 204.778 125.399C204.929 125.362 205.087 125.357 205.24 125.386C211.698 126.614 217.986 126.062 224.104 123.729C224.138 123.714 224.168 123.689 224.188 123.657C224.208 123.624 224.217 123.587 224.215 123.549C224.213 123.511 224.2 123.475 224.177 123.445C224.154 123.415 224.122 123.393 224.086 123.381C219.446 122.025 217.382 119.03 220.437 114.427C220.561 114.239 220.531 114.081 220.347 113.953C217.88 112.218 218.006 110.238 218.156 107.507C218.164 107.364 218.119 107.223 218.03 107.111L216.283 104.962C216.127 104.77 216.035 104.798 216.007 105.046C215.935 105.686 215.837 106.677 215.713 108.017C215.309 112.43 213.175 115.835 209.31 118.232C209.225 118.285 209.128 118.315 209.028 118.319C208.929 118.323 208.829 118.301 208.739 118.256C208.127 117.944 207.755 117.438 207.623 116.737C207.607 116.658 207.616 116.575 207.648 116.501C207.68 116.426 207.734 116.362 207.803 116.317C212.64 113.178 213.727 108.497 213.469 103.042C213.459 102.833 213.511 102.627 213.617 102.447C213.724 102.268 213.881 102.123 214.069 102.032C214.256 101.941 214.467 101.907 214.674 101.933C214.881 101.96 215.075 102.047 215.233 102.183C215.665 102.556 215.993 103.02 216.217 103.576C216.233 103.611 216.26 103.641 216.293 103.66C216.327 103.679 216.366 103.687 216.404 103.682C216.442 103.677 216.478 103.66 216.506 103.634C216.534 103.607 216.553 103.572 216.56 103.534C217.238 98.9366 223.485 97.9764 227.17 98.3184C227.311 98.3315 227.442 98.3929 227.543 98.4924C227.643 98.5919 227.707 98.7233 227.723 98.8646L227.861 100.179C227.866 100.24 227.86 100.302 227.841 100.361C227.823 100.42 227.793 100.474 227.753 100.521C227.713 100.567 227.664 100.605 227.61 100.632C227.555 100.659 227.495 100.674 227.434 100.677C225.226 100.797 218.432 101.037 218.87 104.458C218.885 104.567 218.926 104.671 218.99 104.761C219.054 104.851 219.138 104.924 219.236 104.974C219.724 105.218 220.391 105.394 221.235 105.502C225.136 106.003 228.611 105.39 231.66 103.666C232.926 102.952 233.49 101.877 233.25 100.473C232.074 93.4751 219.68 95.1076 215.125 96.626C214.361 96.8821 213.869 96.622 213.649 95.8458Z" stroke="#97949A" stroke-width="2"/>
<path d="M230.927 106.679C227.682 108.191 224.325 108.613 220.856 107.945C220.656 107.909 220.544 107.991 220.52 108.191C219.812 114.343 227.776 112.83 231.461 111.894C233.868 111.276 234.228 107.789 233.652 105.874C233.588 105.67 233.456 105.606 233.256 105.682C232.464 105.99 231.687 106.322 230.927 106.679Z" stroke="#97949A" stroke-width="2"/>
<path d="M221.865 119.432C225.31 122.025 229.901 121.719 232.506 118.046C233.35 116.849 233.422 115.661 232.722 114.481C232.669 114.392 232.59 114.322 232.495 114.282C232.399 114.242 232.294 114.234 232.194 114.259C229.285 114.971 226.34 115.241 223.359 115.069C223.191 115.061 223.045 115.113 222.921 115.225C221.825 116.217 221.369 117.44 221.553 118.892C221.566 118.999 221.601 119.101 221.654 119.194C221.708 119.287 221.78 119.368 221.865 119.432Z" stroke="#97949A" stroke-width="2"/>
<path d="M21.1643 133.83C24.4892 135.314 27.5681 137.189 30.4008 139.453C30.4111 139.46 30.4231 139.464 30.4354 139.464C30.4477 139.465 30.4599 139.461 30.4705 139.455C30.4811 139.449 30.4897 139.44 30.4955 139.429C30.5012 139.418 30.5037 139.406 30.5028 139.393L28.9604 121.617C28.9541 121.553 28.9297 121.493 28.8902 121.444C28.8506 121.394 28.7975 121.357 28.7373 121.337C28.6772 121.316 28.6124 121.314 28.5508 121.329C28.4893 121.345 28.4335 121.378 28.3903 121.425L18.6856 132.138C18.6571 132.17 18.6359 132.207 18.6236 132.248C18.6113 132.289 18.6082 132.333 18.6145 132.375C18.6208 132.417 18.6364 132.456 18.6602 132.491C18.6839 132.526 18.7152 132.555 18.7517 132.576C19.5959 133.068 20.4001 133.486 21.1643 133.83Z" stroke="#97949A" stroke-width="2"/>
<path d="M149.899 121.461C149.859 121.424 149.809 121.4 149.755 121.392C149.701 121.383 149.646 121.391 149.596 121.414C149.547 121.438 149.505 121.475 149.477 121.522C149.449 121.568 149.435 121.622 149.437 121.677C150.053 141.274 151.62 160.797 154.137 180.247C154.143 180.305 154.168 180.359 154.206 180.403C154.245 180.447 154.295 180.478 154.352 180.493C154.409 180.507 154.468 180.504 154.523 180.484C154.578 180.463 154.625 180.427 154.659 180.379L160.27 172.643C160.39 172.481 160.443 172.279 160.42 172.079C158.728 157.463 157.507 142.809 156.759 128.117C156.729 127.528 156.315 126.658 155.835 126.298C153.87 124.854 151.892 123.241 149.899 121.461Z" stroke="#795B43" stroke-width="2"/>
<path d="M162.407 167.367C162.519 168.319 162.653 169.244 162.809 170.14C162.817 170.19 162.838 170.237 162.87 170.276C162.902 170.316 162.943 170.346 162.99 170.365C163.038 170.384 163.089 170.39 163.139 170.383C163.189 170.376 163.237 170.357 163.277 170.326C163.521 170.138 163.633 169.874 163.613 169.534C162.773 156.846 162.049 144.157 161.441 131.465C161.393 130.505 160.828 129.761 159.916 129.623C159.668 129.583 159.548 129.689 159.556 129.941C159.98 142.468 160.93 154.944 162.407 167.367Z" stroke="#738487" stroke-width="2"/>
<path d="M21.8188 153.071C25.2117 154.348 28.7007 154.728 32.2856 154.212C32.4777 154.188 32.5597 154.08 32.5317 153.888L31.4814 146.434C31.4698 146.347 31.427 146.268 31.3608 146.211C31.2947 146.154 31.2096 146.122 31.1213 146.121C27.6444 146.081 24.1534 146.147 20.6485 146.319C20.0483 146.347 19.4862 146.508 18.962 146.8C18.8713 146.851 18.7924 146.92 18.7304 147.002C18.6683 147.085 18.6246 147.18 18.6019 147.28C17.9897 150.101 19.062 152.031 21.8188 153.071Z" stroke="#97949A" stroke-width="2"/>
<path d="M16.2671 159.793C16.083 160.633 15.5769 160.939 14.7486 160.711C12.1439 160.003 3.42957 158.839 3.22552 163.172C3.2224 163.24 3.23666 163.307 3.26692 163.367C3.29717 163.428 3.34237 163.479 3.39807 163.517C3.45378 163.555 3.51807 163.577 3.58462 163.582C3.65117 163.586 3.7177 163.573 3.77767 163.544C8.16486 161.432 14.1065 162.758 18.2416 164.648C18.3983 164.719 18.5353 164.827 18.6405 164.963C18.7457 165.099 18.8159 165.259 18.845 165.429C18.874 165.598 18.861 165.772 18.8071 165.935C18.7531 166.099 18.6599 166.246 18.5357 166.365C17.9715 166.905 16.8432 166.905 16.063 166.575C12.7021 165.163 9.28116 164.741 5.80022 165.309C1.83314 165.957 5.7462 170.674 7.5707 171.418C7.76675 171.498 7.90879 171.442 7.99681 171.25C10.2474 166.401 13.8184 167.481 18.0555 169.06C18.1462 169.092 18.2446 169.095 18.3365 169.068C18.4283 169.041 18.5086 168.986 18.5657 168.91C19.598 167.565 23.277 163.058 25.1735 164.727C25.2864 164.826 25.376 164.949 25.4358 165.087C25.4957 165.224 25.5243 165.374 25.5197 165.524C25.5152 165.674 25.4774 165.822 25.4093 165.956C25.3411 166.09 25.2442 166.207 25.1255 166.299L21.1044 169.414C20.3762 169.978 20.4062 170.496 21.1944 170.968L22.1967 171.568C22.4861 171.741 22.7054 172.01 22.8163 172.328C22.9271 172.647 22.9223 172.994 22.8028 173.309C22.3587 174.479 21.2184 174.035 20.4262 173.471C18.7037 172.241 11.2257 167.601 10.4935 172.139C10.4655 172.315 10.5115 172.469 10.6315 172.601C13.1642 175.367 19.5679 180.325 23.523 178.116C26.976 176.188 30.4549 173.713 33.9598 170.692C34.7341 170.02 35.2022 169.15 34.9861 168.027C34.2899 164.41 33.6638 160.763 33.1076 157.086C33.0756 156.874 32.9516 156.774 32.7355 156.786C27.4001 157.056 23.403 157.164 19.2139 154.674C18.7097 154.374 18.3196 154.482 18.0435 154.998C17.2393 156.506 16.6472 158.105 16.2671 159.793Z" stroke="#97949A" stroke-width="2"/>
<path d="M78.66 219.419C79.4922 219.891 80.4125 220.163 81.4207 220.235C81.5173 220.243 81.6145 220.227 81.7042 220.19C81.7939 220.152 81.8737 220.094 81.9369 220.019C83.1852 218.543 82.7291 213.73 82.6031 211.821C82.261 206.762 82.1709 203.521 82.1229 199.308C82.1189 199.08 82.0029 198.956 81.7749 198.936L63.98 197.531C63.828 197.519 63.754 197.587 63.758 197.735C63.938 204.117 64.4482 210.471 65.2884 216.796C65.4644 218.129 65.8745 219.327 66.5187 220.391C66.5653 220.469 66.6285 220.535 66.7039 220.585C66.7792 220.636 66.8647 220.669 66.9542 220.682C67.0437 220.695 67.1351 220.688 67.2217 220.662C67.3083 220.635 67.388 220.59 67.455 220.529C70.8039 217.441 74.5389 217.07 78.66 219.419Z" stroke="#855053" stroke-width="2"/>
<path d="M101.01 230.816C103.297 231.14 105.289 230.63 107.546 230.216C107.742 230.18 107.834 230.062 107.822 229.862C107.262 219.659 107.174 209.451 107.558 199.236C107.566 199.016 107.462 198.91 107.246 198.918L96.8628 199.308C96.8031 199.31 96.7446 199.326 96.6912 199.352C96.6378 199.379 96.5908 199.417 96.5533 199.464C96.5158 199.511 96.4887 199.565 96.4737 199.623C96.4588 199.681 96.4564 199.741 96.4667 199.8C98.2472 209.955 99.6336 220.161 100.626 230.42C100.65 230.652 100.778 230.784 101.01 230.816Z" stroke="#97949A" stroke-width="2"/>
<path d="M107.84 236.98C110.649 237.406 120.81 238.252 120.576 233.241C120.567 233.063 120.504 232.892 120.394 232.751C120.285 232.61 120.135 232.506 119.965 232.453C119.795 232.4 119.613 232.4 119.443 232.454C119.273 232.508 119.123 232.613 119.015 232.755C116.731 235.78 113.818 236.558 110.277 235.09C109.154 234.627 108.206 233.745 107.216 232.977C107.17 232.942 107.113 232.922 107.055 232.919C106.997 232.917 106.939 232.932 106.891 232.963C106.842 232.994 106.804 233.039 106.783 233.092C106.762 233.145 106.758 233.203 106.772 233.259L107.54 236.704C107.576 236.864 107.676 236.956 107.84 236.98Z" stroke="#97949A" stroke-width="2"/>
<path d="M101.562 234.075C98.1294 237.214 92.932 237.196 90.1292 233.259C90.0525 233.15 89.9479 233.064 89.8264 233.009C89.7049 232.954 89.5709 232.933 89.4384 232.948C89.306 232.962 89.1799 233.012 89.0733 233.093C88.9668 233.173 88.8838 233.28 88.8328 233.403C88.0406 235.336 90.5733 236.884 92.0797 237.304C94.8565 238.08 97.6532 238.15 100.47 237.514C101.29 237.33 101.98 237.512 102.541 238.06C102.671 238.188 102.767 238.347 102.819 238.522C102.871 238.697 102.876 238.882 102.835 239.06C102.794 239.238 102.708 239.403 102.585 239.538C102.462 239.673 102.306 239.774 102.132 239.831C99.6518 240.663 97.1191 240.895 94.5344 240.527C94.4732 240.516 94.41 240.525 94.355 240.555C94.3 240.584 94.2565 240.63 94.2315 240.687C94.2065 240.744 94.2014 240.808 94.2172 240.868C94.233 240.929 94.2686 240.982 94.3183 241.019L96.4669 242.778C96.623 242.902 96.731 243.06 96.791 243.252C96.9991 243.916 96.863 244.51 96.3829 245.034C96.2776 245.148 96.1495 245.239 96.007 245.3C95.8644 245.361 95.7105 245.392 95.5553 245.389C95.4002 245.387 95.2472 245.352 95.1065 245.287C94.9657 245.221 94.8403 245.127 94.7384 245.01C86.7203 235.846 72.3944 237.688 68.1813 249.607C68.1172 249.791 68.1672 249.94 68.3313 250.052C76.1814 255.477 85.9341 255.489 95.2066 254.151C98.0033 253.747 100.83 253.324 103.687 252.884C103.895 252.856 104.037 252.744 104.113 252.548C105.841 247.987 105.517 243.81 104.239 239.189C103.789 237.556 105.199 235.606 104.077 234.249C103.927 234.068 103.741 233.919 103.531 233.811C103.321 233.704 103.092 233.64 102.857 233.623C102.622 233.607 102.386 233.639 102.163 233.716C101.941 233.794 101.736 233.916 101.562 234.075Z" stroke="#97949A" stroke-width="2"/>
<path d="M112.563 244.17C111.555 242.88 114.208 241.043 115.012 240.407C115.061 240.369 115.096 240.317 115.112 240.257C115.129 240.198 115.125 240.134 115.102 240.077C115.079 240.02 115.037 239.972 114.984 239.94C114.931 239.909 114.869 239.896 114.808 239.903C112.347 240.167 109.912 240.015 107.504 239.447C107.212 239.379 107.106 239.489 107.186 239.777C108.338 243.914 108.29 248.037 107.042 252.146C106.982 252.35 107.056 252.474 107.264 252.518C118.439 255.051 130.304 255.885 140.573 249.944C140.764 249.833 140.911 249.658 140.986 249.45C141.062 249.241 141.062 249.013 140.987 248.803C136.792 237.262 122.676 235.456 114.658 244.254C114.523 244.402 114.358 244.518 114.174 244.595C113.989 244.673 113.79 244.708 113.591 244.7C113.391 244.692 113.196 244.641 113.018 244.549C112.841 244.457 112.685 244.328 112.563 244.17Z" stroke="#97949A" stroke-width="2"/>
<path d="M141.743 251.96C132.897 258.442 117.34 257.439 107.234 255.117C107.164 255.096 107.089 255.104 107.024 255.138C106.96 255.171 106.911 255.229 106.887 255.298C106.864 255.367 106.868 255.442 106.899 255.508C106.93 255.574 106.986 255.625 107.054 255.651C116.224 259.936 129.392 258.238 138.616 254.997C139.933 254.537 141.153 253.728 142.277 252.572C142.347 252.498 142.387 252.401 142.389 252.3C142.391 252.199 142.355 252.1 142.288 252.024C142.221 251.947 142.129 251.898 142.028 251.887C141.927 251.875 141.825 251.901 141.743 251.96Z" stroke="#97949A" stroke-width="2"/>
<path d="M102.582 255.987C102.621 255.968 102.652 255.936 102.67 255.895C102.688 255.855 102.69 255.81 102.678 255.769C102.665 255.728 102.638 255.693 102.602 255.671C102.566 255.65 102.522 255.642 102.48 255.651C90.765 257.836 78.1856 259.186 67.4367 252.428C67.3917 252.4 67.3404 252.385 67.2876 252.382C67.2349 252.38 67.1823 252.391 67.1349 252.414C67.0875 252.437 67.0469 252.473 67.0167 252.516C66.9866 252.559 66.968 252.61 66.9626 252.662C66.9146 253.09 67.1126 253.45 67.5568 253.743C69.3893 254.943 71.3538 255.851 73.4503 256.467C82.5188 259.126 93.7359 259.996 102.582 255.987Z" stroke="#97949A" stroke-width="2"/>
<path d="M204.04 35.2774C204.766 33.4829 205.667 32.1325 207.335 30.5001C207.363 30.473 207.384 30.4406 207.399 30.4049C207.414 30.3692 207.421 30.3311 207.421 30.2928C207.42 30.2545 207.412 30.2169 207.396 30.1824C207.38 30.1478 207.357 30.1171 207.329 30.092L202.75 25.9088C202.719 25.8819 202.683 25.8626 202.644 25.8527C202.604 25.8428 202.563 25.8426 202.524 25.852C202.484 25.8614 202.448 25.8802 202.417 25.9069C202.386 25.9335 202.363 25.9671 202.348 26.0049C201.611 27.9694 200.537 29.7259 199.125 31.2743C198.949 31.4703 198.975 31.6344 199.203 31.7664C200.847 32.7347 202.308 33.931 203.584 35.3554C203.616 35.3897 203.655 35.4157 203.7 35.4309C203.744 35.4461 203.791 35.4499 203.836 35.4421C203.882 35.4343 203.925 35.4151 203.96 35.3863C203.996 35.3575 204.023 35.32 204.04 35.2774Z" stroke="#97949A" stroke-width="2"/>
<path d="M105.817 71.029C97.8772 73.2676 93.2019 84.3826 92.6378 91.7286C92.1216 98.3484 93.6041 109.283 102.282 109.968C108.516 110.456 112.237 107.961 113.445 102.483C114.562 97.4361 112.017 92.5748 114.166 87.5214C116.098 82.9602 116.872 74.1978 111.561 71.5691C109.712 70.6529 107.798 70.4728 105.817 71.029Z" stroke="#738487" stroke-width="2"/>
<path d="M62.2453 73.2616C54.6412 79.0892 51.3643 89.1899 52.6007 98.4204C53.5189 105.28 56.7118 110.958 64.3519 110.55C69.0872 110.298 72.334 107.411 73.3123 102.874C73.5163 101.929 73.5123 100.135 73.3003 97.4902C73.0362 94.1113 72.8682 90.9364 74.1465 87.6955C75.3228 84.6987 75.6729 81.4718 75.1968 78.0149C74.2605 71.2211 67.2747 69.4086 62.2453 73.2616Z" stroke="#738487" stroke-width="2"/>
<path d="M73.9549 109.691C75.1192 107.591 77.0217 107.651 78.9062 107.543C79.037 107.535 79.1649 107.502 79.2822 107.443C79.3995 107.385 79.5037 107.304 79.5884 107.205C79.6732 107.105 79.7368 106.99 79.7753 106.865C79.8138 106.741 79.8264 106.61 79.8124 106.481C79.3863 102.604 68.6674 106.379 71.5182 114.001C71.6379 114.324 71.8768 114.589 72.1859 114.742C72.4951 114.895 72.851 114.924 73.1806 114.823C73.9789 114.577 73.9969 113.635 73.7868 112.896C73.4267 111.616 73.4827 110.548 73.9549 109.691Z" stroke="#738487" stroke-width="2"/>
<path d="M99.3775 113.965C95.6244 115.869 91.4693 117.061 86.9121 117.542C77.6756 118.52 64.0159 119.84 63.7518 131.933C63.5298 141.866 74.6088 145.869 82.5369 146.637C91.1852 147.472 100.176 145.533 108.26 141.632C116.226 137.783 121.129 131.629 122.97 123.171C123.378 121.299 123.206 119.406 122.454 117.493C120.539 112.62 115.006 110.202 110.036 110.274C106.087 110.334 103.062 112.098 99.3775 113.965Z" stroke="#738487" stroke-width="2"/>
<path d="M192.697 63.485C189.732 59.974 188.13 56.5531 186.545 52.28C186.453 52.0319 186.325 52.0139 186.161 52.2259C183.432 55.7469 180.109 58.5677 176.192 60.6882C176.148 60.7122 176.109 60.7461 176.08 60.7873C176.051 60.8284 176.031 60.8758 176.023 60.9256C176.015 60.9755 176.019 61.0266 176.033 61.0749C176.048 61.1232 176.074 61.1675 176.108 61.2044C178.833 64.1372 180.9 67.4821 182.308 71.2391C182.324 71.2821 182.351 71.3201 182.386 71.3493C182.421 71.3785 182.464 71.3977 182.509 71.405C182.554 71.4123 182.6 71.4075 182.643 71.391C182.686 71.3745 182.724 71.3469 182.752 71.3111C185.397 68.0022 188.676 65.5416 192.589 63.9291C192.63 63.9122 192.667 63.8858 192.696 63.852C192.725 63.8182 192.746 63.778 192.756 63.7346C192.767 63.6913 192.767 63.6461 192.756 63.6027C192.746 63.5593 192.726 63.5189 192.697 63.485Z" stroke="#97949A" stroke-width="2"/>
<path d="M99.4679 102.412C96.215 92.4489 99.4079 80.2836 107.918 73.8199C107.967 73.7808 108.001 73.7269 108.015 73.6663C108.03 73.6058 108.024 73.5422 107.999 73.4853C107.974 73.4285 107.93 73.3816 107.875 73.352C107.821 73.3224 107.758 73.3118 107.696 73.3217C103.333 74.192 99.984 78.1291 98.0575 81.9101C95.1367 87.6356 94.3505 93.5652 95.6989 99.6989C96.5331 103.51 98.1955 106.337 101.917 107.471C101.98 107.491 102.047 107.491 102.11 107.469C102.173 107.448 102.227 107.406 102.264 107.352C102.301 107.297 102.319 107.232 102.316 107.165C102.313 107.099 102.289 107.036 102.247 106.985C101.124 105.586 100.032 104.134 99.4679 102.412Z" stroke="#97949A" stroke-width="2"/>
<path d="M112.503 83.7584L105.68 86.5312C105.533 86.5903 105.409 86.6962 105.328 86.8327C105.247 86.9691 105.212 87.1288 105.229 87.2874C105.285 87.7795 105.563 88.0956 106.064 88.2356C107.582 88.6677 108.95 89.1659 110.589 89.2499C110.66 89.253 110.731 89.2336 110.789 89.1946C110.847 89.1557 110.891 89.0992 110.913 89.0338L112.665 83.9144C112.673 83.8913 112.674 83.8664 112.668 83.8428C112.662 83.8191 112.65 83.7977 112.633 83.7812C112.615 83.7647 112.594 83.7537 112.571 83.7497C112.548 83.7456 112.525 83.7487 112.503 83.7584Z" stroke="#97949A" stroke-width="2"/>
<path d="M61.9817 107.429C54.3776 97.7782 58.3327 81.3398 67.8753 74.3119C67.9351 74.2694 67.9784 74.2076 67.9979 74.1369C68.0174 74.0662 68.0118 73.9909 67.9821 73.9239C67.9525 73.8568 67.9006 73.802 67.8351 73.7688C67.7697 73.7356 67.6949 73.726 67.6232 73.7417C63.032 74.666 59.407 79.0172 57.5045 83.0563C54.3476 89.7601 52.4391 104.422 61.5556 107.999C61.6311 108.031 61.7153 108.037 61.7947 108.016C61.874 107.995 61.9439 107.948 61.9931 107.882C62.0423 107.816 62.0679 107.735 62.0659 107.653C62.0638 107.571 62.0341 107.492 61.9817 107.429Z" stroke="#97949A" stroke-width="2"/>
<path d="M72.2201 84.2926L65.1562 87.1854C65.0635 87.224 64.9835 87.2879 64.9255 87.3698C64.8674 87.4517 64.8336 87.5483 64.828 87.6486C64.8224 87.7488 64.8451 87.8486 64.8936 87.9366C64.9421 88.0245 65.0144 88.0969 65.1022 88.1457C66.7186 89.0299 68.4331 89.568 70.2455 89.7601C70.3494 89.7725 70.4543 89.7489 70.5429 89.6932C70.6314 89.6375 70.698 89.553 70.7317 89.454L72.4661 84.5267C72.4781 84.4928 72.48 84.4562 72.4716 84.4213C72.4632 84.3864 72.4449 84.3547 72.4189 84.3299C72.3929 84.3052 72.3603 84.2885 72.325 84.2819C72.2897 84.2753 72.2533 84.279 72.2201 84.2926Z" stroke="#97949A" stroke-width="2"/>
<path d="M93.4482 121.677C93.4889 121.477 93.5889 121.294 93.7352 121.152C93.8814 121.01 94.067 120.915 94.2679 120.88C94.4688 120.845 94.6755 120.872 94.8612 120.956C95.0468 121.04 95.2028 121.178 95.3087 121.353C98.4655 126.556 105.998 123.903 105.547 117.812C105.532 117.588 105.581 117.365 105.689 117.17C105.797 116.974 105.96 116.813 106.157 116.708C106.355 116.603 106.579 116.557 106.802 116.576C107.025 116.595 107.237 116.678 107.414 116.815C108.158 117.398 108.89 118.244 109.863 118.556C112.807 119.484 115.038 118.496 116.554 115.591C116.613 115.479 116.648 115.357 116.658 115.231C116.668 115.105 116.653 114.979 116.613 114.859C116.574 114.739 116.51 114.628 116.427 114.534C116.343 114.439 116.242 114.362 116.128 114.307C111.621 112.164 107.408 112.638 103.105 115.021C99.4918 117.022 95.6808 118.476 91.6717 119.384C90.9915 119.54 88.5528 119.858 84.3557 120.338C80.5667 120.775 76.8797 121.643 73.2947 122.943C71.9323 123.435 65.9067 126.676 68.0733 128.729C71.6222 132.094 74.9291 132.14 77.994 128.867C78.9722 127.828 79.3023 126.37 79.6384 125.032C79.6969 124.802 79.8235 124.594 80.0016 124.437C80.1796 124.28 80.4007 124.18 80.6359 124.151C80.871 124.122 81.1091 124.164 81.3189 124.273C81.5287 124.382 81.7002 124.553 81.811 124.762C83.5635 128.051 86.3002 129.923 90.0692 128.381C92.848 127.24 92.902 124.342 93.4482 121.677Z" stroke="#97949A" stroke-width="2"/>
<path d="M95.4585 125.776C92.7758 132.048 86.8102 133.278 81.5888 128.981C81.554 128.952 81.5135 128.93 81.47 128.917C81.4264 128.904 81.3807 128.9 81.3356 128.906C81.2906 128.912 81.2471 128.927 81.2081 128.95C81.169 128.973 81.1352 129.004 81.1086 129.041C80.2744 130.187 79.4822 131.375 78.3059 132.138C74.2368 134.786 70.3717 134.358 66.7107 130.853C66.6707 130.816 66.6207 130.791 66.5667 130.781C66.5128 130.772 66.457 130.778 66.406 130.799C66.355 130.821 66.3108 130.856 66.2787 130.902C66.2466 130.948 66.2278 131.002 66.2246 131.057C66.0646 135.659 68.0891 138.963 72.2983 140.972C77.4757 143.441 82.6151 144.535 87.7164 144.255C95.9867 143.799 104.935 141.512 111.303 136.975C116.164 133.518 123.654 122.937 119.279 116.665C119.257 116.633 119.228 116.607 119.193 116.589C119.158 116.572 119.119 116.564 119.08 116.566C119.041 116.569 119.003 116.581 118.971 116.603C118.938 116.625 118.912 116.654 118.895 116.689C116.646 121.043 113.141 122.419 108.38 120.818C108.152 120.742 107.988 120.814 107.888 121.035C105.511 126.352 101.51 127.872 95.8846 125.596C95.6846 125.516 95.5426 125.576 95.4585 125.776Z" stroke="#855053" stroke-width="2"/>
<path d="M175.286 4.27899C176.054 2.94262 176.823 1.91635 177.591 1.20015C177.667 1.12997 177.756 1.07615 177.853 1.04207C177.95 1.00799 178.053 0.994384 178.155 1.0021C179.139 1.07412 179.85 1.48823 180.286 2.24443C182.09 5.38929 184.255 8.06201 186.779 10.2626C187.95 11.2889 188.652 12.7233 187.206 13.8156C184.341 15.9802 182.112 18.3788 180.52 21.0115C179.289 23.0521 177.585 23.6042 176.157 21.4136C174.504 18.8889 172.516 16.6703 170.191 14.7578C168.823 13.6415 167.958 12.2191 169.555 10.8568C172.115 8.67618 174.026 6.48358 175.286 4.27899ZM177.627 19.4151C177.727 19.5831 177.833 19.7172 177.945 19.8172C177.98 19.8474 178.022 19.8695 178.067 19.8818C178.112 19.8941 178.159 19.8963 178.204 19.8883C178.25 19.8802 178.293 19.8621 178.33 19.8353C178.367 19.8084 178.398 19.7735 178.419 19.7332C179.996 16.7684 182.17 14.3417 184.943 12.4532C184.983 12.426 185.016 12.3899 185.04 12.3477C185.063 12.3055 185.077 12.2584 185.079 12.2101C185.082 12.1618 185.073 12.1136 185.053 12.0694C185.034 12.0251 185.004 11.986 184.967 11.9551C182.334 9.81449 180.224 7.24979 178.635 4.26098C178.612 4.21754 178.577 4.18113 178.534 4.15571C178.492 4.1303 178.444 4.11686 178.395 4.11686C178.346 4.11686 178.298 4.1303 178.257 4.15571C178.216 4.18113 178.183 4.21754 178.161 4.26098C176.589 7.38583 174.444 10.0525 171.727 12.2611C171.674 12.3044 171.632 12.3592 171.603 12.4213C171.574 12.4834 171.56 12.5511 171.562 12.6191C171.564 12.6871 171.581 12.7535 171.613 12.8132C171.645 12.873 171.69 12.9243 171.745 12.9633C174.142 14.6958 176.103 16.8464 177.627 19.4151Z" fill="#171625"/>
<path d="M86.8702 236.8C85.5859 233.391 86.3241 230.462 90.4172 229.946C90.9173 229.886 91.1394 229.606 91.0834 229.106C90.0151 219.347 88.6547 209.733 87.0023 200.262C86.7982 199.092 86.126 198.714 85.0097 199.11C84.7857 199.19 84.6736 199.348 84.6736 199.584C84.6576 204.865 84.8737 210.051 85.3218 215.14C85.5859 218.171 84.9197 222.768 81.2107 222.816C77.4417 222.864 74.843 218.603 70.8219 221.28C69.4835 222.174 68.1032 223.531 66.5007 223.32C63.674 222.948 62.7377 217.595 62.5096 215.29C61.9135 209.373 61.4754 203.439 61.1953 197.489C61.1873 197.285 61.0813 197.171 60.8772 197.147C56.408 196.631 51.9768 195.983 47.5836 195.203C43.3284 194.447 41.1018 194.501 40.0276 190.234C38.5752 184.44 37.2108 178.626 35.9344 172.793C35.8944 172.609 35.8024 172.577 35.6584 172.697C32.5415 175.353 29.2306 177.736 25.7257 179.845C19.7241 183.458 12.9242 178.794 8.66906 174.149C8.53759 174.006 8.35818 173.916 8.16492 173.897C3.91577 173.447 2.42736 170.974 1.73117 167.079C1.01698 163.082 -0.357391 160.051 4.60595 158.185C7.56676 157.073 10.6156 156.987 13.7524 157.927C13.7984 157.941 13.8469 157.946 13.8948 157.94C13.9428 157.935 13.9893 157.92 14.0314 157.896C14.0735 157.871 14.1105 157.839 14.1399 157.8C14.1693 157.761 14.1906 157.716 14.2026 157.669C14.6507 155.872 15.4229 154.23 16.5192 152.741C16.5833 152.653 16.6278 152.551 16.6495 152.443C16.6713 152.336 16.6698 152.225 16.6452 152.117C16.4052 151.133 15.913 150.149 15.781 149.29C15.3169 146.41 16.5212 144.627 19.394 143.943C19.466 143.927 19.5311 143.888 19.5803 143.833C19.6294 143.778 19.6601 143.709 19.6681 143.636C19.676 143.562 19.6608 143.488 19.6245 143.424C19.5883 143.359 19.5329 143.308 19.466 143.277C16.2091 141.692 12.9742 140.338 9.76135 139.214C5.74626 137.803 3.84375 134.394 7.20466 130.715C14.1545 123.109 21.1004 115.485 28.0423 107.843C28.3546 107.496 28.524 107.044 28.5164 106.577C28.0483 85.9512 29.3807 65.3237 32.5135 44.6941C32.6816 43.5858 33.3577 42.6795 34.5421 41.9753C39.2473 39.1786 43.9826 36.4358 48.7479 33.7471C49.7262 33.195 51.1306 32.6488 52.2349 32.6368C65.2744 32.4928 78.3119 32.3367 91.3475 32.1687C91.5795 32.1647 91.7096 32.0466 91.7376 31.8146C92.6418 24.6166 94.3463 18.1749 96.851 12.4893C97.8152 10.3087 99.4537 8.55227 101.766 7.21991C101.926 7.13189 102.09 7.11988 102.258 7.1839C104.323 7.98812 104.161 10.2807 104.443 11.9672C104.463 12.0817 104.509 12.19 104.579 12.283C104.648 12.376 104.739 12.4511 104.843 12.5021C104.948 12.5531 105.063 12.5786 105.179 12.5764C105.295 12.5741 105.409 12.5443 105.511 12.4893C110.345 9.87263 115.148 7.23592 119.921 4.5792C121.478 3.71096 122.978 3.28485 124.422 3.30085C124.599 3.30334 124.773 3.34772 124.929 3.4303C125.085 3.51287 125.219 3.63127 125.32 3.77564C125.421 3.92002 125.486 4.08621 125.509 4.26041C125.533 4.43461 125.514 4.6118 125.455 4.77725C122.374 13.5436 119.749 22.444 117.581 31.4785C117.521 31.7186 117.617 31.8366 117.869 31.8326C131.776 31.6245 145.656 31.4345 159.508 31.2624C163.511 31.2084 166.458 32.1627 166.086 36.7419C163.853 64.5374 163.107 92.363 163.847 120.219C163.853 120.424 163.905 120.625 164.001 120.807C164.097 120.989 164.233 121.147 164.399 121.269L173.714 128.075C173.874 128.19 174.066 128.254 174.262 128.258C174.459 128.261 174.651 128.203 174.812 128.093L191.173 116.954C191.353 116.83 191.395 116.67 191.299 116.474C188.928 111.78 188.22 103.09 196.052 103.234C196.992 103.25 197.936 103.3 198.885 103.384C199.085 103.4 199.257 103.338 199.401 103.198C201.249 101.397 202.616 99.3309 203.5 96.9982C203.88 96.002 204.056 94.7336 204.028 93.1932C204 91.5007 204.01 89.2921 204.058 86.5674C204.142 82.1202 209.099 80.5838 212.238 82.4983C215.527 84.5149 216.685 89.6402 216.223 93.3793C216.217 93.4272 216.223 93.476 216.241 93.5211C216.258 93.5662 216.287 93.6062 216.324 93.6373C216.361 93.6684 216.405 93.6896 216.453 93.6991C216.5 93.7085 216.549 93.7059 216.595 93.6913C223.533 91.6028 237.787 92.2029 235.428 103.396C235.378 103.629 235.408 103.873 235.513 104.086C236.949 107.083 236.689 109.894 234.732 112.518C234.596 112.702 234.586 112.895 234.702 113.095C238.567 119.516 229.781 123.886 225.238 125.812C219.312 128.325 213.09 129.131 206.573 128.231C206.361 128.203 206.215 128.289 206.135 128.489C203.578 134.886 196.058 132.24 193.939 127.306C193.9 127.215 193.841 127.133 193.766 127.066C193.691 127 193.603 126.952 193.507 126.924C193.411 126.896 193.31 126.891 193.211 126.907C193.113 126.923 193.019 126.961 192.937 127.018C187.664 130.679 182.45 134.246 177.297 137.719C174.944 139.304 173.318 139.118 171.115 137.605C168.882 136.081 166.704 134.55 164.579 133.014C164.535 132.982 164.484 132.964 164.43 132.96C164.376 132.957 164.322 132.969 164.274 132.994C164.227 133.02 164.187 133.058 164.161 133.105C164.134 133.152 164.121 133.206 164.123 133.26C164.643 145.195 165.353 157.135 166.254 169.078C166.47 172.019 163.169 172.997 161.644 175.079C159.728 177.708 157.817 180.337 155.913 182.966C155.439 183.62 155.133 184.256 155.193 185.12C155.517 189.525 155.475 191.938 150.71 192.994C139.707 195.423 128.592 197.129 117.365 198.114C117.144 198.13 117.028 198.248 117.016 198.468C116.528 208.915 116.62 219.357 117.292 229.796C117.296 229.849 117.315 229.9 117.346 229.943C117.377 229.987 117.42 230.02 117.469 230.041C117.518 230.061 117.572 230.068 117.624 230.06C117.677 230.051 117.726 230.029 117.767 229.994C119.441 228.578 120.929 229.658 122.16 230.949C123.798 232.665 123.138 234.105 122.58 236.176C122.512 236.412 122.6 236.508 122.844 236.464C131.13 235.044 137.418 237.67 141.707 244.344C142.745 245.965 145.032 250.874 144.666 252.71C143.916 256.533 136.948 258.16 133.641 259C124.765 261.263 113.758 261.833 105.331 257.506C105.243 257.462 105.145 257.441 105.046 257.445C104.947 257.449 104.851 257.478 104.767 257.53C96.5929 262.523 84.7217 261.941 75.8032 259.534C72.5744 258.664 65.2884 257.242 64.6822 253.101C64.3882 251.072 66.7408 246.097 68.0311 244.236C72.4643 237.87 78.674 235.474 86.6602 237.046C86.8803 237.09 86.9503 237.008 86.8702 236.8ZM101.232 10.5208C99.6237 12.7234 98.4414 14.902 97.5832 17.6387C95.2865 24.9687 93.7661 32.4828 93.0219 40.1808C93.0059 40.3489 93.0839 40.4309 93.256 40.4269L113.86 40.1988C114.032 40.1988 114.122 40.1128 114.13 39.9408C114.278 36.6479 114.472 34.4273 114.712 33.279C116.576 24.3245 118.999 15.5742 121.98 7.02786C122 6.96936 122.001 6.90623 121.985 6.84676C121.968 6.7873 121.934 6.73427 121.886 6.69467C121.839 6.65506 121.78 6.63072 121.719 6.62485C121.658 6.61897 121.596 6.63184 121.542 6.66176C116.844 9.20645 112.179 11.7351 107.546 14.2478C106.778 14.6639 105.829 14.904 104.701 14.968C102.222 15.106 101.88 12.3333 101.604 10.6108C101.597 10.57 101.578 10.532 101.549 10.5017C101.521 10.4713 101.485 10.4499 101.445 10.4403C101.405 10.4306 101.363 10.4332 101.326 10.4475C101.288 10.4618 101.255 10.4873 101.232 10.5208ZM161.002 115.237C160.578 87.3296 161.414 61.0665 163.511 36.4478C163.667 34.6653 163.277 33.8251 161.332 33.8491C146.881 34.0012 132.429 34.1992 117.977 34.4433C117.353 34.4493 116.866 34.7914 116.89 35.4396C116.894 35.5276 116.931 35.611 116.995 35.6716C117.059 35.7322 117.144 35.7653 117.232 35.7636C130.216 35.6116 143.183 35.5996 156.135 35.7276C157.579 35.7436 158.768 35.8797 159.7 36.1357C159.897 36.1901 160.068 36.3138 160.18 36.4838C160.516 37.008 160.664 37.5441 160.624 38.0923C158.812 63.9473 157.731 90.0544 158.944 115.957C159.004 117.19 159.596 117.948 160.72 118.232C160.94 118.288 161.06 118.204 161.08 117.98C161.176 117.056 161.008 115.903 161.002 115.237ZM91.0831 35.1801C91.0826 35.091 91.0467 35.0057 90.9834 34.943C90.92 34.8803 90.8344 34.8454 90.7453 34.8458L61.0976 35.001C61.0535 35.0012 61.0098 35.0102 60.9691 35.0273C60.9285 35.0444 60.8915 35.0693 60.8605 35.1007C60.8294 35.1321 60.8049 35.1693 60.7882 35.2101C60.7715 35.251 60.7631 35.2948 60.7633 35.3389L60.7635 35.3629C60.7639 35.452 60.7998 35.5373 60.8632 35.6C60.9265 35.6627 61.0122 35.6977 61.1013 35.6972L90.7489 35.542C90.7931 35.5418 90.8367 35.5329 90.8774 35.5158C90.9181 35.4986 90.955 35.4737 90.9861 35.4423C91.0171 35.4109 91.0417 35.3738 91.0584 35.3329C91.075 35.292 91.0835 35.2483 91.0833 35.2041L91.0831 35.1801ZM52.4895 35.214C52.3873 35.0341 51.5706 35.2698 50.2193 35.8692C48.868 36.4686 47.0926 37.3826 45.2837 38.4102C43.4749 39.4377 41.7807 40.4947 40.5739 41.3485C39.3671 42.2023 38.7465 42.7831 38.8487 42.9631C38.9509 43.143 39.7675 42.9073 41.1189 42.3079C42.4702 41.7085 44.2456 40.7945 46.0544 39.7669C47.8633 38.7394 49.5574 37.6824 50.7642 36.8286C51.971 35.9748 52.5916 35.394 52.4895 35.214ZM116.074 42.4735C108.028 42.7415 99.9738 42.8436 91.9116 42.7795C89.2649 42.7615 90.6213 40.0788 90.5793 38.4584C90.5753 38.2583 90.4732 38.1583 90.2732 38.1583C78.722 38.1423 67.1629 38.0743 55.5958 37.9542C54.5635 37.9422 53.6212 38.1443 52.769 38.5604C50.3283 39.7527 47.9897 41.1591 45.7531 42.7795C45.481 42.9756 45.513 43.0876 45.8491 43.1156C80.4825 45.9724 115.172 47.0327 149.917 46.2965C150.012 46.2945 150.105 46.2726 150.191 46.2323C150.277 46.192 150.353 46.1341 150.415 46.0624L156.693 38.7705C156.741 38.7166 156.772 38.6501 156.782 38.579C156.793 38.5079 156.782 38.4353 156.753 38.3699C156.723 38.3045 156.675 38.2492 156.614 38.2106C156.553 38.172 156.483 38.1517 156.411 38.1523L116.92 38.2243C116.672 38.2283 116.548 38.3523 116.548 38.5964L116.524 42.0173C116.52 42.3134 116.37 42.4655 116.074 42.4735ZM149.173 85.127C148.885 95.6619 148.933 106.179 149.317 116.678C149.32 116.737 149.341 116.793 149.377 116.84C149.413 116.887 149.462 116.921 149.519 116.939C149.575 116.957 149.635 116.957 149.692 116.939C149.748 116.921 149.797 116.886 149.833 116.84C151.314 114.875 153.322 114.113 155.859 114.553C155.914 114.563 155.97 114.56 156.023 114.546C156.077 114.531 156.126 114.505 156.168 114.469C156.21 114.432 156.244 114.387 156.266 114.336C156.288 114.285 156.299 114.23 156.297 114.175C155.637 90.3684 156.157 66.588 157.857 42.8336C157.865 42.7175 157.901 42.5635 157.965 42.3714C158.114 41.9273 157.945 41.6973 157.461 41.6813C157.397 41.6811 157.334 41.695 157.276 41.722C157.218 41.749 157.166 41.7883 157.125 41.8373C155.393 43.9699 153.614 46.0384 151.79 48.043C151.358 48.5171 151.322 48.9132 151.268 49.5014C150.195 61.3566 149.497 73.2318 149.173 85.127ZM146.905 82.2762C147.089 75.0463 147.745 63.9613 148.873 49.0212C148.889 48.8212 148.795 48.7232 148.591 48.7272C111.541 49.3193 74.5509 48.081 37.6209 45.0122C36.9127 44.9521 36.4566 44.7061 35.8324 44.55C35.7328 44.5246 35.6288 44.5204 35.5275 44.5377C35.4261 44.5551 35.3295 44.5936 35.244 44.6508C35.1585 44.708 35.086 44.7826 35.0312 44.8696C34.9765 44.9567 34.9407 45.0544 34.9262 45.1562C27.8282 94.1295 30.3609 142.373 42.5242 189.885C42.8663 191.212 43.4785 191.992 44.7928 192.232C80.1624 198.586 115.414 198.034 150.548 190.576C152.248 190.216 152.95 189.101 152.654 187.233C151.35 179.046 150.271 170.194 149.419 160.675C147.079 134.592 146.24 108.459 146.905 82.2762ZM213.649 95.8459C213.477 95.2498 213.469 94.4495 213.625 93.4453C214.135 90.1144 212.64 81.7361 207.215 84.8449C207.052 84.9379 206.929 85.0872 206.867 85.2651C206.147 87.3956 206.591 91.5127 206.579 93.8654C206.575 95.5098 206.341 96.9022 205.876 98.0425C204.86 100.543 203.348 102.746 201.339 104.65C201.313 104.674 201.293 104.704 201.278 104.736C201.264 104.769 201.257 104.804 201.257 104.839C201.257 104.875 201.264 104.91 201.278 104.942C201.293 104.975 201.313 105.004 201.339 105.028C205.75 109.019 206.657 116.263 206.039 121.893C206.015 122.109 205.894 122.223 205.678 122.235L204.646 122.295C203.914 122.335 203.578 121.991 203.638 121.263C204.006 116.674 203.186 112.486 201.177 108.701C199.941 106.369 197.938 105.411 195.17 105.827C193.615 106.055 192.697 106.667 192.445 108.323C192.085 110.712 192.235 113.497 193.999 115.357C197.06 118.592 196.976 121.743 196.394 125.992C196.367 126.195 196.402 126.401 196.496 126.58C197.128 127.781 198.034 128.659 199.215 129.215C201.531 130.307 203.866 128.963 203.956 126.406C203.962 126.251 204.001 126.099 204.071 125.961C204.142 125.822 204.241 125.7 204.363 125.603C204.485 125.506 204.626 125.437 204.778 125.399C204.929 125.362 205.087 125.357 205.24 125.386C211.698 126.614 217.986 126.062 224.103 123.729C224.138 123.714 224.168 123.689 224.188 123.657C224.207 123.625 224.217 123.587 224.215 123.549C224.213 123.511 224.2 123.475 224.177 123.445C224.153 123.415 224.122 123.393 224.085 123.381C219.446 122.025 217.382 119.03 220.436 114.427C220.56 114.239 220.53 114.081 220.346 113.953C217.88 112.218 218.006 110.238 218.156 107.507C218.163 107.364 218.119 107.223 218.03 107.111L216.283 104.962C216.127 104.77 216.035 104.798 216.007 105.046C215.935 105.687 215.837 106.677 215.713 108.017C215.309 112.43 213.174 115.835 209.309 118.232C209.225 118.285 209.128 118.315 209.028 118.319C208.928 118.323 208.829 118.302 208.739 118.256C208.127 117.944 207.755 117.438 207.623 116.738C207.607 116.658 207.616 116.576 207.648 116.501C207.68 116.426 207.734 116.362 207.803 116.317C212.64 113.179 213.727 108.497 213.469 103.042C213.459 102.833 213.511 102.627 213.617 102.447C213.724 102.268 213.881 102.124 214.068 102.032C214.256 101.941 214.466 101.907 214.673 101.934C214.88 101.96 215.075 102.047 215.233 102.184C215.665 102.556 215.993 103.02 216.217 103.576C216.233 103.611 216.259 103.641 216.293 103.66C216.327 103.679 216.366 103.687 216.404 103.682C216.442 103.677 216.478 103.66 216.506 103.634C216.534 103.607 216.553 103.572 216.559 103.534C217.238 98.9368 223.485 97.9765 227.17 98.3186C227.31 98.3316 227.442 98.3931 227.542 98.4926C227.643 98.592 227.707 98.7235 227.722 98.8647L227.86 100.179C227.866 100.241 227.86 100.302 227.841 100.361C227.823 100.42 227.793 100.474 227.753 100.521C227.713 100.567 227.664 100.605 227.609 100.632C227.555 100.659 227.495 100.674 227.434 100.677C225.226 100.797 218.432 101.037 218.87 104.458C218.885 104.567 218.926 104.671 218.99 104.761C219.054 104.851 219.138 104.924 219.236 104.974C219.724 105.218 220.39 105.395 221.235 105.503C225.136 106.003 228.611 105.391 231.659 103.666C232.926 102.952 233.49 101.878 233.25 100.473C232.074 93.4753 219.68 95.1077 215.125 96.6261C214.361 96.8822 213.869 96.6221 213.649 95.8459ZM230.927 106.679C227.682 108.191 224.325 108.613 220.857 107.945C220.656 107.909 220.544 107.991 220.52 108.191C219.812 114.343 227.776 112.831 231.461 111.894C233.868 111.276 234.228 107.789 233.652 105.875C233.588 105.671 233.456 105.607 233.256 105.683C232.464 105.991 231.687 106.323 230.927 106.679ZM221.865 119.432C225.31 122.025 229.901 121.719 232.506 118.046C233.35 116.85 233.422 115.661 232.722 114.481C232.669 114.392 232.59 114.323 232.494 114.283C232.399 114.243 232.294 114.234 232.194 114.259C229.285 114.971 226.34 115.241 223.359 115.069C223.191 115.061 223.045 115.113 222.921 115.225C221.825 116.217 221.369 117.44 221.553 118.892C221.566 118.999 221.601 119.101 221.654 119.194C221.708 119.287 221.779 119.368 221.865 119.432ZM21.1644 133.83C24.4893 135.315 27.5682 137.189 30.4009 139.454C30.4112 139.46 30.4232 139.464 30.4355 139.465C30.4478 139.465 30.46 139.462 30.4706 139.455C30.4812 139.449 30.4899 139.44 30.4956 139.429C30.5013 139.418 30.5039 139.406 30.503 139.394L28.9606 121.617C28.9542 121.554 28.9299 121.494 28.8903 121.444C28.8507 121.394 28.7977 121.357 28.7375 121.337C28.6773 121.317 28.6125 121.314 28.551 121.33C28.4894 121.345 28.4337 121.378 28.3904 121.425L18.6858 132.138C18.6572 132.17 18.636 132.208 18.6237 132.249C18.6114 132.29 18.6083 132.333 18.6146 132.375C18.621 132.417 18.6366 132.457 18.6603 132.491C18.684 132.526 18.7153 132.555 18.7518 132.576C19.596 133.068 20.4002 133.486 21.1644 133.83ZM149.899 121.461C149.859 121.424 149.809 121.4 149.755 121.392C149.701 121.383 149.646 121.391 149.596 121.414C149.547 121.438 149.505 121.475 149.477 121.522C149.449 121.568 149.435 121.622 149.437 121.677C150.053 141.274 151.62 160.798 154.136 180.247C154.143 180.305 154.167 180.359 154.206 180.403C154.244 180.447 154.295 180.479 154.352 180.493C154.409 180.507 154.468 180.504 154.523 180.484C154.578 180.463 154.625 180.427 154.659 180.379L160.27 172.643C160.39 172.481 160.443 172.279 160.42 172.079C158.728 157.463 157.507 142.809 156.759 128.117C156.729 127.529 156.315 126.658 155.835 126.298C153.87 124.854 151.892 123.241 149.899 121.461ZM162.407 167.367C162.519 168.32 162.653 169.244 162.809 170.14C162.817 170.19 162.838 170.237 162.87 170.277C162.902 170.316 162.943 170.347 162.99 170.365C163.037 170.384 163.089 170.39 163.139 170.383C163.189 170.377 163.237 170.357 163.277 170.326C163.521 170.138 163.633 169.874 163.613 169.534C162.773 156.846 162.049 144.157 161.44 131.466C161.392 130.505 160.828 129.761 159.916 129.623C159.668 129.583 159.548 129.689 159.556 129.941C159.98 142.469 160.93 154.944 162.407 167.367ZM21.8186 153.071C25.2115 154.348 28.7005 154.728 32.2855 154.212C32.4775 154.188 32.5595 154.08 32.5315 153.888L31.4812 146.434C31.4697 146.348 31.4268 146.269 31.3607 146.211C31.2945 146.154 31.2094 146.122 31.1211 146.122C27.6442 146.082 24.1533 146.148 20.6483 146.32C20.0481 146.348 19.486 146.508 18.9618 146.8C18.8711 146.851 18.7922 146.92 18.7302 147.002C18.6682 147.085 18.6244 147.18 18.6017 147.28C17.9896 150.101 19.0619 152.031 21.8186 153.071ZM16.2671 159.793C16.0831 160.633 15.5769 160.94 14.7487 160.712C12.144 160.003 3.42964 158.839 3.22558 163.172C3.22246 163.24 3.23672 163.307 3.26698 163.368C3.29723 163.428 3.34243 163.48 3.39814 163.517C3.45384 163.555 3.51813 163.577 3.58468 163.582C3.65124 163.586 3.71777 163.574 3.77773 163.544C8.16492 161.432 14.1065 162.758 18.2416 164.649C18.3984 164.719 18.5354 164.827 18.6406 164.963C18.7458 165.099 18.816 165.259 18.845 165.429C18.8741 165.598 18.8611 165.772 18.8071 165.935C18.7532 166.099 18.66 166.246 18.5357 166.365C17.9716 166.905 16.8433 166.905 16.0631 166.575C12.7021 165.163 9.28122 164.741 5.80028 165.309C1.8332 165.957 5.74626 170.674 7.57076 171.418C7.76681 171.498 7.90885 171.442 7.99687 171.25C10.2475 166.401 13.8185 167.481 18.0556 169.06C18.1462 169.092 18.2447 169.095 18.3365 169.068C18.4284 169.041 18.5087 168.986 18.5657 168.91C19.598 167.565 23.277 163.058 25.1735 164.727C25.2864 164.826 25.376 164.949 25.4359 165.087C25.4957 165.224 25.5244 165.374 25.5198 165.524C25.5152 165.674 25.4775 165.822 25.4093 165.956C25.3412 166.09 25.2443 166.207 25.1255 166.299L21.1044 169.414C20.3762 169.978 20.4062 170.496 21.1945 170.968L22.1967 171.568C22.4861 171.741 22.7055 172.01 22.8163 172.328C22.9272 172.647 22.9224 172.994 22.8029 173.309C22.3588 174.479 21.2185 174.035 20.4262 173.471C18.7038 172.241 11.2257 167.601 10.4936 172.139C10.4655 172.315 10.5116 172.469 10.6316 172.601C13.1643 175.367 19.568 180.325 23.5231 178.116C26.976 176.188 30.455 173.713 33.9599 170.692C34.7341 170.02 35.2022 169.15 34.9862 168.027C34.29 164.411 33.6638 160.764 33.1077 157.087C33.0757 156.874 32.9516 156.774 32.7356 156.786C27.4001 157.057 23.403 157.165 19.2139 154.674C18.7098 154.374 18.3197 154.482 18.0436 154.998C17.2394 156.506 16.6472 158.105 16.2671 159.793ZM78.66 219.419C79.4922 219.892 80.4125 220.164 81.4208 220.236C81.5174 220.243 81.6145 220.227 81.7042 220.19C81.7939 220.152 81.8737 220.094 81.9369 220.02C83.1852 218.543 82.7291 213.73 82.6031 211.821C82.261 206.762 82.171 203.521 82.123 199.308C82.119 199.08 82.0029 198.956 81.7749 198.936L63.98 197.531C63.828 197.519 63.754 197.588 63.758 197.736C63.938 204.117 64.4482 210.471 65.2884 216.797C65.4644 218.129 65.8746 219.327 66.5187 220.392C66.5653 220.469 66.6286 220.536 66.7039 220.586C66.7792 220.636 66.8647 220.669 66.9542 220.682C67.0438 220.695 67.1351 220.688 67.2217 220.662C67.3083 220.636 67.388 220.591 67.455 220.53C70.8039 217.441 74.5389 217.071 78.66 219.419ZM101.01 230.817C103.297 231.141 105.289 230.63 107.546 230.216C107.742 230.18 107.834 230.062 107.822 229.862C107.262 219.659 107.174 209.451 107.558 199.236C107.566 199.016 107.462 198.91 107.246 198.918L96.863 199.308C96.8032 199.31 96.7447 199.326 96.6913 199.353C96.6379 199.38 96.5909 199.418 96.5534 199.464C96.5159 199.511 96.4888 199.565 96.4739 199.623C96.4589 199.681 96.4565 199.741 96.4668 199.8C98.2473 209.955 99.6337 220.162 100.626 230.42C100.65 230.652 100.778 230.784 101.01 230.817ZM107.84 236.98C110.649 237.406 120.809 238.253 120.575 233.241C120.567 233.063 120.503 232.892 120.394 232.751C120.285 232.61 120.135 232.506 119.965 232.453C119.795 232.4 119.612 232.4 119.442 232.454C119.273 232.508 119.123 232.613 119.015 232.755C116.73 235.78 113.818 236.558 110.277 235.09C109.154 234.628 108.206 233.745 107.216 232.977C107.169 232.942 107.113 232.922 107.055 232.92C106.997 232.917 106.939 232.932 106.891 232.963C106.842 232.994 106.804 233.039 106.783 233.092C106.762 233.145 106.758 233.204 106.772 233.259L107.54 236.704C107.576 236.864 107.676 236.956 107.84 236.98ZM101.562 234.075C98.1293 237.214 92.9319 237.196 90.1291 233.259C90.0524 233.15 89.9478 233.064 89.8263 233.009C89.7048 232.954 89.5708 232.933 89.4384 232.948C89.3059 232.963 89.1798 233.013 89.0733 233.093C88.9668 233.173 88.8837 233.28 88.8328 233.403C88.0406 235.336 90.5733 236.884 92.0797 237.304C94.8564 238.08 97.6532 238.15 100.47 237.514C101.29 237.33 101.98 237.512 102.54 238.06C102.671 238.188 102.767 238.347 102.819 238.522C102.871 238.697 102.876 238.883 102.835 239.061C102.794 239.239 102.708 239.403 102.585 239.538C102.462 239.673 102.306 239.774 102.132 239.831C99.6517 240.663 97.119 240.895 94.5343 240.527C94.4731 240.516 94.4099 240.526 94.3549 240.555C94.2999 240.584 94.2564 240.631 94.2314 240.688C94.2064 240.745 94.2014 240.808 94.2171 240.869C94.2329 240.929 94.2685 240.982 94.3183 241.019L96.4668 242.778C96.6229 242.902 96.7309 243.06 96.7909 243.252C96.999 243.916 96.863 244.51 96.3828 245.034C96.2776 245.148 96.1495 245.239 96.0069 245.3C95.8643 245.361 95.7104 245.392 95.5552 245.39C95.4001 245.387 95.2471 245.352 95.1064 245.287C94.9657 245.222 94.8403 245.127 94.7384 245.01C86.7202 235.846 72.3943 237.688 68.1812 249.608C68.1172 249.792 68.1672 249.94 68.3312 250.052C76.1813 255.477 85.934 255.489 95.2065 254.151C98.0033 253.747 100.83 253.325 103.687 252.884C103.895 252.856 104.037 252.744 104.113 252.548C105.841 247.987 105.517 243.81 104.239 239.189C103.789 237.556 105.199 235.606 104.077 234.249C103.927 234.068 103.741 233.919 103.531 233.811C103.321 233.704 103.092 233.64 102.857 233.624C102.622 233.607 102.386 233.639 102.163 233.717C101.941 233.794 101.736 233.916 101.562 234.075ZM112.563 244.17C111.555 242.88 114.208 241.043 115.012 240.407C115.061 240.37 115.096 240.317 115.112 240.257C115.129 240.198 115.125 240.135 115.102 240.077C115.079 240.02 115.037 239.972 114.984 239.941C114.931 239.909 114.869 239.896 114.808 239.903C112.347 240.167 109.912 240.015 107.504 239.447C107.212 239.379 107.106 239.489 107.186 239.777C108.338 243.914 108.29 248.037 107.042 252.146C106.982 252.35 107.056 252.474 107.264 252.518C118.439 255.051 130.304 255.885 140.573 249.944C140.764 249.833 140.911 249.659 140.986 249.45C141.062 249.242 141.062 249.013 140.987 248.803C136.792 237.262 122.676 235.456 114.658 244.254C114.523 244.402 114.358 244.518 114.174 244.596C113.989 244.673 113.791 244.708 113.591 244.7C113.391 244.692 113.196 244.641 113.018 244.549C112.841 244.458 112.685 244.328 112.563 244.17ZM141.743 251.96C132.897 258.442 117.341 257.44 107.234 255.117C107.164 255.097 107.089 255.104 107.024 255.138C106.96 255.171 106.911 255.229 106.887 255.298C106.864 255.367 106.869 255.442 106.9 255.508C106.93 255.574 106.986 255.625 107.054 255.651C116.224 259.936 129.392 258.238 138.616 254.997C139.933 254.537 141.153 253.729 142.277 252.572C142.347 252.499 142.387 252.402 142.389 252.3C142.391 252.199 142.355 252.1 142.288 252.024C142.221 251.947 142.129 251.899 142.028 251.887C141.927 251.875 141.826 251.901 141.743 251.96ZM102.583 255.987C102.621 255.968 102.653 255.936 102.67 255.896C102.688 255.855 102.691 255.811 102.678 255.769C102.666 255.728 102.639 255.693 102.602 255.672C102.566 255.65 102.523 255.643 102.48 255.651C90.7653 257.836 78.1859 259.186 67.437 252.428C67.392 252.401 67.3407 252.385 67.2879 252.382C67.2351 252.38 67.1826 252.391 67.1352 252.414C67.0878 252.438 67.0471 252.473 67.017 252.516C66.9868 252.56 66.9682 252.61 66.9629 252.662C66.9148 253.091 67.1129 253.451 67.557 253.743C69.3895 254.943 71.354 255.851 73.4506 256.467C82.5191 259.126 93.7361 259.996 102.583 255.987Z" fill="#2E2835"/>
<path d="M101.232 10.5209C101.255 10.4874 101.288 10.4619 101.326 10.4476C101.364 10.4332 101.405 10.4307 101.445 10.4404C101.485 10.45 101.521 10.4714 101.55 10.5017C101.578 10.5321 101.597 10.5701 101.604 10.6109C101.88 12.3334 102.223 15.1061 104.701 14.9681C105.83 14.9041 106.778 14.664 107.546 14.2479C112.179 11.7352 116.845 9.20653 121.542 6.66184C121.596 6.63192 121.658 6.61905 121.719 6.62492C121.781 6.6308 121.839 6.65514 121.886 6.69474C121.934 6.73435 121.968 6.78737 121.985 6.84684C122.001 6.90631 122 6.96944 121.98 7.02794C118.999 15.5743 116.576 24.3246 114.712 33.2791C114.472 34.4274 114.278 36.648 114.13 39.9409C114.122 40.1129 114.032 40.1989 113.86 40.1989L93.2561 40.427C93.0841 40.431 93.0061 40.349 93.0221 40.1809C93.7663 32.4828 95.2867 24.9688 97.5833 17.6388C98.4415 14.9021 99.6239 12.7235 101.232 10.5209Z" fill="#FF4359"/>
<path d="M206.369 36.1778C205.69 37.4861 204.472 40.0428 202.672 38.0623C200.987 36.2178 199.095 34.6093 196.994 33.237C196.382 32.8369 196.05 32.3007 195.998 31.6285C195.983 31.4284 196.045 31.2323 196.172 31.0824C197.988 28.9538 199.511 26.4971 200.739 23.7124C201.591 21.7739 203.134 22.32 204.232 23.6584C205.885 25.6629 207.811 27.3334 210.012 28.6697C210.195 28.7814 210.35 28.9335 210.465 29.1144C210.581 29.2954 210.653 29.5004 210.677 29.7136C210.701 29.9269 210.675 30.1427 210.602 30.3446C210.53 30.5465 210.412 30.7291 210.258 30.8783C208.721 32.3627 207.425 34.1292 206.369 36.1778ZM204.04 35.2775C204.766 33.483 205.666 32.1327 207.335 30.5002C207.362 30.4731 207.384 30.4407 207.399 30.4051C207.414 30.3694 207.421 30.3312 207.421 30.293C207.42 30.2547 207.412 30.2171 207.396 30.1825C207.38 30.148 207.357 30.1172 207.329 30.0921L202.75 25.909C202.719 25.882 202.683 25.8627 202.644 25.8528C202.604 25.843 202.563 25.8427 202.524 25.8521C202.484 25.8616 202.447 25.8804 202.417 25.907C202.386 25.9336 202.362 25.9672 202.348 26.005C201.611 27.9695 200.537 29.726 199.125 31.2744C198.949 31.4705 198.975 31.6345 199.203 31.7666C200.847 32.7348 202.308 33.9312 203.584 35.3555C203.616 35.3899 203.655 35.4159 203.699 35.431C203.744 35.4462 203.791 35.4501 203.836 35.4423C203.882 35.4345 203.925 35.4153 203.96 35.3865C203.996 35.3576 204.023 35.3202 204.04 35.2775Z" fill="#171625"/>
<path d="M161.002 115.237C161.008 115.903 161.176 117.056 161.08 117.98C161.06 118.204 160.94 118.288 160.72 118.232C159.596 117.948 159.004 117.19 158.944 115.957C157.732 90.0544 158.812 63.9473 160.624 38.0923C160.664 37.5441 160.516 37.008 160.18 36.4838C160.068 36.3138 159.897 36.1901 159.7 36.1358C158.768 35.8797 157.58 35.7436 156.135 35.7276C143.184 35.5996 130.216 35.6116 117.233 35.7637C117.144 35.7653 117.059 35.7322 116.995 35.6716C116.931 35.611 116.894 35.5277 116.891 35.4396C116.866 34.7914 117.353 34.4493 117.977 34.4433C132.429 34.1992 146.881 34.0012 161.333 33.8491C163.277 33.8251 163.667 34.6654 163.511 36.4478C161.415 61.0665 160.578 87.3296 161.002 115.237Z" fill="#00ECC2"/>
<path d="M90.7454 34.8457L61.0978 35.0009C60.9122 35.0019 60.7625 35.1532 60.7635 35.3388L60.7636 35.3628C60.7646 35.5484 60.9158 35.6981 61.1015 35.6971L90.7491 35.5419C90.9347 35.5409 91.0844 35.3896 91.0834 35.204L91.0833 35.18C91.0823 34.9944 90.931 34.8447 90.7454 34.8457Z" fill="#00ECC2"/>
<path d="M46.0546 39.7669C49.8214 37.6271 52.7025 35.5886 52.4896 35.214C52.2768 34.8393 49.0506 36.2703 45.2838 38.4101C41.517 40.55 38.6359 42.5884 38.8488 42.9631C39.0616 43.3377 42.2877 41.9068 46.0546 39.7669Z" fill="#00ECC2"/>
<path d="M116.525 42.0172L116.549 38.5963C116.549 38.3522 116.673 38.2282 116.921 38.2242L156.411 38.1522C156.483 38.1516 156.554 38.1718 156.614 38.2105C156.675 38.2491 156.723 38.3044 156.753 38.3698C156.783 38.4352 156.793 38.5078 156.782 38.5789C156.772 38.6499 156.741 38.7164 156.693 38.7703L150.416 46.0623C150.354 46.134 150.277 46.1918 150.191 46.2322C150.106 46.2725 150.012 46.2943 149.918 46.2964C115.172 47.0326 80.4828 45.9723 45.8494 43.1155C45.5133 43.0875 45.4813 42.9755 45.7534 42.7794C47.99 41.159 50.3286 39.7526 52.7693 38.5603C53.6215 38.1442 54.5638 37.9421 55.596 37.9541C67.1632 38.0742 78.7223 38.1422 90.2734 38.1582C90.4735 38.1582 90.5755 38.2582 90.5795 38.4583C90.6215 40.0787 89.2652 42.7614 91.9119 42.7794C99.9741 42.8434 108.028 42.7414 116.074 42.4733C116.371 42.4653 116.521 42.3133 116.525 42.0172Z" fill="#FFD75F"/>
<path d="M149.173 85.127C149.497 73.2318 150.195 61.3566 151.268 49.5014C151.322 48.9132 151.358 48.5171 151.79 48.043C153.614 46.0385 155.393 43.9699 157.125 41.8373C157.166 41.7883 157.218 41.749 157.276 41.722C157.334 41.6951 157.397 41.6811 157.461 41.6813C157.945 41.6973 158.113 41.9273 157.965 42.3715C157.901 42.5635 157.865 42.7176 157.857 42.8336C156.157 66.588 155.637 90.3685 156.297 114.175C156.299 114.23 156.288 114.286 156.266 114.336C156.243 114.387 156.21 114.432 156.168 114.469C156.126 114.505 156.077 114.531 156.023 114.546C155.969 114.56 155.913 114.563 155.859 114.553C153.322 114.113 151.314 114.875 149.833 116.84C149.797 116.886 149.748 116.921 149.691 116.939C149.635 116.957 149.575 116.957 149.518 116.939C149.462 116.921 149.413 116.887 149.377 116.84C149.341 116.793 149.32 116.737 149.317 116.678C148.933 106.179 148.885 95.6619 149.173 85.127Z" fill="#C3A13C"/>
<path d="M146.905 82.2764C146.241 108.459 147.079 134.593 149.419 160.676C150.272 170.194 151.35 179.047 152.654 187.233C152.95 189.101 152.248 190.216 150.548 190.576C115.414 198.034 80.1627 198.586 44.7931 192.232C43.4787 191.992 42.8665 191.212 42.5245 189.886C30.3612 142.373 27.8285 94.1296 34.9264 45.1563C34.9409 45.0545 34.9767 44.9568 35.0315 44.8698C35.0862 44.7827 35.1587 44.7081 35.2442 44.6509C35.3297 44.5937 35.4263 44.5552 35.5277 44.5379C35.6291 44.5205 35.733 44.5247 35.8326 44.5502C36.4568 44.7062 36.9129 44.9523 37.6211 45.0123C74.5511 48.0811 111.541 49.3195 148.591 48.7273C148.795 48.7233 148.889 48.8213 148.873 49.0214C147.745 63.9614 147.089 75.0464 146.905 82.2764ZM105.818 71.0293C97.8775 73.2679 93.2022 84.383 92.638 91.7289C92.1219 98.3487 93.6043 109.284 102.283 109.968C108.516 110.456 112.237 107.961 113.446 102.484C114.562 97.4365 112.017 92.5752 114.166 87.5218C116.098 82.9606 116.873 74.1982 111.561 71.5695C109.713 70.6532 107.798 70.4732 105.818 71.0293ZM62.2458 73.2619C54.6417 79.0895 51.3649 89.1903 52.6012 98.4208C53.5194 105.281 56.7123 110.958 64.3524 110.55C69.0877 110.298 72.3345 107.411 73.3128 102.874C73.5169 101.93 73.5129 100.135 73.3008 97.4905C73.0367 94.1116 72.8687 90.9367 74.147 87.6959C75.3233 84.699 75.6734 81.4722 75.1973 78.0152C74.2611 71.2214 67.2752 69.4089 62.2458 73.2619ZM73.955 109.692C75.1193 107.591 77.0218 107.651 78.9063 107.543C79.0371 107.536 79.165 107.502 79.2823 107.444C79.3996 107.386 79.5038 107.304 79.5886 107.205C79.6733 107.106 79.7369 106.99 79.7754 106.866C79.8139 106.741 79.8266 106.61 79.8126 106.481C79.3864 102.604 68.6675 106.379 71.5183 114.001C71.638 114.324 71.8769 114.59 72.1861 114.743C72.4952 114.896 72.8511 114.924 73.1808 114.823C73.979 114.577 73.997 113.635 73.7869 112.897C73.4268 111.616 73.4829 110.548 73.955 109.692ZM99.3779 113.965C95.6248 115.869 91.4697 117.062 86.9125 117.542C77.676 118.52 64.0163 119.841 63.7522 131.934C63.5302 141.867 74.6091 145.87 82.5373 146.638C91.1856 147.472 100.176 145.534 108.26 141.632C116.226 137.783 121.13 131.63 122.97 123.171C123.378 121.299 123.206 119.406 122.454 117.494C120.54 112.621 115.006 110.202 110.037 110.274C106.088 110.334 103.063 112.098 99.3779 113.965Z" fill="#00ECC2"/>
<path d="M180.676 73.4478C178.983 69.4747 176.979 65.8137 174.122 62.5548C172.525 60.7363 173.444 59.494 175.244 58.4377C178.621 56.4652 181.564 53.9865 184.073 51.0017C186.077 48.625 187.902 48.7991 188.94 51.7579C190.224 55.4229 192.081 58.7758 194.509 61.8166C197.468 65.5196 191.941 66.6599 189.894 68.1063C187.75 69.6267 185.855 71.4172 184.211 73.4778C184.095 73.6258 183.951 73.7378 183.779 73.8139C182.878 74.226 181.964 74.226 181.036 73.8139C180.873 73.7404 180.745 73.6098 180.676 73.4478ZM192.697 63.4851C189.732 59.9741 188.13 56.5532 186.545 52.28C186.453 52.032 186.325 52.014 186.161 52.226C183.432 55.747 180.11 58.5677 176.192 60.6883C176.148 60.7123 176.11 60.7462 176.08 60.7874C176.051 60.8285 176.032 60.8759 176.024 60.9257C176.015 60.9756 176.019 61.0266 176.034 61.075C176.048 61.1233 176.074 61.1676 176.108 61.2045C178.833 64.1372 180.9 67.4821 182.308 71.2392C182.324 71.2822 182.351 71.3202 182.386 71.3494C182.421 71.3785 182.464 71.3978 182.509 71.4051C182.554 71.4124 182.601 71.4076 182.643 71.3911C182.686 71.3746 182.724 71.347 182.752 71.3112C185.397 68.0023 188.676 65.5416 192.589 63.9292C192.63 63.9123 192.667 63.8859 192.696 63.8521C192.725 63.8183 192.746 63.7781 192.756 63.7347C192.767 63.6914 192.767 63.6461 192.757 63.6027C192.746 63.5593 192.726 63.519 192.697 63.4851Z" fill="#171625"/>
<path d="M92.6378 91.7288C93.2019 84.3828 97.8772 73.2678 105.817 71.0292C107.798 70.4731 109.712 70.6531 111.561 71.5694C116.872 74.1981 116.098 82.9604 114.166 87.5217C112.017 92.575 114.562 97.4364 113.445 102.484C112.237 107.961 108.516 110.456 102.282 109.968C93.6041 109.284 92.1216 98.3486 92.6378 91.7288ZM99.4676 102.412C96.2148 92.449 99.4076 80.2837 107.918 73.82C107.966 73.7809 108.001 73.7269 108.015 73.6664C108.03 73.6059 108.024 73.5423 107.999 73.4854C107.973 73.4286 107.93 73.3817 107.875 73.3521C107.82 73.3225 107.757 73.3119 107.696 73.3218C103.333 74.1921 99.9838 78.1291 98.0573 81.9102C95.1365 87.6357 94.3503 93.5653 95.6986 99.699C96.5328 103.51 98.1953 106.337 101.916 107.471C101.979 107.491 102.047 107.491 102.11 107.469C102.172 107.448 102.226 107.407 102.264 107.352C102.301 107.297 102.319 107.232 102.316 107.165C102.313 107.099 102.289 107.036 102.246 106.985C101.124 105.587 100.032 104.134 99.4676 102.412ZM112.503 83.7587L105.679 86.5314C105.533 86.5906 105.409 86.6964 105.328 86.8329C105.247 86.9694 105.212 87.1291 105.229 87.2876C105.285 87.7798 105.563 88.0958 106.063 88.2359C107.582 88.668 108.95 89.1661 110.589 89.2502C110.66 89.2533 110.73 89.2339 110.789 89.1949C110.847 89.1559 110.891 89.0995 110.913 89.0341L112.665 83.9147C112.673 83.8916 112.673 83.8667 112.668 83.843C112.662 83.8194 112.65 83.798 112.632 83.7815C112.615 83.7649 112.594 83.754 112.571 83.7499C112.548 83.7459 112.524 83.7489 112.503 83.7587Z" fill="#2E2835"/>
<path d="M52.6007 98.4207C51.3643 89.1902 54.6412 79.0894 62.2453 73.2619C67.2747 69.4088 74.2605 71.2213 75.1968 78.0151C75.6729 81.4721 75.3228 84.699 74.1465 87.6958C72.8682 90.9366 73.0362 94.1115 73.3003 97.4904C73.5123 100.135 73.5163 101.93 73.3123 102.874C72.334 107.411 69.0872 110.298 64.3519 110.55C56.7118 110.958 53.5189 105.281 52.6007 98.4207ZM61.9812 107.429C54.3772 97.7785 58.3322 81.3401 67.8748 74.3121C67.9346 74.2697 67.978 74.2079 67.9974 74.1372C68.0169 74.0665 68.0113 73.9912 67.9817 73.9241C67.952 73.857 67.9001 73.8022 67.8347 73.7691C67.7693 73.7359 67.6944 73.7263 67.6228 73.742C63.0315 74.6662 59.4065 79.0174 57.504 83.0565C54.3472 89.7603 52.4386 104.422 61.5551 107.999C61.6306 108.032 61.7148 108.038 61.7942 108.016C61.8736 107.995 61.9435 107.948 61.9927 107.882C62.0419 107.816 62.0675 107.736 62.0654 107.654C62.0633 107.571 62.0337 107.492 61.9812 107.429ZM72.22 84.2928L65.1561 87.1856C65.0634 87.2242 64.9834 87.2881 64.9254 87.37C64.8673 87.4519 64.8335 87.5486 64.8279 87.6488C64.8223 87.7491 64.845 87.8489 64.8935 87.9368C64.942 88.0247 65.0143 88.0972 65.1021 88.1459C66.7185 89.0301 68.433 89.5683 70.2455 89.7603C70.3493 89.7728 70.4543 89.7492 70.5428 89.6934C70.6313 89.6377 70.6979 89.5533 70.7316 89.4542L72.4661 84.5269C72.478 84.4931 72.4799 84.4565 72.4715 84.4216C72.4632 84.3866 72.4449 84.3549 72.4189 84.3302C72.3928 84.3054 72.3602 84.2887 72.3249 84.2821C72.2897 84.2755 72.2532 84.2792 72.22 84.2928Z" fill="#2E2835"/>
<path d="M107.918 73.8199C99.4074 80.2836 96.2145 92.4489 99.4674 102.412C100.032 104.134 101.124 105.586 102.246 106.985C102.288 107.036 102.313 107.099 102.316 107.165C102.319 107.232 102.301 107.297 102.263 107.352C102.226 107.406 102.172 107.448 102.11 107.469C102.047 107.491 101.979 107.491 101.916 107.471C98.195 106.337 96.5326 103.51 95.6984 99.6989C94.35 93.5652 95.1362 87.6356 98.057 81.9101C99.9835 78.1291 103.332 74.192 107.696 73.3217C107.757 73.3118 107.82 73.3224 107.875 73.352C107.93 73.3816 107.973 73.4285 107.998 73.4853C108.024 73.5422 108.03 73.6058 108.015 73.6663C108 73.7269 107.966 73.7808 107.918 73.8199Z" fill="white"/>
<path d="M67.8753 74.312C58.3327 81.3399 54.3776 97.7784 61.9817 107.429C62.0341 107.492 62.0638 107.571 62.0659 107.653C62.0679 107.736 62.0423 107.816 61.9931 107.882C61.9439 107.948 61.874 107.995 61.7947 108.016C61.7153 108.038 61.6311 108.032 61.5556 107.999C52.4391 104.422 54.3476 89.7602 57.5045 83.0564C59.407 79.0173 63.032 74.6661 67.6232 73.7419C67.6949 73.7262 67.7697 73.7357 67.8351 73.7689C67.9006 73.8021 67.9525 73.8569 67.9821 73.924C68.0118 73.9911 68.0174 74.0663 67.9979 74.137C67.9784 74.2078 67.9351 74.2696 67.8753 74.312Z" fill="white"/>
<path d="M105.68 86.5315L112.503 83.7588C112.525 83.749 112.548 83.746 112.571 83.75C112.594 83.7541 112.615 83.765 112.633 83.7816C112.65 83.7981 112.662 83.8195 112.668 83.8431C112.674 83.8668 112.673 83.8917 112.665 83.9148L110.913 89.0342C110.891 89.0996 110.847 89.156 110.789 89.195C110.731 89.234 110.66 89.2534 110.589 89.2503C108.95 89.1662 107.582 88.6681 106.064 88.236C105.563 88.0959 105.285 87.7799 105.229 87.2877C105.212 87.1292 105.247 86.9695 105.328 86.833C105.409 86.6965 105.533 86.5907 105.68 86.5315Z" fill="white"/>
<path d="M65.1562 87.1858L72.2201 84.293C72.2533 84.2793 72.2897 84.2756 72.325 84.2822C72.3603 84.2889 72.3929 84.3056 72.4189 84.3303C72.4449 84.355 72.4632 84.3868 72.4716 84.4217C72.48 84.4566 72.4781 84.4932 72.4661 84.527L70.7317 89.4544C70.698 89.5534 70.6314 89.6378 70.5429 89.6936C70.4543 89.7493 70.3494 89.7729 70.2455 89.7605C68.4331 89.5684 66.7186 89.0303 65.1022 88.146C65.0144 88.0973 64.9421 88.0248 64.8936 87.9369C64.8451 87.849 64.8224 87.7492 64.828 87.649C64.8336 87.5487 64.8674 87.4521 64.9255 87.3702C64.9835 87.2882 65.0635 87.2243 65.1562 87.1858Z" fill="white"/>
<path d="M213.649 95.8458C213.869 96.622 214.361 96.8821 215.125 96.626C219.68 95.1076 232.074 93.4751 233.25 100.473C233.49 101.877 232.926 102.952 231.66 103.666C228.611 105.39 225.136 106.003 221.235 105.502C220.391 105.394 219.724 105.218 219.236 104.974C219.138 104.924 219.054 104.851 218.99 104.761C218.926 104.671 218.885 104.567 218.87 104.458C218.432 101.037 225.226 100.797 227.434 100.677C227.495 100.674 227.555 100.659 227.61 100.632C227.664 100.605 227.713 100.567 227.753 100.521C227.793 100.474 227.823 100.42 227.841 100.361C227.86 100.302 227.866 100.24 227.861 100.179L227.723 98.8646C227.707 98.7233 227.643 98.5919 227.543 98.4924C227.442 98.3929 227.311 98.3315 227.17 98.3184C223.485 97.9764 217.238 98.9366 216.56 103.534C216.553 103.572 216.534 103.607 216.506 103.634C216.478 103.66 216.442 103.677 216.404 103.682C216.366 103.687 216.327 103.679 216.293 103.66C216.26 103.641 216.233 103.611 216.217 103.576C215.993 103.02 215.665 102.556 215.233 102.183C215.075 102.047 214.881 101.96 214.674 101.933C214.467 101.907 214.256 101.941 214.069 102.032C213.881 102.123 213.724 102.268 213.617 102.447C213.511 102.627 213.459 102.833 213.469 103.042C213.727 108.497 212.64 113.178 207.803 116.317C207.734 116.362 207.68 116.426 207.648 116.501C207.616 116.575 207.607 116.658 207.623 116.737C207.755 117.438 208.127 117.944 208.739 118.256C208.829 118.301 208.929 118.323 209.028 118.319C209.128 118.315 209.225 118.285 209.31 118.232C213.175 115.835 215.309 112.43 215.713 108.017C215.837 106.677 215.935 105.686 216.007 105.046C216.035 104.798 216.127 104.77 216.283 104.962L218.03 107.111C218.119 107.223 218.164 107.364 218.156 107.507C218.006 110.238 217.88 112.218 220.347 113.953C220.531 114.081 220.561 114.239 220.437 114.427C217.382 119.03 219.446 122.025 224.086 123.381C224.122 123.393 224.154 123.415 224.177 123.445C224.2 123.475 224.213 123.511 224.215 123.549C224.217 123.587 224.208 123.624 224.188 123.657C224.168 123.689 224.138 123.714 224.104 123.729C217.986 126.062 211.698 126.614 205.24 125.386C205.087 125.357 204.929 125.362 204.778 125.399C204.626 125.437 204.485 125.506 204.363 125.603C204.241 125.7 204.142 125.822 204.072 125.96C204.001 126.099 203.962 126.251 203.956 126.406C203.866 128.963 201.531 130.307 199.215 129.215C198.035 128.659 197.128 127.78 196.496 126.58C196.402 126.4 196.367 126.195 196.394 125.992C196.976 121.743 197.06 118.592 193.999 115.357C192.235 113.497 192.085 110.712 192.445 108.323C192.697 106.667 193.615 106.055 195.17 105.826C197.939 105.41 199.941 106.369 201.177 108.701C203.186 112.486 204.006 116.673 203.638 121.263C203.578 121.991 203.914 122.335 204.646 122.295L205.679 122.235C205.895 122.223 206.015 122.109 206.039 121.893C206.657 116.263 205.751 109.019 201.339 105.028C201.313 105.004 201.293 104.975 201.279 104.942C201.264 104.91 201.257 104.875 201.257 104.839C201.257 104.804 201.264 104.769 201.279 104.736C201.293 104.704 201.313 104.674 201.339 104.65C203.348 102.746 204.86 100.543 205.877 98.0424C206.341 96.9021 206.575 95.5097 206.579 93.8652C206.591 91.5126 206.147 87.3955 206.867 85.2649C206.929 85.087 207.052 84.9378 207.215 84.8448C212.64 81.7359 214.135 90.1142 213.625 93.4451C213.469 94.4494 213.477 95.2496 213.649 95.8458Z" fill="white"/>
<path d="M73.9549 109.692C73.4827 110.548 73.4267 111.616 73.7868 112.897C73.9969 113.635 73.9789 114.577 73.1806 114.823C72.851 114.924 72.4951 114.895 72.1859 114.743C71.8768 114.59 71.6379 114.324 71.5182 114.001C68.6674 106.379 79.3863 102.604 79.8124 106.481C79.8264 106.61 79.8138 106.741 79.7753 106.866C79.7368 106.99 79.6732 107.106 79.5884 107.205C79.5037 107.304 79.3995 107.386 79.2822 107.444C79.1649 107.502 79.037 107.536 78.9062 107.543C77.0217 107.651 75.1192 107.591 73.9549 109.692Z" fill="#2E2835"/>
<path d="M230.927 106.679C231.687 106.323 232.464 105.991 233.256 105.683C233.456 105.607 233.588 105.671 233.652 105.875C234.228 107.789 233.868 111.276 231.461 111.894C227.776 112.831 219.812 114.343 220.52 108.191C220.544 107.991 220.656 107.909 220.856 107.945C224.325 108.613 227.682 108.191 230.927 106.679Z" fill="white"/>
<path d="M99.3775 113.965C103.062 112.098 106.087 110.334 110.036 110.274C115.006 110.202 120.539 112.621 122.454 117.494C123.206 119.406 123.378 121.299 122.97 123.171C121.129 131.63 116.226 137.783 108.26 141.632C100.176 145.533 91.1852 147.472 82.5369 146.638C74.6088 145.87 63.5298 141.866 63.7518 131.934C64.0159 119.84 77.6756 118.52 86.9121 117.542C91.4693 117.062 95.6244 115.869 99.3775 113.965ZM93.4479 121.677C93.4886 121.477 93.5886 121.294 93.7349 121.152C93.8811 121.01 94.0667 120.916 94.2676 120.881C94.4685 120.846 94.6752 120.872 94.8609 120.956C95.0465 121.04 95.2025 121.179 95.3084 121.353C98.4652 126.556 105.997 123.904 105.547 117.812C105.531 117.589 105.581 117.366 105.689 117.17C105.797 116.974 105.96 116.814 106.157 116.708C106.355 116.603 106.578 116.557 106.801 116.576C107.024 116.595 107.237 116.678 107.414 116.816C108.158 117.398 108.89 118.244 109.862 118.556C112.807 119.484 115.038 118.496 116.554 115.591C116.612 115.479 116.648 115.357 116.658 115.231C116.668 115.105 116.653 114.979 116.613 114.859C116.573 114.739 116.51 114.629 116.427 114.534C116.343 114.439 116.242 114.362 116.128 114.307C111.621 112.164 107.408 112.639 103.104 115.021C99.4915 117.022 95.6805 118.476 91.6714 119.384C90.9912 119.54 88.5525 119.858 84.3554 120.339C80.5664 120.775 76.8794 121.643 73.2944 122.943C71.932 123.435 65.9064 126.676 68.073 128.729C71.622 132.094 74.9288 132.14 77.9937 128.867C78.9719 127.829 79.302 126.37 79.6381 125.032C79.6966 124.802 79.8232 124.595 80.0013 124.437C80.1793 124.28 80.4004 124.18 80.6356 124.151C80.8707 124.122 81.1088 124.165 81.3186 124.274C81.5284 124.383 81.6999 124.553 81.8107 124.762C83.5632 128.051 86.2999 129.923 90.0689 128.381C92.8477 127.24 92.9017 124.342 93.4479 121.677ZM95.4584 125.776C92.7757 132.048 86.8101 133.278 81.5886 128.981C81.5539 128.952 81.5134 128.93 81.4699 128.917C81.4263 128.904 81.3806 128.901 81.3355 128.906C81.2904 128.912 81.247 128.927 81.208 128.95C81.1689 128.973 81.1351 129.004 81.1085 129.041C80.2743 130.187 79.4821 131.376 78.3058 132.138C74.2367 134.787 70.3716 134.358 66.7106 130.853C66.6705 130.816 66.6206 130.791 66.5666 130.781C66.5126 130.772 66.4569 130.778 66.4059 130.8C66.3549 130.821 66.3107 130.857 66.2786 130.902C66.2464 130.948 66.2277 131.002 66.2245 131.058C66.0644 135.659 68.089 138.964 72.2981 140.972C77.4755 143.441 82.6149 144.535 87.7163 144.255C95.9866 143.799 104.935 141.512 111.303 136.975C116.164 133.518 123.654 122.937 119.279 116.666C119.257 116.633 119.228 116.607 119.193 116.589C119.158 116.572 119.119 116.564 119.08 116.567C119.041 116.569 119.003 116.582 118.971 116.603C118.938 116.625 118.912 116.655 118.895 116.69C116.646 121.043 113.141 122.419 108.38 120.819C108.152 120.743 107.988 120.815 107.888 121.035C105.511 126.352 101.51 127.873 95.8845 125.596C95.6845 125.516 95.5424 125.576 95.4584 125.776Z" fill="#2E2835"/>
<path d="M93.4482 121.677C92.902 124.342 92.848 127.24 90.0692 128.381C86.3002 129.923 83.5635 128.051 81.811 124.762C81.7002 124.553 81.5287 124.383 81.3189 124.274C81.1091 124.165 80.871 124.122 80.6359 124.151C80.4007 124.18 80.1796 124.28 80.0016 124.437C79.8235 124.595 79.6969 124.802 79.6384 125.032C79.3023 126.37 78.9722 127.829 77.994 128.867C74.9291 132.14 71.6222 132.094 68.0733 128.729C65.9067 126.676 71.9323 123.435 73.2947 122.943C76.8797 121.643 80.5667 120.775 84.3557 120.339C88.5528 119.858 90.9915 119.54 91.6717 119.384C95.6808 118.476 99.4918 117.022 103.105 115.021C107.408 112.638 111.621 112.164 116.128 114.307C116.242 114.362 116.343 114.439 116.427 114.534C116.51 114.628 116.574 114.739 116.613 114.859C116.653 114.979 116.668 115.105 116.658 115.231C116.648 115.357 116.613 115.479 116.554 115.591C115.038 118.496 112.807 119.484 109.863 118.556C108.89 118.244 108.158 117.398 107.414 116.816C107.237 116.678 107.025 116.595 106.802 116.576C106.579 116.557 106.355 116.603 106.157 116.708C105.96 116.813 105.797 116.974 105.689 117.17C105.581 117.366 105.532 117.589 105.547 117.812C105.998 123.904 98.4655 126.556 95.3087 121.353C95.2028 121.179 95.0468 121.04 94.8612 120.956C94.6755 120.872 94.4688 120.845 94.2679 120.88C94.067 120.915 93.8814 121.01 93.7352 121.152C93.5889 121.294 93.4889 121.477 93.4482 121.677Z" fill="white"/>
<path d="M232.505 118.046C229.901 121.719 225.309 122.025 221.864 119.432C221.779 119.368 221.708 119.287 221.654 119.194C221.6 119.101 221.566 118.999 221.552 118.892C221.368 117.44 221.824 116.217 222.921 115.225C223.045 115.113 223.191 115.061 223.359 115.069C226.34 115.241 229.284 114.971 232.193 114.259C232.293 114.234 232.399 114.243 232.494 114.283C232.589 114.323 232.669 114.392 232.721 114.481C233.422 115.661 233.35 116.85 232.505 118.046Z" fill="white"/>
<path d="M81.5888 128.981C86.8102 133.278 92.7758 132.048 95.4585 125.776C95.5426 125.576 95.6846 125.516 95.8846 125.596C101.51 127.873 105.511 126.352 107.888 121.035C107.988 120.815 108.152 120.743 108.38 120.819C113.141 122.419 116.646 121.043 118.895 116.69C118.912 116.655 118.938 116.625 118.971 116.603C119.003 116.582 119.041 116.569 119.08 116.567C119.119 116.564 119.158 116.572 119.193 116.589C119.228 116.607 119.257 116.633 119.279 116.666C123.654 122.937 116.164 133.518 111.303 136.975C104.935 141.512 95.9867 143.799 87.7164 144.255C82.6151 144.535 77.4757 143.441 72.2983 140.972C68.0891 138.964 66.0646 135.659 66.2246 131.058C66.2278 131.002 66.2466 130.948 66.2787 130.902C66.3108 130.857 66.355 130.821 66.406 130.8C66.457 130.778 66.5128 130.772 66.5667 130.781C66.6207 130.791 66.6707 130.816 66.7107 130.853C70.3717 134.358 74.2368 134.787 78.3059 132.138C79.4822 131.376 80.2744 130.187 81.1086 129.041C81.1352 129.004 81.169 128.973 81.2081 128.95C81.2471 128.927 81.2906 128.912 81.3356 128.906C81.3807 128.901 81.4264 128.904 81.47 128.917C81.5135 128.93 81.554 128.952 81.5888 128.981Z" fill="#FF4359"/>
<path d="M149.899 121.461C151.892 123.241 153.87 124.854 155.835 126.298C156.315 126.658 156.729 127.529 156.759 128.117C157.507 142.809 158.728 157.463 160.42 172.079C160.443 172.279 160.39 172.481 160.27 172.643L154.659 180.379C154.625 180.427 154.578 180.463 154.523 180.484C154.468 180.504 154.409 180.507 154.352 180.493C154.295 180.479 154.245 180.447 154.206 180.403C154.168 180.359 154.143 180.305 154.137 180.247C151.62 160.798 150.053 141.274 149.437 121.677C149.435 121.622 149.449 121.568 149.477 121.522C149.505 121.475 149.547 121.438 149.596 121.415C149.646 121.391 149.701 121.383 149.755 121.392C149.809 121.4 149.859 121.424 149.899 121.461Z" fill="#C3A13C"/>
<path d="M162.407 167.367C160.93 154.944 159.98 142.468 159.556 129.941C159.548 129.689 159.668 129.583 159.916 129.623C160.828 129.761 161.393 130.505 161.441 131.465C162.049 144.157 162.773 156.846 163.613 169.534C163.633 169.874 163.521 170.138 163.277 170.326C163.237 170.357 163.189 170.376 163.139 170.383C163.089 170.39 163.038 170.384 162.99 170.365C162.943 170.346 162.902 170.316 162.87 170.276C162.838 170.237 162.817 170.19 162.809 170.14C162.653 169.244 162.519 168.319 162.407 167.367Z" fill="#00ECC2"/>
<path d="M21.8188 153.071C19.062 152.031 17.9897 150.101 18.6019 147.28C18.6246 147.18 18.6683 147.085 18.7304 147.002C18.7924 146.92 18.8713 146.851 18.962 146.8C19.4862 146.508 20.0483 146.347 20.6485 146.319C24.1534 146.147 27.6444 146.081 31.1213 146.121C31.2096 146.122 31.2947 146.154 31.3608 146.211C31.427 146.268 31.4698 146.347 31.4814 146.434L32.5317 153.888C32.5597 154.08 32.4777 154.188 32.2856 154.212C28.7007 154.728 25.2117 154.348 21.8188 153.071Z" fill="white"/>
<path d="M16.2671 159.793C16.6472 158.105 17.2393 156.506 18.0435 154.998C18.3196 154.482 18.7097 154.374 19.2139 154.674C23.403 157.164 27.4001 157.056 32.7355 156.786C32.9516 156.774 33.0756 156.874 33.1076 157.086C33.6638 160.763 34.2899 164.41 34.9861 168.027C35.2022 169.15 34.7341 170.02 33.9598 170.692C30.4549 173.713 26.976 176.188 23.523 178.116C19.5679 180.325 13.1642 175.367 10.6315 172.601C10.5115 172.469 10.4655 172.315 10.4935 172.139C11.2257 167.601 18.7037 172.241 20.4262 173.471C21.2184 174.035 22.3587 174.479 22.8028 173.309C22.9223 172.994 22.9271 172.647 22.8163 172.328C22.7054 172.01 22.4861 171.741 22.1967 171.568L21.1944 170.968C20.4062 170.496 20.3762 169.978 21.1044 169.414L25.1255 166.299C25.2442 166.207 25.3411 166.09 25.4093 165.956C25.4774 165.822 25.5152 165.674 25.5197 165.524C25.5243 165.374 25.4957 165.224 25.4358 165.087C25.376 164.949 25.2864 164.826 25.1735 164.727C23.277 163.058 19.598 167.565 18.5657 168.91C18.5086 168.986 18.4283 169.041 18.3365 169.068C18.2446 169.095 18.1462 169.092 18.0555 169.06C13.8184 167.481 10.2474 166.401 7.99681 171.25C7.90879 171.442 7.76675 171.498 7.5707 171.418C5.7462 170.674 1.83314 165.957 5.80022 165.309C9.28116 164.741 12.7021 165.163 16.063 166.575C16.8432 166.905 17.9715 166.905 18.5357 166.365C18.6599 166.246 18.7531 166.099 18.8071 165.935C18.861 165.772 18.874 165.598 18.845 165.429C18.8159 165.259 18.7457 165.099 18.6405 164.963C18.5353 164.827 18.3983 164.719 18.2416 164.648C14.1065 162.758 8.16486 161.432 3.77767 163.544C3.7177 163.573 3.65117 163.586 3.58462 163.582C3.51807 163.577 3.45378 163.555 3.39807 163.517C3.34237 163.479 3.29717 163.428 3.26692 163.367C3.23666 163.307 3.2224 163.24 3.22552 163.172C3.42957 158.839 12.1439 160.003 14.7486 160.711C15.5769 160.939 16.083 160.633 16.2671 159.793Z" fill="white"/>
<path d="M78.66 219.419C74.5389 217.071 70.8039 217.441 67.455 220.53C67.388 220.59 67.3083 220.636 67.2217 220.662C67.1351 220.688 67.0437 220.695 66.9542 220.682C66.8647 220.669 66.7792 220.636 66.7039 220.586C66.6285 220.535 66.5653 220.469 66.5187 220.392C65.8745 219.327 65.4644 218.129 65.2884 216.797C64.4482 210.471 63.938 204.117 63.758 197.735C63.754 197.587 63.828 197.519 63.98 197.531L81.7749 198.936C82.0029 198.956 82.1189 199.08 82.1229 199.308C82.1709 203.521 82.261 206.762 82.6031 211.821C82.7291 213.73 83.1852 218.543 81.9369 220.019C81.8737 220.094 81.7939 220.152 81.7042 220.19C81.6145 220.227 81.5173 220.243 81.4207 220.236C80.4125 220.164 79.4922 219.891 78.66 219.419Z" fill="#FF4359"/>
<path d="M120.576 233.241C120.81 238.252 110.649 237.406 107.84 236.98C107.676 236.956 107.576 236.864 107.54 236.704L106.772 233.259C106.758 233.203 106.762 233.145 106.783 233.092C106.804 233.039 106.842 232.994 106.891 232.963C106.939 232.932 106.997 232.917 107.055 232.919C107.113 232.922 107.17 232.942 107.216 232.977C108.206 233.745 109.154 234.627 110.277 235.09C113.818 236.558 116.731 235.78 119.015 232.755C119.123 232.613 119.273 232.508 119.443 232.454C119.613 232.4 119.795 232.4 119.965 232.453C120.135 232.506 120.285 232.61 120.394 232.751C120.504 232.892 120.567 233.063 120.576 233.241Z" fill="white"/>
<path d="M90.1292 233.259C92.932 237.196 98.1294 237.214 101.562 234.075C101.736 233.916 101.941 233.794 102.163 233.716C102.386 233.639 102.622 233.607 102.857 233.623C103.092 233.64 103.321 233.704 103.531 233.811C103.741 233.919 103.927 234.068 104.077 234.249C105.199 235.606 103.789 237.556 104.239 239.189C105.517 243.81 105.841 247.987 104.113 252.548C104.037 252.744 103.895 252.856 103.687 252.884C100.83 253.324 98.0033 253.747 95.2066 254.151C85.9341 255.489 76.1814 255.477 68.3313 250.052C68.1672 249.94 68.1172 249.791 68.1813 249.607C72.3944 237.688 86.7203 235.846 94.7384 245.01C94.8403 245.127 94.9657 245.221 95.1065 245.287C95.2472 245.352 95.4002 245.387 95.5553 245.389C95.7105 245.392 95.8644 245.361 96.007 245.3C96.1495 245.239 96.2776 245.148 96.3829 245.034C96.863 244.51 96.9991 243.916 96.791 243.252C96.731 243.06 96.623 242.902 96.4669 242.778L94.3183 241.019C94.2686 240.982 94.233 240.929 94.2172 240.868C94.2014 240.808 94.2065 240.744 94.2315 240.687C94.2565 240.63 94.3 240.584 94.355 240.555C94.41 240.525 94.4732 240.516 94.5344 240.527C97.1191 240.895 99.6518 240.663 102.132 239.831C102.306 239.774 102.462 239.673 102.585 239.538C102.708 239.403 102.794 239.238 102.835 239.06C102.876 238.882 102.871 238.697 102.819 238.522C102.767 238.347 102.671 238.188 102.541 238.06C101.98 237.512 101.29 237.33 100.47 237.514C97.6532 238.15 94.8565 238.08 92.0797 237.304C90.5733 236.884 88.0406 235.336 88.8328 233.403C88.8838 233.28 88.9668 233.173 89.0733 233.093C89.1799 233.012 89.306 232.962 89.4384 232.948C89.5709 232.933 89.7049 232.954 89.8264 233.009C89.9479 233.064 90.0525 233.15 90.1292 233.259Z" fill="white"/>
<path d="M112.563 244.17C112.685 244.328 112.841 244.457 113.018 244.549C113.196 244.641 113.391 244.692 113.591 244.7C113.79 244.708 113.989 244.673 114.174 244.595C114.358 244.518 114.523 244.402 114.658 244.254C122.676 235.456 136.792 237.262 140.987 248.803C141.062 249.013 141.062 249.241 140.986 249.45C140.911 249.658 140.764 249.833 140.573 249.944C130.304 255.885 118.439 255.051 107.264 252.518C107.056 252.474 106.982 252.35 107.042 252.146C108.29 248.037 108.338 243.914 107.186 239.777C107.106 239.489 107.212 239.379 107.504 239.447C109.912 240.015 112.347 240.167 114.808 239.903C114.869 239.896 114.931 239.909 114.984 239.94C115.037 239.972 115.079 240.02 115.102 240.077C115.125 240.134 115.129 240.198 115.112 240.257C115.096 240.317 115.061 240.369 115.012 240.407C114.208 241.043 111.555 242.88 112.563 244.17Z" fill="white"/>
<path d="M107.234 255.117C117.34 257.44 132.897 258.442 141.743 251.96C141.825 251.901 141.927 251.875 142.028 251.887C142.129 251.899 142.221 251.947 142.288 252.024C142.355 252.1 142.391 252.199 142.389 252.3C142.387 252.402 142.347 252.499 142.277 252.572C141.153 253.729 139.933 254.537 138.616 254.997C129.392 258.238 116.224 259.936 107.054 255.651C106.986 255.625 106.93 255.574 106.899 255.508C106.868 255.442 106.864 255.367 106.887 255.298C106.911 255.229 106.96 255.171 107.024 255.138C107.089 255.104 107.164 255.097 107.234 255.117Z" fill="white"/>
<path d="M102.582 255.987C93.7359 259.996 82.5188 259.126 73.4503 256.468C71.3538 255.851 69.3893 254.943 67.5568 253.743C67.1126 253.451 66.9146 253.091 66.9626 252.662C66.968 252.61 66.9866 252.56 67.0167 252.516C67.0469 252.473 67.0875 252.438 67.1349 252.414C67.1823 252.391 67.2349 252.38 67.2876 252.382C67.3404 252.385 67.3917 252.401 67.4367 252.428C78.1856 259.186 90.765 257.836 102.48 255.651C102.522 255.643 102.566 255.65 102.602 255.672C102.638 255.693 102.665 255.728 102.678 255.769C102.69 255.811 102.688 255.855 102.67 255.896C102.652 255.936 102.621 255.968 102.582 255.987Z" fill="white"/>
</svg>
