<svg width="248" height="265" viewBox="0 0 248 265" fill="none" xmlns="http://www.w3.org/2000/svg">
<path d="M208.85 54.4979C209.162 54.51 209.31 54.722 209.294 55.1341C208.962 62.16 208.25 69.1479 207.158 76.0978C206.768 78.5945 205.957 80.647 204.277 82.2975C198.267 88.1951 191.818 93.7046 184.928 98.826C184.861 98.8764 184.779 98.9017 184.695 98.8973C184.612 98.8929 184.533 98.8591 184.472 98.802C176.697 91.748 167.669 87.1328 157.386 84.9562C157.158 84.9082 156.958 84.8082 156.786 84.6561C154.245 82.4795 151.493 82.0314 148.528 83.3118C147.5 83.7559 146.611 84.0239 145.863 84.116C136.597 85.2563 127.668 87.6929 119.078 91.426C118.89 91.506 118.716 91.482 118.556 91.3539C113.772 87.5249 108.065 90.3036 105.616 95.213C105.593 95.2606 105.555 95.2995 105.508 95.3244C105.461 95.3492 105.408 95.3586 105.355 95.3513C105.303 95.344 105.254 95.3203 105.216 95.2836C105.177 95.2469 105.152 95.1991 105.142 95.147C104.45 91.422 103.624 87.6729 102.663 83.8999C101.811 80.539 102.399 78.9006 105.586 77.6102C118.066 72.5488 129.699 68.2797 140.486 64.8027C148.744 62.138 155.064 59.8874 161.803 56.7786C167.313 54.2399 168.105 49.6966 166.995 44.1932C166.175 40.116 165.076 36.117 163.7 32.1959C161.839 26.8785 158.989 22.9894 152.519 25.294C129.677 33.4282 106.831 41.5544 83.9803 49.6726C71.623 54.0658 64.6491 65.649 66.6957 78.5465C68.8522 92.1181 72.2992 106.032 77.0365 120.288C77.1245 120.54 77.0345 120.644 76.7664 120.6C68.4721 119.207 59.6798 117.035 54.2303 109.893C50.3572 104.816 46.6142 99.3841 43.0012 93.5985C42.9449 93.5084 42.908 93.4075 42.8929 93.3023C42.8779 93.1971 42.885 93.0899 42.9138 92.9876C42.9426 92.8853 42.9925 92.7902 43.0603 92.7083C43.1281 92.6265 43.2122 92.5597 43.3073 92.5122C45.6 91.3759 46.9683 89.7655 47.4124 87.6809" stroke="#9B979E" stroke-width="2"/>
<path d="M47.4123 87.6808C47.4304 84.746 46.4341 83.9958 45.4198 81.8292C45.3318 81.6372 45.3318 81.4451 45.4198 81.2531C46.6842 78.5123 47.4404 76.0097 47.6884 73.745C48.2966 68.1875 48.9468 63.8364 49.639 60.6915C49.971 59.1791 49.749 58.0208 48.9728 57.2166C46.5121 54.6839 40.9006 58.5909 39.2501 60.5475C38.2119 61.7778 37.6057 63.1882 37.0415 64.7246C37.0185 64.7846 36.9765 64.8354 36.9218 64.8693C36.8672 64.9032 36.8029 64.9182 36.7389 64.912C36.6749 64.9059 36.6147 64.879 36.5675 64.8354C36.5202 64.7918 36.4886 64.7339 36.4774 64.6706C35.7692 60.3854 32.5463 41.7744 25.2183 45.0273C21.6894 46.5937 22.1095 50.2307 22.6496 53.3275C22.6618 53.3847 22.6526 53.4444 22.6238 53.4954C22.5951 53.5463 22.5487 53.585 22.4934 53.6041C22.4382 53.6233 22.3778 53.6216 22.3237 53.5994C22.2696 53.5772 22.2254 53.536 22.1995 53.4836C21.3633 51.9631 20.261 50.5908 18.8926 49.3664C16.768 47.4579 13.017 47.2659 11.3066 49.7025C9.218 52.6853 12.2368 57.9548 13.4611 60.8295C13.5972 61.1536 13.5212 61.2157 13.2331 61.0156C10.8985 59.4252 7.29148 56.0583 4.17663 57.9968C0.929753 60.0193 1.4579 64.7666 3.81654 67.2993C8.64784 72.4847 11.2345 78.8644 14.6915 84.9201C16.776 88.5691 19.9789 91.0137 24.3001 92.2541C24.389 92.2788 24.4665 92.3343 24.5191 92.411C24.5717 92.4877 24.5961 92.5808 24.5882 92.6742C24.048 98.4297 29.5875 99.1919 33.5606 97.2654" stroke="#918D94" stroke-width="2"/>
<path d="M33.5605 97.2655C33.9627 97.1994 34.3107 97.3855 34.5388 97.7456C37.4236 102.427 40.4524 107.014 43.6253 111.507C48.7747 118.793 53.4439 123.583 61.9242 126.433C67.8378 128.422 73.8134 129.822 79.8511 130.635C80.0417 130.66 80.2226 130.735 80.3761 130.852C80.5297 130.969 80.6506 131.123 80.7273 131.301C85.0845 141.551 97.3758 143.97 107.249 141.551C111.666 140.471 116.623 137.602 121.118 135.424C121.275 135.348 121.452 135.329 121.62 135.371C121.788 135.413 121.936 135.512 122.037 135.652C126.292 141.539 134.97 139.775 137.719 133.347C137.791 133.183 137.905 133.145 138.061 133.233C142.714 135.902 146.539 135.074 149.536 130.749C149.656 130.576 149.804 130.548 149.98 130.665C155.496 134.247 159.301 130.803 161.149 125.713C161.417 124.969 161.731 124.949 162.091 125.653C163.212 127.826 163.888 130.028 164.12 132.261C165.746 147.883 156.126 161.711 139.969 163.157C134.478 163.649 131.111 161.981 126.238 159.076C116.575 153.315 102.309 160.036 95.0472 166.776C92.0464 169.561 91.1521 172.496 92.8146 176.235C95.9114 183.209 101.853 188.928 108.437 192.589C108.498 192.622 108.55 192.669 108.59 192.726C108.63 192.783 108.656 192.848 108.666 192.917C108.677 192.985 108.671 193.055 108.65 193.121C108.629 193.187 108.593 193.248 108.545 193.297C99.5104 202.636 91.7963 212.967 85.4026 224.29C85.3646 224.358 85.3128 224.417 85.2507 224.463C85.1885 224.51 85.1173 224.543 85.0416 224.561C84.9659 224.578 84.8874 224.58 84.811 224.565C84.7347 224.55 84.6623 224.52 84.5984 224.476C82.6258 223.112 80.7693 223.238 79.0289 224.854C78.9987 224.882 78.9629 224.902 78.9239 224.915C78.885 224.927 78.8439 224.931 78.8033 224.925C78.7628 224.92 78.7239 224.906 78.6893 224.885C78.6546 224.863 78.6251 224.834 78.6028 224.8C77.7205 223.45 76.8863 221.769 75.932 220.659C70.6906 214.601 64.1948 212.459 56.4447 214.231C47.1182 216.368 44.1594 224.806 46.152 233.484C46.7321 236.017 47.9304 239.174 49.7469 242.955C53.664 251.133 59.3935 257.289 66.9356 261.422C72.5131 264.479 77.7545 264.057 82.6598 260.156C85.8167 257.647 87.1851 251.891 87.7792 248.086C87.8152 247.87 87.9373 247.792 88.1453 247.852C90.4019 248.512 92.0824 248.11 93.1867 246.646C95.5513 243.519 93.2767 236.773 91.6323 233.64C91.505 233.399 91.4401 233.129 91.4432 232.854C91.4463 232.58 91.5175 232.31 91.6503 232.068C98.5041 219.621 107.255 207.263 117.799 197.469C117.938 197.342 118.108 197.254 118.291 197.215C118.475 197.176 118.666 197.187 118.844 197.247C136.867 203.182 159.199 202.546 175.355 191.557C175.442 191.498 175.546 191.468 175.65 191.471C175.755 191.475 175.855 191.511 175.937 191.575C179.782 194.556 183.387 197.777 186.752 201.238C187.32 201.822 187.814 202.466 188.234 203.17C192.964 211.06 197.699 218.946 202.44 226.829C202.544 227.001 202.63 227.389 202.698 227.993" stroke="#9B979E" stroke-width="2"/>
<path d="M202.699 227.993C200.802 231.792 198.161 244.035 207.95 239.132C207.987 239.113 208.028 239.103 208.069 239.105C208.111 239.106 208.151 239.118 208.187 239.14C208.223 239.161 208.253 239.192 208.275 239.228C208.296 239.264 208.308 239.306 208.31 239.348C208.574 247.984 215.146 247.534 221.148 245.085C230.78 241.16 237.994 231.576 242.988 222.603C244.62 219.67 245.582 217.59 245.874 216.362C246.547 213.505 245.724 208.217 242.904 206.465C231.458 199.347 219.455 210.252 214.498 219.777C214.398 219.973 214.244 220.035 214.036 219.963C212.595 219.478 211.141 219.452 209.673 219.885C209.571 219.913 209.464 219.915 209.362 219.888C209.261 219.862 209.169 219.809 209.096 219.735C208.604 219.238 208.2 218.584 207.884 217.772" stroke="#918D94" stroke-width="2"/>
<path d="M207.884 217.772C204.155 211.414 200.352 205.003 196.475 198.537C193.48 193.544 188.355 189.529 183.89 185.916C183.838 185.874 183.796 185.822 183.767 185.763C183.737 185.704 183.72 185.64 183.718 185.574C183.716 185.508 183.728 185.443 183.753 185.383C183.779 185.323 183.817 185.269 183.866 185.225C206.81 164.148 208.394 131.469 191.278 106.346C191.162 106.178 191.184 106.028 191.344 105.896C198.114 100.374 204.973 95.0689 211.035 88.7432C214.984 84.6261 216.1 80.731 216.845 74.9335C217.709 68.2436 218.343 61.5058 218.747 54.72" stroke="#9B979E" stroke-width="2"/>
<path d="M218.747 54.72C223.062 53.6817 227.881 52.5714 224.959 46.4257C224.867 46.2337 224.901 46.0716 225.061 45.9396C231.032 40.8622 230.924 33.9663 231.002 26.7764C231.042 23.1114 231.558 19.5304 232.551 16.0335C233.063 14.225 233.307 12.9687 233.283 12.2645C233.145 8.3094 228.716 4.02423 225.043 7.78725C223.782 9.0796 222.792 10.636 222.072 12.4565C222.043 12.5287 221.99 12.5887 221.922 12.6262C221.854 12.6637 221.775 12.6765 221.698 12.6623C221.622 12.6482 221.553 12.608 221.503 12.5486C221.453 12.4891 221.425 12.4142 221.424 12.3365C221.4 9.75579 221.544 5.11653 220.019 3.08198C218.159 0.597306 214.882 1.10744 212.799 3.03997C210.927 4.78644 210.855 7.45716 210.381 9.74378C210.309 10.0799 210.199 10.0939 210.05 9.78579C208.796 7.12707 208.034 3.57411 204.349 3.67014C201.354 3.75416 199.608 5.99877 199.632 8.92756C199.676 14.6651 200.502 20.2906 202.11 25.8041C202.198 26.1042 202.178 26.3423 202.05 26.5183C202.027 26.5496 201.997 26.5753 201.962 26.5936C201.928 26.6118 201.89 26.6222 201.851 26.6239C201.811 26.6257 201.773 26.6187 201.737 26.6035C201.701 26.5884 201.668 26.5654 201.642 26.5363C198.557 23.1274 194.684 21.9311 190.023 22.9474C186.662 23.6796 187.304 26.3383 188.835 28.4929C190.455 30.7735 192.154 32.838 193.606 35.3767C195.667 38.9897 198.197 42.2386 201.198 45.1234C201.346 45.2634 201.416 45.4335 201.408 45.6335C201.38 46.4097 201.344 47.1759 201.3 47.9321C200.976 53.1235 204.757 53.9638 208.85 54.4979" stroke="#918D94" stroke-width="2"/>
<path d="M218.747 54.72C218.527 54.5639 218.369 54.3659 218.273 54.1258C218.217 53.9818 218.111 53.8978 217.955 53.8738C217.479 53.7977 217.053 53.5957 216.677 53.2676C216.577 53.1788 216.446 53.1297 216.311 53.1296L210.171 53.0815C209.931 53.0775 209.743 53.1756 209.607 53.3756L208.851 54.4979" stroke="#2C2533" stroke-width="2"/>
<path d="M207.884 217.772C207.152 218.632 207.334 219.309 208.43 219.801C208.606 219.877 208.738 219.999 208.826 220.167C209.074 220.651 209.463 220.957 209.991 221.085C210.085 221.106 210.169 221.157 210.232 221.23C210.295 221.304 210.332 221.396 210.339 221.493C210.355 221.773 210.273 222.107 210.093 222.495" stroke="#2C2533" stroke-width="2"/>
<path d="M210.093 222.495C208.084 224.108 206.472 226.098 205.255 228.467" stroke="#9B979E" stroke-width="2"/>
<path d="M205.255 228.467C205.311 227.923 204.995 227.671 204.307 227.711C204.236 227.714 204.166 227.702 204.101 227.673C204.037 227.645 203.98 227.603 203.935 227.549L203.293 226.792C203.077 226.532 202.941 226.57 202.885 226.907L202.699 227.993" stroke="#2C2533" stroke-width="2"/>
<path d="M33.5605 97.2654C34.2607 96.2492 34.6008 95.2029 34.5808 94.1266" stroke="#2C2533" stroke-width="2"/>
<path d="M34.5811 94.1266C37.7819 92.7302 40.9008 90.9517 43.9376 88.7911C44.4297 88.443 44.7538 87.9609 44.9099 87.3447" stroke="#9B979E" stroke-width="2"/>
<path d="M44.9097 87.3447C44.8737 87.7808 45.1217 88.0689 45.6539 88.209C45.6819 88.213 45.7079 88.209 45.7319 88.197C45.7879 88.1649 45.8319 88.1309 45.8639 88.0949C45.9119 88.0309 45.968 88.0229 46.032 88.0709C46.2961 88.255 46.7562 88.1249 47.4124 87.6808" stroke="#2C2533" stroke-width="2"/>
<path d="M44.9099 87.3448C44.7779 86.2205 44.3838 85.1642 43.7276 84.176C43.0314 83.1137 42.9834 82.2434 42.8394 81.0731C42.8154 80.8691 42.8474 80.673 42.9354 80.485C44.1357 77.9643 44.7959 76.0658 44.9159 74.7894C45.3881 69.684 46.2183 64.5606 47.4066 59.4192C47.4268 59.3298 47.4234 59.2367 47.3967 59.149C47.37 59.0613 47.3209 58.9821 47.2543 58.9192C47.1877 58.8562 47.1058 58.8116 47.0168 58.7899C46.9277 58.7681 46.8346 58.7699 46.7464 58.7951C41.6771 60.2155 39.0103 63.6084 38.7463 68.9738C38.6923 70.0181 37.738 70.6003 36.7837 69.9761C36.693 69.9169 36.6188 69.8365 36.5677 69.742L35.0253 66.9753C34.9252 66.7912 34.7712 66.6932 34.5631 66.6812C27.7533 66.2611 22.0077 68.4977 17.3265 73.391C17.1343 73.591 16.8755 73.7137 16.599 73.7358C16.3226 73.7579 16.0476 73.6779 15.8261 73.5111C14.0676 72.1847 16.4022 70.6483 17.3445 69.9761C17.4649 69.8887 17.5468 69.7582 17.5726 69.6124C17.5984 69.4666 17.5661 69.3171 17.4825 69.1959C14.7778 65.2748 11.3809 62.234 7.29174 60.0734C4.83108 58.7711 4.23692 62.144 4.57301 63.6684C4.72505 64.3526 5.19918 65.1388 5.99539 66.027C10.8327 71.3985 13.4134 77.4001 16.8643 83.3897C18.6648 86.5106 21.2375 88.6372 24.5824 89.7695C24.7616 89.8305 24.9533 89.8465 25.1405 89.8162C25.3278 89.7858 25.505 89.71 25.6567 89.5954C29.6418 86.6106 33.983 84.296 38.6803 82.6515C38.8656 82.5882 39.0644 82.5759 39.2557 82.616C39.4469 82.6562 39.6234 82.7473 39.7665 82.8796C40.5888 83.6418 40.2167 84.8061 39.1784 85.1722C35.0373 86.6366 31.2002 88.6732 27.6673 91.2819C27.0911 91.71 26.871 92.3602 27.0071 93.2324C27.6433 97.3435 32.3125 95.267 34.5811 94.1267" stroke="#918D94" stroke-width="2"/>
<path d="M205.256 228.467C203.939 231.104 203.287 233.864 203.299 236.749C203.299 236.896 203.332 237.041 203.394 237.174C203.457 237.307 203.547 237.425 203.66 237.519C203.772 237.614 203.904 237.682 204.046 237.72C204.188 237.758 204.337 237.765 204.481 237.74C205.566 237.552 206.548 237.149 207.428 236.533C207.719 236.33 208.071 236.232 208.425 236.255C208.78 236.278 209.116 236.42 209.379 236.659C209.843 237.075 210.231 237.618 210.543 238.286C211.425 240.158 210.507 243.615 213.436 244.005C219.539 244.833 226.291 239.9 230.378 235.651C234.439 231.426 237.882 226.735 240.707 221.577C243.102 217.202 244.626 214.627 242.778 210.174C242.378 209.218 241.791 208.732 241.019 208.716C228.326 208.446 218.489 226.631 213.988 236.311C213.953 236.385 213.892 236.445 213.818 236.479C213.743 236.513 213.659 236.519 213.58 236.497L212.361 236.167C212.247 236.137 212.14 236.083 212.048 236.007C211.957 235.932 211.882 235.838 211.83 235.731C211.779 235.625 211.75 235.508 211.748 235.39C211.745 235.271 211.768 235.154 211.815 235.045C215.204 227.243 219.783 220.177 225.553 213.847C228.33 210.802 231.637 208.548 235.474 207.083C235.52 207.067 235.559 207.035 235.584 206.994C235.609 206.952 235.619 206.903 235.612 206.854C235.605 206.806 235.581 206.762 235.545 206.729C235.509 206.696 235.462 206.677 235.414 206.675C228.89 206.201 221.412 213.229 218.339 218.222C215.426 222.96 212.946 227.961 210.897 233.226C210.833 233.393 210.724 233.538 210.582 233.645C210.44 233.752 210.27 233.817 210.092 233.833C209.914 233.848 209.735 233.814 209.575 233.733C209.415 233.653 209.28 233.529 209.187 233.376L208.616 232.446C208.568 232.369 208.54 232.281 208.533 232.19C208.527 232.099 208.543 232.007 208.58 231.924L212.788 222.627C212.817 222.564 212.831 222.495 212.829 222.425C212.827 222.355 212.809 222.286 212.776 222.224C212.743 222.162 212.696 222.108 212.638 222.067C212.581 222.026 212.515 221.998 212.445 221.985C211.669 221.861 210.885 222.031 210.093 222.495" stroke="#918D94" stroke-width="2"/>
<path d="M212.488 20.2886C211.411 21.3849 210.595 21.2788 210.039 19.9705C209.923 19.6904 209.831 19.3023 209.763 18.8062C209.511 16.8436 207.104 4.1742 203.293 6.43681C200.388 8.16528 203.605 21.789 204.277 24.5197C204.321 24.7038 204.427 24.7518 204.595 24.6638C208.957 22.3391 213.61 21.5149 218.555 22.1911C218.594 22.1962 218.634 22.1932 218.672 22.1824C218.709 22.1716 218.744 22.1531 218.774 22.1283C218.804 22.1034 218.829 22.0726 218.846 22.038C218.863 22.0033 218.872 21.9655 218.873 21.927C219.107 17.6298 218.951 13.3867 218.807 9.08353C218.743 7.15501 218.493 5.76663 218.057 4.9184C217.139 3.15392 214.894 4.07217 214.192 5.49456C212.146 9.62968 212.554 15.0251 212.806 19.4423C212.813 19.5976 212.789 19.7528 212.734 19.8983C212.679 20.0438 212.596 20.1766 212.488 20.2886Z" stroke="#918D94" stroke-width="2"/>
<path d="M203.407 31.9257C203.235 32.0039 203.04 32.0178 202.858 31.9649C202.677 31.9121 202.52 31.796 202.417 31.6377C199.458 27.0764 196.517 24.2017 190.491 25.2219C190.396 25.2378 190.306 25.2783 190.231 25.3393C190.156 25.4003 190.098 25.4798 190.063 25.57C190.028 25.6602 190.017 25.758 190.031 25.8537C190.045 25.9495 190.084 26.0399 190.143 26.1162C193.264 30.0932 196.127 34.3064 198.732 38.7556C200.412 41.6244 204.445 43.1308 204.013 47.4219C203.503 52.4393 207.398 51.7251 210.963 51.9772C213.79 52.1752 219.611 52.5593 222.12 51.197C223.794 50.2907 223.392 48.0821 222.36 46.8878C222.228 46.7358 222.062 46.6417 221.862 46.6057C217.377 45.8135 212.863 45.5614 208.322 45.8495C207.406 45.9095 206.964 45.3854 206.996 44.2771C207.001 44.0738 207.08 43.8792 207.22 43.73C207.359 43.5808 207.548 43.4873 207.752 43.4669C212.857 42.9787 217.909 43.2548 222.906 44.2951C223.122 44.3391 223.312 44.2851 223.476 44.1331C226.281 41.5444 227.827 38.3075 228.116 34.4224C228.608 27.7546 228.26 21.3029 230.336 14.7191C230.996 12.6305 231.002 11.1481 229.58 9.57569C229.136 9.08756 228.576 8.8595 227.899 8.8915C227.691 8.90351 227.511 8.98153 227.359 9.12557C224.034 12.3905 222.054 17.8159 221.304 22.3231C221.287 22.4259 221.308 22.5315 221.365 22.62C221.421 22.7085 221.508 22.7737 221.61 22.8033L224.497 23.6375C224.605 23.6686 224.7 23.7366 224.766 23.8304C224.831 23.9241 224.863 24.0381 224.857 24.1536L224.791 25.2339C224.783 25.3805 224.741 25.5232 224.668 25.6505C224.595 25.7778 224.493 25.8861 224.37 25.9667C224.247 26.0473 224.107 26.098 223.961 26.1145C223.816 26.1311 223.668 26.1132 223.53 26.0622C217.081 23.6895 210.849 24.0776 204.835 27.2265C204.647 27.3265 204.537 27.4785 204.505 27.6826C204.289 28.9849 204.853 31.2656 203.407 31.9257Z" stroke="#918D94" stroke-width="2"/>
<path d="M98.1865 139.385C100.739 139.741 103.26 139.701 105.749 139.265C107.353 138.981 109.392 138.231 111.864 137.014C125.224 130.437 138.992 125.051 153.167 120.858" stroke="#7D5F46" stroke-width="2"/>
<path d="M153.167 120.858C169.384 117.917 168.195 138.029 164.799 147.277C161.672 155.793 154.77 162.071 146.115 164.628C139.664 166.536 132.462 166.122 126.688 162.323C124.952 161.179 123.669 160.473 122.841 160.205C115.165 157.714 105.592 161.669 99.6029 166.23C97.4543 167.863 94.0093 170.269 94.6335 173.18C95.8098 178.672 100.707 183.707 104.926 187.098C113.545 194.024 125.848 197.445 136.795 197.901" stroke="#927659" stroke-width="2"/>
<path d="M136.795 197.901C141.588 198.121 146.027 198.093 150.113 197.817C162.65 196.97 174.653 190.495 183.578 181.786C194.601 171.035 200.13 157.878 200.166 142.314C200.196 128.63 195.287 113.884 185.558 103.963" stroke="#7D5F46" stroke-width="2"/>
<path d="M185.558 103.963C178.156 95.6611 168.996 90.2757 158.077 87.807C157.917 87.771 157.805 87.829 157.741 87.981L156.594 90.6458C156.504 90.8567 156.489 91.0919 156.55 91.3123C156.611 91.5327 156.745 91.7252 156.93 91.8581C161.462 95.105 161.672 101.065 161.51 106.046C161.498 106.514 161.726 106.762 162.194 106.79C163.958 106.886 169.342 107.828 167.637 110.475C167.573 110.576 167.489 110.663 167.389 110.73C167.29 110.797 167.178 110.843 167.06 110.865C166.942 110.886 166.82 110.884 166.703 110.857C166.585 110.831 166.474 110.78 166.377 110.709C161.588 107.24 148.732 110.889 146.836 116.639C146.782 116.801 146.689 116.948 146.565 117.066C146.441 117.184 146.291 117.27 146.126 117.316C145.962 117.362 145.79 117.367 145.623 117.331C145.457 117.294 145.303 117.217 145.173 117.107C143.331 115.547 145.377 113.872 146.044 112.42C146.128 112.24 146.126 112.062 146.038 111.886C142.455 104.54 139.958 95.4471 143.955 87.5369C143.992 87.4642 144.008 87.3826 144.001 87.3013C143.994 87.2199 143.965 87.1421 143.916 87.0766C143.868 87.0111 143.802 86.9605 143.726 86.9305C143.65 86.9005 143.567 86.8923 143.487 86.9067C135.485 88.3511 127.717 90.6037 120.183 93.6646C120.093 93.7 120.015 93.7607 119.959 93.8394C119.903 93.9181 119.87 94.0115 119.864 94.1087C119.772 95.4731 119.33 96.7194 118.538 97.8477C118.421 98.0124 118.373 98.2162 118.404 98.4151C118.436 98.6139 118.544 98.7917 118.706 98.91C122.493 101.701 122.739 104.924 122.967 109.533C123.047 111.089 123.037 112.658 122.937 114.238C122.921 114.458 123.017 114.6 123.225 114.664C124.684 115.132 128.267 115.649 128.081 117.905C128.045 118.369 127.895 118.707 127.631 118.919C127.43 119.082 127.178 119.168 126.921 119.16C126.663 119.152 126.416 119.052 126.226 118.877C122.115 115.108 112.578 117.971 108.353 121.134C107.441 121.818 107.051 122.832 106.619 123.817C106.557 123.957 106.462 124.081 106.342 124.176C106.221 124.271 106.079 124.336 105.928 124.363C105.776 124.391 105.62 124.382 105.473 124.335C105.326 124.289 105.191 124.208 105.082 124.099C103.072 122.07 105.863 119.94 107.057 118.529C107.123 118.451 107.165 118.355 107.178 118.254C107.191 118.153 107.174 118.05 107.129 117.959C104.524 112.546 103.418 106.87 103.81 100.933C103.93 99.036 103.162 97.9377 102.676 96.2033" stroke="#927659" stroke-width="2"/>
<path d="M102.676 96.2033C101.94 91.9381 101.043 87.693 99.987 83.4678C99.1708 80.199 100.085 77.8123 102.73 76.3079C105.418 74.7755 109.572 72.987 115.189 70.9424C125.552 67.1654 135.981 63.5824 146.476 60.1935C151.217 58.6631 155.64 56.7126 160.153 54.7921C163.19 53.4957 165.087 51.5152 164.973 48.0282C164.817 43.353 163.43 39.4339 161.828 34.1945C160.994 31.4577 159.703 27.8988 156.756 27.1066" stroke="#7D5F46" stroke-width="2"/>
<path d="M156.756 27.1064C155.904 27.0284 155.153 26.9924 154.319 27.2865C131.597 35.3687 108.873 43.4569 86.1468 51.5511C83.0619 52.6513 80.7013 53.7677 79.0649 54.9C73.1512 59.0011 69.8343 64.6126 69.1142 71.7345C68.8381 74.4393 69.1422 78.1523 70.0264 82.8735C72.7091 97.1994 76.7782 111.111 81.2975 124.951C82.6178 129 83.8902 131.813 85.1145 133.389C88.1233 137.278 92.4805 139.277 98.186 139.385" stroke="#927659" stroke-width="2"/>
<path d="M156.756 27.1066C157.008 28.743 157.266 29.9593 157.53 30.7556C158.903 34.8967 159.981 39.1338 160.765 43.467C161.642 48.2983 159.649 51.8873 154.926 53.5077C136.693 59.7554 118.142 65.733 100.515 73.5652C97.6702 74.8315 94.9874 76.9141 95.7737 80.1909C96.926 84.9842 98.0123 89.7916 99.0325 94.6129C99.2086 95.4451 99.7467 96.0472 100.647 96.4193C100.831 96.4954 101.013 96.4894 101.193 96.4013C101.701 96.1533 102.195 96.0873 102.676 96.2033" stroke="#D9A662" stroke-width="2"/>
<path d="M185.558 103.963C185.79 105.26 186.096 106.212 186.476 106.82C202.279 132.267 199.23 164.508 175.247 183.719C166.717 190.549 156.998 195.036 146.091 197.181C143.067 197.769 139.922 197.829 136.795 197.901" stroke="#D9A662" stroke-width="2"/>
<path d="M153.167 120.858C149.823 120.598 146.504 120.936 143.211 121.872C140.154 122.74 137.185 123.841 134.304 125.173C131.231 126.601 128.021 127.454 124.864 128.846C115.717 132.887 109.922 135.414 107.477 136.426C104.964 137.47 101.868 138.457 98.1865 139.385" stroke="#D9A662" stroke-width="2"/>
<path d="M151.739 85.3643C152.777 87.2968 153.371 87.7829 152.099 89.7995C151.643 90.5317 151.423 91.3459 151.439 92.2421C151.441 92.3387 151.462 92.4338 151.503 92.5216C151.543 92.6094 151.601 92.6879 151.673 92.7523C153.923 94.8649 156.024 96.5213 156.402 99.8522C156.658 102.097 156.822 104.365 156.894 106.658C156.906 106.958 157.062 107.1 157.362 107.084L158.509 107.012C158.757 107 158.891 106.87 158.911 106.622C159.147 103.317 158.781 100.088 157.813 96.9354C156.966 94.1687 152.891 93.3164 154.074 90.0936C154.374 89.2733 154.744 88.4351 155.184 87.5789C155.223 87.4995 155.242 87.4118 155.24 87.323C155.238 87.2343 155.214 87.1471 155.172 87.0687C154.468 85.7724 153.383 85.1082 151.919 85.0762C151.885 85.0756 151.851 85.0838 151.821 85.1001C151.791 85.1164 151.765 85.1402 151.747 85.1693C151.729 85.1983 151.719 85.2315 151.717 85.2657C151.716 85.2998 151.723 85.3338 151.739 85.3643Z" stroke="#9B979E" stroke-width="2"/>
<path d="M118.718 102.445C116.281 100.332 114.361 98.1358 117.043 95.3571C117.165 95.2304 117.248 95.0714 117.282 94.8991C117.316 94.7267 117.3 94.5483 117.235 94.3848C116.755 93.1445 115.855 92.3723 114.535 92.0682C114.456 92.0487 114.373 92.0532 114.297 92.0811C114.22 92.109 114.154 92.159 114.106 92.2247C114.059 92.2905 114.032 92.3689 114.029 92.4501C114.026 92.5313 114.048 92.6114 114.09 92.6803C115.223 94.5208 115.065 96.2253 113.616 97.7937C113.47 97.9512 113.36 98.1383 113.294 98.3422C113.227 98.5462 113.205 98.7621 113.229 98.9753C113.254 99.1886 113.324 99.3939 113.436 99.5774C113.547 99.7609 113.697 99.9181 113.874 100.038C118.838 103.393 118.286 109.119 118.406 114.298C118.407 114.35 118.419 114.401 118.44 114.449C118.462 114.496 118.492 114.539 118.53 114.575C118.568 114.611 118.613 114.638 118.661 114.657C118.71 114.675 118.762 114.684 118.814 114.682L120.044 114.634C120.284 114.626 120.412 114.504 120.428 114.268C120.584 112.264 120.56 104.041 118.718 102.445Z" stroke="#9B979E" stroke-width="2"/>
<path d="M149.476 126.337C149.868 126.465 150.258 126.804 150.646 127.352C154.145 132.273 158.256 127.97 158.869 123.913C158.901 123.705 158.815 123.581 158.611 123.541C157.398 123.309 156.384 123.269 155.568 123.421C150.062 124.449 144.239 126.215 138.097 128.72C137.921 128.792 137.877 128.914 137.965 129.086C140.42 133.857 146.859 132.813 147.736 127.406C147.9 126.369 148.48 126.013 149.476 126.337Z" stroke="#9B979E" stroke-width="2"/>
<path d="M135.216 129.548L124.515 133.905C124.452 133.931 124.397 133.971 124.353 134.024C124.31 134.076 124.28 134.138 124.266 134.205C124.253 134.272 124.256 134.342 124.275 134.408C124.294 134.474 124.329 134.534 124.377 134.584C128.836 139.169 135.288 135.97 135.786 129.968C135.793 129.898 135.781 129.826 135.751 129.761C135.722 129.696 135.677 129.64 135.62 129.598C135.562 129.556 135.495 129.529 135.424 129.52C135.354 129.512 135.282 129.521 135.216 129.548Z" stroke="#9B979E" stroke-width="2"/>
<path d="M86.2971 244.701C88.3737 244.9 92.2027 247.15 91.5606 242.535C90.7683 236.875 88.1636 230.838 83.8725 227.045C82.6662 225.976 81.0997 226.138 80.0554 227.225C79.8354 227.453 79.8154 227.695 79.9954 227.951C82.4441 231.532 84.4846 235.349 86.1171 239.402C86.4832 240.308 86.4352 241.119 85.5889 241.641C85.4342 241.736 85.2601 241.796 85.0792 241.815C84.8984 241.835 84.7156 241.813 84.5441 241.753C84.3726 241.693 84.2168 241.595 84.0881 241.466C83.9594 241.338 83.8611 241.182 83.8005 241.011C81.8259 235.435 78.495 230.562 75.7283 225.322C72.4274 219.085 66.9979 216.006 59.4399 216.086C59.3911 216.085 59.3436 216.101 59.305 216.131C59.2664 216.16 59.239 216.202 59.2272 216.249C59.2153 216.297 59.2198 216.347 59.2399 216.391C59.26 216.435 59.2945 216.472 59.3378 216.494C60.8442 217.292 62.7588 217.916 63.8811 218.648C66.0496 220.065 67.6201 221.937 68.5923 224.266C70.5129 228.857 72.2653 232.614 75.2001 236.695C77.0426 239.258 79.2512 241.887 80.6016 244.461C81.9419 247.006 82.9402 249.705 83.5964 252.558C83.6144 252.642 83.6614 252.716 83.729 252.769C83.7967 252.822 83.8807 252.85 83.9665 252.847C84.0523 252.844 84.1344 252.811 84.1984 252.754C84.2624 252.696 84.3042 252.619 84.3166 252.534L85.5289 245.29C85.5583 245.113 85.6539 244.955 85.7963 244.846C85.9388 244.737 86.1177 244.685 86.2971 244.701Z" stroke="#9B979E" stroke-width="2"/>
<path d="M52.5619 243.243C55.9548 249.809 60.8801 254.938 67.3379 258.631C72.2412 261.428 76.7244 261.752 81.1716 258.307C81.2101 258.277 81.242 258.239 81.2652 258.195C81.2884 258.152 81.3024 258.105 81.3064 258.056C81.3103 258.008 81.3041 257.959 81.2882 257.913C81.2722 257.868 81.2468 257.826 81.2136 257.791L79.8513 256.393C79.8041 256.341 79.771 256.279 79.7553 256.213C78.699 251.105 76.9225 247.504 73.5436 243.093C70.4527 239.06 68.1301 235.621 66.2156 231.138C64.9112 228.077 63.923 226.12 63.2508 225.268C60.406 221.663 56.4549 220.431 51.3976 221.571C49.8551 221.925 48.9669 222.922 48.6548 224.386C47.2024 231.15 49.285 236.905 52.5619 243.243Z" stroke="#9B979E" stroke-width="2"/>
<path d="M166.046 113.692L166.274 111.928C166.279 111.894 166.276 111.861 166.267 111.829C166.258 111.796 166.243 111.766 166.222 111.74C166.202 111.714 166.176 111.692 166.147 111.676C166.118 111.659 166.086 111.649 166.052 111.645L165.962 111.633C165.651 111.595 165.339 111.671 165.094 111.847C164.848 112.022 164.69 112.282 164.654 112.57L164.642 112.666C164.624 112.808 164.637 112.953 164.68 113.092C164.722 113.231 164.794 113.361 164.89 113.475C164.987 113.589 165.106 113.685 165.242 113.758C165.377 113.83 165.526 113.877 165.68 113.896L165.77 113.908C165.835 113.915 165.901 113.896 165.952 113.856C166.004 113.816 166.037 113.757 166.046 113.692Z" stroke="#927659" stroke-width="2"/>
<path d="M171.52 115.24C171.52 114.99 171.421 114.751 171.244 114.574C171.068 114.397 170.828 114.298 170.578 114.298C170.454 114.298 170.332 114.322 170.217 114.37C170.103 114.417 169.999 114.487 169.912 114.574C169.824 114.662 169.755 114.765 169.707 114.88C169.66 114.994 169.636 115.117 169.636 115.24C169.636 115.364 169.66 115.487 169.707 115.601C169.755 115.715 169.824 115.819 169.912 115.907C169.999 115.994 170.103 116.064 170.217 116.111C170.332 116.158 170.454 116.183 170.578 116.183C170.828 116.183 171.068 116.083 171.244 115.907C171.421 115.73 171.52 115.49 171.52 115.24Z" stroke="#927659" stroke-width="2"/>
<path d="M165.315 117.041C165.315 116.804 165.221 116.576 165.053 116.408C164.885 116.241 164.658 116.146 164.421 116.146C164.183 116.146 163.956 116.241 163.788 116.408C163.621 116.576 163.526 116.804 163.526 117.041C163.526 117.278 163.621 117.505 163.788 117.673C163.956 117.841 164.183 117.935 164.421 117.935C164.658 117.935 164.885 117.841 165.053 117.673C165.221 117.505 165.315 117.278 165.315 117.041Z" stroke="#927659" stroke-width="2"/>
<path d="M109.03 126.968C109.14 126.997 109.256 127 109.372 126.976C109.488 126.952 109.6 126.901 109.704 126.827C109.807 126.753 109.899 126.657 109.974 126.545C110.049 126.432 110.106 126.305 110.142 126.171C110.214 125.9 110.195 125.617 110.088 125.384C109.981 125.15 109.796 124.986 109.573 124.927C109.462 124.897 109.346 124.895 109.23 124.919C109.115 124.943 109.002 124.993 108.899 125.067C108.795 125.141 108.703 125.237 108.628 125.35C108.553 125.463 108.496 125.59 108.46 125.724C108.388 125.994 108.408 126.277 108.515 126.511C108.621 126.744 108.807 126.909 109.03 126.968Z" stroke="#927659" stroke-width="2"/>
<path d="M103.102 127.394C103.102 127.139 103.001 126.895 102.82 126.715C102.64 126.535 102.396 126.433 102.141 126.433C101.887 126.433 101.642 126.535 101.462 126.715C101.282 126.895 101.181 127.139 101.181 127.394C101.181 127.648 101.282 127.893 101.462 128.073C101.642 128.253 101.887 128.354 102.141 128.354C102.396 128.354 102.64 128.253 102.82 128.073C103.001 127.893 103.102 127.648 103.102 127.394Z" stroke="#927659" stroke-width="2"/>
<path d="M107.369 130.803C107.369 130.671 107.343 130.541 107.293 130.419C107.242 130.297 107.168 130.187 107.075 130.094C106.982 130.001 106.872 129.927 106.75 129.877C106.628 129.826 106.498 129.8 106.367 129.8C106.235 129.8 106.105 129.826 105.983 129.877C105.861 129.927 105.751 130.001 105.658 130.094C105.565 130.187 105.491 130.297 105.441 130.419C105.39 130.541 105.364 130.671 105.364 130.803C105.364 131.068 105.47 131.323 105.658 131.511C105.846 131.699 106.101 131.805 106.367 131.805C106.632 131.805 106.887 131.699 107.075 131.511C107.263 131.323 107.369 131.068 107.369 130.803Z" stroke="#927659" stroke-width="2"/>
<path d="M26.1608 63.8064C24.9364 64.5026 24.0662 63.4223 23.6701 62.3C22.5118 59.0051 19.3069 51.5031 15.6879 50.3568C12.9512 49.4865 12.8251 52.5834 13.4793 54.3058C15.2438 58.9111 17.2984 63.4143 19.643 67.8155C19.739 67.9955 19.8731 68.0315 20.0451 67.9235C23.9041 65.4508 29.0175 63.7584 33.6568 64.2205C33.8368 64.2405 33.9089 64.1605 33.8729 63.9805C33.2247 60.9376 30.2959 46.6598 26.6589 47.2239C24.1622 47.614 24.8104 50.8969 24.9484 52.7334C25.1885 55.9623 25.7927 59.1451 26.7609 62.282C26.8494 62.5665 26.8381 62.8726 26.729 63.1498C26.6198 63.4269 26.4194 63.6586 26.1608 63.8064Z" stroke="#918D94" stroke-width="2"/>
<path d="M218.747 54.72C218.527 54.5639 218.369 54.3659 218.273 54.1258C218.217 53.9818 218.111 53.8977 217.955 53.8737C217.479 53.7977 217.052 53.5957 216.676 53.2676C216.576 53.1788 216.446 53.1297 216.31 53.1295L210.171 53.0815C209.93 53.0775 209.742 53.1756 209.606 53.3756L208.85 54.4979C204.757 53.9638 200.976 53.1235 201.3 47.9321C201.344 47.1759 201.38 46.4097 201.408 45.6335C201.416 45.4335 201.346 45.2634 201.198 45.1234C198.197 42.2386 195.667 38.9897 193.606 35.3767C192.154 32.838 190.455 30.7735 188.835 28.4929C187.304 26.3383 186.662 23.6796 190.023 22.9474C194.684 21.9311 198.557 23.1274 201.642 26.5363C201.668 26.5654 201.701 26.5884 201.737 26.6035C201.773 26.6187 201.811 26.6257 201.851 26.6239C201.89 26.6222 201.928 26.6118 201.962 26.5936C201.997 26.5753 202.027 26.5496 202.05 26.5183C202.178 26.3423 202.198 26.1042 202.11 25.8041C200.502 20.2906 199.676 14.6651 199.632 8.92756C199.608 5.99877 201.354 3.75416 204.349 3.67014C208.034 3.57411 208.796 7.12707 210.05 9.78579C210.199 10.0939 210.309 10.0799 210.381 9.74378C210.855 7.45716 210.927 4.78644 212.799 3.03997C214.882 1.10744 218.159 0.597306 220.019 3.08198C221.544 5.11653 221.4 9.75579 221.424 12.3365C221.425 12.4142 221.453 12.4891 221.503 12.5486C221.553 12.608 221.622 12.6482 221.698 12.6623C221.775 12.6765 221.854 12.6637 221.922 12.6262C221.99 12.5887 222.043 12.5287 222.072 12.4565C222.792 10.636 223.782 9.0796 225.043 7.78725C228.716 4.02423 233.145 8.3094 233.283 12.2645C233.307 12.9687 233.063 14.225 232.551 16.0335C231.558 19.5304 231.042 23.1114 231.002 26.7764C230.924 33.9663 231.032 40.8622 225.061 45.9396C224.901 46.0716 224.867 46.2337 224.959 46.4257C227.881 52.5714 223.062 53.6817 218.747 54.72ZM212.487 20.2886C211.411 21.3849 210.595 21.2789 210.038 19.9706C209.922 19.6905 209.83 19.3024 209.762 18.8062C209.51 16.8437 207.104 4.17427 203.293 6.43689C200.388 8.16536 203.605 21.789 204.277 24.5198C204.321 24.7038 204.427 24.7519 204.595 24.6638C208.956 22.3392 213.609 21.515 218.555 22.1912C218.594 22.1962 218.633 22.1933 218.671 22.1825C218.709 22.1716 218.744 22.1532 218.774 22.1283C218.804 22.1035 218.828 22.0727 218.845 22.0381C218.862 22.0034 218.872 21.9656 218.873 21.9271C219.107 17.6299 218.951 13.3868 218.807 9.0836C218.743 7.15508 218.493 5.76671 218.057 4.91848C217.138 3.154 214.894 4.07225 214.192 5.49463C212.145 9.62975 212.553 15.0252 212.805 19.4424C212.813 19.5977 212.788 19.7529 212.734 19.8984C212.679 20.0439 212.595 20.1767 212.487 20.2886ZM203.407 31.9258C203.234 32.0039 203.04 32.0178 202.858 31.965C202.677 31.9121 202.52 31.796 202.416 31.6377C199.458 27.0765 196.517 24.2017 190.491 25.222C190.396 25.2379 190.306 25.2783 190.231 25.3394C190.156 25.4004 190.098 25.4799 190.063 25.5701C190.028 25.6603 190.017 25.758 190.031 25.8538C190.045 25.9495 190.084 26.04 190.143 26.1162C193.264 30.0933 196.127 34.3064 198.731 38.7556C200.412 41.6244 204.445 43.1308 204.013 47.422C203.503 52.4394 207.398 51.7252 210.963 51.9772C213.79 52.1753 219.611 52.5594 222.12 51.197C223.794 50.2908 223.392 48.0822 222.36 46.8878C222.228 46.7358 222.062 46.6418 221.862 46.6058C217.376 45.8136 212.863 45.5615 208.322 45.8496C207.406 45.9096 206.964 45.3854 206.996 44.2771C207.001 44.0738 207.08 43.8793 207.219 43.7301C207.359 43.5809 207.548 43.4873 207.752 43.4669C212.857 42.9788 217.909 43.2549 222.906 44.2951C223.122 44.3392 223.312 44.2851 223.476 44.1331C226.281 41.5444 227.827 38.3075 228.115 34.4225C228.608 27.7547 228.259 21.3029 230.336 14.7191C230.996 12.6306 231.002 11.1482 229.58 9.57574C229.136 9.08761 228.576 8.85954 227.899 8.89155C227.691 8.90356 227.511 8.98158 227.359 9.12562C224.034 12.3905 222.054 17.816 221.304 22.3232C221.287 22.426 221.308 22.5316 221.365 22.6201C221.421 22.7085 221.508 22.7737 221.61 22.8033L224.496 23.6375C224.605 23.6686 224.7 23.7366 224.765 23.8304C224.831 23.9242 224.863 24.0382 224.857 24.1537L224.79 25.234C224.783 25.3806 224.741 25.5232 224.667 25.6505C224.594 25.7778 224.492 25.8861 224.37 25.9668C224.247 26.0474 224.107 26.098 223.961 26.1146C223.815 26.1312 223.668 26.1132 223.53 26.0622C217.08 23.6896 210.849 24.0777 204.835 27.2265C204.647 27.3265 204.537 27.4786 204.505 27.6826C204.289 28.985 204.853 31.2656 203.407 31.9258Z" fill="#221B28"/>
<path d="M212.487 20.2887C212.595 20.1768 212.679 20.044 212.734 19.8984C212.788 19.7529 212.813 19.5977 212.805 19.4425C212.553 15.0253 212.145 9.6298 214.192 5.49468C214.894 4.07229 217.138 3.15404 218.057 4.91852C218.493 5.76675 218.743 7.15513 218.807 9.08365C218.951 13.3868 219.107 17.63 218.873 21.9271C218.872 21.9656 218.862 22.0034 218.845 22.0381C218.828 22.0728 218.804 22.1035 218.774 22.1284C218.744 22.1533 218.709 22.1717 218.671 22.1825C218.633 22.1933 218.594 22.1963 218.555 22.1912C213.609 21.515 208.956 22.3392 204.595 24.6639C204.427 24.7519 204.321 24.7039 204.277 24.5198C203.605 21.7891 200.388 8.1654 203.293 6.43693C207.104 4.17432 209.51 16.8438 209.762 18.8063C209.83 19.3024 209.922 19.6905 210.038 19.9706C210.595 21.279 211.411 21.385 212.487 20.2887Z" fill="white"/>
<path d="M203.406 31.9257C204.853 31.2656 204.289 28.9849 204.505 27.6826C204.537 27.4785 204.647 27.3265 204.835 27.2265C210.848 24.0776 217.08 23.6895 223.53 26.0622C223.667 26.1132 223.815 26.1311 223.961 26.1145C224.107 26.098 224.247 26.0473 224.369 25.9667C224.492 25.8861 224.594 25.7778 224.667 25.6505C224.74 25.5232 224.782 25.3805 224.79 25.2339L224.856 24.1536C224.863 24.0381 224.83 23.9241 224.765 23.8304C224.7 23.7366 224.605 23.6686 224.496 23.6375L221.609 22.8033C221.508 22.7737 221.421 22.7085 221.364 22.62C221.308 22.5315 221.286 22.4259 221.303 22.3231C222.053 17.8159 224.034 12.3905 227.359 9.12557C227.511 8.98153 227.691 8.90351 227.899 8.8915C228.575 8.8595 229.135 9.08756 229.579 9.57569C231.002 11.1481 230.996 12.6305 230.336 14.7191C228.259 21.3029 228.607 27.7546 228.115 34.4224C227.827 38.3075 226.281 41.5444 223.476 44.1331C223.312 44.2851 223.122 44.3391 222.906 44.2951C217.908 43.2548 212.857 42.9787 207.752 43.4669C207.548 43.4873 207.358 43.5808 207.219 43.73C207.08 43.8792 207 44.0738 206.995 44.2771C206.963 45.3854 207.405 45.9095 208.322 45.8495C212.863 45.5614 217.376 45.8135 221.861 46.6057C222.061 46.6417 222.227 46.7358 222.36 46.8878C223.392 48.0821 223.794 50.2907 222.119 51.197C219.611 52.5593 213.789 52.1752 210.962 51.9772C207.397 51.7251 203.502 52.4393 204.013 47.4219C204.445 43.1308 200.412 41.6244 198.731 38.7556C196.126 34.3064 193.264 30.0932 190.143 26.1162C190.083 26.0399 190.044 25.9495 190.03 25.8537C190.016 25.758 190.027 25.6602 190.062 25.57C190.098 25.4798 190.155 25.4003 190.231 25.3393C190.306 25.2783 190.395 25.2378 190.491 25.2219C196.516 24.2017 199.457 27.0764 202.416 31.6377C202.52 31.796 202.676 31.9121 202.858 31.9649C203.04 32.0178 203.234 32.0039 203.406 31.9257Z" fill="white"/>
<path d="M208.851 54.4979L209.607 53.3756C209.743 53.1756 209.931 53.0776 210.171 53.0816L216.311 53.1296C216.446 53.1297 216.577 53.1788 216.677 53.2676C217.053 53.5957 217.479 53.7978 217.955 53.8738C218.111 53.8978 218.217 53.9818 218.273 54.1258C218.369 54.3659 218.527 54.564 218.747 54.72C218.343 61.5058 217.709 68.2437 216.845 74.9335C216.101 80.7311 214.984 84.6261 211.035 88.7432C204.973 95.0689 198.114 100.374 191.344 105.896C191.184 106.028 191.162 106.178 191.278 106.346C208.394 131.469 206.81 164.148 183.866 185.225C183.817 185.269 183.779 185.323 183.753 185.383C183.728 185.443 183.716 185.508 183.718 185.574C183.72 185.64 183.737 185.704 183.767 185.763C183.796 185.822 183.838 185.874 183.89 185.916C188.355 189.529 193.48 193.544 196.475 198.537C200.352 205.003 204.155 211.414 207.884 217.772C207.152 218.632 207.334 219.309 208.43 219.801C208.606 219.877 208.738 219.999 208.827 220.167C209.075 220.651 209.463 220.957 209.991 221.085C210.085 221.106 210.169 221.157 210.232 221.23C210.295 221.304 210.332 221.396 210.339 221.493C210.355 221.773 210.273 222.107 210.093 222.495C208.084 224.108 206.472 226.098 205.256 228.467C205.312 227.923 204.995 227.671 204.307 227.711C204.237 227.714 204.166 227.702 204.102 227.674C204.037 227.645 203.98 227.603 203.935 227.549L203.293 226.793C203.077 226.533 202.941 226.571 202.885 226.907L202.699 227.993C202.631 227.389 202.545 227.001 202.441 226.829C197.7 218.946 192.964 211.06 188.235 203.17C187.815 202.466 187.321 201.822 186.753 201.238C183.388 197.777 179.783 194.556 175.938 191.575C175.856 191.511 175.755 191.475 175.651 191.471C175.546 191.468 175.443 191.498 175.355 191.557C159.199 202.546 136.867 203.182 118.844 197.247C118.666 197.187 118.475 197.176 118.292 197.215C118.108 197.254 117.938 197.342 117.8 197.469C107.255 207.263 98.5046 219.621 91.6508 232.068C91.518 232.31 91.4468 232.58 91.4437 232.854C91.4405 233.129 91.5055 233.399 91.6328 233.64C93.2772 236.773 95.5518 243.519 93.1872 246.646C92.0829 248.11 90.4024 248.513 88.1458 247.852C87.9378 247.792 87.8157 247.87 87.7797 248.086C87.1856 251.891 85.8172 257.647 82.6603 260.156C77.755 264.057 72.5136 264.479 66.9361 261.422C59.394 257.289 53.6645 251.133 49.7474 242.955C47.9309 239.174 46.7326 236.017 46.1524 233.484C44.1599 224.806 47.1187 216.368 56.4452 214.231C64.1953 212.459 70.6911 214.601 75.9325 220.659C76.8868 221.769 77.721 223.45 78.6032 224.8C78.6256 224.834 78.6551 224.863 78.6897 224.885C78.7244 224.906 78.7633 224.92 78.8038 224.925C78.8443 224.931 78.8855 224.927 78.9244 224.915C78.9634 224.902 78.9992 224.882 79.0294 224.854C80.7698 223.238 82.6263 223.112 84.5989 224.476C84.6628 224.52 84.7352 224.551 84.8115 224.565C84.8879 224.58 84.9664 224.578 85.0421 224.561C85.1178 224.543 85.189 224.51 85.2512 224.463C85.3133 224.417 85.3651 224.358 85.4031 224.29C91.7968 212.967 99.5109 202.636 108.545 193.298C108.594 193.248 108.63 193.187 108.651 193.121C108.672 193.055 108.677 192.985 108.667 192.917C108.656 192.848 108.63 192.783 108.59 192.726C108.551 192.669 108.498 192.623 108.437 192.589C101.854 188.928 95.9119 183.209 92.8151 176.235C91.1526 172.496 92.0469 169.561 95.0477 166.776C102.31 160.037 116.576 153.315 126.238 159.076C131.111 161.981 134.478 163.65 139.97 163.157C156.126 161.711 165.747 147.883 164.12 132.261C163.888 130.028 163.212 127.826 162.092 125.653C161.732 124.949 161.418 124.969 161.15 125.713C159.301 130.803 155.496 134.248 149.981 130.665C149.805 130.549 149.656 130.577 149.536 130.749C146.54 135.074 142.715 135.902 138.061 133.233C137.905 133.145 137.791 133.183 137.719 133.347C134.971 139.775 126.292 141.54 122.037 135.652C121.936 135.512 121.789 135.413 121.621 135.371C121.453 135.329 121.275 135.348 121.119 135.424C116.624 137.602 111.666 140.471 107.249 141.552C97.3763 143.97 85.085 141.552 80.7278 131.301C80.6511 131.123 80.5301 130.969 80.3766 130.852C80.2231 130.735 80.0422 130.66 79.8516 130.635C73.8139 129.822 67.8383 128.422 61.9247 126.433C53.4444 123.583 48.7752 118.793 43.6258 111.507C40.4529 107.014 37.4241 102.427 34.5393 97.7457C34.3112 97.3856 33.9631 97.1995 33.561 97.2655C34.2612 96.2493 34.6013 95.203 34.5813 94.1267C37.7822 92.7303 40.901 90.9518 43.9378 88.7912C44.43 88.4431 44.7541 87.961 44.9101 87.3448C44.8741 87.781 45.1222 88.069 45.6543 88.2091C45.6823 88.2131 45.7083 88.2091 45.7323 88.1971C45.7883 88.1651 45.8324 88.1311 45.8644 88.0951C45.9124 88.031 45.9684 88.023 46.0324 88.071C46.2965 88.2551 46.7566 88.1251 47.4128 87.6809C46.9687 89.7655 45.6003 91.3759 43.3077 92.5122C43.2126 92.5597 43.1284 92.6265 43.0607 92.7083C42.9929 92.7902 42.943 92.8853 42.9142 92.9876C42.8853 93.0899 42.8782 93.1971 42.8933 93.3023C42.9083 93.4075 42.9452 93.5084 43.0016 93.5985C46.6146 99.3841 50.3576 104.816 54.2306 109.893C59.6801 117.035 68.4725 119.207 76.7667 120.6C77.0348 120.644 77.1248 120.54 77.0368 120.288C72.2995 106.032 68.8526 92.1181 66.696 78.5465C64.6495 65.649 71.6233 54.0658 83.9807 49.6726C106.831 41.5544 129.677 33.4282 152.519 25.294C158.989 22.9894 161.84 26.8785 163.7 32.1959C165.077 36.117 166.175 40.116 166.995 44.1932C168.105 49.6966 167.313 54.2399 161.804 56.7786C155.064 59.8874 148.744 62.138 140.486 64.8027C129.699 68.2797 118.066 72.5488 105.587 77.6102C102.4 78.9006 101.812 80.539 102.664 83.8999C103.624 87.6729 104.45 91.422 105.142 95.147C105.152 95.1991 105.178 95.2469 105.216 95.2836C105.254 95.3203 105.303 95.344 105.356 95.3513C105.408 95.3586 105.462 95.3492 105.508 95.3244C105.555 95.2995 105.593 95.2606 105.617 95.213C108.065 90.3036 113.773 87.5249 118.556 91.3539C118.716 91.482 118.89 91.506 119.078 91.426C127.669 87.6929 136.597 85.2563 145.863 84.116C146.612 84.0239 147.5 83.7559 148.528 83.3118C151.493 82.0314 154.246 82.4795 156.786 84.6561C156.958 84.8082 157.159 84.9082 157.387 84.9562C167.669 87.1328 176.698 91.748 184.472 98.802C184.533 98.8591 184.612 98.8929 184.696 98.8973C184.779 98.9017 184.861 98.8764 184.928 98.826C191.818 93.7046 198.268 88.1951 204.277 82.2975C205.958 80.647 206.768 78.5945 207.158 76.0978C208.25 69.1479 208.963 62.16 209.295 55.1341C209.311 54.722 209.163 54.51 208.851 54.4979ZM98.1865 139.385C100.739 139.741 103.26 139.701 105.749 139.265C107.353 138.981 109.392 138.231 111.864 137.014C125.224 130.437 138.992 125.051 153.167 120.858C169.384 117.917 168.196 138.029 164.799 147.277C161.672 155.793 154.77 162.071 146.116 164.628C139.664 166.536 132.462 166.122 126.688 162.323C124.952 161.179 123.669 160.473 122.841 160.205C115.165 157.714 105.593 161.669 99.6029 166.23C97.4543 167.863 94.0094 170.269 94.6336 173.18C95.8099 178.672 100.707 183.707 104.926 187.098C113.545 194.024 125.848 197.445 136.795 197.901C141.588 198.121 146.028 198.093 150.113 197.817C162.65 196.971 174.653 190.495 183.578 181.786C194.601 171.036 200.13 157.878 200.166 142.314C200.196 128.63 195.287 113.884 185.558 103.963C178.156 95.6611 168.996 90.2756 158.077 87.807C157.917 87.771 157.805 87.829 157.741 87.981L156.594 90.6457C156.504 90.8567 156.489 91.0918 156.55 91.3123C156.611 91.5327 156.745 91.7252 156.93 91.8581C161.462 95.105 161.672 101.065 161.51 106.046C161.498 106.514 161.726 106.762 162.194 106.79C163.958 106.886 169.342 107.828 167.637 110.475C167.573 110.576 167.489 110.663 167.389 110.73C167.29 110.797 167.178 110.843 167.06 110.865C166.942 110.886 166.82 110.884 166.703 110.857C166.585 110.831 166.474 110.78 166.377 110.709C161.588 107.24 148.732 110.889 146.836 116.639C146.782 116.801 146.689 116.948 146.565 117.066C146.441 117.184 146.291 117.27 146.126 117.316C145.962 117.362 145.79 117.367 145.623 117.331C145.457 117.294 145.303 117.217 145.173 117.107C143.331 115.546 145.377 113.872 146.044 112.42C146.128 112.24 146.126 112.062 146.038 111.885C142.455 104.54 139.958 95.447 143.955 87.5369C143.992 87.4642 144.008 87.3826 144.001 87.3013C143.994 87.2199 143.965 87.1421 143.916 87.0766C143.868 87.0111 143.802 86.9605 143.726 86.9305C143.65 86.9005 143.567 86.8922 143.487 86.9067C135.485 88.3511 127.717 90.6037 120.183 93.6646C120.093 93.7 120.015 93.7607 119.959 93.8394C119.903 93.9181 119.87 94.0115 119.864 94.1087C119.772 95.4731 119.33 96.7194 118.538 97.8477C118.421 98.0124 118.373 98.2162 118.404 98.4151C118.436 98.6139 118.544 98.7917 118.706 98.91C122.493 101.701 122.739 104.924 122.967 109.533C123.047 111.089 123.037 112.658 122.937 114.238C122.921 114.458 123.017 114.6 123.225 114.664C124.684 115.132 128.267 115.649 128.081 117.905C128.045 118.369 127.895 118.707 127.631 118.919C127.43 119.082 127.178 119.168 126.921 119.16C126.663 119.152 126.416 119.052 126.226 118.877C122.115 115.108 112.578 117.971 108.353 121.134C107.441 121.818 107.051 122.832 106.619 123.817C106.557 123.957 106.462 124.081 106.342 124.176C106.221 124.271 106.079 124.336 105.928 124.363C105.776 124.391 105.62 124.382 105.473 124.335C105.325 124.289 105.191 124.208 105.082 124.099C103.072 122.07 105.863 119.94 107.057 118.529C107.123 118.451 107.165 118.355 107.178 118.254C107.191 118.153 107.174 118.05 107.129 117.959C104.524 112.546 103.418 106.87 103.81 100.933C103.93 99.036 103.162 97.9377 102.676 96.2032C101.94 91.9381 101.043 87.6929 99.987 83.4678C99.1708 80.1989 100.085 77.8123 102.73 76.3079C105.419 74.7754 109.572 72.987 115.189 70.9424C125.552 67.1654 135.981 63.5824 146.476 60.1935C151.217 58.6631 155.64 56.7125 160.153 54.792C163.19 53.4957 165.087 51.5151 164.973 48.0282C164.817 43.3529 163.43 39.4339 161.828 34.1944C160.994 31.4577 159.703 27.8987 156.756 27.1065C155.904 27.0285 155.154 26.9925 154.32 27.2866C131.598 35.3688 108.873 43.457 86.1473 51.5511C83.0624 52.6514 80.7018 53.7678 79.0654 54.9001C73.1518 59.0012 69.8349 64.6127 69.1147 71.7346C68.8386 74.4394 69.1427 78.1524 70.0269 82.8736C72.7096 97.1995 76.7787 111.111 81.298 124.951C82.6183 129 83.8907 131.813 85.115 133.389C88.1238 137.278 92.481 139.277 98.1865 139.385ZM151.739 85.3643C152.777 87.2968 153.371 87.783 152.099 89.7995C151.643 90.5317 151.423 91.3459 151.439 92.2422C151.441 92.3387 151.463 92.4339 151.503 92.5216C151.543 92.6094 151.601 92.6879 151.673 92.7523C153.924 94.8649 156.024 96.5213 156.402 99.8522C156.658 102.097 156.822 104.365 156.894 106.658C156.906 106.958 157.062 107.1 157.363 107.084L158.509 107.012C158.757 107 158.891 106.87 158.911 106.622C159.147 103.317 158.781 100.088 157.813 96.9354C156.966 94.1687 152.891 93.3165 154.074 90.0936C154.374 89.2734 154.744 88.4351 155.184 87.5789C155.223 87.4996 155.242 87.4118 155.24 87.3231C155.238 87.2343 155.215 87.1471 155.172 87.0688C154.468 85.7724 153.384 85.1082 151.919 85.0762C151.885 85.0756 151.851 85.0838 151.821 85.1002C151.791 85.1165 151.766 85.1403 151.747 85.1693C151.729 85.1983 151.719 85.2315 151.718 85.2657C151.716 85.2999 151.723 85.3338 151.739 85.3643ZM118.718 102.445C116.281 100.332 114.361 98.1358 117.044 95.357C117.165 95.2303 117.248 95.0714 117.282 94.899C117.316 94.7267 117.3 94.5482 117.236 94.3848C116.756 93.1444 115.855 92.3722 114.535 92.0681C114.456 92.0487 114.373 92.0532 114.297 92.081C114.221 92.1089 114.155 92.159 114.107 92.2247C114.059 92.2904 114.032 92.3689 114.029 92.4501C114.026 92.5312 114.048 92.6114 114.091 92.6803C115.223 94.5208 115.065 96.2253 113.617 97.7937C113.471 97.9511 113.361 98.1382 113.294 98.3422C113.227 98.5461 113.205 98.7621 113.23 98.9753C113.254 99.1885 113.325 99.3939 113.436 99.5774C113.547 99.7608 113.697 99.9181 113.875 100.038C118.838 103.393 118.286 109.119 118.406 114.298C118.408 114.35 118.419 114.401 118.441 114.449C118.462 114.496 118.493 114.539 118.53 114.575C118.568 114.61 118.613 114.638 118.662 114.657C118.71 114.675 118.762 114.684 118.814 114.682L120.044 114.634C120.285 114.626 120.413 114.504 120.429 114.268C120.585 112.264 120.561 104.041 118.718 102.445ZM149.476 126.337C149.869 126.465 150.259 126.804 150.647 127.352C154.146 132.273 158.257 127.97 158.869 123.913C158.901 123.705 158.815 123.581 158.611 123.541C157.399 123.309 156.384 123.269 155.568 123.421C150.063 124.449 144.239 126.215 138.097 128.72C137.921 128.792 137.877 128.914 137.965 129.086C140.42 133.857 146.86 132.813 147.736 127.406C147.9 126.369 148.48 126.013 149.476 126.337ZM135.217 129.548L124.516 133.905C124.453 133.931 124.397 133.971 124.354 134.024C124.31 134.076 124.28 134.138 124.267 134.205C124.253 134.272 124.256 134.342 124.275 134.408C124.295 134.474 124.33 134.534 124.378 134.584C128.837 139.169 135.289 135.97 135.787 129.968C135.793 129.898 135.781 129.826 135.752 129.761C135.723 129.696 135.677 129.64 135.62 129.598C135.563 129.556 135.495 129.529 135.425 129.52C135.354 129.511 135.282 129.521 135.217 129.548ZM86.2973 244.701C88.3739 244.9 92.2029 247.15 91.5608 242.535C90.7685 236.875 88.1638 230.838 83.8727 227.045C82.6663 225.976 81.0999 226.138 80.0556 227.225C79.8356 227.453 79.8156 227.695 79.9956 227.951C82.4443 231.532 84.4848 235.349 86.1173 239.402C86.4834 240.308 86.4354 241.119 85.5891 241.641C85.4344 241.736 85.2602 241.796 85.0794 241.815C84.8986 241.835 84.7158 241.813 84.5443 241.753C84.3728 241.693 84.217 241.595 84.0883 241.466C83.9596 241.338 83.8613 241.182 83.8006 241.01C81.8261 235.435 78.4952 230.562 75.7285 225.322C72.4276 219.085 66.9981 216.006 59.44 216.086C59.3913 216.085 59.3438 216.101 59.3052 216.131C59.2666 216.16 59.2392 216.202 59.2273 216.249C59.2155 216.297 59.22 216.346 59.2401 216.391C59.2602 216.435 59.2947 216.472 59.338 216.494C60.8444 217.292 62.7589 217.916 63.8813 218.648C66.0498 220.065 67.6203 221.937 68.5925 224.266C70.513 228.857 72.2655 232.614 75.2003 236.695C77.0428 239.258 79.2514 241.887 80.6018 244.461C81.9421 247.006 82.9404 249.705 83.5966 252.558C83.6146 252.642 83.6616 252.716 83.7292 252.769C83.7969 252.822 83.8809 252.849 83.9667 252.847C84.0525 252.844 84.1346 252.811 84.1986 252.754C84.2625 252.696 84.3044 252.619 84.3168 252.534L85.5291 245.29C85.5585 245.113 85.6541 244.955 85.7965 244.846C85.939 244.737 86.1179 244.685 86.2973 244.701ZM52.5622 243.243C55.9551 249.809 60.8804 254.938 67.3382 258.631C72.2415 261.428 76.7247 261.752 81.1719 258.307C81.2104 258.277 81.2423 258.239 81.2655 258.195C81.2887 258.152 81.3027 258.105 81.3067 258.056C81.3106 258.008 81.3044 257.959 81.2885 257.914C81.2725 257.868 81.2471 257.826 81.2139 257.791L79.8516 256.393C79.8044 256.341 79.7713 256.279 79.7556 256.213C78.6993 251.105 76.9228 247.504 73.5439 243.093C70.453 239.06 68.1304 235.621 66.2159 231.138C64.9115 228.077 63.9233 226.12 63.2511 225.268C60.4063 221.663 56.4552 220.431 51.3979 221.571C49.8554 221.925 48.9672 222.922 48.6551 224.386C47.2027 231.15 49.2853 236.905 52.5622 243.243Z" fill="#362F3D"/>
<path d="M156.756 27.1067C157.008 28.7431 157.266 29.9594 157.53 30.7557C158.902 34.8968 159.981 39.1339 160.765 43.4671C161.641 48.2984 159.649 51.8874 154.925 53.5078C136.692 59.7555 118.141 65.7331 100.515 73.5653C97.6699 74.8316 94.9872 76.9142 95.7734 80.1911C96.9257 84.9844 98.012 89.7917 99.0323 94.613C99.2083 95.4452 99.7465 96.0473 100.647 96.4194C100.831 96.4955 101.013 96.4895 101.193 96.4014C101.701 96.1534 102.195 96.0874 102.675 96.2034C103.161 97.9379 103.93 99.0362 103.81 100.933C103.417 106.87 104.524 112.546 107.128 117.959C107.173 118.05 107.19 118.153 107.177 118.254C107.165 118.355 107.123 118.451 107.056 118.529C105.862 119.94 103.071 122.07 105.082 124.099C105.191 124.208 105.325 124.29 105.472 124.336C105.62 124.382 105.776 124.391 105.927 124.363C106.079 124.336 106.221 124.271 106.341 124.176C106.462 124.081 106.557 123.958 106.618 123.817C107.05 122.833 107.441 121.818 108.353 121.134C112.578 117.971 122.115 115.109 126.226 118.878C126.416 119.052 126.662 119.152 126.92 119.16C127.178 119.168 127.43 119.082 127.63 118.92C127.894 118.707 128.044 118.369 128.08 117.905C128.266 115.649 124.683 115.133 123.225 114.664C123.017 114.6 122.921 114.458 122.937 114.238C123.037 112.658 123.047 111.089 122.967 109.533C122.739 104.924 122.493 101.701 118.706 98.9101C118.544 98.7919 118.435 98.614 118.404 98.4152C118.372 98.2164 118.42 98.0125 118.538 97.8478C119.33 96.7195 119.772 95.4732 119.864 94.1088C119.869 94.0117 119.902 93.9182 119.959 93.8395C120.015 93.7608 120.092 93.7002 120.182 93.6647C127.716 90.6039 135.484 88.3513 143.486 86.9069C143.567 86.8924 143.649 86.9006 143.725 86.9306C143.801 86.9606 143.867 87.0113 143.916 87.0768C143.964 87.1423 143.994 87.2201 144.001 87.3014C144.008 87.3827 143.992 87.4643 143.954 87.5371C139.957 95.4472 142.454 104.54 146.037 111.886C146.125 112.062 146.127 112.24 146.043 112.42C145.377 113.872 143.33 115.547 145.173 117.107C145.302 117.218 145.457 117.294 145.623 117.331C145.789 117.367 145.962 117.362 146.126 117.316C146.29 117.27 146.441 117.184 146.564 117.066C146.688 116.948 146.781 116.801 146.835 116.639C148.732 110.889 161.587 107.24 166.377 110.709C166.474 110.78 166.585 110.831 166.702 110.857C166.82 110.884 166.941 110.887 167.059 110.865C167.177 110.843 167.289 110.797 167.389 110.73C167.488 110.663 167.573 110.576 167.637 110.475C169.341 107.829 163.958 106.886 162.193 106.79C161.725 106.762 161.497 106.514 161.509 106.046C161.671 101.065 161.461 95.1051 156.93 91.8582C156.745 91.7253 156.61 91.5328 156.549 91.3124C156.488 91.092 156.504 90.8569 156.594 90.6459L157.74 87.9812C157.804 87.8291 157.916 87.7711 158.076 87.8071C168.995 90.2758 178.156 95.6612 185.558 103.963C185.79 105.26 186.096 106.212 186.476 106.82C202.278 132.267 199.229 164.508 175.247 183.719C166.717 190.549 156.998 195.036 146.091 197.181C143.066 197.769 139.921 197.829 136.794 197.901C125.848 197.445 113.544 194.024 104.926 187.098C100.707 183.707 95.8094 178.672 94.6331 173.18C94.0089 170.269 97.4538 167.863 99.6024 166.23C105.592 161.669 115.165 157.714 122.841 160.205C123.669 160.473 124.951 161.179 126.688 162.323C132.461 166.122 139.663 166.536 146.115 164.628C154.769 162.071 161.671 155.794 164.798 147.277C168.195 138.029 169.383 117.917 153.167 120.858C149.822 120.598 146.503 120.936 143.21 121.872C140.153 122.741 137.185 123.841 134.304 125.173C131.231 126.602 128.02 127.454 124.863 128.846C115.717 132.887 109.921 135.414 107.477 136.426C104.964 137.471 101.867 138.457 98.186 139.385C92.4805 139.277 88.1233 137.279 85.1145 133.389C83.8902 131.813 82.6178 129 81.2975 124.951C76.7782 111.111 72.7091 97.1997 70.0264 82.8738C69.1422 78.1525 68.8381 74.4395 69.1142 71.7348C69.8343 64.6128 73.1512 59.0013 79.0649 54.9002C80.7013 53.7679 83.0619 52.6516 86.1468 51.5513C108.873 43.4571 131.597 35.3689 154.319 27.2867C155.153 26.9926 155.904 27.0287 156.756 27.1067ZM166.046 113.692L166.274 111.928C166.279 111.895 166.276 111.861 166.267 111.829C166.258 111.797 166.243 111.766 166.222 111.74C166.202 111.714 166.176 111.692 166.147 111.676C166.118 111.66 166.086 111.649 166.052 111.646L165.962 111.634C165.651 111.595 165.339 111.671 165.094 111.847C164.848 112.023 164.69 112.283 164.654 112.57L164.642 112.666C164.624 112.808 164.637 112.953 164.68 113.092C164.722 113.231 164.794 113.361 164.89 113.475C164.987 113.589 165.106 113.685 165.242 113.758C165.377 113.83 165.526 113.877 165.68 113.896L165.77 113.908C165.835 113.915 165.901 113.896 165.952 113.856C166.004 113.816 166.037 113.757 166.046 113.692ZM171.52 115.241C171.52 114.991 171.421 114.751 171.244 114.574C171.067 114.398 170.828 114.298 170.578 114.298C170.454 114.298 170.331 114.323 170.217 114.37C170.103 114.417 169.999 114.487 169.911 114.574C169.824 114.662 169.754 114.766 169.707 114.88C169.66 114.994 169.635 115.117 169.635 115.241C169.635 115.364 169.66 115.487 169.707 115.601C169.754 115.715 169.824 115.819 169.911 115.907C169.999 115.994 170.103 116.064 170.217 116.111C170.331 116.158 170.454 116.183 170.578 116.183C170.828 116.183 171.067 116.084 171.244 115.907C171.421 115.73 171.52 115.49 171.52 115.241ZM165.314 117.041C165.314 116.804 165.22 116.576 165.052 116.409C164.885 116.241 164.657 116.147 164.42 116.147C164.183 116.147 163.955 116.241 163.788 116.409C163.62 116.576 163.526 116.804 163.526 117.041C163.526 117.278 163.62 117.506 163.788 117.673C163.955 117.841 164.183 117.935 164.42 117.935C164.657 117.935 164.885 117.841 165.052 117.673C165.22 117.506 165.314 117.278 165.314 117.041ZM109.029 126.968C109.14 126.998 109.256 127 109.372 126.976C109.488 126.952 109.6 126.901 109.704 126.827C109.807 126.753 109.899 126.657 109.974 126.545C110.049 126.432 110.106 126.305 110.142 126.171C110.214 125.9 110.195 125.617 110.088 125.384C109.981 125.151 109.796 124.986 109.573 124.927C109.462 124.897 109.346 124.895 109.23 124.919C109.114 124.943 109.002 124.993 108.898 125.067C108.795 125.141 108.703 125.238 108.628 125.35C108.553 125.463 108.496 125.59 108.46 125.724C108.388 125.994 108.408 126.278 108.514 126.511C108.621 126.744 108.806 126.909 109.029 126.968ZM103.101 127.394C103.101 127.139 103 126.895 102.82 126.715C102.64 126.535 102.396 126.434 102.141 126.434C101.886 126.434 101.642 126.535 101.462 126.715C101.282 126.895 101.181 127.139 101.181 127.394C101.181 127.649 101.282 127.893 101.462 128.073C101.642 128.253 101.886 128.354 102.141 128.354C102.396 128.354 102.64 128.253 102.82 128.073C103 127.893 103.101 127.649 103.101 127.394ZM107.369 130.803C107.369 130.671 107.343 130.541 107.292 130.419C107.242 130.298 107.168 130.187 107.075 130.094C106.982 130.001 106.871 129.927 106.75 129.877C106.628 129.826 106.498 129.801 106.366 129.801C106.235 129.801 106.104 129.826 105.983 129.877C105.861 129.927 105.751 130.001 105.658 130.094C105.564 130.187 105.491 130.298 105.44 130.419C105.39 130.541 105.364 130.671 105.364 130.803C105.364 131.069 105.47 131.324 105.658 131.511C105.846 131.699 106.1 131.805 106.366 131.805C106.632 131.805 106.887 131.699 107.075 131.511C107.263 131.324 107.369 131.069 107.369 130.803Z" fill="#FFD75F"/>
<path d="M156.756 27.1063C159.703 27.8985 160.993 31.4575 161.828 34.1942C163.43 39.4337 164.816 43.3527 164.972 48.028C165.086 51.5149 163.19 53.4955 160.153 54.7918C155.64 56.7123 151.217 58.6629 146.475 60.1933C135.981 63.5822 125.552 67.1652 115.189 70.9422C109.571 72.9868 105.418 74.7752 102.73 76.3077C100.085 77.8121 99.1706 80.1987 99.9868 83.4676C101.043 87.6927 101.939 91.9379 102.676 96.203C102.195 96.087 101.701 96.153 101.193 96.4011C101.013 96.4891 100.831 96.4951 100.647 96.4191C99.7467 96.047 99.2086 95.4448 99.0325 94.6126C98.0123 89.7913 96.926 84.984 95.7737 80.1907C94.9874 76.9138 97.6702 74.8313 100.515 73.5649C118.142 65.7328 136.693 59.7552 154.926 53.5075C159.649 51.887 161.642 48.2981 160.765 43.4668C159.981 39.1336 158.903 34.8964 157.53 30.7553C157.266 29.9591 157.008 28.7428 156.756 27.1063Z" fill="#C48F4F"/>
<path d="M47.4123 87.6809C46.7562 88.1251 46.296 88.2551 46.032 88.0711C45.968 88.023 45.9119 88.031 45.8639 88.0951C45.8319 88.1311 45.7879 88.1651 45.7319 88.1971C45.7079 88.2091 45.6819 88.2131 45.6539 88.2091C45.1217 88.0691 44.8737 87.781 44.9097 87.3449C44.7776 86.2206 44.3835 85.1643 43.7273 84.176C43.0312 83.1137 42.9832 82.2435 42.8391 81.0732C42.8151 80.8691 42.8471 80.673 42.9351 80.485C44.1355 77.9643 44.7956 76.0658 44.9157 74.7895C45.3878 69.6841 46.218 64.5607 47.4063 59.4193C47.4265 59.3299 47.4231 59.2368 47.3964 59.1491C47.3697 59.0614 47.3206 58.9822 47.254 58.9192C47.1874 58.8562 47.1056 58.8117 47.0165 58.7899C46.9275 58.7682 46.8343 58.77 46.7462 58.7951C41.6768 60.2155 39.0101 63.6084 38.746 68.9739C38.692 70.0182 37.7377 70.6003 36.7835 69.9761C36.6928 69.9169 36.6185 69.8365 36.5674 69.7421L35.025 66.9753C34.925 66.7913 34.7709 66.6933 34.5629 66.6813C27.753 66.2611 22.0075 68.4977 17.3262 73.3911C17.134 73.5911 16.8752 73.7137 16.5988 73.7358C16.3223 73.7579 16.0473 73.678 15.8258 73.5111C14.0673 72.1847 16.4019 70.6483 17.3442 69.9761C17.4647 69.8888 17.5466 69.7582 17.5724 69.6125C17.5981 69.4667 17.5658 69.3172 17.4822 69.1959C14.7775 65.2749 11.3806 62.2341 7.29148 60.0735C4.83081 58.7711 4.23665 62.144 4.57274 63.6684C4.72478 64.3526 5.19891 65.1388 5.99512 66.0271C10.8324 71.3985 13.4131 77.4002 16.8641 83.3898C18.6646 86.5106 21.2373 88.6372 24.5822 89.7695C24.7614 89.8305 24.953 89.8466 25.1403 89.8162C25.3275 89.7859 25.5048 89.7101 25.6565 89.5955C29.6415 86.6107 33.9827 84.296 38.68 82.6516C38.8653 82.5882 39.0641 82.5759 39.2554 82.6161C39.4466 82.6562 39.6232 82.7473 39.7663 82.8796C40.5885 83.6418 40.2164 84.8062 39.1781 85.1723C35.037 86.6367 31.2 88.6732 27.667 91.2819C27.0908 91.71 26.8708 92.3602 27.0068 93.2324C27.643 97.3436 32.3123 95.267 34.5809 94.1267C34.6009 95.203 34.2608 96.2493 33.5606 97.2655C29.5875 99.1921 24.048 98.4299 24.5882 92.6743C24.5961 92.5809 24.5717 92.4879 24.5191 92.4112C24.4665 92.3345 24.389 92.2789 24.3001 92.2542C19.9789 91.0139 16.776 88.5692 14.6915 84.9202C11.2345 78.8646 8.64784 72.4848 3.81654 67.2994C1.4579 64.7667 0.929753 60.0194 4.17663 57.9969C7.29148 56.0584 10.8985 59.4253 13.2331 61.0157C13.5212 61.2158 13.5972 61.1538 13.4611 60.8297C12.2368 57.9549 9.218 52.6855 11.3066 49.7027C13.017 47.266 16.768 47.458 18.8926 49.3666C20.261 50.5909 21.3633 51.9633 22.1995 53.4837C22.2254 53.5361 22.2696 53.5773 22.3237 53.5995C22.3778 53.6217 22.4382 53.6234 22.4934 53.6043C22.5487 53.5851 22.5951 53.5464 22.6238 53.4955C22.6526 53.4445 22.6618 53.3849 22.6496 53.3276C22.1095 50.2308 21.6894 46.5938 25.2183 45.0274C32.5463 41.7745 35.7692 60.3855 36.4774 64.6707C36.4886 64.734 36.5202 64.7919 36.5675 64.8355C36.6147 64.8791 36.6749 64.906 36.7389 64.9122C36.8029 64.9183 36.8672 64.9033 36.9218 64.8694C36.9765 64.8356 37.0185 64.7847 37.0415 64.7247C37.6057 63.1883 38.2119 61.7779 39.2501 60.5476C40.9006 58.5911 46.5121 54.684 48.9728 57.2167C49.749 58.0209 49.971 59.1792 49.639 60.6916C48.9468 63.8365 48.2966 68.1877 47.6884 73.7452C47.4404 76.0098 46.6842 78.5125 45.4198 81.2532C45.3318 81.4453 45.3318 81.6373 45.4198 81.8294C46.4341 83.9959 47.4304 84.7461 47.4123 87.6809ZM26.1606 63.8065C24.9363 64.5027 24.066 63.4224 23.6699 62.3001C22.5116 59.0052 19.3067 51.5031 15.6878 50.3568C12.951 49.4866 12.825 52.5834 13.4792 54.3059C15.2436 58.9112 17.2982 63.4144 19.6428 67.8156C19.7388 67.9956 19.8729 68.0316 20.0449 67.9236C23.904 65.4509 29.0174 63.7585 33.6566 64.2206C33.8367 64.2406 33.9087 64.1606 33.8727 63.9805C33.2245 60.9377 30.2957 46.6598 26.6587 47.224C24.162 47.6141 24.8102 50.897 24.9483 52.7335C25.1883 55.9624 25.7925 59.1452 26.7608 62.2821C26.8492 62.5665 26.8379 62.8727 26.7288 63.1498C26.6197 63.427 26.4192 63.6587 26.1606 63.8065Z" fill="#221B28"/>
<path d="M26.1608 63.8065C26.4194 63.6587 26.6198 63.4271 26.729 63.1499C26.8381 62.8727 26.8494 62.5666 26.7609 62.2821C25.7927 59.1453 25.1885 55.9624 24.9484 52.7335C24.8104 50.897 24.1622 47.6141 26.6589 47.224C30.2959 46.6599 33.2247 60.9378 33.8729 63.9806C33.9089 64.1606 33.8368 64.2406 33.6568 64.2206C29.0175 63.7585 23.9041 65.451 20.0451 67.9236C19.8731 68.0317 19.739 67.9957 19.643 67.8156C17.2984 63.4144 15.2438 58.9112 13.4793 54.306C12.8251 52.5835 12.9512 49.4866 15.6879 50.3569C19.3069 51.5032 22.5118 59.0052 23.6701 62.3001C24.0662 63.4224 24.9364 64.5027 26.1608 63.8065Z" fill="white"/>
<path d="M44.9099 87.3449C44.7539 87.9611 44.4298 88.4432 43.9377 88.7913C40.9008 90.9519 37.782 92.7304 34.5811 94.1268C32.3125 95.2671 27.6433 97.3436 27.0071 93.2325C26.871 92.3603 27.0911 91.7101 27.6673 91.282C31.2002 88.6733 35.0373 86.6367 39.1784 85.1723C40.2167 84.8062 40.5888 83.6419 39.7665 82.8797C39.6234 82.7474 39.4469 82.6563 39.2557 82.6162C39.0644 82.576 38.8656 82.5883 38.6803 82.6517C33.983 84.2961 29.6418 86.6107 25.6567 89.5955C25.505 89.7102 25.3278 89.786 25.1405 89.8163C24.9533 89.8467 24.7616 89.8306 24.5824 89.7696C21.2375 88.6373 18.6648 86.5107 16.8643 83.3899C13.4134 77.4002 10.8327 71.3986 5.99539 66.0272C5.19918 65.1389 4.72505 64.3527 4.57301 63.6685C4.23692 62.1441 4.83108 58.7712 7.29174 60.0735C11.3809 62.2341 14.7778 65.275 17.4825 69.196C17.5661 69.3173 17.5984 69.4668 17.5726 69.6125C17.5468 69.7583 17.4649 69.8888 17.3445 69.9762C16.4022 70.6484 14.0676 72.1848 15.8261 73.5112C16.0476 73.6781 16.3226 73.758 16.599 73.7359C16.8755 73.7138 17.1343 73.5911 17.3265 73.3912C22.0077 68.4978 27.7533 66.2612 34.5631 66.6813C34.7712 66.6933 34.9252 66.7914 35.0253 66.9754L36.5677 69.7422C36.6188 69.8366 36.693 69.917 36.7837 69.9762C37.738 70.6004 38.6923 70.0182 38.7463 68.974C39.0103 63.6085 41.6771 60.2156 46.7464 58.7952C46.8346 58.77 46.9277 58.7682 47.0168 58.79C47.1058 58.8117 47.1877 58.8563 47.2543 58.9193C47.3209 58.9822 47.37 59.0615 47.3967 59.1492C47.4234 59.2368 47.4268 59.33 47.4066 59.4194C46.2183 64.5608 45.3881 69.6841 44.9159 74.7895C44.7959 76.0659 44.1357 77.9644 42.9354 80.4851C42.8474 80.6731 42.8154 80.8692 42.8394 81.0732C42.9834 82.2436 43.0314 83.1138 43.7276 84.1761C44.3838 85.1643 44.7779 86.2206 44.9099 87.3449Z" fill="white"/>
<path d="M151.738 85.3644C151.723 85.3339 151.715 85.3 151.717 85.2658C151.718 85.2316 151.729 85.1984 151.747 85.1694C151.765 85.1404 151.79 85.1166 151.82 85.1002C151.85 85.0839 151.884 85.0757 151.918 85.0763C153.383 85.1083 154.467 85.7725 155.171 87.0689C155.214 87.1472 155.237 87.2344 155.239 87.3231C155.242 87.4119 155.222 87.4997 155.183 87.579C154.743 88.4352 154.373 89.2735 154.073 90.0937C152.891 93.3166 156.966 94.1688 157.812 96.9355C158.78 100.088 159.146 103.317 158.91 106.622C158.89 106.87 158.756 107 158.508 107.012L157.362 107.084C157.062 107.1 156.906 106.958 156.894 106.658C156.822 104.366 156.658 102.097 156.402 99.8523C156.024 96.5214 153.923 94.865 151.672 92.7524C151.6 92.688 151.542 92.6095 151.502 92.5217C151.462 92.434 151.44 92.3388 151.438 92.2423C151.422 91.346 151.642 90.5318 152.098 89.7996C153.371 87.7831 152.777 87.2969 151.738 85.3644Z" fill="white"/>
<path d="M117.043 95.3569C114.361 98.1357 116.281 100.332 118.718 102.445C120.56 104.041 120.584 112.264 120.428 114.268C120.412 114.504 120.284 114.626 120.044 114.634L118.814 114.682C118.762 114.684 118.71 114.675 118.661 114.657C118.613 114.638 118.568 114.61 118.53 114.575C118.492 114.539 118.462 114.496 118.44 114.449C118.419 114.401 118.407 114.35 118.406 114.298C118.286 109.119 118.838 103.393 113.874 100.038C113.697 99.918 113.547 99.7608 113.436 99.5773C113.324 99.3938 113.254 99.1884 113.229 98.9752C113.205 98.762 113.227 98.546 113.294 98.3421C113.36 98.1381 113.47 97.951 113.616 97.7936C115.065 96.2252 115.223 94.5207 114.09 92.6802C114.048 92.6113 114.026 92.5311 114.029 92.45C114.032 92.3688 114.059 92.2903 114.106 92.2246C114.154 92.1589 114.22 92.1089 114.297 92.081C114.373 92.0531 114.456 92.0486 114.535 92.0681C115.855 92.3721 116.755 93.1443 117.235 94.3847C117.3 94.5481 117.316 94.7266 117.282 94.899C117.248 95.0713 117.165 95.2302 117.043 95.3569Z" fill="white"/>
<path d="M185.558 103.963C195.286 113.884 200.196 128.63 200.166 142.314C200.13 157.878 194.6 171.035 183.577 181.786C174.653 190.495 162.649 196.97 150.112 197.817C146.027 198.093 141.588 198.121 136.794 197.901C139.921 197.829 143.066 197.769 146.091 197.181C156.998 195.036 166.717 190.549 175.247 183.719C199.229 164.508 202.278 132.267 186.476 106.82C186.096 106.212 185.79 105.26 185.558 103.963Z" fill="#C48F4F"/>
<path d="M166.046 113.692C166.037 113.757 166.004 113.816 165.952 113.856C165.901 113.896 165.835 113.915 165.77 113.908L165.68 113.896C165.526 113.877 165.377 113.83 165.242 113.758C165.106 113.685 164.987 113.589 164.89 113.475C164.794 113.361 164.722 113.231 164.68 113.092C164.637 112.953 164.624 112.808 164.642 112.666L164.654 112.57C164.69 112.282 164.848 112.022 165.094 111.847C165.339 111.671 165.651 111.595 165.962 111.633L166.052 111.645C166.086 111.649 166.118 111.659 166.147 111.676C166.176 111.692 166.202 111.714 166.222 111.74C166.243 111.766 166.258 111.796 166.267 111.829C166.276 111.861 166.279 111.894 166.274 111.928L166.046 113.692Z" fill="#362F3D"/>
<path d="M170.578 116.183C171.098 116.183 171.52 115.761 171.52 115.24C171.52 114.72 171.098 114.298 170.578 114.298C170.057 114.298 169.635 114.72 169.635 115.24C169.635 115.761 170.057 116.183 170.578 116.183Z" fill="#362F3D"/>
<path d="M164.42 117.935C164.914 117.935 165.314 117.535 165.314 117.041C165.314 116.547 164.914 116.147 164.42 116.147C163.926 116.147 163.526 116.547 163.526 117.041C163.526 117.535 163.926 117.935 164.42 117.935Z" fill="#362F3D"/>
<path d="M153.167 120.858C138.991 125.051 125.223 130.436 111.864 137.014C109.391 138.23 107.353 138.981 105.748 139.265C103.259 139.701 100.739 139.741 98.186 139.385C101.867 138.457 104.964 137.47 107.477 136.426C109.921 135.414 115.717 132.887 124.863 128.846C128.02 127.454 131.231 126.601 134.304 125.173C137.185 123.841 140.153 122.74 143.21 121.872C146.503 120.936 149.822 120.598 153.167 120.858Z" fill="#C48F4F"/>
<path d="M149.476 126.337C148.48 126.013 147.9 126.369 147.736 127.406C146.859 132.813 140.42 133.857 137.965 129.086C137.877 128.914 137.921 128.792 138.097 128.72C144.239 126.215 150.062 124.449 155.568 123.421C156.384 123.269 157.398 123.309 158.611 123.541C158.815 123.581 158.901 123.705 158.869 123.913C158.256 127.97 154.145 132.273 150.646 127.352C150.258 126.804 149.868 126.465 149.476 126.337Z" fill="white"/>
<path d="M108.461 125.724C108.311 126.287 108.565 126.845 109.03 126.968C109.494 127.092 109.992 126.735 110.142 126.171C110.292 125.607 110.038 125.05 109.573 124.927C109.109 124.803 108.611 125.16 108.461 125.724Z" fill="#362F3D"/>
<path d="M102.141 128.354C102.672 128.354 103.102 127.924 103.102 127.394C103.102 126.863 102.672 126.433 102.141 126.433C101.611 126.433 101.181 126.863 101.181 127.394C101.181 127.924 101.611 128.354 102.141 128.354Z" fill="#362F3D"/>
<path d="M124.515 133.905L135.216 129.548C135.282 129.521 135.354 129.512 135.424 129.52C135.495 129.529 135.562 129.556 135.62 129.598C135.677 129.64 135.722 129.696 135.751 129.761C135.781 129.826 135.793 129.898 135.786 129.968C135.288 135.97 128.836 139.169 124.377 134.584C124.329 134.534 124.294 134.474 124.275 134.408C124.256 134.342 124.253 134.272 124.266 134.205C124.28 134.138 124.31 134.076 124.353 134.024C124.397 133.971 124.452 133.931 124.515 133.905Z" fill="white"/>
<path d="M106.367 131.805C106.92 131.805 107.369 131.356 107.369 130.803C107.369 130.249 106.92 129.8 106.367 129.8C105.813 129.8 105.364 130.249 105.364 130.803C105.364 131.356 105.813 131.805 106.367 131.805Z" fill="#362F3D"/>
<path d="M202.698 227.993L202.884 226.906C202.94 226.57 203.076 226.532 203.292 226.792L203.935 227.549C203.979 227.603 204.036 227.645 204.101 227.673C204.165 227.702 204.236 227.714 204.307 227.711C204.995 227.671 205.311 227.923 205.255 228.467C203.939 231.104 203.286 233.864 203.298 236.749C203.299 236.896 203.331 237.041 203.394 237.174C203.456 237.307 203.547 237.425 203.659 237.519C203.772 237.614 203.904 237.682 204.046 237.72C204.188 237.758 204.336 237.765 204.481 237.739C205.565 237.551 206.547 237.149 207.428 236.533C207.719 236.33 208.07 236.232 208.425 236.255C208.779 236.277 209.115 236.42 209.378 236.659C209.842 237.075 210.23 237.617 210.542 238.286C211.425 240.158 210.506 243.615 213.435 244.005C219.539 244.833 226.291 239.9 230.378 235.651C234.439 231.426 237.882 226.734 240.707 221.577C243.101 217.202 244.626 214.627 242.777 210.174C242.377 209.218 241.791 208.732 241.019 208.716C228.325 208.445 218.488 226.63 213.987 236.311C213.952 236.385 213.892 236.444 213.817 236.479C213.743 236.513 213.658 236.519 213.579 236.497L212.361 236.167C212.246 236.137 212.139 236.082 212.048 236.007C211.956 235.932 211.882 235.838 211.83 235.731C211.778 235.625 211.75 235.508 211.747 235.39C211.744 235.271 211.768 235.153 211.815 235.045C215.204 227.243 219.783 220.177 225.552 213.847C228.329 210.802 231.636 208.547 235.473 207.083C235.519 207.067 235.558 207.035 235.583 206.994C235.609 206.952 235.619 206.903 235.612 206.854C235.604 206.806 235.581 206.762 235.545 206.729C235.508 206.696 235.462 206.677 235.413 206.675C228.889 206.201 221.411 213.229 218.338 218.222C215.426 222.959 212.945 227.961 210.896 233.226C210.833 233.393 210.724 233.538 210.581 233.645C210.439 233.752 210.269 233.817 210.091 233.833C209.913 233.848 209.734 233.814 209.574 233.733C209.414 233.652 209.28 233.529 209.186 233.376L208.616 232.446C208.568 232.368 208.539 232.28 208.533 232.189C208.527 232.098 208.543 232.007 208.58 231.924L212.787 222.627C212.816 222.564 212.831 222.495 212.828 222.425C212.826 222.355 212.808 222.286 212.775 222.224C212.742 222.162 212.695 222.108 212.638 222.067C212.581 222.025 212.515 221.997 212.445 221.985C211.669 221.861 210.884 222.031 210.092 222.495C210.272 222.107 210.354 221.773 210.338 221.493C210.332 221.396 210.294 221.304 210.231 221.23C210.169 221.156 210.084 221.106 209.99 221.085C209.462 220.957 209.074 220.651 208.826 220.167C208.738 219.999 208.606 219.877 208.43 219.801C207.333 219.308 207.151 218.632 207.884 217.772C208.2 218.584 208.604 219.238 209.096 219.735C209.169 219.809 209.26 219.862 209.362 219.888C209.463 219.915 209.57 219.913 209.672 219.885C211.141 219.452 212.595 219.478 214.035 219.963C214.243 220.035 214.397 219.973 214.497 219.777C219.455 210.252 231.458 199.347 242.903 206.465C245.724 208.217 246.546 213.505 245.874 216.362C245.582 217.59 244.62 219.67 242.987 222.603C237.994 231.576 230.78 241.16 221.147 245.085C215.146 247.534 208.574 247.984 208.31 239.348C208.308 239.306 208.296 239.264 208.274 239.228C208.253 239.192 208.222 239.161 208.187 239.14C208.151 239.118 208.11 239.106 208.069 239.105C208.027 239.103 207.986 239.113 207.95 239.132C198.161 244.035 200.802 231.792 202.698 227.993Z" fill="#221B28"/>
<path d="M205.255 228.467C206.471 226.098 208.084 224.108 210.092 222.495C210.885 222.031 211.669 221.861 212.445 221.985C212.515 221.998 212.581 222.026 212.638 222.067C212.695 222.108 212.742 222.162 212.775 222.224C212.808 222.286 212.826 222.355 212.829 222.425C212.831 222.495 212.816 222.564 212.787 222.627L208.58 231.924C208.543 232.007 208.527 232.099 208.533 232.19C208.539 232.281 208.568 232.369 208.616 232.446L209.186 233.376C209.28 233.529 209.414 233.653 209.574 233.733C209.734 233.814 209.913 233.848 210.091 233.833C210.269 233.817 210.439 233.752 210.581 233.645C210.724 233.538 210.833 233.393 210.897 233.226C212.945 227.961 215.426 222.96 218.339 218.222C221.411 213.229 228.889 206.201 235.413 206.675C235.462 206.677 235.508 206.696 235.545 206.729C235.581 206.762 235.605 206.806 235.612 206.854C235.619 206.903 235.609 206.952 235.584 206.994C235.558 207.035 235.519 207.067 235.473 207.083C231.636 208.548 228.329 210.802 225.553 213.847C219.783 220.177 215.204 227.243 211.815 235.045C211.768 235.154 211.745 235.271 211.747 235.39C211.75 235.508 211.778 235.625 211.83 235.731C211.882 235.838 211.956 235.932 212.048 236.007C212.139 236.083 212.246 236.137 212.361 236.167L213.579 236.497C213.658 236.519 213.743 236.513 213.817 236.479C213.892 236.445 213.952 236.385 213.987 236.311C218.489 226.631 228.325 208.446 241.019 208.716C241.791 208.732 242.377 209.218 242.777 210.174C244.626 214.627 243.101 217.202 240.707 221.577C237.882 226.735 234.439 231.426 230.378 235.651C226.291 239.9 219.539 244.833 213.435 244.005C210.506 243.615 211.425 240.158 210.542 238.286C210.23 237.618 209.842 237.075 209.378 236.659C209.115 236.42 208.779 236.278 208.425 236.255C208.071 236.232 207.719 236.33 207.428 236.533C206.547 237.149 205.565 237.552 204.481 237.74C204.336 237.765 204.188 237.758 204.046 237.72C203.904 237.682 203.772 237.614 203.659 237.519C203.547 237.425 203.456 237.307 203.394 237.174C203.331 237.041 203.299 236.896 203.299 236.749C203.286 233.864 203.939 231.104 205.255 228.467Z" fill="white"/>
<path d="M86.2971 244.701C86.1177 244.685 85.9388 244.736 85.7963 244.846C85.6539 244.955 85.5583 245.113 85.5289 245.289L84.3166 252.533C84.3042 252.618 84.2624 252.696 84.1984 252.753C84.1344 252.811 84.0523 252.844 83.9665 252.846C83.8807 252.849 83.7967 252.822 83.729 252.769C83.6614 252.716 83.6144 252.641 83.5964 252.557C82.9402 249.705 81.9419 247.006 80.6016 244.461C79.2512 241.886 77.0426 239.258 75.2001 236.695C72.2653 232.614 70.5129 228.857 68.5923 224.266C67.6201 221.937 66.0496 220.065 63.8811 218.648C62.7588 217.916 60.8442 217.292 59.3378 216.494C59.2945 216.471 59.26 216.435 59.2399 216.391C59.2198 216.346 59.2153 216.296 59.2272 216.249C59.239 216.202 59.2664 216.16 59.305 216.13C59.3436 216.101 59.3911 216.085 59.4399 216.086C66.9979 216.005 72.4274 219.084 75.7283 225.322C78.495 230.561 81.8259 235.435 83.8005 241.01C83.8611 241.182 83.9594 241.337 84.0881 241.466C84.2168 241.594 84.3726 241.692 84.5441 241.753C84.7156 241.813 84.8984 241.835 85.0792 241.815C85.2601 241.796 85.4342 241.736 85.5889 241.64C86.4352 241.118 86.4832 240.308 86.1171 239.402C84.4846 235.349 82.4441 231.532 79.9954 227.951C79.8154 227.695 79.8354 227.453 80.0554 227.225C81.0997 226.138 82.6662 225.976 83.8725 227.044C88.1636 230.838 90.7683 236.875 91.5606 242.535C92.2027 247.15 88.3737 244.899 86.2971 244.701Z" fill="white"/>
<path d="M52.5619 243.243C49.285 236.905 47.2024 231.15 48.6548 224.386C48.9669 222.922 49.8551 221.925 51.3976 221.571C56.4549 220.431 60.406 221.663 63.2508 225.268C63.923 226.12 64.9112 228.077 66.2156 231.138C68.1301 235.621 70.4527 239.06 73.5436 243.093C76.9225 247.504 78.699 251.105 79.7553 256.213C79.771 256.279 79.8041 256.341 79.8513 256.393L81.2136 257.791C81.2468 257.826 81.2722 257.868 81.2882 257.913C81.3041 257.959 81.3103 258.008 81.3064 258.056C81.3024 258.105 81.2884 258.152 81.2652 258.195C81.242 258.239 81.2101 258.277 81.1716 258.307C76.7244 261.752 72.2412 261.428 67.3379 258.631C60.8801 254.938 55.9548 249.809 52.5619 243.243Z" fill="white"/>
</svg>
