<svg width="198" height="263" viewBox="0 0 198 263" fill="none" xmlns="http://www.w3.org/2000/svg">
<path d="M41.1945 115.912C43.6731 111.987 46.0978 105.901 39.8441 104.557C39.66 104.517 39.59 104.405 39.634 104.221C40.7783 99.5634 39.39 95.9504 35.4689 93.3817C35.3089 93.2777 35.2288 93.1297 35.2288 92.9376C35.2208 89.0886 34.9808 85.2555 34.5086 81.4385C34.1606 78.5877 32.9362 74.9928 29.9474 74.7227C23.6877 74.1525 20.5789 79.9561 21.125 85.6937C21.13 85.7379 21.1232 85.7827 21.1053 85.8234C21.0874 85.8642 21.059 85.8994 21.023 85.9257C20.987 85.9519 20.9448 85.9681 20.9005 85.9727C20.8562 85.9772 20.8115 85.97 20.7709 85.9517C15.8936 83.7791 11.3284 83.9912 7.07521 86.5879C4.30846 88.2744 2.87407 91.6833 3.66029 94.9842C3.77232 95.4403 3.86034 95.9064 3.92436 96.3826C3.93701 96.4784 3.92493 96.576 3.88924 96.6663C3.85354 96.7565 3.79542 96.8365 3.7203 96.8987C0.239359 99.8815 0.83352 102.906 1.54171 106.957C1.64974 107.582 1.63774 108.384 1.5057 109.364C0.985561 113.185 2.41195 116.01 5.78486 117.838C7.48932 118.763 8.8697 118.469 10.4661 119.921C13.2809 122.478 15.7356 123.036 19.8107 122.916C21.6071 122.86 23.4096 122.91 25.2181 123.066C25.4222 123.082 25.5822 123.174 25.6983 123.342C26.2564 124.146 26.8386 125.268 27.5408 125.839C30.1815 127.999 32.9522 127.505 35.853 124.356" stroke="#8E8B92" stroke-width="2"/>
<path d="M35.8526 124.356C38.0892 126.529 41.9623 130.1 47.4718 135.069C50.4786 137.788 53.2033 140.068 57.4225 138.982C60.6754 138.142 63.8262 137.151 66.875 136.011C66.9313 135.99 66.9915 135.981 67.0514 135.986C67.1113 135.991 67.1694 136.009 67.2216 136.039C67.2737 136.068 67.3187 136.109 67.3532 136.159C67.3877 136.208 67.4109 136.264 67.4212 136.323L70.9021 156.579C70.9341 156.779 70.8861 156.957 70.7581 157.113L69.7138 158.355C69.5778 158.515 69.4937 158.697 69.4617 158.901C68.9456 162.1 69.1857 168.462 73.8609 168.414C73.9532 168.413 74.0428 168.445 74.1133 168.504C74.1839 168.564 74.2306 168.647 74.245 168.738C74.8732 172.527 76.5216 175.788 79.1904 178.521C79.3394 178.673 79.4417 178.866 79.4852 179.075C79.5288 179.284 79.5119 179.502 79.4364 179.703C76.6797 186.885 74.3291 194.299 72.3845 201.945C70.404 209.741 71.5863 217.471 72.0784 225.147C72.0811 225.2 72.0659 225.252 72.0352 225.295C72.0045 225.338 71.9602 225.37 71.9094 225.384C71.8586 225.399 71.8044 225.396 71.7555 225.376C71.7067 225.355 71.6661 225.319 71.6403 225.273C65.6267 214.56 51.4629 203.631 38.8234 211.44C32.7258 215.209 29.6409 221.144 31.7295 228.244C35.4265 240.806 45.0711 248.914 55.4119 256.152C57.7206 257.764 59.8731 258.93 61.8697 259.651C71.2022 263.012 85.246 263.354 86.5184 250.366C86.8424 247.029 85.6901 242.396 85.5701 238.453C85.5661 238.245 85.6661 238.125 85.8702 238.093C88.0828 237.785 89.3951 236.582 89.8072 234.486C90.8755 229.078 86.4583 227.374 82.2752 226.456C82.1014 226.417 81.9443 226.324 81.8267 226.19C81.7092 226.056 81.6371 225.889 81.621 225.711C81.2129 221.218 80.9248 216.703 80.7568 212.166C80.6608 209.605 80.8188 207.296 81.2309 205.24C82.6593 198.086 85.4081 190.56 87.7847 184.132C87.8174 184.042 87.8819 183.968 87.966 183.922C88.0501 183.877 88.1479 183.864 88.2408 183.886C97.5734 185.993 107.632 185.699 117.103 184.93C117.139 184.927 117.175 184.931 117.21 184.942C117.245 184.953 117.277 184.97 117.305 184.994C117.333 185.017 117.356 185.046 117.373 185.078C117.39 185.111 117.4 185.146 117.403 185.182C117.919 192.096 118.479 198.874 119.083 205.516C119.773 213.102 124.497 219.68 132.929 216.529C137.258 214.912 141.655 213.298 146.12 211.686C146.156 211.673 146.194 211.668 146.231 211.673C146.268 211.677 146.305 211.689 146.337 211.709C146.369 211.729 146.396 211.757 146.417 211.789C146.438 211.821 146.451 211.858 146.457 211.896C146.473 212.048 146.557 212.128 146.709 212.136" stroke="#9A979E" stroke-width="2"/>
<path d="M146.709 212.136C145.124 216.165 146.051 218.862 149.488 220.226C149.595 220.269 149.685 220.347 149.743 220.447C149.801 220.547 149.825 220.664 149.809 220.778C149.794 220.893 149.742 220.999 149.659 221.081C149.577 221.162 149.47 221.214 149.356 221.228C133.355 222.909 130.468 241.544 143.18 249.706C143.348 249.814 143.412 249.966 143.372 250.162C142.732 253.051 143.896 254.581 146.865 254.753C152.65 255.082 158.306 253.931 163.832 251.303C174.46 246.243 175.805 236.358 176.195 225.478C176.527 216.107 175.087 207.465 171.874 199.55C170.361 195.829 168.501 193.207 164.198 195.337C164.003 195.435 163.779 195.464 163.561 195.421C161.005 194.921 158.616 195.329 156.396 196.646C156.313 196.696 156.218 196.724 156.121 196.728C156.023 196.732 155.926 196.712 155.837 196.67C153.113 195.385 149.818 193.933 148.047 196.832C147.357 197.966 147.363 199.809 147.333 201.207C147.33 201.302 147.298 201.394 147.241 201.471C147.184 201.548 147.106 201.607 147.015 201.639L140.197 204.082" stroke="#8E8B92" stroke-width="2"/>
<path d="M140.197 204.082L129.694 207.803C129.612 207.832 129.525 207.844 129.438 207.837C129.351 207.831 129.266 207.806 129.189 207.765C129.112 207.724 129.045 207.667 128.991 207.598C128.937 207.529 128.899 207.449 128.878 207.365C128.666 206.524 128.518 205.608 128.434 204.616C127.846 197.622 127.254 190.61 126.657 183.58C126.637 183.356 126.734 183.206 126.946 183.13C128.398 182.62 131.225 182.5 132.191 181.27C134.172 178.753 136.604 176.86 139.489 175.592C142.394 174.314 143.888 173.449 143.936 170.275C143.968 168.162 143.94 166.047 143.852 163.931C143.847 163.806 143.886 163.684 143.963 163.585C144.04 163.486 144.149 163.418 144.272 163.391C147.069 162.773 148.341 161.818 148.035 158.715C147.747 155.805 147.531 153.074 144.434 152.024C144.234 151.956 144.084 151.83 143.984 151.646C143.76 151.237 143.614 150.891 143.546 150.607C141.121 141.025 139.637 131.268 139.093 121.337C139.09 121.296 139.102 121.256 139.125 121.223C139.148 121.189 139.182 121.164 139.222 121.152C139.261 121.14 139.304 121.141 139.344 121.155C139.383 121.169 139.417 121.195 139.441 121.229C142.292 125.701 146.259 131.798 150.268 137.14C154.601 142.913 157.662 148.855 160.549 155.235C160.619 155.388 160.626 155.562 160.569 155.72C160.511 155.878 160.394 156.008 160.243 156.081C157.164 157.545 153.083 160.426 156.197 164.273C156.654 164.833 157.142 165.417 157.662 166.025C157.724 166.097 157.769 166.181 157.795 166.271C157.821 166.361 157.827 166.456 157.812 166.548C157.384 169.392 157.55 172.179 158.31 174.908C159.12 177.813 159.006 179.661 158.226 182.32C157.476 184.895 158.898 186.689 161.449 187.145C165.198 187.821 168.037 186.569 169.965 183.388C170.097 183.172 170.229 183.17 170.361 183.382C172.744 187.151 182.503 198.248 186.476 189.93C186.514 189.848 186.577 189.78 186.656 189.736C186.735 189.691 186.825 189.673 186.914 189.684C191.255 190.168 193.498 188.239 193.642 183.898C193.646 183.698 193.744 183.566 193.936 183.502C196.588 182.602 197.523 180.683 196.738 177.747C195.112 171.673 190.275 167.628 186.458 162.767C184.285 160.006 182.653 157.197 179.058 155.907C178.854 155.835 178.762 155.693 178.782 155.481C179.364 149.419 174.052 148.567 169.923 151.051C169.822 151.112 169.709 151.151 169.591 151.166C169.474 151.18 169.355 151.17 169.242 151.135C169.129 151.101 169.025 151.043 168.937 150.965C168.848 150.888 168.778 150.792 168.729 150.685C166.356 145.476 163.792 140.547 161.035 135.897C159.456 133.239 157.2 130.916 155.501 128.359C149.94 119.981 144.262 111.669 138.469 103.422C138.422 103.352 138.397 103.271 138.397 103.188L138.733 87.6382C138.736 87.5143 138.783 87.3957 138.866 87.3042C138.949 87.2127 139.061 87.1545 139.183 87.1401C141.476 86.856 143.822 86.762 146.223 86.858C147.183 86.894 148.017 87.3381 148.209 88.2684C148.248 88.4506 148.335 88.6189 148.461 88.7554C148.588 88.8919 148.749 88.9914 148.928 89.0432C149.107 89.0949 149.297 89.0971 149.477 89.0495C149.656 89.0018 149.82 88.906 149.95 88.7725C150.61 88.0803 150.766 87.3241 150.418 86.5039C149.068 83.359 141.896 84.3013 139.243 84.5894C139.023 84.6134 138.919 84.5134 138.931 84.2893C139.595 71.7779 140.849 59.3285 142.694 46.9412C142.796 46.257 142.622 45.6988 142.04 45.2427C132.689 37.9207 124.671 29.3524 117.985 19.5377C117.749 19.1897 117.149 18.4835 116.185 17.4192C114.504 15.5707 114.42 14.1003 113.736 11.0334C113.024 7.85658 112.532 4.69973 112.26 1.56288C112.25 1.43838 112.202 1.31994 112.122 1.22345C112.043 1.12696 111.936 1.05704 111.816 1.02307C111.696 0.989105 111.568 0.992716 111.45 1.03342C111.332 1.07413 111.229 1.14998 111.155 1.25079C107.866 5.62798 104.329 9.70908 100.544 13.4941C90.3537 23.6789 80.559 34.1637 70.7703 44.7266C69.0899 46.5331 67.6435 47.7694 66.9713 50.2301C64.2026 60.3208 62.9782 70.8517 63.2983 81.8226C63.3004 81.9091 63.2703 81.9933 63.2137 82.0588C63.1571 82.1243 63.0781 82.1663 62.9922 82.1767C53.4677 83.329 59.8234 93.2017 63.0703 96.5686C63.3985 96.9086 63.5888 97.3577 63.6044 97.829C63.9445 107.24 64.8047 116.602 66.1851 125.917C66.2171 126.129 66.1331 126.269 65.933 126.337L56.3184 129.698C56.226 129.73 56.1279 129.742 56.0307 129.734C55.9335 129.725 55.8393 129.697 55.7543 129.65C55.2341 129.366 54.686 128.961 54.1098 128.437C48.9084 123.708 44.7813 119.881 41.7285 116.956C41.4684 116.708 41.2904 116.36 41.1943 115.912" stroke="#9A979E" stroke-width="2"/>
<path d="M140.197 204.082C142.826 204.102 145.403 203.374 147.927 201.897C148.003 201.852 148.089 201.826 148.178 201.823C148.266 201.82 148.354 201.839 148.434 201.879C148.513 201.919 148.582 201.979 148.633 202.052C148.684 202.125 148.716 202.21 148.726 202.299C148.846 203.38 149.212 204.434 149.824 205.462" stroke="#292330" stroke-width="2"/>
<path d="M149.824 205.462L149.434 210.077" stroke="#9A979E" stroke-width="2"/>
<path d="M149.434 210.077L146.709 212.136" stroke="#292330" stroke-width="2"/>
<path d="M35.8527 124.356C35.0365 124.024 34.9125 122.79 35.4806 120.653" stroke="#292330" stroke-width="2"/>
<path d="M35.4805 120.653L38.0012 116.566" stroke="#9A979E" stroke-width="2"/>
<path d="M38.0015 116.566C38.3776 116.39 38.7077 116.202 38.9917 116.002C39.3558 115.746 39.6319 115.62 39.82 115.624C40.144 115.632 40.3741 115.836 40.5101 116.236C40.5239 116.278 40.548 116.315 40.5799 116.345C40.6119 116.375 40.6508 116.397 40.6929 116.408C40.7349 116.419 40.7788 116.418 40.8204 116.407C40.8619 116.396 40.8998 116.374 40.9303 116.344C41.0343 116.248 41.1223 116.104 41.1943 115.912" stroke="#292330" stroke-width="2"/>
<path d="M38.0012 116.566C39.2255 114.255 42.0403 110.102 40.8279 107.582C40.7904 107.503 40.7365 107.434 40.6701 107.379C40.6037 107.324 40.5264 107.284 40.4438 107.264L37.293 106.483C37.1109 106.438 36.9426 106.35 36.8026 106.225C36.6625 106.101 36.555 105.944 36.4894 105.768C36.4238 105.592 36.402 105.403 36.4259 105.217C36.4499 105.031 36.5188 104.854 36.6268 104.701C39.0094 101.286 36.8008 96.3946 33.0378 94.9902C32.8912 94.9369 32.766 94.8371 32.6815 94.706C32.5969 94.5748 32.5577 94.4196 32.5697 94.264C32.9458 89.1827 32.5497 84.1833 31.3814 79.266C30.3311 74.8428 25.4998 77.9156 24.3175 80.4363C23.5672 82.0267 23.5732 83.9832 23.4952 85.8197C23.4112 87.7103 25.8419 88.8206 27.1022 89.8168C27.2342 89.9223 27.3414 90.0555 27.4162 90.2071C27.491 90.3586 27.5315 90.5247 27.535 90.6936C27.5384 90.8626 27.5047 91.0302 27.4361 91.1846C27.3675 91.3391 27.2658 91.4766 27.1382 91.5873C26.7461 91.9194 26.296 92.0875 25.7878 92.0915C25.7005 92.0914 25.6144 92.0737 25.5349 92.0397C25.4554 92.0056 25.3843 91.9558 25.3257 91.8934C22.513 88.9166 19.114 87.2942 15.129 87.0261C11.0479 86.75 5.27429 89.0186 5.91646 94.102C6.0685 95.3303 6.74869 96.4506 7.95702 97.4629C10.4957 99.5995 18.2858 103.525 19.9123 98.3992C21.0946 94.6962 17.9617 93.0097 15.111 91.8814C14.983 91.8301 14.8678 91.7515 14.7734 91.651C14.6789 91.5506 14.6075 91.4308 14.5641 91.3C14.5207 91.1692 14.5063 91.0305 14.522 90.8935C14.5376 90.7565 14.583 90.6247 14.6548 90.507C15.099 89.7788 15.6251 89.5088 16.2333 89.6968C20.6865 91.0772 24.1974 95.0983 21.9228 99.9056C21.4967 100.8 20.5784 101.586 19.9243 102.426C19.7962 102.59 19.7462 102.774 19.7742 102.978C20.2243 106.189 18.994 107.864 18.7239 110.624C18.5679 112.233 18.4439 113.167 18.3518 113.427C17.3856 116.104 15.417 117.064 12.7403 118.331C12.5283 118.431 12.5183 118.549 12.7103 118.685C14.3187 119.797 16.0812 120.409 17.9977 120.521C19.7202 120.623 21.4427 119.675 23.6573 120.623C23.9804 120.761 24.3452 120.766 24.6716 120.635C24.9979 120.505 25.2591 120.25 25.3977 119.927C26.9702 116.266 29.0827 112.955 31.7355 109.994C31.9158 109.792 32.166 109.666 32.4356 109.642C32.7052 109.617 32.9741 109.696 33.1879 109.862C34.1361 110.594 33.806 111.603 33.0858 112.431C30.8612 115 29.0987 117.864 27.7984 121.025C27.7184 121.225 27.7144 121.425 27.7864 121.625C28.3105 123.126 29.3228 124.116 30.8232 124.596C30.924 124.627 31.0291 124.637 31.1322 124.627C31.2353 124.616 31.3343 124.586 31.4234 124.536C32.9918 123.672 34.3442 122.378 35.4805 120.653" stroke="#8E8B92" stroke-width="2"/>
<path d="M149.434 210.077C149.021 212.018 148.731 213.85 148.563 215.575C148.395 217.243 149.842 218.407 151.168 217.027C155.681 212.31 156.552 205.966 155.957 199.826C155.947 199.731 155.974 199.635 156.033 199.558C156.092 199.481 156.179 199.429 156.275 199.412L157.602 199.202C157.701 199.185 157.804 199.204 157.892 199.256C157.979 199.307 158.047 199.388 158.082 199.484C158.73 201.267 158.49 202.911 158.502 204.538C158.534 210.715 156.305 215.831 151.816 219.884C151.708 219.982 151.631 220.11 151.596 220.252C151.561 220.394 151.568 220.543 151.618 220.68C151.668 220.817 151.757 220.935 151.875 221.02C151.993 221.105 152.133 221.152 152.278 221.156C153.395 221.192 160.699 221.882 159.588 224.301C159.458 224.584 159.225 224.806 158.937 224.922C158.649 225.038 158.328 225.039 158.04 224.925C153.563 223.157 149.248 223.169 145.094 224.961C136.368 228.73 135.63 239.347 141.986 245.619C143.264 246.879 144.872 248.368 146.409 248.464C151.948 248.8 161.035 247.023 165.32 243.038C168.801 239.803 170.037 234.306 170.283 229.684C170.867 218.669 168.689 208.269 163.747 198.482C163.655 198.306 163.519 198.174 163.339 198.086C162.347 197.626 161.347 197.542 160.339 197.834C158.458 198.374 156.928 198.748 155.747 198.956C155.531 198.996 155.319 198.98 155.111 198.908L151.648 197.714C151.445 197.643 151.228 197.622 151.015 197.652C150.801 197.682 150.599 197.763 150.423 197.887C150.247 198.012 150.104 198.177 150.005 198.368C149.906 198.559 149.854 198.771 149.854 198.986L149.824 205.462" stroke="#8E8B92" stroke-width="2"/>
<path d="M114.546 40.5914C115.801 40.0032 116.299 40.7774 116.539 41.9057C117.443 46.1109 119.329 49.8139 122.198 53.0147C122.768 53.6509 123.597 54.7792 124.509 54.5871C130.222 53.4108 135.15 50.8481 139.291 46.8991C139.325 46.8674 139.352 46.8286 139.37 46.7854C139.388 46.7422 139.397 46.6956 139.395 46.6489C139.393 46.6021 139.382 46.5563 139.361 46.5145C139.339 46.4727 139.31 46.436 139.273 46.4069C130.707 39.5651 123.275 31.6549 116.977 22.6765C116.885 22.5486 116.75 22.4581 116.597 22.4217C116.443 22.3854 116.282 22.4055 116.143 22.4784C110.831 25.2332 100.016 29.2183 95.323 23.1806C95.2871 23.1349 95.2418 23.0974 95.1903 23.0707C95.1388 23.044 95.0823 23.0287 95.0247 23.0258C94.9671 23.023 94.9097 23.0327 94.8566 23.0542C94.8034 23.0757 94.7557 23.1086 94.7168 23.1506L71.2625 47.9974C71.1024 48.1694 71.1224 48.3174 71.3225 48.4415C82.9296 55.5054 98.5279 59.3164 112.176 56.5077C112.267 56.4886 112.35 56.4409 112.411 56.3716C112.473 56.3024 112.51 56.2154 112.518 56.1236C112.86 50.9862 112.818 46.0588 114.174 41.0415C114.23 40.8334 114.354 40.6834 114.546 40.5914Z" stroke="#927559" stroke-width="2"/>
<path d="M125.631 82.7168C127.604 83.0169 129.51 83.7231 131.351 84.8354C132.923 85.7836 134.274 85.7056 135.864 85.1654C135.979 85.1263 136.08 85.0535 136.154 84.9562C136.227 84.8589 136.271 84.7417 136.278 84.6193C136.942 73.2602 138.013 61.9392 139.489 50.6561C139.494 50.6157 139.488 50.5746 139.469 50.5381C139.451 50.5016 139.423 50.4714 139.387 50.4513C139.352 50.4313 139.311 50.4224 139.27 50.4257C139.23 50.4291 139.191 50.4445 139.159 50.47C135.622 53.3028 131.705 55.3654 127.408 56.6577" stroke="#7A454B" stroke-width="2"/>
<path d="M127.407 56.6577C125.511 56.9158 123.392 57.7861 121.76 56.2796C119.403 54.1071 117.459 51.4143 115.926 48.2015C115.738 47.8094 115.616 47.8274 115.56 48.2555C115.312 50.156 115.188 52.7147 115.188 55.9316C115.188 57.8941 113.586 58.9564 111.695 59.2144C96.7471 61.263 82.8413 58.3962 69.9778 50.6141C69.9298 50.584 69.8753 50.5657 69.8188 50.5606C69.7624 50.5555 69.7055 50.5638 69.6528 50.5849C69.6002 50.6059 69.5533 50.6391 69.5159 50.6818C69.4785 50.7244 69.4517 50.7752 69.4377 50.8302C66.817 60.9529 65.5826 71.2517 65.7347 81.7265C65.7387 81.9146 65.8327 82.0106 66.0168 82.0146C71.6223 82.1226 77.2138 82.4347 82.7913 82.9509C85.7321 83.2269 90.2933 84.0912 91.9078 86.7079C92.658 87.9262 92.3879 89.3186 92.2318 90.699C92.2118 90.911 92.3059 91.0091 92.5139 90.9931L96.463 90.723C96.5307 90.7184 96.5949 90.691 96.6451 90.6452C96.6952 90.5994 96.7284 90.538 96.7391 90.4709C97.1912 87.8142 98.6756 86.1177 101.192 85.3815C108.67 83.1889 116.817 82.3007 125.631 82.7168" stroke="#895257" stroke-width="2"/>
<path d="M127.407 56.6577C126.727 63.7236 126.107 70.7355 125.547 77.6934C125.395 79.5539 125.423 81.2284 125.631 82.7168" stroke="#CE6965" stroke-width="2"/>
<path d="M71.1363 100.11C72.2646 101.292 74.8873 101.904 76.4657 102.24C79.0224 102.792 81.039 101.916 82.6114 100.013C84.2718 97.9969 86.1123 95.4942 88.1329 92.5054C88.9251 91.3411 90.2215 89.4686 89.6933 88.1723C88.7631 85.8796 82.4433 85.6816 80.2948 85.4715C75.6735 85.0194 71.0443 84.6813 66.407 84.4573C64.8526 84.3792 63.3162 84.7573 61.8278 85.0754C61.4738 85.1519 61.1565 85.3465 60.9284 85.627C60.7003 85.9075 60.5751 86.257 60.5734 86.6178C60.5374 91.3531 66.0469 96.6826 69.7559 98.9092C70.112 99.1212 70.5721 99.5213 71.1363 100.11Z" stroke="#895257" stroke-width="2"/>
<path d="M111.467 101.142L119.071 86.6719" stroke="#9A979E" stroke-width="2"/>
<path d="M119.071 86.6719L123.657 86.99" stroke="#895257" stroke-width="2"/>
<path d="M123.657 86.99L118.567 95.3923C118.557 95.4129 118.555 95.4364 118.561 95.4586C118.567 95.4807 118.58 95.5001 118.599 95.5131C118.618 95.5262 118.641 95.5321 118.664 95.5297C118.686 95.5273 118.708 95.5169 118.723 95.5003L125.247 87.3861" stroke="#8C9097" stroke-width="2"/>
<path d="M125.247 87.3861C126.167 87.4861 126.792 88.0002 127.12 88.9285C128.182 91.9053 123.993 95.3862 122.216 97.0787C121.648 97.6188 120.928 98.0149 120.056 98.267C118.843 98.6151 115.146 99.6414 114.738 100.908C114.638 101.212 114.728 101.288 115.008 101.136C116.857 100.14 118.801 99.3933 120.842 98.8972C124.653 97.9669 128.104 93.4417 129.922 90.1768C134.736 81.5405 106.714 86.7079 104.175 87.236C94.1228 89.3306 102.747 97.3488 106.528 99.8634C108.081 100.896 109.607 102.012 111.107 103.212C111.201 103.288 111.316 103.332 111.436 103.336C111.556 103.339 111.674 103.304 111.772 103.234C111.87 103.164 111.944 103.064 111.981 102.948C112.018 102.833 112.017 102.709 111.978 102.594L111.467 101.142" stroke="#895257" stroke-width="2"/>
<path d="M125.247 87.3861L124.767 86.912C124.631 86.7719 124.465 86.7119 124.269 86.7319C124.021 86.7599 123.817 86.8459 123.657 86.99" stroke="#E0B4B1" stroke-width="2"/>
<path d="M119.072 86.672C117.123 86.2358 115.471 86.4019 114.114 87.1701" stroke="#EEBBB8" stroke-width="2"/>
<path d="M114.114 87.17L113.946 87.044C113.81 86.94 113.656 86.906 113.484 86.942C111.055 87.4141 108.626 87.8922 106.198 88.3764C104.403 88.7305 101.685 90.2729 102.603 92.6975C103.595 95.3023 105.346 97.3388 107.854 98.8072" stroke="#895257" stroke-width="2"/>
<path d="M107.854 98.8071C109.274 100.604 110.479 101.382 111.467 101.142" stroke="#EEBBB8" stroke-width="2"/>
<path d="M107.854 98.8072L114.114 87.17" stroke="#9A979E" stroke-width="2"/>
<path d="M124.875 101.616C119.677 101.286 116.382 103.248 112.403 106.219C112.26 106.327 112.089 106.392 111.909 106.407C111.73 106.422 111.55 106.386 111.389 106.303C105.912 103.482 101.392 99.6074 97.8314 94.6781C96.9732 93.4898 96.0789 93.1717 94.6866 93.2737C94.3785 93.2977 94.3605 93.3857 94.6325 93.5378L96.553 94.6241C96.8215 94.7745 97.0289 95.0139 97.1396 95.301C97.2503 95.5881 97.2572 95.9048 97.1592 96.1965C96.9072 96.9607 96.373 97.1728 95.5568 96.8327C91.6437 95.1962 88.7289 95.8584 86.8124 98.8192C83.9856 103.182 87.5026 106.651 91.2776 108.338C91.424 108.404 91.5524 108.503 91.6522 108.629C91.752 108.755 91.8203 108.903 91.8514 109.061C91.8825 109.219 91.8756 109.382 91.8311 109.537C91.7866 109.692 91.7059 109.834 91.5957 109.952C91.1476 110.424 90.6114 110.566 89.9873 110.378C86.7864 109.402 84.6118 107.221 83.4635 103.837C83.2634 103.256 82.9254 103.156 82.4492 103.536C79.8145 105.637 77.846 105.163 74.215 104.533C71.7663 104.105 69.4697 104.535 67.3251 105.823C67.1523 105.928 67.0123 106.079 66.921 106.259C66.8298 106.44 66.791 106.642 66.809 106.843C68.2694 123.596 70.544 140.238 73.6328 156.771C73.6448 156.851 73.6929 156.895 73.7769 156.903C92.822 158.435 111.513 157.701 129.85 154.7" stroke="#895257" stroke-width="2"/>
<path d="M129.85 154.7L141.091 152.708C141.319 152.668 141.405 152.536 141.349 152.312C136.008 131.246 135.048 109.454 136.164 87.8782C136.18 87.6301 136.064 87.5221 135.816 87.5541L133.727 87.8061C133.499 87.8342 133.355 87.9582 133.295 88.1782C132.155 92.3674 129.842 95.7523 126.357 98.333C126.302 98.3745 126.26 98.4309 126.236 98.4954C126.211 98.56 126.206 98.6299 126.22 98.697C126.234 98.764 126.266 98.8253 126.314 98.8736C126.362 98.9218 126.423 98.955 126.489 98.9692C127.768 99.2572 130.655 99.4793 131.231 100.938C131.295 101.1 131.316 101.276 131.291 101.449C131.266 101.622 131.196 101.785 131.089 101.923C130.982 102.06 130.84 102.167 130.679 102.234C130.517 102.3 130.341 102.323 130.168 102.3L124.875 101.616" stroke="#7A454B" stroke-width="2"/>
<path d="M129.85 154.7C126.406 139.472 124.745 124.904 124.869 110.997C124.885 109.08 124.813 107.682 124.653 106.801C124.621 106.621 124.611 106.441 124.623 106.261L124.875 101.616" stroke="#CE6965" stroke-width="2"/>
<path d="M66.4131 102.882C66.4243 102.965 66.4557 103.043 66.5045 103.11C66.5534 103.178 66.6181 103.232 66.693 103.268C66.7678 103.305 66.8505 103.322 66.9336 103.318C67.0167 103.315 67.0977 103.291 67.1693 103.248L68.7057 102.336C68.7775 102.294 68.8376 102.234 68.8807 102.163C68.9238 102.092 68.9485 102.011 68.9527 101.927C68.9569 101.844 68.9403 101.761 68.9045 101.686C68.8688 101.611 68.8149 101.545 68.7477 101.496L66.9112 100.158C66.8315 100.099 66.7362 100.065 66.6373 100.06C66.5384 100.055 66.4402 100.08 66.3551 100.13C66.2699 100.181 66.2016 100.255 66.1585 100.345C66.1155 100.434 66.0996 100.534 66.113 100.632L66.4131 102.882Z" stroke="#895257" stroke-width="2"/>
<path d="M160.117 164.705C160.36 164.911 160.543 165.18 160.643 165.483C160.744 165.786 160.759 166.111 160.687 166.422C160.099 168.966 160.127 171.537 160.771 174.134C161.653 177.663 161.809 179.889 160.579 182.962C160.517 183.118 160.489 183.284 160.498 183.451C160.506 183.618 160.549 183.782 160.625 183.93C160.702 184.079 160.809 184.209 160.939 184.312C161.07 184.415 161.221 184.489 161.383 184.528C164.86 185.385 167.155 184.192 168.267 180.951C168.317 180.809 168.308 180.652 168.243 180.513L166.49 176.792C166.396 176.591 166.368 176.366 166.409 176.148C166.45 175.931 166.558 175.732 166.718 175.58C167.487 174.854 168.435 174.956 168.891 175.946C170.792 180.103 173.378 183.786 176.651 186.995C178.056 188.37 183.739 193.075 184.441 188.249C184.469 188.057 184.425 187.879 184.309 187.715C182.357 184.995 180.452 182.238 178.596 179.445C178.008 178.557 177.774 177.819 178.806 177.164C179.041 177.014 179.326 176.96 179.6 177.015C179.875 177.07 180.117 177.229 180.276 177.459C182.317 180.395 184.349 183.338 186.374 186.287C187.688 188.207 190.323 187.367 191.067 185.447C192.135 182.692 185.276 176.084 183.385 174.35C183.162 174.144 183.028 173.86 183.012 173.557C182.996 173.254 183.1 172.957 183.301 172.729C183.985 171.955 184.687 171.979 185.426 172.705C188.086 175.33 190.425 178.031 192.441 180.807C192.576 180.992 192.764 181.132 192.981 181.207C193.197 181.283 193.431 181.291 193.651 181.23C193.872 181.17 194.069 181.044 194.216 180.868C194.364 180.693 194.454 180.477 194.476 180.249C194.782 176.75 191.349 172.333 189.063 169.734C186.606 166.946 184.225 164.095 181.921 161.182C180.72 159.664 179.568 158.595 177.888 158.061C177.758 158.019 177.62 158.009 177.485 158.032C177.35 158.055 177.222 158.11 177.113 158.193C172.832 161.486 168.149 164.069 163.064 165.941C162.74 166.06 162.384 166.045 162.07 165.902C161.757 165.758 161.512 165.496 161.389 165.173C160.999 164.165 161.881 163.499 162.787 163.175C165.392 162.244 177.371 157.071 176.369 153.764C175.817 151.934 172.936 152.132 171.784 152.912C169.545 154.418 167.697 155.685 165.026 156.819C162.775 157.773 159.589 159.034 157.854 161.02C157.785 161.099 157.739 161.196 157.723 161.299C157.707 161.402 157.721 161.507 157.764 161.602C158.312 162.811 159.096 163.845 160.117 164.705Z" stroke="#9A979E" stroke-width="2"/>
<path d="M143.804 160.816C144.53 160.612 145.46 160.588 145.502 159.628C145.539 158.782 145.22 154.184 143.324 154.79C142.668 154.999 142.318 155.107 142.274 155.115C119.351 159.724 96.1371 161.138 72.6308 159.358C72.474 159.344 72.3179 159.392 72.195 159.492C72.0721 159.591 71.9917 159.734 71.9706 159.892C71.7825 161.22 71.8405 162.639 72.1446 164.147C72.3327 165.083 72.9308 165.619 73.9391 165.755C97.7056 168.956 120.994 167.31 143.804 160.816Z" stroke="#927559" stroke-width="2"/>
<path d="M132.473 166.278C114.12 170.071 95.701 170.897 77.216 168.756C77.165 168.75 77.1133 168.756 77.0655 168.775C77.0177 168.794 76.9754 168.825 76.9425 168.864C76.9096 168.903 76.8872 168.951 76.8773 169.001C76.8674 169.051 76.8704 169.103 76.8859 169.152C79.9347 179.295 87.5027 181.816 97.0453 182.488C106.676 183.168 115.632 182.694 123.915 181.066" stroke="#8C9097" stroke-width="2"/>
<path d="M123.915 181.066C125.779 180.873 127.574 180.447 129.298 179.787C130.006 179.519 130.688 179.019 131.345 178.287C133.493 175.894 136.084 174.126 139.117 172.981C140.437 172.483 141.433 171.835 141.451 170.425C141.479 168.44 141.473 166.494 141.433 164.585C141.433 164.528 141.42 164.473 141.395 164.422C141.37 164.371 141.334 164.326 141.289 164.291C141.244 164.256 141.191 164.231 141.135 164.219C141.079 164.206 141.021 164.206 140.965 164.219L132.473 166.278" stroke="#77888C" stroke-width="2"/>
<path d="M123.915 181.066C123.419 179.477 123.669 178.395 124.665 177.819C125.693 177.223 127.198 176.512 129.178 175.688C132.617 174.26 131.159 170.959 132.035 168.204C132.239 167.548 132.385 166.906 132.473 166.278" stroke="#CEE9E6" stroke-width="2"/>
<path d="M83.2236 235.962C83.9838 235.614 84.7881 235.47 85.6363 235.53C85.8435 235.542 86.0489 235.49 86.2244 235.38C86.9726 234.908 87.3347 234.304 87.3107 233.568C87.1907 230.171 84.586 229.673 81.5552 229.139C79.1505 228.714 76.6919 228.55 74.1792 228.646C73.9071 228.654 73.8271 228.78 73.9391 229.024C75.5676 232.557 78.2043 234.904 81.8493 236.064C81.9927 236.111 82.1233 236.191 82.2301 236.297C82.337 236.403 82.4171 236.533 82.464 236.676C82.5108 236.819 82.5231 236.971 82.4997 237.119C82.4763 237.267 82.4179 237.408 82.3294 237.529C81.6392 238.489 80.3609 238.417 79.3106 237.967C74.5633 235.944 72.6968 232.325 70.1701 227.596C67.3913 222.411 61.2697 215.833 55.118 213.138C54.3218 212.786 54.2818 212.858 54.998 213.354C58.4549 215.747 61.2257 218.938 63.3102 222.927C67.7514 231.433 74.2132 238.207 82.6955 243.248C83.0836 243.48 83.2656 243.37 83.2416 242.918L82.9055 236.491C82.8895 236.242 82.9956 236.066 83.2236 235.962Z" stroke="#9A979E" stroke-width="2"/>
<path d="M48.2582 213.528C51.7872 215.097 54.9701 217.191 57.8068 219.812C57.827 219.827 57.8519 219.834 57.877 219.833C57.9022 219.832 57.9261 219.822 57.9446 219.805C57.9631 219.788 57.9751 219.764 57.9784 219.74C57.9817 219.715 57.9762 219.689 57.9629 219.668C55.3982 216.331 52.0533 214.174 47.9281 213.198C47.9124 213.195 47.896 213.196 47.8809 213.201C47.8657 213.207 47.8522 213.216 47.8417 213.228C47.8313 213.24 47.8244 213.255 47.8216 213.271C47.8189 213.287 47.8204 213.303 47.8261 213.318C47.8581 213.394 47.9101 213.424 47.9822 213.408C47.9822 213.408 48.0742 213.448 48.2582 213.528Z" stroke="#9A979E" stroke-width="2"/>
<path d="M62.3617 257.16C70.4339 260.215 84.2256 261.313 84.1536 248.422C84.1456 247.634 83.9215 246.967 83.4814 246.423C83.3134 246.215 83.2053 246.241 83.1573 246.501L82.9593 247.642C82.7912 248.594 82.2631 248.878 81.3749 248.494C74.7771 245.665 69.2916 241.396 64.9184 235.686C61.6955 231.485 59.937 226.066 56.5521 222.357C53.9394 219.488 50.7986 217.367 47.1296 215.995C42.8864 214.405 39.7716 214.885 36.6147 217.994C33.3918 221.156 33.0378 223.857 34.4301 228.262C38.2532 240.374 47.9578 248.23 58.7727 255.33C59.905 256.07 61.1014 256.68 62.3617 257.16Z" stroke="#9A979E" stroke-width="2"/>
<path d="M81.8972 245.637C75.4235 242.024 69.974 237.251 65.5488 231.317C65.5321 231.295 65.5095 231.278 65.4835 231.267C65.4576 231.257 65.4293 231.255 65.4019 231.259C65.3745 231.264 65.349 231.277 65.3283 231.296C65.3076 231.314 65.2925 231.338 65.2847 231.365C65.2567 231.457 65.2687 231.545 65.3207 231.629C69.0617 237.703 74.1591 242.276 80.6129 245.349C81.145 245.605 81.5951 245.711 81.9632 245.667C81.9672 245.667 81.9692 245.667 81.9692 245.667C81.9692 245.663 81.9672 245.661 81.9632 245.661C81.9392 245.657 81.9172 245.649 81.8972 245.637Z" stroke="#9A979E" stroke-width="2"/>
<path d="M17.0497 103.416C12.5125 103.44 9.04353 101.604 5.74264 98.9632C5.67817 98.9112 5.60373 98.8729 5.5238 98.8507C5.44388 98.8285 5.36014 98.8229 5.27766 98.8341C5.19518 98.8453 5.11567 98.8732 5.04395 98.916C4.97223 98.9588 4.90978 99.0157 4.8604 99.0832C3.16794 101.364 2.94988 103.829 4.20622 106.477C4.29424 106.669 4.43028 106.817 4.61433 106.921C7.081 108.29 15.4593 111.321 16.9117 107.275C17.2718 106.279 17.4318 105.103 17.3918 103.746C17.3838 103.526 17.2698 103.416 17.0497 103.416Z" stroke="#8E8B92" stroke-width="2"/>
<path d="M6.16258 110.33C5.5184 110.058 4.95225 109.844 4.46412 109.688C4.38098 109.661 4.29255 109.656 4.2066 109.671C4.12064 109.686 4.03977 109.723 3.97106 109.776C3.90235 109.83 3.84791 109.9 3.8125 109.98C3.77708 110.06 3.76178 110.147 3.76793 110.234C4.056 114.129 6.66071 116.698 10.5738 116.212C12.9084 115.924 15.9092 114.117 16.2993 111.501C16.3353 111.261 16.2433 111.193 16.0232 111.297C13.4666 112.569 8.68326 111.405 6.16258 110.33Z" stroke="#8E8B92" stroke-width="2"/>
<path d="M67.5292 95.2603C67.4412 95.6043 67.4872 95.8944 67.6672 96.1305C68.9036 97.7509 70.2779 98.7492 71.7903 99.1253" stroke="#EEBBB8" stroke-width="2"/>
<path d="M71.7905 99.1252C72.3067 100.23 73.2789 100.666 74.7073 100.434" stroke="#895257" stroke-width="2"/>
<path d="M74.707 100.434C75.2312 101.47 76.1154 101.63 77.3597 100.914" stroke="#EEBBB8" stroke-width="2"/>
<path d="M77.3599 100.914C78.4922 101.358 79.6025 100.966 80.6908 99.7373C82.4973 97.6908 86.3143 93.0995 86.8064 90.3088C87.1025 88.6243 86.4043 87.8941 84.7119 88.1182" stroke="#895257" stroke-width="2"/>
<path d="M84.7119 88.1184C84.7359 87.6382 84.4458 87.2881 83.8417 87.0681C83.5416 86.96 83.3235 87.004 83.1875 87.2001" stroke="#EEBBB8" stroke-width="2"/>
<path d="M83.1879 87.2C82.1436 86.5158 80.9232 86.4718 79.5269 87.068" stroke="#895257" stroke-width="2"/>
<path d="M79.5266 87.068C79.1745 86.6038 78.3623 86.3058 77.0899 86.1737C75.6856 86.0297 74.4412 85.9917 73.3569 86.0597" stroke="#EEBBB8" stroke-width="2"/>
<path d="M73.3566 86.0597C70.2918 86.0037 67.8351 86.0557 65.9866 86.2158C65.1384 86.2918 64.3762 86.6519 63.7 87.2961C63.552 87.4401 63.4719 87.6122 63.4599 87.8122C63.3159 90.561 65.0804 92.6675 66.4367 94.8701C66.5448 95.0462 66.7008 95.1482 66.9049 95.1762L67.529 95.2602" stroke="#895257" stroke-width="2"/>
<path d="M73.3569 86.0597L67.5293 95.2602" stroke="#9A979E" stroke-width="2"/>
<path d="M79.5266 87.068L71.7905 99.1253" stroke="#9A979E" stroke-width="2"/>
<path d="M83.1873 87.2001L74.707 100.434" stroke="#9A979E" stroke-width="2"/>
<path d="M84.7119 88.1183L77.3599 100.914" stroke="#9A979E" stroke-width="2"/>
<path d="M124.197 107.311C124.197 106.944 124.051 106.591 123.791 106.331C123.531 106.071 123.178 105.925 122.811 105.925C122.443 105.925 122.09 106.071 121.83 106.331C121.57 106.591 121.424 106.944 121.424 107.311C121.424 107.679 121.57 108.032 121.83 108.292C122.09 108.552 122.443 108.698 122.811 108.698C123.178 108.698 123.531 108.552 123.791 108.292C124.051 108.032 124.197 107.679 124.197 107.311Z" stroke="#895257" stroke-width="2"/>
<path d="M104.133 115.498C98.798 116.944 92.1903 117.802 87.0649 115.426C86.0986 114.976 85.4684 115.18 85.2344 116.236C85.0703 116.972 85.3324 117.494 86.0206 117.802C91.5901 120.269 98.588 119.747 104.344 118.03C104.519 117.976 104.709 117.982 104.882 118.048C105.056 118.113 105.204 118.233 105.304 118.39C106.174 119.753 108.563 122.916 110.549 121.817C110.701 121.732 110.828 121.61 110.919 121.461C111.01 121.313 111.062 121.144 111.069 120.97C111.076 120.796 111.039 120.624 110.96 120.468C110.882 120.313 110.765 120.18 110.621 120.083C109.457 119.297 108.089 118.252 107.554 116.962C106.348 114.075 108.569 111.255 111.173 110.18C111.335 110.114 111.478 110.008 111.587 109.871C111.696 109.734 111.769 109.572 111.798 109.399C111.827 109.227 111.811 109.05 111.752 108.885C111.693 108.72 111.593 108.573 111.461 108.458C109.535 106.765 106.492 110.294 105.676 111.669C105.082 112.677 104.866 113.877 104.542 115.084C104.482 115.3 104.346 115.438 104.133 115.498Z" stroke="#895257" stroke-width="2"/>
<path d="M117.853 109.94C117.853 109.577 117.709 109.229 117.452 108.973C117.196 108.716 116.847 108.572 116.485 108.572C116.122 108.572 115.774 108.716 115.517 108.973C115.26 109.229 115.116 109.577 115.116 109.94C115.116 110.303 115.26 110.651 115.517 110.908C115.774 111.164 116.122 111.309 116.485 111.309C116.847 111.309 117.196 111.164 117.452 110.908C117.709 110.651 117.853 110.303 117.853 109.94Z" stroke="#895257" stroke-width="2"/>
<path d="M121.988 113.007C121.988 112.649 121.846 112.305 121.593 112.052C121.34 111.799 120.996 111.657 120.638 111.657C120.28 111.657 119.936 111.799 119.683 112.052C119.43 112.305 119.288 112.649 119.288 113.007C119.288 113.365 119.43 113.709 119.683 113.962C119.936 114.215 120.28 114.357 120.638 114.357C120.996 114.357 121.34 114.215 121.593 113.962C121.846 113.709 121.988 113.365 121.988 113.007Z" stroke="#895257" stroke-width="2"/>
<path d="M173.338 232.157C174.763 221.042 173.59 210.666 169.821 201.027C169.233 199.527 168.279 196.574 166.19 197.036C165.95 197.088 165.886 197.222 165.998 197.438C171.888 209.101 173.874 221.442 171.958 234.462C170.97 241.164 167.519 245.729 161.605 248.158C156.892 250.094 151.65 250.984 145.881 250.828C145.617 250.82 145.475 250.948 145.455 251.213C145.423 251.709 145.647 252.087 146.127 252.347C146.277 252.43 146.446 252.475 146.619 252.479C155.699 252.779 167.577 249.772 171.436 240.446C172.252 238.481 172.886 235.718 173.338 232.157Z" stroke="#8E8B92" stroke-width="2"/>
<path d="M140.197 204.082C142.826 204.102 145.403 203.374 147.927 201.897C148.003 201.852 148.089 201.826 148.178 201.823C148.266 201.82 148.354 201.839 148.434 201.879C148.513 201.919 148.582 201.978 148.633 202.052C148.684 202.125 148.716 202.21 148.726 202.299C148.846 203.38 149.212 204.434 149.824 205.462L149.434 210.077L146.709 212.136C146.557 212.128 146.473 212.048 146.457 211.896C146.452 211.858 146.438 211.821 146.418 211.789C146.397 211.757 146.369 211.73 146.337 211.71C146.305 211.689 146.269 211.677 146.231 211.673C146.194 211.669 146.156 211.673 146.121 211.686C141.656 213.298 137.259 214.913 132.929 216.529C124.497 219.68 119.774 213.102 119.084 205.516C118.48 198.874 117.919 192.097 117.403 185.183C117.4 185.146 117.39 185.111 117.373 185.079C117.357 185.046 117.334 185.018 117.306 184.994C117.278 184.971 117.246 184.953 117.211 184.942C117.176 184.931 117.139 184.927 117.103 184.931C107.633 185.699 97.5738 185.993 88.2413 183.886C88.1483 183.864 88.0505 183.877 87.9665 183.923C87.8824 183.968 87.8179 184.043 87.7852 184.132C85.4085 190.56 82.6598 198.086 81.2314 205.24C80.8193 207.297 80.6613 209.605 80.7573 212.166C80.9253 216.703 81.2134 221.218 81.6215 225.712C81.6376 225.889 81.7096 226.057 81.8272 226.19C81.9448 226.324 82.1019 226.417 82.2757 226.456C86.4588 227.374 90.876 229.079 89.8077 234.486C89.3956 236.583 88.0833 237.785 85.8707 238.093C85.6666 238.125 85.5666 238.245 85.5706 238.453C85.6906 242.396 86.8429 247.029 86.5188 250.366C85.2465 263.354 71.2027 263.012 61.8702 259.651C59.8736 258.931 57.721 257.764 55.4124 256.152C45.0716 248.914 35.427 240.806 31.73 228.244C29.6414 221.144 32.7263 215.209 38.8239 211.44C51.4633 203.632 65.6272 214.561 71.6408 225.273C71.6666 225.32 71.7072 225.356 71.756 225.376C71.8049 225.396 71.8591 225.399 71.9099 225.384C71.9607 225.37 72.005 225.338 72.0357 225.295C72.0664 225.252 72.0816 225.2 72.0789 225.147C71.5868 217.471 70.4045 209.741 72.385 201.945C74.3295 194.299 76.6802 186.885 79.4369 179.703C79.5124 179.502 79.5293 179.285 79.4857 179.075C79.4421 178.866 79.3399 178.674 79.1909 178.521C76.5221 175.788 74.8737 172.527 74.2455 168.738C74.2311 168.647 74.1844 168.564 74.1138 168.505C74.0433 168.445 73.9537 168.413 73.8614 168.414C69.1861 168.462 68.9461 162.1 69.4622 158.902C69.4942 158.697 69.5783 158.515 69.7143 158.355L70.7586 157.113C70.8866 156.957 70.9346 156.779 70.9026 156.579L67.4217 136.323C67.4114 136.264 67.3882 136.208 67.3537 136.159C67.3192 136.11 67.2742 136.069 67.222 136.039C67.1699 136.009 67.1118 135.991 67.0519 135.986C66.992 135.982 66.9317 135.99 66.8755 136.011C63.8267 137.152 60.6758 138.142 57.423 138.982C53.2038 140.068 50.4791 137.788 47.4723 135.069C41.9628 130.1 38.0897 126.529 35.8531 124.356C35.0369 124.024 34.9129 122.79 35.481 120.653L38.0017 116.566C38.3778 116.39 38.7079 116.202 38.992 116.002C39.3561 115.746 39.6321 115.62 39.8202 115.624C40.1443 115.632 40.3743 115.836 40.5104 116.236C40.5242 116.278 40.5482 116.315 40.5802 116.345C40.6121 116.375 40.651 116.397 40.6931 116.408C40.7352 116.419 40.7791 116.418 40.8206 116.407C40.8622 116.396 40.9 116.374 40.9305 116.344C41.0345 116.248 41.1225 116.104 41.1946 115.912C41.2906 116.36 41.4686 116.708 41.7287 116.956C44.7815 119.881 48.9087 123.708 54.1101 128.437C54.6862 128.961 55.2344 129.366 55.7545 129.65C55.8395 129.697 55.9337 129.725 56.0309 129.734C56.1282 129.742 56.2262 129.73 56.3187 129.698L65.9333 126.337C66.1333 126.269 66.2173 126.129 66.1853 125.917C64.805 116.602 63.9447 107.24 63.6046 97.829C63.589 97.3577 63.3987 96.9086 63.0705 96.5686C59.8236 93.2017 53.4679 83.329 62.9925 82.1767C63.0784 82.1663 63.1573 82.1243 63.2139 82.0588C63.2705 81.9933 63.3007 81.9091 63.2986 81.8226C62.9785 70.8517 64.2028 60.3208 66.9715 50.2301C67.6437 47.7694 69.0901 46.5331 70.7706 44.7266C80.5592 34.1637 90.3539 23.6789 100.545 13.4941C104.33 9.70908 107.867 5.62798 111.156 1.25079C111.229 1.14998 111.332 1.07413 111.45 1.03342C111.568 0.992716 111.696 0.989105 111.816 1.02307C111.936 1.05704 112.043 1.12696 112.123 1.22345C112.202 1.31994 112.25 1.43838 112.26 1.56288C112.532 4.69973 113.024 7.85658 113.736 11.0334C114.42 14.1003 114.504 15.5707 116.185 17.4192C117.149 18.4835 117.749 19.1897 117.985 19.5377C124.671 29.3524 132.689 37.9207 142.04 45.2427C142.622 45.6988 142.796 46.257 142.694 46.9412C140.85 59.3285 139.595 71.7779 138.931 84.2893C138.919 84.5134 139.023 84.6134 139.243 84.5894C141.896 84.3013 149.068 83.359 150.418 86.5039C150.766 87.3241 150.61 88.0803 149.95 88.7725C149.82 88.906 149.657 89.0018 149.477 89.0495C149.297 89.0971 149.107 89.0949 148.928 89.0432C148.75 88.9914 148.588 88.8919 148.462 88.7554C148.335 88.6189 148.248 88.4506 148.21 88.2684C148.018 87.3381 147.183 86.894 146.223 86.858C143.822 86.762 141.476 86.856 139.183 87.1401C139.061 87.1545 138.949 87.2127 138.866 87.3042C138.784 87.3957 138.736 87.5143 138.733 87.6382L138.397 103.188C138.397 103.271 138.422 103.352 138.469 103.422C144.262 111.669 149.94 119.981 155.502 128.359C157.2 130.916 159.457 133.239 161.035 135.897C163.792 140.547 166.356 145.476 168.729 150.685C168.778 150.792 168.849 150.888 168.937 150.965C169.026 151.043 169.13 151.101 169.242 151.135C169.355 151.17 169.474 151.18 169.591 151.166C169.709 151.151 169.822 151.112 169.923 151.051C174.053 148.567 179.364 149.419 178.782 155.481C178.762 155.693 178.854 155.835 179.058 155.907C182.653 157.197 184.285 160.006 186.458 162.767C190.275 167.628 195.112 171.673 196.739 177.747C197.523 180.683 196.589 182.602 193.936 183.502C193.744 183.566 193.646 183.698 193.642 183.898C193.498 188.239 191.255 190.168 186.914 189.684C186.825 189.673 186.735 189.691 186.656 189.736C186.578 189.78 186.514 189.848 186.476 189.93C182.503 198.248 172.744 187.151 170.362 183.382C170.23 183.17 170.097 183.172 169.965 183.388C168.037 186.569 165.198 187.821 161.449 187.145C158.898 186.689 157.476 184.895 158.226 182.32C159.006 179.661 159.121 177.813 158.31 174.908C157.55 172.179 157.384 169.392 157.812 166.548C157.827 166.456 157.821 166.361 157.795 166.271C157.769 166.181 157.724 166.097 157.662 166.025C157.142 165.417 156.654 164.833 156.198 164.273C153.083 160.426 157.164 157.545 160.243 156.081C160.395 156.008 160.512 155.878 160.569 155.72C160.626 155.562 160.619 155.388 160.549 155.235C157.662 148.855 154.601 142.913 150.268 137.14C146.259 131.798 142.292 125.701 139.441 121.229C139.418 121.195 139.383 121.169 139.344 121.155C139.304 121.141 139.261 121.14 139.222 121.152C139.182 121.164 139.148 121.189 139.125 121.223C139.102 121.256 139.091 121.296 139.093 121.337C139.637 131.268 141.122 141.025 143.546 150.607C143.614 150.891 143.76 151.237 143.984 151.646C144.084 151.83 144.234 151.956 144.435 152.024C147.531 153.074 147.747 155.805 148.036 158.715C148.342 161.818 147.069 162.773 144.272 163.391C144.149 163.418 144.04 163.486 143.963 163.585C143.886 163.684 143.847 163.806 143.852 163.931C143.94 166.047 143.968 168.162 143.936 170.275C143.888 173.449 142.394 174.314 139.489 175.592C136.604 176.86 134.172 178.753 132.191 181.27C131.225 182.5 128.398 182.62 126.946 183.13C126.734 183.206 126.638 183.356 126.658 183.58C127.254 190.61 127.846 197.622 128.434 204.616C128.518 205.608 128.666 206.524 128.878 207.365C128.899 207.449 128.938 207.529 128.991 207.598C129.045 207.667 129.112 207.724 129.189 207.765C129.266 207.806 129.351 207.831 129.438 207.837C129.525 207.844 129.612 207.832 129.695 207.803L140.197 204.082ZM114.546 40.5915C115.801 40.0033 116.299 40.7775 116.539 41.9058C117.443 46.1109 119.33 49.8139 122.199 53.0148C122.769 53.651 123.597 54.7793 124.509 54.5872C130.223 53.4109 135.15 50.8482 139.291 46.8992C139.326 46.8675 139.353 46.8287 139.371 46.7855C139.389 46.7423 139.397 46.6957 139.395 46.6489C139.394 46.6022 139.382 46.5563 139.361 46.5146C139.34 46.4728 139.31 46.4361 139.273 46.407C130.707 39.5652 123.275 31.655 116.977 22.6766C116.885 22.5487 116.75 22.4582 116.597 22.4218C116.444 22.3855 116.282 22.4056 116.143 22.4785C110.831 25.2333 100.017 29.2184 95.3232 23.1807C95.2873 23.135 95.2421 23.0975 95.1906 23.0708C95.1391 23.0441 95.0826 23.0288 95.025 23.0259C94.9673 23.0231 94.91 23.0328 94.8568 23.0543C94.8037 23.0758 94.756 23.1087 94.7171 23.1507L71.2627 47.9975C71.1027 48.1695 71.1227 48.3175 71.3227 48.4416C82.9299 55.5055 98.5281 59.3165 112.176 56.5078C112.267 56.4887 112.35 56.441 112.412 56.3717C112.473 56.3025 112.511 56.2155 112.518 56.1237C112.86 50.9863 112.818 46.0589 114.174 41.0416C114.23 40.8335 114.354 40.6835 114.546 40.5915ZM125.631 82.7169C127.604 83.0169 129.51 83.7231 131.351 84.8354C132.923 85.7837 134.274 85.7057 135.864 85.1655C135.979 85.1264 136.08 85.0535 136.154 84.9563C136.228 84.859 136.271 84.7417 136.278 84.6194C136.943 73.2603 138.013 61.9392 139.489 50.6562C139.495 50.6158 139.488 50.5746 139.47 50.5382C139.451 50.5017 139.423 50.4714 139.387 50.4514C139.352 50.4314 139.311 50.4225 139.27 50.4258C139.23 50.4291 139.191 50.4446 139.159 50.4701C135.622 53.3029 131.705 55.3655 127.408 56.6578C125.511 56.9159 123.393 57.7861 121.76 56.2797C119.404 54.1071 117.459 51.4144 115.927 48.2015C115.739 47.8094 115.617 47.8274 115.561 48.2555C115.313 50.156 115.189 52.7147 115.189 55.9316C115.189 57.8941 113.586 58.9564 111.696 59.2145C96.7476 61.2631 82.8418 58.3963 69.9784 50.6142C69.9303 50.5841 69.8758 50.5657 69.8194 50.5606C69.7629 50.5556 69.706 50.5639 69.6534 50.5849C69.6007 50.606 69.5538 50.6392 69.5164 50.6818C69.479 50.7244 69.4522 50.7753 69.4382 50.8302C66.8175 60.953 65.5832 71.2518 65.7352 81.7266C65.7392 81.9146 65.8332 82.0107 66.0173 82.0147C71.6228 82.1227 77.2143 82.4348 82.7918 82.9509C85.7326 83.227 90.2939 84.0912 91.9083 86.708C92.6585 87.9263 92.3884 89.3187 92.2324 90.699C92.2124 90.9111 92.3064 91.0091 92.5145 90.9931L96.4635 90.723C96.5313 90.7185 96.5955 90.691 96.6456 90.6452C96.6958 90.5995 96.7289 90.538 96.7396 90.471C97.1917 87.8142 98.6761 86.1178 101.193 85.3816C108.671 83.189 116.817 82.3008 125.631 82.7169ZM71.1367 100.11C72.265 101.292 74.8877 101.904 76.4661 102.24C79.0228 102.792 81.0394 101.916 82.6118 100.014C84.2722 97.997 86.1127 95.4943 88.1333 92.5055C88.9255 91.3412 90.2218 89.4687 89.6937 88.1723C88.7635 85.8797 82.4437 85.6817 80.2952 85.4716C75.6739 85.0195 71.0446 84.6814 66.4074 84.4573C64.853 84.3793 63.3166 84.7574 61.8282 85.0755C61.4742 85.152 61.1569 85.3466 60.9288 85.6271C60.7007 85.9075 60.5755 86.2571 60.5738 86.6179C60.5378 91.3532 66.0473 96.6827 69.7563 98.9093C70.1124 99.1213 70.5725 99.5214 71.1367 100.11ZM111.468 101.142L119.072 86.6719L123.657 86.99L118.568 95.3923C118.558 95.4129 118.555 95.4364 118.561 95.4586C118.567 95.4808 118.58 95.5001 118.599 95.5132C118.618 95.5262 118.641 95.5321 118.664 95.5297C118.687 95.5274 118.708 95.517 118.724 95.5003L125.247 87.3861C126.168 87.4862 126.792 88.0003 127.12 88.9286C128.182 91.9054 123.993 95.3863 122.217 97.0788C121.648 97.6189 120.928 98.015 120.056 98.2671C118.844 98.6152 115.147 99.6414 114.738 100.908C114.638 101.212 114.728 101.288 115.009 101.136C116.857 100.14 118.802 99.3934 120.842 98.8973C124.653 97.967 128.104 93.4418 129.923 90.1769C134.736 81.5405 106.714 86.7079 104.176 87.2361C94.1229 89.3307 102.747 97.3488 106.528 99.8635C108.081 100.896 109.607 102.012 111.108 103.212C111.201 103.288 111.316 103.332 111.436 103.336C111.556 103.34 111.674 103.304 111.772 103.234C111.87 103.164 111.944 103.064 111.981 102.949C112.018 102.833 112.017 102.709 111.978 102.594L111.468 101.142ZM124.875 101.616C119.678 101.286 116.383 103.248 112.404 106.219C112.26 106.327 112.089 106.392 111.91 106.407C111.73 106.422 111.55 106.386 111.39 106.303C105.912 103.482 101.393 99.6074 97.8319 94.6781C96.9737 93.4898 96.0794 93.1717 94.6871 93.2737C94.379 93.2977 94.361 93.3858 94.633 93.5378L96.5536 94.6241C96.822 94.7745 97.0295 95.0139 97.1401 95.301C97.2508 95.5881 97.2577 95.9049 97.1597 96.1965C96.9077 96.9607 96.3735 97.1728 95.5573 96.8327C91.6442 95.1962 88.7294 95.8584 86.8129 98.8192C83.9862 103.182 87.5031 106.651 91.2781 108.338C91.4245 108.404 91.5529 108.503 91.6527 108.629C91.7525 108.755 91.8208 108.903 91.8519 109.061C91.8831 109.219 91.8761 109.382 91.8316 109.537C91.7871 109.692 91.7064 109.834 91.5962 109.952C91.1481 110.424 90.612 110.566 89.9878 110.378C86.7869 109.402 84.6123 107.222 83.464 103.837C83.264 103.256 82.9259 103.156 82.4497 103.537C79.815 105.637 77.8465 105.163 74.2155 104.533C71.7668 104.105 69.4702 104.535 67.3256 105.823C67.1528 105.928 67.0128 106.079 66.9215 106.259C66.8303 106.44 66.7915 106.642 66.8095 106.843C68.2699 123.596 70.5445 140.238 73.6334 156.771C73.6454 156.851 73.6934 156.895 73.7774 156.903C92.8225 158.435 111.514 157.701 129.851 154.7L141.092 152.708C141.32 152.668 141.406 152.536 141.35 152.312C136.008 131.246 135.048 109.454 136.164 87.8783C136.18 87.6302 136.064 87.5222 135.816 87.5542L133.728 87.8062C133.5 87.8343 133.356 87.9583 133.296 88.1783C132.155 92.3675 129.843 95.7524 126.358 98.3331C126.303 98.3746 126.26 98.431 126.236 98.4955C126.212 98.5601 126.206 98.63 126.22 98.6971C126.234 98.7641 126.267 98.8254 126.314 98.8737C126.362 98.922 126.423 98.9551 126.49 98.9693C127.768 99.2573 130.655 99.4794 131.231 100.938C131.295 101.1 131.316 101.276 131.291 101.449C131.266 101.622 131.197 101.785 131.089 101.923C130.982 102.06 130.841 102.168 130.679 102.234C130.518 102.3 130.342 102.323 130.169 102.3L124.875 101.616ZM66.4134 102.882C66.4246 102.965 66.456 103.043 66.5048 103.11C66.5537 103.178 66.6184 103.232 66.6933 103.268C66.7681 103.305 66.8508 103.322 66.9339 103.318C67.017 103.315 67.098 103.291 67.1696 103.248L68.706 102.336C68.7778 102.294 68.8379 102.234 68.881 102.163C68.9241 102.092 68.9488 102.011 68.953 101.927C68.9572 101.844 68.9406 101.761 68.9049 101.686C68.8691 101.611 68.8152 101.545 68.748 101.496L66.9115 100.158C66.8318 100.099 66.7365 100.065 66.6376 100.06C66.5387 100.055 66.4405 100.08 66.3554 100.13C66.2702 100.181 66.2019 100.255 66.1588 100.345C66.1158 100.434 66.1 100.534 66.1133 100.632L66.4134 102.882ZM160.117 164.705C160.361 164.911 160.543 165.18 160.643 165.483C160.744 165.786 160.759 166.111 160.687 166.422C160.099 168.966 160.127 171.537 160.771 174.134C161.653 177.663 161.809 179.889 160.579 182.962C160.517 183.118 160.49 183.284 160.498 183.451C160.506 183.618 160.549 183.782 160.625 183.93C160.702 184.079 160.809 184.209 160.939 184.312C161.07 184.415 161.221 184.489 161.383 184.528C164.86 185.385 167.155 184.192 168.267 180.951C168.317 180.809 168.309 180.652 168.243 180.513L166.491 176.792C166.396 176.591 166.368 176.366 166.409 176.148C166.45 175.931 166.558 175.732 166.719 175.58C167.487 174.854 168.435 174.956 168.891 175.946C170.792 180.103 173.378 183.786 176.651 186.995C178.056 188.369 183.739 193.075 184.441 188.249C184.469 188.057 184.425 187.879 184.309 187.715C182.357 184.995 180.452 182.238 178.596 179.445C178.008 178.557 177.774 177.819 178.806 177.164C179.041 177.014 179.326 176.96 179.6 177.015C179.875 177.07 180.117 177.229 180.276 177.459C182.317 180.395 184.349 183.338 186.374 186.287C187.688 188.207 190.323 187.367 191.067 185.447C192.135 182.692 185.276 176.084 183.385 174.35C183.162 174.144 183.028 173.86 183.012 173.557C182.996 173.254 183.1 172.957 183.301 172.729C183.985 171.955 184.687 171.979 185.426 172.705C188.086 175.33 190.425 178.031 192.442 180.807C192.577 180.992 192.765 181.132 192.981 181.207C193.197 181.283 193.431 181.291 193.651 181.23C193.872 181.17 194.069 181.043 194.217 180.868C194.364 180.693 194.454 180.477 194.476 180.249C194.782 176.75 191.349 172.333 189.063 169.734C186.606 166.946 184.225 164.095 181.921 161.182C180.72 159.664 179.568 158.595 177.888 158.061C177.758 158.019 177.62 158.009 177.485 158.032C177.35 158.055 177.222 158.11 177.113 158.193C172.832 161.486 168.149 164.069 163.064 165.941C162.741 166.06 162.384 166.045 162.07 165.902C161.757 165.758 161.512 165.496 161.389 165.173C160.999 164.165 161.881 163.499 162.788 163.175C165.392 162.244 177.371 157.071 176.369 153.764C175.817 151.934 172.936 152.132 171.784 152.912C169.545 154.418 167.697 155.685 165.026 156.819C162.775 157.773 159.589 159.034 157.854 161.02C157.785 161.099 157.739 161.196 157.723 161.299C157.707 161.402 157.721 161.507 157.764 161.602C158.312 162.811 159.097 163.845 160.117 164.705ZM143.804 160.816C144.531 160.612 145.461 160.588 145.503 159.628C145.539 158.781 145.221 154.184 143.324 154.79C142.668 154.998 142.318 155.106 142.274 155.114C119.352 159.724 96.1375 161.138 72.6311 159.358C72.4743 159.344 72.3183 159.392 72.1953 159.491C72.0724 159.591 71.992 159.734 71.9709 159.892C71.7829 161.22 71.8409 162.639 72.1449 164.147C72.333 165.083 72.9312 165.619 73.9394 165.755C97.7059 168.956 120.994 167.31 143.804 160.816ZM132.473 166.278C114.12 170.071 95.7013 170.897 77.2163 168.756C77.1654 168.75 77.1136 168.756 77.0658 168.775C77.018 168.794 76.9758 168.824 76.9429 168.864C76.91 168.903 76.8876 168.95 76.8777 169.001C76.8678 169.051 76.8707 169.103 76.8862 169.152C79.9351 179.295 87.5031 181.816 97.0457 182.488C106.676 183.168 115.633 182.694 123.915 181.066C125.779 180.873 127.574 180.447 129.298 179.787C130.007 179.519 130.689 179.019 131.345 178.287C133.494 175.894 136.084 174.126 139.117 172.981C140.437 172.483 141.434 171.835 141.452 170.425C141.48 168.44 141.474 166.494 141.434 164.585C141.434 164.528 141.42 164.473 141.395 164.422C141.37 164.371 141.334 164.326 141.289 164.291C141.244 164.256 141.192 164.231 141.136 164.219C141.08 164.206 141.022 164.206 140.966 164.219L132.473 166.278ZM83.224 235.962C83.9842 235.614 84.7884 235.47 85.6366 235.53C85.8438 235.542 86.0492 235.49 86.2248 235.38C86.973 234.908 87.3351 234.304 87.3111 233.568C87.191 230.171 84.5863 229.673 81.5555 229.139C79.1508 228.714 76.6922 228.55 74.1795 228.646C73.9074 228.654 73.8274 228.78 73.9394 229.025C75.5679 232.557 78.2046 234.904 81.8496 236.064C81.9931 236.111 82.1236 236.191 82.2304 236.297C82.3373 236.403 82.4174 236.533 82.4643 236.676C82.5112 236.819 82.5234 236.971 82.5 237.119C82.4766 237.267 82.4182 237.408 82.3297 237.529C81.6395 238.489 80.3612 238.417 79.3109 237.967C74.5636 235.944 72.6971 232.325 70.1704 227.596C67.3917 222.411 61.27 215.833 55.1183 213.138C54.3221 212.786 54.2821 212.858 54.9983 213.354C58.4552 215.747 61.226 218.938 63.3106 222.927C67.7518 231.433 74.2135 238.207 82.6958 243.248C83.0839 243.48 83.266 243.37 83.242 242.918L82.9059 236.491C82.8899 236.242 82.9959 236.066 83.224 235.962ZM48.2585 213.528C51.7874 215.097 54.9703 217.191 57.8071 219.812C57.8273 219.827 57.8521 219.835 57.8773 219.833C57.9024 219.832 57.9263 219.822 57.9449 219.805C57.9634 219.788 57.9753 219.765 57.9787 219.74C57.982 219.715 57.9765 219.689 57.9631 219.668C55.3984 216.331 52.0535 214.174 47.9284 213.198C47.9126 213.195 47.8963 213.196 47.8811 213.201C47.8659 213.207 47.8524 213.216 47.842 213.228C47.8316 213.24 47.8246 213.255 47.8219 213.271C47.8191 213.287 47.8207 213.303 47.8264 213.318C47.8584 213.394 47.9104 213.424 47.9824 213.408C47.9824 213.408 48.0744 213.448 48.2585 213.528ZM62.3623 257.16C70.4345 260.215 84.2262 261.313 84.1542 248.422C84.1462 247.634 83.9221 246.967 83.482 246.423C83.314 246.215 83.2059 246.241 83.1579 246.501L82.9599 247.642C82.7918 248.594 82.2637 248.878 81.3754 248.494C74.7777 245.665 69.2922 241.396 64.919 235.686C61.6961 231.485 59.9376 226.066 56.5527 222.357C53.94 219.488 50.7992 217.367 47.1302 215.995C42.887 214.405 39.7722 214.885 36.6153 217.994C33.3924 221.156 33.0384 223.857 34.4307 228.262C38.2538 240.374 47.9584 248.23 58.7733 255.33C59.9056 256.07 61.102 256.68 62.3623 257.16ZM81.8976 245.637C75.4238 242.024 69.9744 237.251 65.5492 231.317C65.5324 231.295 65.5098 231.278 65.4839 231.267C65.458 231.257 65.4297 231.255 65.4023 231.26C65.3749 231.265 65.3494 231.277 65.3287 231.296C65.308 231.314 65.2929 231.338 65.2851 231.365C65.2571 231.457 65.2691 231.545 65.3211 231.629C69.0621 237.703 74.1595 242.276 80.6132 245.349C81.1454 245.605 81.5955 245.711 81.9636 245.667C81.9676 245.667 81.9696 245.667 81.9696 245.667C81.9696 245.663 81.9676 245.661 81.9636 245.661C81.9396 245.657 81.9176 245.649 81.8976 245.637Z" fill="#352E3C"/>
<path d="M114.175 41.0417C112.818 46.0591 112.86 50.9864 112.518 56.1238C112.511 56.2156 112.473 56.3026 112.412 56.3719C112.35 56.4411 112.267 56.4888 112.176 56.5079C98.5283 59.3167 82.9301 55.5056 71.323 48.4417C71.1229 48.3177 71.1029 48.1696 71.2629 47.9976L94.7173 23.1509C94.7562 23.1089 94.8039 23.076 94.8571 23.0544C94.9102 23.0329 94.9676 23.0232 95.0252 23.0261C95.0828 23.0289 95.1393 23.0442 95.1908 23.071C95.2423 23.0977 95.2876 23.1352 95.3235 23.1809C100.017 29.2185 110.832 25.2334 116.143 22.4787C116.283 22.4057 116.444 22.3856 116.597 22.422C116.75 22.4584 116.885 22.5488 116.977 22.6767C123.275 31.6552 130.707 39.5653 139.273 46.4072C139.31 46.4363 139.34 46.473 139.361 46.5147C139.382 46.5565 139.394 46.6023 139.396 46.6491C139.397 46.6959 139.389 46.7424 139.371 46.7856C139.353 46.8288 139.326 46.8676 139.291 46.8993C135.15 50.8484 130.223 53.4111 124.509 54.5874C123.597 54.7794 122.769 53.6511 122.199 53.015C119.33 49.8141 117.443 46.1111 116.539 41.906C116.299 40.7776 115.801 40.0034 114.547 40.5916C114.355 40.6836 114.231 40.8337 114.175 41.0417Z" fill="#FFD75F"/>
<path d="M127.408 56.658C126.728 63.7239 126.108 70.7358 125.547 77.6937C125.395 79.5542 125.423 81.2286 125.631 82.7171C116.817 82.3009 108.671 83.1892 101.193 85.3818C98.6761 86.118 97.1917 87.8144 96.7396 90.4712C96.7289 90.5382 96.6957 90.5996 96.6456 90.6454C96.5954 90.6912 96.5312 90.7186 96.4635 90.7232L92.5144 90.9933C92.3064 91.0093 92.2123 90.9113 92.2323 90.6992C92.3884 89.3188 92.6585 87.9265 91.9083 86.7081C90.2938 84.0914 85.7326 83.2272 82.7918 82.9511C77.2143 82.435 71.6228 82.1229 66.0172 82.0149C65.8332 82.0109 65.7392 81.9148 65.7352 81.7268C65.5831 71.2519 66.8175 60.9532 69.4382 50.8304C69.4522 50.7755 69.479 50.7246 69.5164 50.682C69.5538 50.6394 69.6007 50.6062 69.6533 50.5851C69.706 50.5641 69.7628 50.5557 69.8193 50.5608C69.8758 50.5659 69.9303 50.5842 69.9783 50.6144C82.8418 58.3965 96.7476 61.2632 111.696 59.2147C113.586 58.9566 115.189 57.8943 115.189 55.9318C115.189 52.7149 115.313 50.1562 115.561 48.2557C115.617 47.8276 115.739 47.8096 115.927 48.2017C117.459 51.4146 119.404 54.1073 121.76 56.2799C123.393 57.7863 125.511 56.9161 127.408 56.658Z" fill="#FF4359"/>
<path d="M125.631 82.7167C125.423 81.2283 125.395 79.5538 125.547 77.6933C126.108 70.7354 126.728 63.7235 127.408 56.6576C131.705 55.3652 135.622 53.3027 139.159 50.4699C139.191 50.4444 139.23 50.4289 139.27 50.4256C139.311 50.4223 139.352 50.4312 139.387 50.4512C139.423 50.4712 139.451 50.5015 139.47 50.5379C139.488 50.5744 139.495 50.6156 139.489 50.656C138.013 61.939 136.943 73.2601 136.278 84.6192C136.271 84.7415 136.228 84.8588 136.154 84.9561C136.08 85.0533 135.979 85.1262 135.864 85.1653C134.274 85.7055 132.923 85.7835 131.351 84.8352C129.511 83.7229 127.604 83.0167 125.631 82.7167Z" fill="#DB3347"/>
<path d="M41.1945 115.912C41.1224 116.104 41.0344 116.248 40.9304 116.344C40.8999 116.375 40.8621 116.396 40.8205 116.407C40.779 116.419 40.7351 116.419 40.693 116.408C40.6509 116.397 40.612 116.376 40.5801 116.346C40.5481 116.316 40.5241 116.278 40.5103 116.236C40.3742 115.836 40.1442 115.632 39.8201 115.624C39.632 115.62 39.356 115.746 38.9919 116.002C38.7078 116.202 38.3777 116.39 38.0016 116.566C39.2259 114.256 42.0407 110.103 40.8284 107.582C40.7908 107.503 40.7369 107.434 40.6705 107.379C40.6041 107.324 40.5269 107.284 40.4443 107.264L37.2934 106.484C37.1114 106.439 36.943 106.35 36.803 106.225C36.663 106.101 36.5555 105.944 36.4898 105.768C36.4242 105.593 36.4024 105.404 36.4263 105.218C36.4503 105.032 36.5192 104.854 36.6272 104.701C39.0099 101.286 36.8013 96.3948 33.0382 94.9904C32.8916 94.9371 32.7665 94.8373 32.6819 94.7061C32.5974 94.575 32.5581 94.4198 32.5701 94.2642C32.9462 89.1828 32.5501 84.1835 31.3818 79.2662C30.3315 74.843 25.5002 77.9158 24.3179 80.4365C23.5677 82.0269 23.5737 83.9834 23.4957 85.8199C23.4116 87.7104 25.8423 88.8207 27.1026 89.817C27.2346 89.9225 27.3418 90.0557 27.4166 90.2072C27.4914 90.3588 27.532 90.5249 27.5354 90.6938C27.5388 90.8628 27.5051 91.0304 27.4365 91.1848C27.368 91.3393 27.2663 91.4767 27.1386 91.5875C26.7465 91.9196 26.2964 92.0876 25.7883 92.0916C25.7009 92.0915 25.6148 92.0739 25.5354 92.0399C25.4559 92.0058 25.3847 91.956 25.3262 91.8936C22.5134 88.9168 19.1145 87.2943 15.1294 87.0263C11.0483 86.7502 5.27472 89.0188 5.9169 94.1022C6.06894 95.3305 6.74912 96.4508 7.95745 97.4631C10.4961 99.5997 18.2862 103.525 19.9127 98.3993C21.095 94.6963 17.9622 93.0099 15.1114 91.8816C14.9835 91.8302 14.8682 91.7516 14.7738 91.6512C14.6793 91.5508 14.6079 91.431 14.5645 91.3002C14.5211 91.1694 14.5067 91.0306 14.5224 90.8937C14.5381 90.7567 14.5834 90.6248 14.6553 90.5072C15.0994 89.779 15.6255 89.5089 16.2337 89.697C20.6869 91.0774 24.1979 95.0984 21.9232 99.9058C21.4971 100.8 20.5789 101.586 19.9247 102.426C19.7967 102.59 19.7466 102.775 19.7747 102.979C20.2248 106.189 18.9944 107.864 18.7244 110.625C18.5683 112.233 18.4443 113.167 18.3523 113.427C17.386 116.104 15.4175 117.064 12.7407 118.331C12.5287 118.431 12.5187 118.549 12.7107 118.685C14.3192 119.797 16.0817 120.409 17.9982 120.521C19.7206 120.623 21.4431 119.675 23.6577 120.623C23.9809 120.762 24.3457 120.766 24.672 120.635C24.9983 120.505 25.2595 120.25 25.3982 119.927C26.9706 116.266 29.0832 112.955 31.7359 109.994C31.9162 109.793 32.1664 109.667 32.4361 109.642C32.7057 109.618 32.9745 109.696 33.1883 109.862C34.1365 110.595 33.8065 111.603 33.0863 112.431C30.8617 115 29.0992 117.865 27.7988 121.025C27.7188 121.226 27.7148 121.426 27.7868 121.626C28.311 123.126 29.3232 124.116 30.8236 124.596C30.9245 124.627 31.0295 124.637 31.1326 124.627C31.2357 124.617 31.3347 124.586 31.4238 124.536C32.9922 123.672 34.3446 122.378 35.4809 120.653C34.9128 122.79 35.0368 124.024 35.853 124.356C32.9522 127.505 30.1815 127.999 27.5408 125.839C26.8386 125.269 26.2564 124.146 25.6983 123.342C25.5822 123.174 25.4222 123.082 25.2181 123.066C23.4096 122.91 21.6071 122.86 19.8107 122.916C15.7356 123.036 13.2809 122.478 10.4661 119.921C8.8697 118.469 7.48932 118.763 5.78486 117.839C2.41195 116.01 0.985561 113.185 1.5057 109.364C1.63774 108.384 1.64974 107.582 1.54171 106.958C0.83352 102.907 0.239359 99.8817 3.7203 96.8989C3.79542 96.8368 3.85354 96.7568 3.88924 96.6665C3.92493 96.5762 3.93701 96.4786 3.92436 96.3828C3.86034 95.9067 3.77232 95.4405 3.66029 94.9844C2.87407 91.6835 4.30846 88.2746 7.07521 86.5881C11.3284 83.9914 15.8936 83.7794 20.7709 85.952C20.8115 85.9703 20.8562 85.9775 20.9005 85.9729C20.9448 85.9683 20.987 85.9521 21.023 85.9259C21.059 85.8997 21.0874 85.8644 21.1053 85.8236C21.1232 85.7829 21.13 85.7381 21.125 85.6939C20.5789 79.9563 23.6877 74.1528 29.9474 74.7229C32.9362 74.993 34.1606 78.588 34.5086 81.4388C34.9808 85.2558 35.2208 89.0888 35.2288 92.9379C35.2288 93.1299 35.3089 93.278 35.4689 93.382C39.39 95.9507 40.7783 99.5637 39.634 104.221C39.59 104.405 39.66 104.517 39.8441 104.557C46.0978 105.901 43.6731 111.987 41.1945 115.912ZM17.0499 103.417C12.5127 103.441 9.04374 101.604 5.74285 98.9635C5.67839 98.9115 5.60394 98.8732 5.52402 98.851C5.4441 98.8288 5.36036 98.8232 5.27788 98.8344C5.1954 98.8456 5.11589 98.8735 5.04417 98.9163C4.97244 98.9591 4.91 99.016 4.86061 99.0835C3.16815 101.364 2.95009 103.829 4.20643 106.478C4.29446 106.67 4.43049 106.818 4.61454 106.922C7.08121 108.29 15.4595 111.321 16.9119 107.276C17.272 106.279 17.432 105.103 17.392 103.747C17.384 103.527 17.27 103.417 17.0499 103.417ZM6.16296 110.331C5.51879 110.059 4.95264 109.844 4.4645 109.688C4.38136 109.662 4.29294 109.656 4.20699 109.671C4.12103 109.687 4.04015 109.723 3.97145 109.777C3.90274 109.831 3.8483 109.901 3.81288 109.98C3.77747 110.06 3.76217 110.147 3.76831 110.235C4.05639 114.13 6.6611 116.698 10.5742 116.212C12.9088 115.924 15.9096 114.118 16.2997 111.501C16.3357 111.261 16.2437 111.193 16.0236 111.297C13.4669 112.569 8.68365 111.405 6.16296 110.331Z" fill="#1D1724"/>
<path d="M38.0017 116.566L35.481 120.653C34.3447 122.378 32.9923 123.672 31.4239 124.536C31.3348 124.586 31.2358 124.617 31.1327 124.627C31.0296 124.637 30.9245 124.627 30.8237 124.596C29.3233 124.116 28.311 123.126 27.7869 121.626C27.7149 121.426 27.7189 121.225 27.7989 121.025C29.0992 117.865 30.8617 115 33.0863 112.431C33.8065 111.603 34.1366 110.595 33.1883 109.862C32.9746 109.696 32.7057 109.618 32.4361 109.642C32.1665 109.667 31.9163 109.792 31.736 109.994C29.0832 112.955 26.9707 116.266 25.3982 119.927C25.2596 120.25 24.9984 120.505 24.6721 120.635C24.3457 120.766 23.9809 120.762 23.6578 120.623C21.4432 119.675 19.7207 120.623 17.9982 120.521C16.0817 120.409 14.3192 119.797 12.7108 118.685C12.5187 118.549 12.5287 118.431 12.7408 118.331C15.4175 117.064 17.3861 116.104 18.3523 113.427C18.4443 113.167 18.5684 112.233 18.7244 110.625C18.9945 107.864 20.2248 106.189 19.7747 102.979C19.7467 102.774 19.7967 102.59 19.9247 102.426C20.5789 101.586 21.4972 100.8 21.9233 99.9057C24.1979 95.0984 20.687 91.0773 16.2337 89.6969C15.6256 89.5089 15.0994 89.7789 14.6553 90.5071C14.5835 90.6248 14.5381 90.7567 14.5224 90.8936C14.5068 91.0306 14.5211 91.1693 14.5646 91.3001C14.608 91.431 14.6794 91.5508 14.7739 91.6512C14.8683 91.7516 14.9835 91.8302 15.1114 91.8815C17.9622 93.0098 21.0951 94.6963 19.9127 98.3993C18.2863 103.525 10.4962 99.5996 7.9575 97.463C6.74918 96.4508 6.06899 95.3304 5.91695 94.1021C5.27478 89.0187 11.0483 86.7501 15.1294 87.0262C19.1145 87.2943 22.5135 88.9167 25.3262 91.8935C25.3847 91.9559 25.4559 92.0057 25.5354 92.0398C25.6149 92.0739 25.701 92.0915 25.7883 92.0916C26.2965 92.0876 26.7466 91.9195 27.1387 91.5874C27.2663 91.4767 27.368 91.3392 27.4366 91.1848C27.5051 91.0303 27.5389 90.8627 27.5355 90.6938C27.532 90.5248 27.4915 90.3587 27.4167 90.2072C27.3419 90.0557 27.2347 89.9224 27.1027 89.817C25.8424 88.8207 23.4117 87.7104 23.4957 85.8199C23.5737 83.9834 23.5677 82.0269 24.3179 80.4364C25.5003 77.9157 30.3316 74.8429 31.3819 79.2661C32.5502 84.1834 32.9463 89.1828 32.5702 94.2642C32.5582 94.4197 32.5974 94.5749 32.682 94.7061C32.7665 94.8372 32.8917 94.9371 33.0383 94.9904C36.8013 96.3947 39.0099 101.286 36.6273 104.701C36.5193 104.854 36.4503 105.032 36.4264 105.218C36.4025 105.403 36.4243 105.592 36.4899 105.768C36.5555 105.944 36.663 106.101 36.8031 106.225C36.9431 106.35 37.1114 106.439 37.2935 106.483L40.4443 107.264C40.5269 107.284 40.6042 107.324 40.6706 107.379C40.737 107.434 40.7909 107.503 40.8284 107.582C42.0407 110.102 39.226 114.256 38.0017 116.566Z" fill="white"/>
<path d="M69.7564 98.9092C66.0474 96.6826 60.5379 91.3531 60.5739 86.6178C60.5756 86.257 60.7008 85.9075 60.9289 85.627C61.157 85.3465 61.4742 85.1519 61.8282 85.0754C63.3166 84.7573 64.8531 84.3792 66.4075 84.4573C71.0447 84.6813 75.674 85.0194 80.2952 85.4715C82.4438 85.6816 88.7635 85.8796 89.6938 88.1723C90.2219 89.4686 88.9256 91.3411 88.1334 92.5054C86.1128 95.4942 84.2723 97.9969 82.6119 100.013C81.0394 101.916 79.0229 102.792 76.4662 102.24C74.8878 101.904 72.2651 101.292 71.1368 100.11C70.5726 99.5213 70.1125 99.1212 69.7564 98.9092ZM67.5298 95.2602C67.4418 95.6043 67.4878 95.8944 67.6678 96.1304C68.9042 97.7509 70.2785 98.7491 71.7909 99.1252C72.3071 100.23 73.2793 100.666 74.7077 100.434C75.2319 101.47 76.1161 101.63 77.3605 100.914C78.4928 101.358 79.6031 100.966 80.6914 99.7374C82.4978 97.6908 86.3149 93.0996 86.807 90.3088C87.1031 88.6244 86.4049 87.8942 84.7124 88.1182C84.7365 87.6381 84.4464 87.288 83.8422 87.068C83.5421 86.9599 83.3241 87.0039 83.188 87.2C82.1438 86.5158 80.9234 86.4718 79.527 87.068C79.1749 86.6038 78.3627 86.3058 77.0904 86.1737C75.686 86.0297 74.4417 85.9917 73.3574 86.0597C70.2925 86.0037 67.8359 86.0557 65.9874 86.2157C65.1391 86.2918 64.3769 86.6518 63.7008 87.296C63.5527 87.4401 63.4727 87.6121 63.4607 87.8122C63.3166 90.5609 65.0811 92.6675 66.4375 94.8701C66.5455 95.0461 66.7016 95.1482 66.9056 95.1762L67.5298 95.2602Z" fill="#DC7671"/>
<path d="M125.247 87.3862L124.767 86.912C124.631 86.772 124.465 86.712 124.269 86.732C124.021 86.76 123.817 86.846 123.657 86.9901L119.072 86.672C117.123 86.2359 115.471 86.4019 114.114 87.1701L113.946 87.0441C113.81 86.9401 113.656 86.906 113.484 86.9421C111.055 87.4142 108.627 87.8923 106.198 88.3764C104.404 88.7305 101.685 90.273 102.603 92.6976C103.595 95.3023 105.346 97.3389 107.854 98.8073C109.275 100.604 110.479 101.382 111.467 101.142L111.978 102.594C112.017 102.709 112.018 102.833 111.981 102.949C111.944 103.064 111.87 103.164 111.772 103.234C111.674 103.304 111.556 103.34 111.436 103.336C111.316 103.332 111.201 103.289 111.107 103.212C109.607 102.012 108.081 100.896 106.528 99.8636C102.747 97.3489 94.1228 89.3307 104.175 87.2361C106.714 86.708 134.736 81.5406 129.922 90.1769C128.104 93.4418 124.653 97.967 120.842 98.8973C118.801 99.3934 116.857 100.14 115.008 101.136C114.728 101.288 114.638 101.212 114.738 100.908C115.146 99.6415 118.843 98.6152 120.056 98.2671C120.928 98.0151 121.648 97.619 122.216 97.0788C123.993 95.3863 128.182 91.9054 127.12 88.9286C126.792 88.0003 126.167 87.4862 125.247 87.3862Z" fill="#DC7671"/>
<path d="M73.3571 86.0596L67.5295 95.2601L66.9054 95.1761C66.7013 95.1481 66.5453 95.0461 66.4372 94.87C65.0809 92.6674 63.3164 90.5608 63.4604 87.8121C63.4724 87.612 63.5525 87.44 63.7005 87.296C64.3767 86.6518 65.1389 86.2917 65.9871 86.2157C67.8356 86.0556 70.2923 86.0036 73.3571 86.0596Z" fill="#352E3C"/>
<path d="M79.5269 87.0681L71.7908 99.1254C70.2784 98.7493 68.9041 97.751 67.6677 96.1306C67.4877 95.8945 67.4417 95.6044 67.5297 95.2603L73.3573 86.0598C74.4416 85.9918 75.6859 86.0298 77.0903 86.1739C78.3626 86.3059 79.1748 86.604 79.5269 87.0681Z" fill="white"/>
<path d="M119.072 86.6718L111.467 101.142C110.479 101.382 109.275 100.604 107.854 98.8071L114.114 87.17C115.471 86.4018 117.123 86.2357 119.072 86.6718Z" fill="white"/>
<path d="M83.1876 87.1999L74.7073 100.433C73.2789 100.666 72.3067 100.229 71.7905 99.1251L79.5266 87.0679C80.923 86.4717 82.1433 86.5157 83.1876 87.1999Z" fill="#352E3C"/>
<path d="M125.248 87.3862L118.724 95.5004C118.708 95.517 118.687 95.5275 118.664 95.5298C118.641 95.5322 118.618 95.5263 118.599 95.5132C118.581 95.5002 118.567 95.4808 118.561 95.4587C118.555 95.4365 118.558 95.413 118.568 95.3924L123.657 86.9901C123.817 86.8461 124.021 86.76 124.269 86.732C124.465 86.712 124.631 86.772 124.767 86.9121L125.248 87.3862Z" fill="#E3F1F1"/>
<path d="M84.7122 88.1184L77.3602 100.914C76.1159 101.63 75.2317 101.47 74.7075 100.434L83.1878 87.2001C83.3239 87.004 83.5419 86.96 83.842 87.0681C84.4462 87.2881 84.7362 87.6382 84.7122 88.1184Z" fill="white"/>
<path d="M114.114 87.1702L107.854 98.8073C105.346 97.3389 103.595 95.3024 102.603 92.6977C101.685 90.273 104.403 88.7306 106.198 88.3765C108.626 87.8924 111.055 87.4142 113.484 86.9421C113.656 86.9061 113.81 86.9401 113.946 87.0441L114.114 87.1702Z" fill="#352E3C"/>
<path d="M129.85 154.701C126.406 139.472 124.745 124.904 124.869 110.997C124.885 109.08 124.813 107.682 124.653 106.802C124.621 106.621 124.611 106.441 124.623 106.261L124.875 101.616L130.169 102.3C130.342 102.323 130.518 102.3 130.679 102.234C130.841 102.168 130.982 102.06 131.089 101.923C131.197 101.785 131.266 101.622 131.291 101.449C131.316 101.276 131.295 101.1 131.231 100.938C130.655 99.4795 127.768 99.2575 126.49 98.9694C126.423 98.9553 126.362 98.9221 126.314 98.8738C126.267 98.8256 126.234 98.7643 126.22 98.6972C126.206 98.6302 126.211 98.5602 126.236 98.4957C126.26 98.4311 126.303 98.3748 126.358 98.3332C129.842 95.7525 132.155 92.3676 133.295 88.1785C133.355 87.9584 133.499 87.8344 133.728 87.8064L135.816 87.5543C136.064 87.5223 136.18 87.6303 136.164 87.8784C135.048 109.454 136.008 131.246 141.35 152.312C141.406 152.536 141.32 152.668 141.092 152.708L129.85 154.701Z" fill="#DB3347"/>
<path d="M77.3604 100.914L84.7123 88.1181C86.4048 87.894 87.103 88.6242 86.8069 90.3087C86.3148 93.0994 82.4977 97.6907 80.6913 99.7372C79.603 100.966 78.4927 101.358 77.3604 100.914Z" fill="#352E3C"/>
<path d="M124.875 101.616L124.623 106.261C124.611 106.441 124.621 106.621 124.653 106.801C124.813 107.681 124.885 109.08 124.869 110.996C124.745 124.904 126.406 139.472 129.851 154.7C111.514 157.701 92.8225 158.435 73.7774 156.903C73.6933 156.895 73.6453 156.851 73.6333 156.771C70.5445 140.238 68.2699 123.596 66.8095 106.843C66.7915 106.642 66.8303 106.439 66.9215 106.259C67.0127 106.079 67.1528 105.928 67.3256 105.823C69.4702 104.535 71.7668 104.104 74.2155 104.533C77.8465 105.163 79.815 105.637 82.4497 103.536C82.9258 103.156 83.2639 103.256 83.464 103.836C84.6123 107.221 86.7869 109.402 89.9878 110.378C90.6119 110.566 91.1481 110.424 91.5962 109.952C91.7064 109.834 91.7871 109.692 91.8316 109.537C91.8761 109.382 91.883 109.218 91.8519 109.06C91.8208 108.903 91.7525 108.755 91.6527 108.629C91.5529 108.503 91.4245 108.403 91.2781 108.338C87.5031 106.651 83.9861 103.182 86.8129 98.819C88.7294 95.8582 91.6442 95.196 95.5573 96.8324C96.3735 97.1725 96.9076 96.9605 97.1597 96.1963C97.2577 95.9046 97.2508 95.5879 97.1401 95.3008C97.0294 95.0137 96.822 94.7742 96.5535 94.6238L94.633 93.5375C94.3609 93.3855 94.379 93.2975 94.687 93.2735C96.0794 93.1714 96.9737 93.4895 97.8319 94.6778C101.393 99.6072 105.912 103.482 111.39 106.303C111.55 106.386 111.73 106.422 111.91 106.407C112.089 106.392 112.26 106.327 112.404 106.219C116.383 103.248 119.678 101.286 124.875 101.616ZM124.197 107.311C124.197 106.944 124.051 106.591 123.791 106.331C123.531 106.071 123.178 105.925 122.811 105.925C122.443 105.925 122.09 106.071 121.83 106.331C121.57 106.591 121.424 106.944 121.424 107.311C121.424 107.679 121.57 108.032 121.83 108.292C122.09 108.552 122.443 108.698 122.811 108.698C123.178 108.698 123.531 108.552 123.791 108.292C124.051 108.032 124.197 107.679 124.197 107.311ZM104.134 115.497C98.7981 116.944 92.1904 117.802 87.065 115.425C86.0987 114.975 85.4685 115.179 85.2345 116.236C85.0704 116.972 85.3325 117.494 86.0207 117.802C91.5902 120.269 98.5881 119.747 104.344 118.03C104.52 117.976 104.709 117.982 104.882 118.047C105.056 118.112 105.204 118.233 105.304 118.39C106.174 119.753 108.563 122.915 110.549 121.817C110.701 121.732 110.828 121.609 110.919 121.461C111.01 121.313 111.062 121.144 111.069 120.97C111.076 120.796 111.039 120.624 110.96 120.468C110.882 120.313 110.765 120.18 110.621 120.083C109.457 119.297 108.089 118.252 107.555 116.962C106.348 114.075 108.569 111.254 111.174 110.18C111.336 110.114 111.478 110.007 111.587 109.871C111.697 109.734 111.769 109.572 111.798 109.399C111.827 109.227 111.811 109.049 111.752 108.885C111.693 108.72 111.593 108.573 111.462 108.458C109.535 106.765 106.492 110.294 105.676 111.668C105.082 112.677 104.866 113.877 104.542 115.083C104.482 115.299 104.346 115.437 104.134 115.497ZM117.853 109.94C117.853 109.577 117.709 109.229 117.453 108.972C117.196 108.716 116.848 108.572 116.485 108.572C116.122 108.572 115.774 108.716 115.517 108.972C115.261 109.229 115.117 109.577 115.117 109.94C115.117 110.303 115.261 110.651 115.517 110.908C115.774 111.164 116.122 111.308 116.485 111.308C116.848 111.308 117.196 111.164 117.453 110.908C117.709 110.651 117.853 110.303 117.853 109.94ZM121.988 113.007C121.988 112.649 121.846 112.305 121.593 112.052C121.34 111.799 120.996 111.656 120.638 111.656C120.28 111.656 119.936 111.799 119.683 112.052C119.43 112.305 119.288 112.649 119.288 113.007C119.288 113.365 119.43 113.708 119.683 113.962C119.936 114.215 120.28 114.357 120.638 114.357C120.996 114.357 121.34 114.215 121.593 113.962C121.846 113.708 121.988 113.365 121.988 113.007Z" fill="#FF4359"/>
<path d="M5.74312 98.9633C9.04402 101.604 12.513 103.441 17.0502 103.417C17.2702 103.417 17.3843 103.527 17.3923 103.747C17.4323 105.103 17.2722 106.279 16.9121 107.276C15.4598 111.321 7.08149 108.29 4.61482 106.921C4.43077 106.817 4.29473 106.669 4.20671 106.477C2.95037 103.829 3.16843 101.364 4.86088 99.0834C4.91027 99.0158 4.97272 98.959 5.04444 98.9161C5.11616 98.8733 5.19567 98.8454 5.27815 98.8342C5.36063 98.823 5.44437 98.8287 5.52429 98.8508C5.60421 98.873 5.67866 98.9113 5.74312 98.9633Z" fill="white"/>
<path d="M66.4136 102.882L66.1135 100.632C66.1001 100.534 66.116 100.434 66.159 100.345C66.2021 100.255 66.2704 100.181 66.3556 100.13C66.4407 100.08 66.5388 100.055 66.6378 100.06C66.7367 100.065 66.8319 100.099 66.9117 100.158L68.7482 101.496C68.8154 101.545 68.8693 101.611 68.905 101.686C68.9408 101.761 68.9573 101.844 68.9532 101.927C68.949 102.011 68.9243 102.092 68.8812 102.163C68.8381 102.234 68.778 102.294 68.7062 102.336L67.1698 103.249C67.0982 103.291 67.0172 103.315 66.9341 103.318C66.851 103.322 66.7683 103.305 66.6935 103.268C66.6186 103.232 66.5538 103.178 66.505 103.111C66.4562 103.043 66.4248 102.965 66.4136 102.882Z" fill="#DC7671"/>
<path d="M122.811 108.698C123.576 108.698 124.197 108.077 124.197 107.312C124.197 106.546 123.576 105.925 122.811 105.925C122.045 105.925 121.424 106.546 121.424 107.312C121.424 108.077 122.045 108.698 122.811 108.698Z" fill="#352E3C"/>
<path d="M104.542 115.084C104.866 113.877 105.082 112.677 105.676 111.669C106.492 110.294 109.535 106.765 111.461 108.458C111.593 108.573 111.693 108.72 111.752 108.885C111.811 109.05 111.827 109.227 111.798 109.399C111.769 109.572 111.696 109.734 111.587 109.871C111.478 110.008 111.335 110.114 111.173 110.18C108.569 111.255 106.348 114.075 107.554 116.962C108.089 118.252 109.457 119.297 110.621 120.083C110.765 120.18 110.882 120.313 110.96 120.468C111.039 120.624 111.076 120.796 111.069 120.97C111.062 121.144 111.01 121.313 110.919 121.461C110.828 121.61 110.701 121.732 110.549 121.817C108.563 122.916 106.174 119.753 105.304 118.39C105.204 118.233 105.056 118.113 104.882 118.048C104.709 117.982 104.519 117.976 104.344 118.03C98.588 119.747 91.5901 120.269 86.0206 117.802C85.3324 117.494 85.0703 116.972 85.2344 116.236C85.4684 115.18 86.0986 114.976 87.0649 115.426C92.1903 117.802 98.798 116.944 104.133 115.498C104.346 115.438 104.482 115.3 104.542 115.084Z" fill="#352E3C"/>
<path d="M116.485 111.309C117.241 111.309 117.853 110.696 117.853 109.94C117.853 109.184 117.241 108.572 116.485 108.572C115.729 108.572 115.117 109.184 115.117 109.94C115.117 110.696 115.729 111.309 116.485 111.309Z" fill="#352E3C"/>
<path d="M6.16306 110.33C8.68375 111.405 13.467 112.569 16.0237 111.297C16.2438 111.193 16.3358 111.261 16.2998 111.501C15.9097 114.117 12.9089 115.924 10.5743 116.212C6.6612 116.698 4.05649 114.129 3.76841 110.234C3.76227 110.147 3.77757 110.06 3.81298 109.98C3.8484 109.9 3.90284 109.83 3.97155 109.776C4.04026 109.723 4.12113 109.686 4.20709 109.671C4.29304 109.656 4.38146 109.661 4.4646 109.688C4.95274 109.844 5.51889 110.058 6.16306 110.33Z" fill="white"/>
<path d="M120.638 114.357C121.384 114.357 121.988 113.753 121.988 113.007C121.988 112.261 121.384 111.657 120.638 111.657C119.892 111.657 119.288 112.261 119.288 113.007C119.288 113.753 119.892 114.357 120.638 114.357Z" fill="#352E3C"/>
<path d="M160.117 164.705C159.096 163.845 158.312 162.811 157.764 161.602C157.721 161.507 157.707 161.402 157.723 161.299C157.739 161.196 157.785 161.099 157.854 161.02C159.589 159.034 162.775 157.773 165.026 156.819C167.697 155.685 169.545 154.418 171.784 152.912C172.936 152.132 175.817 151.934 176.369 153.764C177.371 157.071 165.392 162.244 162.787 163.175C161.881 163.499 160.999 164.165 161.389 165.173C161.512 165.496 161.757 165.758 162.07 165.902C162.384 166.045 162.74 166.06 163.064 165.941C168.149 164.069 172.832 161.486 177.113 158.193C177.222 158.11 177.35 158.055 177.485 158.032C177.62 158.009 177.758 158.019 177.888 158.061C179.568 158.595 180.72 159.664 181.921 161.182C184.225 164.095 186.606 166.946 189.063 169.734C191.349 172.333 194.782 176.75 194.476 180.249C194.454 180.477 194.364 180.693 194.216 180.868C194.069 181.044 193.872 181.17 193.651 181.23C193.431 181.291 193.197 181.283 192.981 181.207C192.764 181.132 192.576 180.992 192.441 180.807C190.425 178.031 188.086 175.33 185.426 172.705C184.687 171.979 183.985 171.955 183.301 172.729C183.1 172.957 182.996 173.254 183.012 173.557C183.028 173.86 183.162 174.144 183.385 174.35C185.276 176.084 192.135 182.692 191.067 185.447C190.323 187.367 187.688 188.207 186.374 186.287C184.349 183.338 182.317 180.395 180.276 177.459C180.117 177.229 179.875 177.07 179.6 177.015C179.326 176.96 179.041 177.014 178.806 177.164C177.774 177.819 178.008 178.557 178.596 179.445C180.452 182.238 182.357 184.995 184.309 187.715C184.425 187.879 184.469 188.057 184.441 188.249C183.739 193.075 178.056 188.37 176.651 186.995C173.378 183.786 170.792 180.103 168.891 175.946C168.435 174.956 167.487 174.854 166.718 175.58C166.558 175.732 166.45 175.931 166.409 176.148C166.368 176.366 166.396 176.591 166.49 176.792L168.243 180.513C168.308 180.652 168.317 180.809 168.267 180.951C167.155 184.192 164.86 185.385 161.383 184.528C161.221 184.489 161.07 184.415 160.939 184.312C160.809 184.209 160.702 184.079 160.625 183.93C160.549 183.782 160.506 183.618 160.498 183.451C160.489 183.284 160.517 183.118 160.579 182.962C161.809 179.889 161.653 177.663 160.771 174.134C160.127 171.537 160.099 168.966 160.687 166.422C160.759 166.111 160.744 165.786 160.643 165.483C160.543 165.18 160.36 164.911 160.117 164.705Z" fill="white"/>
<path d="M143.805 160.816C120.994 167.31 97.706 168.956 73.9396 165.755C72.9313 165.619 72.3332 165.083 72.1451 164.147C71.841 162.638 71.783 161.22 71.9711 159.892C71.9922 159.734 72.0726 159.591 72.1955 159.491C72.3184 159.392 72.4745 159.344 72.6313 159.357C96.1376 161.138 119.352 159.724 142.274 155.114C142.318 155.106 142.668 154.998 143.324 154.79C145.221 154.184 145.539 158.781 145.503 159.628C145.461 160.588 144.531 160.612 143.805 160.816Z" fill="#FFD75F"/>
<path d="M123.915 181.066C123.419 179.477 123.669 178.395 124.665 177.819C125.693 177.223 127.198 176.513 129.178 175.688C132.617 174.26 131.159 170.959 132.035 168.204C132.239 167.548 132.385 166.906 132.473 166.278L140.965 164.219C141.022 164.207 141.08 164.207 141.136 164.219C141.192 164.232 141.244 164.256 141.289 164.291C141.334 164.327 141.37 164.371 141.395 164.422C141.42 164.473 141.433 164.529 141.434 164.585C141.474 166.494 141.48 168.44 141.452 170.425C141.434 171.835 140.437 172.483 139.117 172.982C136.084 174.126 133.493 175.894 131.345 178.287C130.689 179.019 130.007 179.519 129.298 179.787C127.574 180.448 125.779 180.874 123.915 181.066Z" fill="#B8E1DB"/>
<path d="M132.473 166.277C132.385 166.906 132.239 167.548 132.035 168.204C131.159 170.959 132.617 174.26 129.179 175.688C127.198 176.512 125.694 177.222 124.665 177.818C123.669 178.395 123.419 179.477 123.915 181.065C115.633 182.694 106.676 183.168 97.0458 182.488C87.5032 181.816 79.9352 179.295 76.8864 169.152C76.8709 169.103 76.8679 169.051 76.8778 169.001C76.8877 168.95 76.9101 168.903 76.943 168.864C76.9759 168.824 77.0182 168.794 77.066 168.775C77.1137 168.756 77.1655 168.75 77.2165 168.756C95.7015 170.897 114.12 170.07 132.473 166.277Z" fill="#E3F1F1"/>
<path d="M146.709 212.136L149.434 210.077C149.022 212.018 148.732 213.85 148.564 215.575C148.396 217.243 149.842 218.408 151.169 217.027C155.682 212.31 156.552 205.966 155.958 199.827C155.948 199.731 155.975 199.635 156.034 199.558C156.093 199.481 156.18 199.429 156.276 199.412L157.602 199.202C157.702 199.185 157.805 199.204 157.892 199.256C157.98 199.307 158.047 199.388 158.082 199.484C158.731 201.267 158.491 202.911 158.503 204.538C158.535 210.716 156.306 215.831 151.817 219.884C151.709 219.982 151.632 220.11 151.597 220.252C151.561 220.394 151.569 220.543 151.619 220.68C151.668 220.817 151.758 220.935 151.876 221.02C151.993 221.105 152.134 221.153 152.279 221.156C153.395 221.192 160.699 221.883 159.589 224.301C159.458 224.584 159.225 224.806 158.937 224.922C158.649 225.038 158.328 225.039 158.04 224.925C153.563 223.157 149.248 223.169 145.095 224.961C136.369 228.73 135.63 239.347 141.986 245.619C143.264 246.879 144.873 248.368 146.409 248.464C151.949 248.8 161.035 247.023 165.32 243.038C168.801 239.803 170.038 234.306 170.284 229.685C170.868 218.67 168.689 208.269 163.748 198.482C163.656 198.306 163.52 198.174 163.34 198.086C162.348 197.626 161.347 197.542 160.339 197.834C158.459 198.374 156.928 198.748 155.748 198.956C155.532 198.996 155.32 198.98 155.112 198.908L151.649 197.714C151.445 197.643 151.228 197.622 151.015 197.652C150.802 197.682 150.599 197.763 150.424 197.888C150.248 198.012 150.105 198.177 150.006 198.368C149.907 198.559 149.855 198.771 149.854 198.986L149.824 205.462C149.212 204.434 148.846 203.38 148.726 202.299C148.716 202.21 148.684 202.125 148.633 202.052C148.582 201.978 148.514 201.919 148.434 201.879C148.355 201.839 148.267 201.82 148.178 201.823C148.09 201.826 148.004 201.852 147.928 201.897C145.403 203.374 142.826 204.102 140.198 204.082L147.015 201.639C147.106 201.607 147.185 201.548 147.242 201.471C147.298 201.394 147.33 201.302 147.334 201.207C147.364 199.809 147.358 197.966 148.048 196.832C149.818 193.933 153.113 195.385 155.838 196.67C155.927 196.712 156.024 196.732 156.121 196.728C156.219 196.724 156.313 196.696 156.396 196.646C158.617 195.329 161.005 194.921 163.562 195.421C163.78 195.464 164.003 195.435 164.198 195.337C168.501 193.207 170.362 195.829 171.874 199.55C175.087 207.465 176.527 216.107 176.195 225.478C175.805 236.358 174.461 246.243 163.832 251.303C158.307 253.931 152.651 255.082 146.865 254.753C143.897 254.581 142.732 253.051 143.372 250.162C143.412 249.966 143.348 249.814 143.18 249.706C130.469 241.544 133.356 222.909 149.356 221.228C149.471 221.214 149.578 221.162 149.66 221.081C149.742 220.999 149.795 220.893 149.81 220.778C149.825 220.664 149.802 220.547 149.743 220.447C149.685 220.347 149.595 220.269 149.488 220.226C146.051 218.862 145.125 216.165 146.709 212.136ZM173.339 232.157C174.763 221.042 173.591 210.666 169.822 201.027C169.233 199.526 168.279 196.574 166.191 197.036C165.951 197.088 165.887 197.222 165.999 197.438C171.888 209.101 173.875 221.442 171.958 234.462C170.97 241.164 167.519 245.729 161.605 248.158C156.892 250.094 151.651 250.984 145.881 250.828C145.617 250.82 145.475 250.948 145.455 251.212C145.423 251.709 145.647 252.087 146.127 252.347C146.277 252.43 146.446 252.475 146.619 252.479C155.7 252.779 167.577 249.772 171.436 240.446C172.252 238.481 172.886 235.718 173.339 232.157Z" fill="#1D1724"/>
<path d="M173.338 232.157C172.886 235.718 172.252 238.481 171.436 240.445C167.577 249.772 155.699 252.779 146.619 252.479C146.446 252.475 146.277 252.429 146.127 252.347C145.647 252.087 145.423 251.708 145.455 251.212C145.475 250.948 145.617 250.82 145.881 250.828C151.65 250.984 156.892 250.094 161.605 248.157C167.519 245.729 170.97 241.164 171.958 234.462C173.874 221.442 171.888 209.101 165.998 197.438C165.886 197.222 165.95 197.088 166.19 197.036C168.279 196.573 169.233 199.526 169.821 201.027C173.59 210.665 174.763 221.042 173.338 232.157Z" fill="white"/>
<path d="M149.434 210.077L149.824 205.462L149.854 198.986C149.854 198.771 149.906 198.559 150.005 198.368C150.104 198.177 150.247 198.012 150.423 197.888C150.599 197.763 150.801 197.682 151.015 197.652C151.228 197.622 151.445 197.643 151.648 197.714L155.111 198.908C155.319 198.98 155.531 198.996 155.747 198.956C156.928 198.748 158.458 198.374 160.339 197.834C161.347 197.542 162.347 197.626 163.339 198.086C163.519 198.174 163.655 198.306 163.747 198.482C168.689 208.269 170.867 218.67 170.283 229.685C170.037 234.306 168.801 239.803 165.32 243.038C161.035 247.023 151.948 248.8 146.409 248.464C144.872 248.368 143.264 246.879 141.986 245.619C135.63 239.347 136.368 228.73 145.094 224.961C149.248 223.169 153.563 223.157 158.04 224.925C158.328 225.039 158.649 225.038 158.937 224.922C159.225 224.806 159.458 224.584 159.588 224.301C160.699 221.883 153.395 221.192 152.278 221.156C152.133 221.153 151.993 221.105 151.875 221.02C151.757 220.936 151.668 220.817 151.618 220.68C151.568 220.543 151.561 220.394 151.596 220.252C151.631 220.11 151.708 219.982 151.816 219.884C156.305 215.831 158.534 210.716 158.502 204.538C158.49 202.911 158.73 201.267 158.082 199.485C158.047 199.388 157.979 199.307 157.892 199.256C157.804 199.204 157.701 199.185 157.602 199.202L156.275 199.412C156.179 199.429 156.092 199.481 156.033 199.558C155.974 199.635 155.947 199.731 155.957 199.827C156.552 205.966 155.681 212.31 151.168 217.027C149.842 218.408 148.395 217.243 148.563 215.575C148.731 213.85 149.021 212.018 149.434 210.077Z" fill="white"/>
<path d="M82.9055 236.491L83.2416 242.918C83.2656 243.37 83.0836 243.48 82.6955 243.248C74.2132 238.207 67.7514 231.433 63.3102 222.927C61.2257 218.938 58.4549 215.747 54.998 213.354C54.2818 212.858 54.3218 212.786 55.118 213.138C61.2697 215.833 67.3913 222.411 70.1701 227.596C72.6968 232.325 74.5633 235.944 79.3106 237.967C80.3609 238.417 81.6392 238.489 82.3294 237.529C82.4179 237.408 82.4763 237.267 82.4997 237.119C82.5231 236.971 82.5108 236.819 82.464 236.676C82.4171 236.533 82.337 236.403 82.2301 236.297C82.1233 236.191 81.9927 236.111 81.8493 236.064C78.2043 234.904 75.5676 232.557 73.9391 229.024C73.8271 228.78 73.9071 228.654 74.1792 228.646C76.6919 228.55 79.1505 228.714 81.5552 229.139C84.586 229.673 87.1907 230.171 87.3107 233.568C87.3347 234.304 86.9726 234.908 86.2244 235.38C86.0489 235.49 85.8435 235.542 85.6363 235.53C84.7881 235.47 83.9838 235.614 83.2236 235.962C82.9956 236.066 82.8895 236.242 82.9055 236.491Z" fill="white"/>
<path d="M47.9822 213.408C47.9101 213.424 47.8581 213.394 47.8261 213.318C47.8204 213.303 47.8189 213.287 47.8216 213.271C47.8244 213.255 47.8313 213.241 47.8417 213.228C47.8522 213.216 47.8657 213.207 47.8809 213.201C47.896 213.196 47.9124 213.195 47.9281 213.198C52.0533 214.175 55.3982 216.331 57.9629 219.668C57.9762 219.689 57.9817 219.715 57.9784 219.74C57.9751 219.765 57.9631 219.788 57.9446 219.805C57.9261 219.822 57.9022 219.832 57.877 219.833C57.8519 219.835 57.827 219.827 57.8068 219.812C54.9701 217.191 51.7872 215.097 48.2582 213.528C48.0742 213.448 47.9822 213.408 47.9822 213.408Z" fill="white"/>
<path d="M62.3627 257.16C61.1023 256.68 59.906 256.07 58.7737 255.329C47.9588 248.229 38.2541 240.373 34.4311 228.262C33.0387 223.857 33.3928 221.156 36.6157 217.993C39.7726 214.884 42.8874 214.404 47.1306 215.995C50.7995 217.367 53.9404 219.488 56.5531 222.356C59.938 226.065 61.6965 231.485 64.9194 235.686C69.2926 241.396 74.778 245.665 81.3758 248.494C82.2641 248.878 82.7922 248.594 82.9603 247.641L83.1583 246.501C83.2063 246.241 83.3144 246.215 83.4824 246.423C83.9225 246.967 84.1466 247.633 84.1546 248.422C84.2266 261.313 70.4349 260.215 62.3627 257.16Z" fill="white"/>
<path d="M81.8972 245.637C81.9172 245.649 81.9392 245.657 81.9632 245.661C81.9672 245.661 81.9692 245.663 81.9692 245.667C81.9692 245.667 81.9672 245.667 81.9632 245.667C81.5951 245.711 81.145 245.605 80.6129 245.349C74.1591 242.276 69.0617 237.703 65.3207 231.629C65.2687 231.545 65.2567 231.457 65.2847 231.365C65.2925 231.339 65.3076 231.315 65.3283 231.296C65.349 231.277 65.3745 231.265 65.4019 231.26C65.4293 231.255 65.4576 231.258 65.4835 231.268C65.5095 231.278 65.5321 231.295 65.5488 231.317C69.974 237.251 75.4235 242.024 81.8972 245.637Z" fill="white"/>
</svg>
