<svg width="300" height="300" viewBox="0 0 300 300" fill="none" xmlns="http://www.w3.org/2000/svg">
<path d="M163.874 242.602C163.874 251.897 171.409 259.432 180.704 259.432C189.999 259.432 197.534 251.897 197.534 242.602C197.534 233.307 189.999 225.772 180.704 225.772C177.779 225.766 174.904 226.535 172.373 228.002" stroke="#171625" stroke-width="2" stroke-linecap="round" stroke-linejoin="round"/>
<circle cx="16.8301" cy="16.8301" r="16.8301" transform="matrix(-1 0 0 1 140.928 225.771)" stroke="#171625" stroke-width="2" stroke-linecap="round" stroke-linejoin="round"/>
<path d="M123.046 215.253C121.651 215.253 120.314 214.699 119.327 213.713C118.341 212.726 117.787 211.389 117.787 209.994V209.994C117.787 208.599 118.341 207.261 119.327 206.275C120.314 205.288 121.651 204.734 123.046 204.734H136.721L124.098 242.602" stroke="#171625" stroke-width="2" stroke-linecap="round" stroke-linejoin="round"/>
<path fill-rule="evenodd" clip-rule="evenodd" d="M180.704 242.602H155.459L134.421 213.149H163.874L180.704 242.602Z" stroke="#171625" stroke-width="2" stroke-linecap="round" stroke-linejoin="round"/>
<path d="M172.289 202.63H159.666" stroke="#171625" stroke-width="2" stroke-linecap="round" stroke-linejoin="round"/>
<path d="M155.459 242.602L168.082 202.631" stroke="#171625" stroke-width="2" stroke-linecap="round" stroke-linejoin="round"/>
<line x1="28.9893" y1="260.751" x2="256.974" y2="260.751" stroke="#919FB6" stroke-width="2" stroke-linecap="round"/>
<circle cx="53.179" cy="53.179" r="53.179" transform="matrix(-1 0 0 1 244.727 37.2617)" fill="#FBF7B8" stroke="#919FB6" stroke-width="2" stroke-linecap="round" stroke-linejoin="round"/>
<line x1="165.451" y1="165.835" x2="180.963" y2="126.951" stroke="#919FB6" stroke-width="2" stroke-linecap="round"/>
<line x1="1" y1="-1" x2="42.8649" y2="-1" transform="matrix(-0.370539 -0.928817 -0.928817 0.370539 135.452 167.135)" stroke="#919FB6" stroke-width="2" stroke-linecap="round"/>
<line x1="145.795" y1="163.051" x2="142.204" y2="140.105" stroke="#919FB6" stroke-width="2" stroke-linecap="round"/>
<line x1="1" y1="-1" x2="24.2257" y2="-1" transform="matrix(0.154639 -0.987971 -0.987971 -0.154639 154.523 163.885)" stroke="#919FB6" stroke-width="2" stroke-linecap="round"/>
<circle cx="150.622" cy="106.022" r="41.3927" fill="#F9E0CE" stroke="#919FB6" stroke-width="2"/>
<ellipse cx="150.622" cy="106.022" rx="26.8727" ry="41.3927" fill="#FFB99B" stroke="#919FB6" stroke-width="2"/>
<rect x="134.802" y="163.885" width="31.8572" height="17.7707" rx="4.24803" fill="white" stroke="#919FB6" stroke-width="2"/>
<path d="M206.953 235.724L229.094 250.018L250.956 235.724L229.094 180.511L206.953 235.724Z" fill="#12EDE8" stroke="#919FB6" stroke-width="2" stroke-linecap="round" stroke-linejoin="round"/>
<line x1="228.693" y1="221.431" x2="228.693" y2="259.547" stroke="#919FB6" stroke-width="2"/>
<line x1="215.382" y1="230.145" x2="229.118" y2="239.958" stroke="#919FB6" stroke-width="2"/>
<path d="M26.8115 235.724L48.9529 250.018L70.814 235.724L48.9529 180.511L26.8115 235.724Z" fill="#65FDF0" stroke="#919FB6" stroke-width="2" stroke-linecap="round" stroke-linejoin="round"/>
<line x1="48.5518" y1="221.431" x2="48.5518" y2="259.547" stroke="#919FB6" stroke-width="2"/>
<line x1="35.2405" y1="230.145" x2="48.9771" y2="239.958" stroke="#919FB6" stroke-width="2"/>
<path d="M72.3379 245.543L85.3538 253.946L98.2049 245.543L85.3538 213.086L72.3379 245.543Z" fill="#97F7F5" stroke="#919FB6" stroke-width="2" stroke-linecap="round" stroke-linejoin="round"/>
<line x1="85.5298" y1="237.141" x2="85.5298" y2="259.548" stroke="#919FB6" stroke-width="2"/>
<line x1="77.532" y1="241.928" x2="85.6071" y2="247.697" stroke="#919FB6" stroke-width="2"/>
<path fill-rule="evenodd" clip-rule="evenodd" d="M72.6714 118.502H21.0519C16.2064 118.502 16.4287 114.667 18.0114 113.33C19.6337 111.961 22.839 112.516 22.839 112.516C22.839 112.516 23.7933 109.937 26.9344 108.681C29.7128 107.57 32.6235 108.099 32.6235 108.099C32.6235 108.099 32.6235 106.328 34.4024 104.862C36.1815 103.396 38.5535 103.538 38.5535 103.538C38.5535 103.538 40.1841 93.7764 51.0805 93.7764C61.9769 93.7764 63.2369 102.968 63.2369 102.968C63.2369 102.968 65.6831 102.968 67.4622 104.536C69.2412 106.104 69.4635 107.885 69.4635 107.885C69.4635 107.885 75.4131 107.114 77.1727 112.048C78.2212 114.988 76.0669 118.502 72.6714 118.502Z" fill="#F1F4F9" stroke="#919FB6" stroke-width="2" stroke-linecap="round" stroke-linejoin="round"/>
<path fill-rule="evenodd" clip-rule="evenodd" d="M82.4834 78.4704H30.8639C26.0184 78.4704 26.2407 74.6354 27.8234 73.2991C29.4457 71.9295 32.651 72.485 32.651 72.485C32.651 72.485 33.6053 69.9055 36.7464 68.6497C39.5248 67.5388 42.4355 68.0674 42.4355 68.0674C42.4355 68.0674 42.4355 66.2971 44.2144 64.8309C45.9935 63.3645 48.3655 63.5071 48.3655 63.5071C48.3655 63.5071 49.9961 53.7451 60.8925 53.7451C71.7889 53.7451 73.0489 62.9369 73.0489 62.9369C73.0489 62.9369 75.4951 62.9369 77.2742 64.5047C79.0532 66.0723 79.2755 67.8535 79.2755 67.8535C79.2755 67.8535 85.2251 67.0829 86.9847 72.0164C88.0332 74.9568 85.8789 78.4704 82.4834 78.4704Z" fill="#F1F4F9" stroke="#919FB6" stroke-width="2" stroke-linecap="round" stroke-linejoin="round"/>
<path fill-rule="evenodd" clip-rule="evenodd" d="M137.304 56.4925H97.0807C93.305 56.4925 93.4782 53.5097 94.7115 52.4704C95.9756 51.4051 98.4732 51.8372 98.4732 51.8372C98.4732 51.8372 99.2169 49.8309 101.664 48.8541C103.829 47.9901 106.097 48.4012 106.097 48.4012C106.097 48.4012 106.097 47.0243 107.484 45.884C108.87 44.7435 110.718 44.8544 110.718 44.8544C110.718 44.8544 111.989 37.2617 120.48 37.2617C128.97 37.2617 129.952 44.4109 129.952 44.4109C129.952 44.4109 131.858 44.4109 133.245 45.6303C134.631 46.8495 134.804 48.2349 134.804 48.2349C134.804 48.2349 139.44 47.6355 140.811 51.4727C141.628 53.7597 139.949 56.4925 137.304 56.4925Z" fill="#F1F4F9" stroke="#919FB6" stroke-width="2" stroke-linecap="round" stroke-linejoin="round"/>
<path fill-rule="evenodd" clip-rule="evenodd" d="M262.913 138.812H238.649C236.48 138.812 235.545 135.981 237.32 134.725C237.345 134.707 237.37 134.689 237.396 134.672C239.923 132.92 243.24 133.079 243.24 133.079C243.24 133.079 243.714 123.604 252.639 123.604C260.708 123.604 263.926 131.588 265.086 135.986C265.463 137.415 264.38 138.812 262.913 138.812Z" fill="#F1F4F9" stroke="#919FB6" stroke-width="2" stroke-linecap="round" stroke-linejoin="round"/>
<path fill-rule="evenodd" clip-rule="evenodd" d="M101.61 146.662H77.346C75.1766 146.662 74.242 143.831 76.0171 142.575C76.0419 142.557 76.0671 142.539 76.0923 142.521C78.6199 140.77 81.9371 140.929 81.9371 140.929C81.9371 140.929 82.4105 131.453 91.3355 131.453C99.4045 131.453 102.622 139.437 103.783 143.836C104.16 145.265 103.076 146.662 101.61 146.662Z" fill="#F1F4F9" stroke="#919FB6" stroke-width="2" stroke-linecap="round" stroke-linejoin="round"/>
<path fill-rule="evenodd" clip-rule="evenodd" d="M257.475 98.3887H281.739C283.908 98.3887 284.843 95.5571 283.068 94.3011C283.043 94.2832 283.018 94.2652 282.993 94.2477C280.465 92.4965 277.148 92.6556 277.148 92.6556C277.148 92.6556 276.674 83.1797 267.749 83.1797C259.68 83.1797 256.463 91.1638 255.302 95.5625C254.925 96.9916 256.009 98.3887 257.475 98.3887Z" fill="#F1F4F9" stroke="#919FB6" stroke-width="2" stroke-linecap="round" stroke-linejoin="round"/>
</svg>
