<svg width="994" height="311" viewBox="0 0 994 311" fill="none" xmlns="http://www.w3.org/2000/svg">
<path d="M618.244 14.5556C618.244 15.2325 619.003 15.7759 619.948 15.7759H912.471C913.416 15.7759 914.175 15.2325 914.175 14.5556C914.175 13.8789 913.416 13.3353 912.471 13.3353H619.948C619.003 13.3353 618.244 13.8789 618.244 14.5556Z" fill="#E6E6E6"/>
<path d="M378.028 164.246L380.923 240.965H373.876V249.651H393.572V240.965H387.827L388.237 164.246H378.028Z" fill="url(#paint0_linear_244_1982)"/>
<path d="M370.428 228.661C373.426 228.661 375.856 231.092 375.856 234.09V256.526C375.856 259.524 373.426 261.955 370.428 261.955C367.43 261.955 365 259.524 365 256.526V234.09C365 231.092 367.43 228.661 370.428 228.661Z" fill="url(#paint1_linear_244_1982)"/>
<path d="M397.931 228.661C400.929 228.661 403.359 231.092 403.359 234.09V256.526C403.359 259.524 400.929 261.955 397.931 261.955C394.933 261.955 392.503 259.524 392.503 256.526V234.09C392.503 231.092 394.933 228.661 397.931 228.661Z" fill="url(#paint2_linear_244_1982)"/>
<path d="M444.393 141.028L332.933 135.961L350.303 128L448.011 129.448L444.393 141.028Z" fill="url(#paint3_linear_244_1982)"/>
<path d="M0 152.278L13.4609 147.212L431.364 158.068L448.735 150.107L441.497 199.323L109.538 163.95L0 152.278Z" fill="url(#paint4_linear_244_1982)"/>
<path d="M330.761 230.807C349.748 230.807 365.14 214.442 365.14 194.256C365.14 174.07 349.748 157.706 330.761 157.706C311.774 157.706 296.382 174.07 296.382 194.256C296.382 214.442 311.774 230.807 330.761 230.807Z" fill="url(#paint5_linear_244_1982)"/>
<path d="M330.76 213.074C344.751 213.074 356.092 201.733 356.092 187.742C356.092 173.752 344.751 162.411 330.76 162.411C316.77 162.411 305.429 173.752 305.429 187.742C305.429 201.733 316.77 213.074 330.76 213.074Z" fill="url(#paint6_linear_244_1982)"/>
<path d="M616.332 164.246L613.437 240.965H620.484V249.651H600.788V240.965H606.533L606.122 164.246H616.332Z" fill="url(#paint7_linear_244_1982)"/>
<path d="M623.931 228.661H623.931C620.933 228.661 618.503 231.092 618.503 234.09V256.526C618.503 259.524 620.933 261.955 623.931 261.955H623.931C626.929 261.955 629.359 259.524 629.359 256.526V234.09C629.359 231.092 626.929 228.661 623.931 228.661Z" fill="url(#paint8_linear_244_1982)"/>
<path d="M596.428 228.661H596.428C593.43 228.661 591 231.092 591 234.09V256.526C591 259.524 593.43 261.955 596.428 261.955H596.428C599.426 261.955 601.857 259.524 601.857 256.526V234.09C601.857 231.092 599.426 228.661 596.428 228.661Z" fill="url(#paint9_linear_244_1982)"/>
<path d="M549.339 141.028L660.798 135.961L643.428 128L545.72 129.448L549.339 141.028Z" fill="url(#paint10_linear_244_1982)"/>
<path d="M509.444 125.434L504.377 13.9745L496.416 31.3449L497.864 129.053L509.444 125.434Z" fill="url(#paint11_linear_244_1982)"/>
<path d="M993.73 152.278L980.269 147.212L562.365 158.068L544.995 150.107L552.233 199.323L884.192 163.95L993.73 152.278Z" fill="url(#paint12_linear_244_1982)"/>
<path d="M662.97 230.807C681.957 230.807 697.349 214.442 697.349 194.256C697.349 174.07 681.957 157.706 662.97 157.706C643.983 157.706 628.591 174.07 628.591 194.256C628.591 214.442 643.983 230.807 662.97 230.807Z" fill="url(#paint13_linear_244_1982)"/>
<path d="M662.969 213.074C676.96 213.074 688.301 201.733 688.301 187.742C688.301 173.752 676.96 162.411 662.969 162.411C648.979 162.411 637.638 173.752 637.638 187.742C637.638 201.733 648.979 213.074 662.969 213.074Z" fill="url(#paint14_linear_244_1982)"/>
<path d="M560.014 127.144L558.371 139.25L557.517 204.418C557.452 209.267 556.865 214.059 555.765 218.705C552.595 232.24 545.191 244.551 534.255 253.475C524.332 261.581 510.798 267.719 492.885 266.633C445.116 263.738 440.896 223.084 440.896 223.084L442.699 149.361L442.945 139.25L445.116 121.006C445.116 121.006 450.906 69.6189 504.465 71.0665C558.024 72.514 560.014 127.144 560.014 127.144Z" fill="url(#paint15_linear_244_1982)"/>
<path d="M456.696 110.15L467.553 92.7794L481.304 88.4368H528.349L539.929 92.7794L550.438 110.15L531.244 101.465H477.401L456.696 110.15Z" fill="url(#paint16_linear_244_1982)"/>
<path d="M496.509 235.032L498.366 284.248H493.846V289.819H506.481V284.248H502.795L503.059 235.032H496.509Z" fill="url(#paint17_linear_244_1982)"/>
<path d="M491.634 276.355C493.557 276.355 495.116 277.914 495.116 279.837V294.23C495.116 296.153 493.557 297.712 491.634 297.712C489.71 297.712 488.151 296.153 488.151 294.23V279.837C488.151 277.914 489.71 276.355 491.634 276.355Z" fill="url(#paint18_linear_244_1982)"/>
<path d="M509.277 276.355C511.2 276.355 512.759 277.914 512.759 279.837V294.23C512.759 296.153 511.2 297.712 509.277 297.712C507.354 297.712 505.795 296.153 505.795 294.23V279.837C505.795 277.914 507.354 276.355 509.277 276.355Z" fill="url(#paint19_linear_244_1982)"/>
<path d="M483.036 77.7687L473.037 113.769L474.964 114.304L484.963 78.3039L483.036 77.7687Z" fill="#6C63FF"/>
<path d="M528.379 83.5125L526.416 83.8982L533.62 120.56L535.583 120.175L528.379 83.5125Z" fill="#6C63FF"/>
<path d="M734.416 26C741.596 26 747.416 20.1797 747.416 13C747.416 5.8203 741.596 0 734.416 0C727.236 0 721.416 5.8203 721.416 13C721.416 20.1797 727.236 26 734.416 26Z" fill="url(#paint20_linear_244_1982)"/>
<path d="M374.602 68.5526C381.781 68.5526 387.602 62.7323 387.602 55.5526C387.602 48.3729 381.781 42.5526 374.602 42.5526C367.422 42.5526 361.602 48.3729 361.602 55.5526C361.602 62.7323 367.422 68.5526 374.602 68.5526Z" fill="url(#paint21_linear_244_1982)"/>
<path d="M80.2441 299.556C80.2441 300.232 81.0031 300.776 81.9482 300.776H374.471C375.416 300.776 376.175 300.232 376.175 299.556C376.175 298.879 375.416 298.335 374.471 298.335H81.9482C81.0031 298.335 80.2441 298.879 80.2441 299.556Z" fill="#E6E6E6"/>
<path d="M196.416 311C203.596 311 209.416 305.18 209.416 298C209.416 290.82 203.596 285 196.416 285C189.236 285 183.416 290.82 183.416 298C183.416 305.18 189.236 311 196.416 311Z" fill="url(#paint22_linear_244_1982)"/>
<defs>
<linearGradient id="paint0_linear_244_1982" x1="373.876" y1="164.246" x2="411.278" y2="172.872" gradientUnits="userSpaceOnUse">
<stop stop-color="#3B2667"/>
<stop offset="1" stop-color="#BC78EC"/>
</linearGradient>
<linearGradient id="paint1_linear_244_1982" x1="365" y1="228.661" x2="384.626" y2="235.061" gradientUnits="userSpaceOnUse">
<stop stop-color="#3B2667"/>
<stop offset="1" stop-color="#BC78EC"/>
</linearGradient>
<linearGradient id="paint2_linear_244_1982" x1="392.503" y1="228.661" x2="412.129" y2="235.061" gradientUnits="userSpaceOnUse">
<stop stop-color="#3B2667"/>
<stop offset="1" stop-color="#BC78EC"/>
</linearGradient>
<linearGradient id="paint3_linear_244_1982" x1="332.933" y1="128" x2="335.845" y2="153.726" gradientUnits="userSpaceOnUse">
<stop stop-color="#FFD26F"/>
<stop offset="1" stop-color="#3677FF"/>
</linearGradient>
<linearGradient id="paint4_linear_244_1982" x1="0" y1="147.212" x2="11.9422" y2="250.047" gradientUnits="userSpaceOnUse">
<stop stop-color="#FF6FD8"/>
<stop offset="1" stop-color="#3813C2"/>
</linearGradient>
<linearGradient id="paint5_linear_244_1982" x1="296.382" y1="157.706" x2="369.345" y2="226.335" gradientUnits="userSpaceOnUse">
<stop stop-color="#FAB2FF"/>
<stop offset="1" stop-color="#1904E5"/>
</linearGradient>
<linearGradient id="paint6_linear_244_1982" x1="305.429" y1="162.411" x2="356.092" y2="213.074" gradientUnits="userSpaceOnUse">
<stop stop-color="#97ABFF"/>
<stop offset="1" stop-color="#123597"/>
</linearGradient>
<linearGradient id="paint7_linear_244_1982" x1="600.788" y1="164.246" x2="638.19" y2="172.872" gradientUnits="userSpaceOnUse">
<stop stop-color="#3B2667"/>
<stop offset="1" stop-color="#BC78EC"/>
</linearGradient>
<linearGradient id="paint8_linear_244_1982" x1="618.503" y1="228.661" x2="638.129" y2="235.061" gradientUnits="userSpaceOnUse">
<stop stop-color="#3B2667"/>
<stop offset="1" stop-color="#BC78EC"/>
</linearGradient>
<linearGradient id="paint9_linear_244_1982" x1="591" y1="228.661" x2="610.626" y2="235.061" gradientUnits="userSpaceOnUse">
<stop stop-color="#3B2667"/>
<stop offset="1" stop-color="#BC78EC"/>
</linearGradient>
<linearGradient id="paint10_linear_244_1982" x1="545.72" y1="128" x2="548.632" y2="153.726" gradientUnits="userSpaceOnUse">
<stop stop-color="#FFD26F"/>
<stop offset="1" stop-color="#3677FF"/>
</linearGradient>
<linearGradient id="paint11_linear_244_1982" x1="496.416" y1="13.9745" x2="522.142" y2="16.8869" gradientUnits="userSpaceOnUse">
<stop stop-color="#FFF3B0"/>
<stop offset="1" stop-color="#CA26FF"/>
</linearGradient>
<linearGradient id="paint12_linear_244_1982" x1="544.995" y1="147.212" x2="556.937" y2="250.047" gradientUnits="userSpaceOnUse">
<stop stop-color="#3813C2"/>
<stop offset="1" stop-color="#FF6FD8"/>
</linearGradient>
<linearGradient id="paint13_linear_244_1982" x1="628.591" y1="157.706" x2="701.554" y2="226.335" gradientUnits="userSpaceOnUse">
<stop stop-color="#FAB2FF"/>
<stop offset="1" stop-color="#1904E5"/>
</linearGradient>
<linearGradient id="paint14_linear_244_1982" x1="637.638" y1="162.411" x2="688.301" y2="213.074" gradientUnits="userSpaceOnUse">
<stop stop-color="#97ABFF"/>
<stop offset="1" stop-color="#123597"/>
</linearGradient>
<linearGradient id="paint15_linear_244_1982" x1="440.896" y1="71.0364" x2="614.739" y2="176.838" gradientUnits="userSpaceOnUse">
<stop stop-color="#FF7AF5"/>
<stop offset="1" stop-color="#513162"/>
</linearGradient>
<linearGradient id="paint16_linear_244_1982" x1="456.696" y1="88.4368" x2="466.243" y2="129.652" gradientUnits="userSpaceOnUse">
<stop stop-color="#5EFCE8"/>
<stop offset="1" stop-color="#736EFE"/>
</linearGradient>
<linearGradient id="paint17_linear_244_1982" x1="493.846" y1="235.032" x2="517.839" y2="240.565" gradientUnits="userSpaceOnUse">
<stop stop-color="#FF96F9"/>
<stop offset="1" stop-color="#C32BAC"/>
</linearGradient>
<linearGradient id="paint18_linear_244_1982" x1="488.151" y1="276.355" x2="500.742" y2="280.46" gradientUnits="userSpaceOnUse">
<stop stop-color="#FF96F9"/>
<stop offset="1" stop-color="#C32BAC"/>
</linearGradient>
<linearGradient id="paint19_linear_244_1982" x1="505.795" y1="276.355" x2="518.385" y2="280.46" gradientUnits="userSpaceOnUse">
<stop stop-color="#FF96F9"/>
<stop offset="1" stop-color="#C32BAC"/>
</linearGradient>
<linearGradient id="paint20_linear_244_1982" x1="721.416" y1="0" x2="747.416" y2="26" gradientUnits="userSpaceOnUse">
<stop stop-color="#FFCF71"/>
<stop offset="1" stop-color="#2376DD"/>
</linearGradient>
<linearGradient id="paint21_linear_244_1982" x1="361.602" y1="42.5526" x2="387.602" y2="68.5526" gradientUnits="userSpaceOnUse">
<stop stop-color="#FFF886"/>
<stop offset="1" stop-color="#F072B6"/>
</linearGradient>
<linearGradient id="paint22_linear_244_1982" x1="183.416" y1="285" x2="209.416" y2="311" gradientUnits="userSpaceOnUse">
<stop stop-color="#F0FF00"/>
<stop offset="1" stop-color="#58CFFB"/>
</linearGradient>
</defs>
</svg>
