<svg width="54" height="41" viewBox="0 0 54 41" fill="none" xmlns="http://www.w3.org/2000/svg">
<path d="M0 5.25362C0 2.35208 2.36076 0 5.27091 0H48.7291C51.6413 0 54 2.35208 54 5.25362V31.6531C54 34.5546 51.6413 36.9067 48.7291 36.9067H10.484C8.86472 36.9067 7.28467 37.402 5.95869 38.3255L4.14321 39.5881C2.39795 40.8038 0 39.5581 0 37.4343V36.9067V5.25362Z" fill="#FBC3DE"/>
<path fill-rule="evenodd" clip-rule="evenodd" d="M10.4402 11.2554C10.2688 11.2554 10.1304 11.3935 10.1304 11.5642C10.1304 11.7346 10.2688 11.873 10.4402 11.873H44.6123C44.7837 11.873 44.9221 11.7346 44.9221 11.5642C44.9221 11.3935 44.7837 11.2554 44.6123 11.2554H10.4402ZM10.4402 18.8244C10.2688 18.8244 10.1304 18.9628 10.1304 19.1332C10.1304 19.3039 10.2688 19.442 10.4402 19.442H23.5183C23.6897 19.442 23.8281 19.3039 23.8281 19.1332C23.8281 18.9628 23.6897 18.8244 23.5183 18.8244H10.4402ZM26.6908 19.1332C26.6908 18.9628 26.8291 18.8244 27.0006 18.8244H44.7197C44.8911 18.8244 45.0295 18.9628 45.0295 19.1332C45.0295 19.3039 44.8911 19.442 44.7197 19.442H27.0006C26.8291 19.442 26.6908 19.3039 26.6908 19.1332ZM10.4402 26.3939C10.2688 26.3939 10.1304 26.5322 10.1304 26.7027C10.1304 26.8731 10.2688 27.0115 10.4402 27.0115H44.6123C44.7837 27.0115 44.9221 26.8731 44.9221 26.7027C44.9221 26.5322 44.7837 26.3939 44.6123 26.3939H10.4402Z" fill="#171625"/>
</svg>
