<svg width="72" height="71" viewBox="0 0 72 71" fill="none" xmlns="http://www.w3.org/2000/svg">
<path d="M72 35.5C72 55.106 55.8816 71 36 71C16.1184 71 0 55.106 0 35.5C0 15.894 16.1184 0 36 0C55.8816 0 72 15.894 72 35.5Z" fill="url(#paint0_linear_226_1912)"/>
<path d="M53 35.5C53 44.6127 45.613 52 36.5014 52C27.387 52 20 44.6127 20 35.5C20 26.3873 27.387 19 36.5014 19C45.613 19 53 26.3873 53 35.5Z" fill="white"/>
<path fill-rule="evenodd" clip-rule="evenodd" d="M29.107 29.1299C29.2498 28.9567 29.4796 28.9567 29.6199 29.1299L30.8948 30.6866C31.0351 30.8598 31.0351 31.1402 30.8948 31.3134L29.6199 32.8701C29.4796 33.0433 29.2498 33.0433 29.107 32.8701C28.9643 32.6973 28.9643 32.4165 29.107 32.2437L30.1255 31.0002L29.107 29.7567C28.9643 29.5835 28.9643 29.3027 29.107 29.1299Z" fill="#FFB99B"/>
<path fill-rule="evenodd" clip-rule="evenodd" d="M42.893 29.1299C42.7526 28.9567 42.5228 28.9567 42.3801 29.1299L41.1052 30.6866C40.9649 30.8598 40.9649 31.1402 41.1052 31.3134L42.3801 32.8701C42.5228 33.0433 42.7526 33.0433 42.893 32.8701C43.0357 32.6973 43.0357 32.4165 42.893 32.2434L41.8745 30.9999L42.893 29.7564C43.0357 29.5835 43.0357 29.3027 42.893 29.1299Z" fill="#FFB99B"/>
<path d="M39.1309 33C39.6594 33 40.1022 33.5323 39.9793 34.1627C39.8051 35.0537 39.4308 35.877 38.8938 36.5357C38.1254 37.4733 37.0855 38 36 38C34.9145 38 33.8746 37.4733 33.1062 36.5357C32.5692 35.877 32.1949 35.0537 32.0207 34.1627C31.8978 33.5323 32.3406 33 32.8691 33H36H39.1309Z" fill="#FFB99B"/>
<defs>
<linearGradient id="paint0_linear_226_1912" x1="0" y1="0" x2="70.9931" y2="71.993" gradientUnits="userSpaceOnUse">
<stop stop-color="#FFE985"/>
<stop offset="1" stop-color="#FA742B"/>
</linearGradient>
</defs>
</svg>
