<svg width="187" height="51" viewBox="0 0 187 51" fill="none" xmlns="http://www.w3.org/2000/svg">
<path d="M0 26C0 16.5719 0 11.8579 2.92893 8.92893C5.85786 6 10.5719 6 20 6C29.4281 6 34.1421 6 37.0711 8.92893C40 11.8579 40 16.5719 40 26C40 35.4281 40 40.1421 37.0711 43.0711C34.1421 46 29.4281 46 20 46C10.5719 46 5.85786 46 2.92893 43.0711C0 40.1421 0 35.4281 0 26Z" fill="#243A5A"/>
<path d="M24 32C24.5523 32 25.0101 32.4521 24.9004 32.9934C24.7065 33.9494 24.2355 34.8355 23.5355 35.5355C22.5979 36.4732 21.3261 37 20 37C18.6739 37 17.4022 36.4732 16.4645 35.5355C15.7645 34.8355 15.2935 33.9494 15.0997 32.9934C14.9899 32.4521 15.4477 32 16 32H24Z" fill="#2DF8BB"/>
<path d="M26.1023 23.7765C25.5688 23.9194 25.2421 24.4775 25.5126 24.959C25.7973 25.4658 26.1911 25.9081 26.6702 26.2514C27.4224 26.7904 28.3382 27.052 29.2617 26.9914C30.1851 26.9309 31.059 26.5521 31.7344 25.9195C32.4099 25.2869 32.845 24.4396 32.9658 23.5221C33.0866 22.6046 32.8856 21.6736 32.3969 20.8877C31.9082 20.1019 31.1621 19.5098 30.2858 19.2123C29.4095 18.9148 28.4572 18.9304 27.5911 19.2564C27.0395 19.464 26.5447 19.7893 26.1385 20.2051C25.7526 20.6002 25.9237 21.2239 26.402 21.5L26.9093 21.7929C27.6808 22.2384 27.5287 23.3943 26.6681 23.6249L26.1023 23.7765Z" fill="#2DF8BB"/>
<path d="M13.8978 23.7765C14.4313 23.9194 14.758 24.4775 14.4875 24.959C14.2028 25.4658 13.809 25.9081 13.33 26.2514C12.5778 26.7904 11.6619 27.052 10.7385 26.9914C9.81502 26.9309 8.94113 26.5521 8.2657 25.9195C7.59027 25.2869 7.15508 24.4396 7.03429 23.5221C6.9135 22.6046 7.11457 21.6736 7.60326 20.8877C8.09194 20.1019 8.838 19.5098 9.71431 19.2123C10.5906 18.9148 11.543 18.9304 12.4091 19.2564C12.9606 19.464 13.4555 19.7893 13.8617 20.2051C14.2476 20.6002 14.0764 21.2239 13.5981 21.5L13.0908 21.7929C12.3193 22.2384 12.4715 23.3943 13.332 23.6249L13.8978 23.7765Z" fill="#2DF8BB"/>
<path d="M62.128 33.2C60.912 34.096 59.12 34.544 56.784 34.544C54.832 34.544 53.296 34.288 52.208 33.712C51.12 33.136 50.576 32.336 50.576 31.312C50.576 30.8 50.672 30.384 50.896 30.032C51.12 29.68 51.44 29.488 51.888 29.488C52.24 29.488 52.56 29.584 52.88 29.712C54.16 30.224 55.376 30.448 56.56 30.448C57.2 30.448 57.68 30.352 58.064 30.16C58.416 29.968 58.608 29.712 58.608 29.392C58.608 29.104 58.48 28.88 58.224 28.688C57.968 28.528 57.52 28.4 56.944 28.272L55.984 28.08C54.064 27.696 52.656 27.12 51.792 26.32C50.896 25.552 50.48 24.432 50.48 23.024C50.48 22.256 50.64 21.52 50.992 20.88C51.312 20.24 51.792 19.728 52.432 19.28C53.712 18.384 55.408 17.936 57.52 17.936C59.28 17.936 60.656 18.192 61.68 18.704C62.704 19.216 63.216 19.952 63.216 20.88C63.216 21.392 63.088 21.84 62.864 22.192C62.64 22.576 62.32 22.736 61.904 22.736C61.712 22.736 61.52 22.704 61.328 22.64L60.368 22.352C59.536 22.16 58.736 22.032 58 22.032C57.2 22.032 56.656 22.128 56.336 22.256C55.952 22.448 55.792 22.704 55.792 23.024C55.792 23.28 55.888 23.472 56.112 23.6C56.304 23.76 56.72 23.888 57.328 24.016L58.32 24.24C60.304 24.688 61.744 25.328 62.64 26.128C63.536 26.96 63.984 28.016 63.984 29.36C63.984 31.024 63.344 32.304 62.128 33.2ZM64.9488 21.264C64.9488 20.848 65.0768 20.496 65.3648 20.208C65.6208 19.952 65.9728 19.792 66.3888 19.792L67.7328 19.76V16.816C67.7328 16.336 67.8288 15.952 68.0208 15.632C68.2128 15.344 68.5328 15.184 68.9168 15.12C69.3008 15.056 69.6848 15.024 70.1328 15.024C71.2208 15.024 71.9888 15.216 72.4368 15.6C72.8848 15.984 73.1088 16.656 73.1088 17.616V19.664H75.9568C76.9488 19.664 77.5248 20.016 77.6848 20.656C77.7808 21.104 77.8448 21.456 77.8448 21.712C77.8448 23.12 77.2368 23.824 76.0208 23.824H73.1088V28.656C73.1088 29.68 73.7808 30.192 75.1248 30.192C75.4128 30.192 75.5728 30.192 75.6368 30.16L76.2128 30.128C76.7888 30.128 77.1728 30.288 77.3968 30.544C77.5888 30.8 77.7168 31.216 77.7168 31.728C77.7168 33.584 76.3408 34.48 73.5888 34.48C71.6368 34.48 70.1648 34.032 69.2048 33.136C68.2128 32.24 67.7328 30.896 67.7328 29.04V23.824H66.4208C66.0048 23.824 65.6528 23.696 65.3648 23.408C65.0768 23.12 64.9488 22.768 64.9488 22.352V21.264ZM92.6323 32.336C91.1283 33.808 89.0803 34.512 86.5203 34.512C83.9603 34.512 81.9443 33.776 80.4723 32.272C78.9043 30.832 78.1363 28.816 78.1363 26.224C78.1363 25.008 78.3283 23.856 78.7443 22.832C79.1283 21.808 79.7043 20.912 80.4723 20.176C82.0083 18.704 84.0243 17.968 86.5203 17.968C87.7363 17.968 88.8563 18.16 89.9123 18.544C90.9363 18.928 91.8323 19.504 92.6003 20.208C93.3363 20.944 93.9123 21.84 94.2963 22.864C94.6803 23.888 94.9043 25.008 94.9043 26.224C94.9043 28.848 94.1363 30.864 92.6323 32.336ZM84.4403 29.2C84.9523 29.904 85.6562 30.256 86.5523 30.256C87.4483 30.256 88.1203 29.904 88.6003 29.2C89.0803 28.496 89.3363 27.504 89.3363 26.224C89.3363 24.944 89.0803 23.984 88.6003 23.28C88.0883 22.576 87.4163 22.224 86.5203 22.224C85.6243 22.224 84.9203 22.576 84.4403 23.28C83.9283 23.984 83.7043 24.944 83.7043 26.224C83.7043 27.504 83.9283 28.496 84.4403 29.2ZM101.295 32.496C101.295 33.232 101.103 33.712 100.751 33.968C100.367 34.224 99.951 34.32 99.503 34.288L98.863 34.256C97.775 34.256 96.975 34.064 96.527 33.68C96.079 33.296 95.855 32.656 95.855 31.696V22.096C95.855 21.264 96.143 20.56 96.783 20.016C97.391 19.504 98.383 18.992 99.791 18.544C101.039 18.192 102.255 18 103.439 18C105.647 18 106.767 18.864 106.767 20.528C106.767 20.784 106.735 20.944 106.735 20.976C106.639 21.744 106.063 22.16 105.007 22.256C104.303 22.32 103.631 22.448 102.927 22.576C102.223 22.736 101.679 22.896 101.295 23.056V32.496ZM109.585 25.84C109.009 24.112 108.529 22.352 108.081 20.56C108.017 20.336 107.985 20.112 107.985 19.888C107.985 19.344 108.209 18.928 108.721 18.608C109.233 18.288 109.841 18.128 110.609 18.128C111.441 18.128 112.081 18.32 112.529 18.64C112.977 18.96 113.297 19.536 113.553 20.336L116.081 29.136H116.209C116.625 27.952 117.073 26.48 117.553 24.688C118.001 22.896 118.385 21.328 118.641 19.952C118.769 19.248 119.057 18.768 119.505 18.512C119.953 18.256 120.593 18.128 121.393 18.128C123.121 18.128 123.985 18.864 123.985 20.272C123.985 21.296 123.729 22.704 123.217 24.464C122.705 26.256 122.065 28.08 121.265 30C120.369 32.08 119.473 33.872 118.577 35.376C117.649 36.88 116.753 37.968 115.889 38.672C115.089 39.344 114.129 39.664 113.009 39.664C112.369 39.664 111.793 39.536 111.313 39.248C110.833 38.96 110.481 38.544 110.225 38.032C110.097 37.776 110.033 37.552 110.033 37.328C110.033 36.912 110.289 36.464 110.833 35.984C111.825 35.184 112.785 34.192 113.745 33.008C113.393 32.912 113.009 32.656 112.593 32.24C112.145 31.792 111.665 31.056 111.217 30.032C110.705 28.944 110.161 27.568 109.585 25.84ZM124.949 21.264C124.949 20.848 125.077 20.496 125.365 20.208C125.621 19.952 125.973 19.792 126.389 19.792L127.733 19.76V16.816C127.733 16.336 127.829 15.952 128.021 15.632C128.213 15.344 128.533 15.184 128.917 15.12C129.301 15.056 129.685 15.024 130.133 15.024C131.221 15.024 131.989 15.216 132.437 15.6C132.885 15.984 133.109 16.656 133.109 17.616V19.664H135.957C136.949 19.664 137.525 20.016 137.685 20.656C137.781 21.104 137.845 21.456 137.845 21.712C137.845 23.12 137.237 23.824 136.021 23.824H133.109V28.656C133.109 29.68 133.781 30.192 135.125 30.192C135.413 30.192 135.573 30.192 135.637 30.16L136.213 30.128C136.789 30.128 137.173 30.288 137.397 30.544C137.589 30.8 137.717 31.216 137.717 31.728C137.717 33.584 136.341 34.48 133.589 34.48C131.637 34.48 130.165 34.032 129.205 33.136C128.213 32.24 127.733 30.896 127.733 29.04V23.824H126.421C126.005 23.824 125.653 23.696 125.365 23.408C125.077 23.12 124.949 22.768 124.949 22.352V21.264ZM139.156 12.08C139.7 11.536 140.404 11.248 141.3 11.248C142.164 11.248 142.868 11.536 143.444 12.08C143.988 12.624 144.276 13.296 144.276 14.128C144.276 14.96 143.988 15.664 143.444 16.208C142.868 16.752 142.164 17.008 141.3 17.008C140.404 17.008 139.7 16.752 139.156 16.208C138.58 15.664 138.324 14.96 138.324 14.128C138.324 13.296 138.58 12.624 139.156 12.08ZM144.02 32.496C144.02 33.232 143.828 33.712 143.508 33.936C143.188 34.192 142.772 34.288 142.292 34.256H141.588C140.5 34.256 139.7 34.064 139.252 33.68C138.804 33.296 138.58 32.656 138.58 31.696V20.144C138.58 19.44 138.74 18.96 139.06 18.704C139.38 18.48 139.796 18.352 140.308 18.352L141.012 18.384C142.1 18.384 142.868 18.576 143.316 18.96C143.764 19.344 144.02 20.016 144.02 20.944V32.496ZM157.454 19.44C158.222 18.928 158.99 18.576 159.79 18.32C160.59 18.096 161.486 17.968 162.51 17.968C163.342 17.968 164.174 18.096 164.942 18.32C165.71 18.544 166.414 18.864 166.99 19.28C168.302 20.304 168.974 21.84 168.974 23.888V32.496C168.974 33.232 168.782 33.712 168.43 33.968C168.046 34.224 167.63 34.32 167.182 34.288L166.542 34.256C165.454 34.256 164.654 34.064 164.206 33.68C163.758 33.296 163.534 32.656 163.534 31.696V24.048C163.534 22.832 162.862 22.224 161.518 22.224C161.262 22.224 160.974 22.32 160.654 22.448C160.302 22.576 160.014 22.736 159.79 22.864C159.79 22.896 159.822 22.96 159.822 23.088V32.496C159.822 33.232 159.63 33.712 159.278 33.968C158.894 34.224 158.478 34.32 158.03 34.288L157.39 34.256C156.302 34.256 155.502 34.064 155.054 33.68C154.606 33.296 154.382 32.656 154.382 31.696V24.048C154.382 23.472 154.19 23.024 153.838 22.704C153.486 22.384 153.006 22.224 152.366 22.224C151.758 22.224 151.182 22.416 150.67 22.736V32.496C150.67 33.232 150.478 33.712 150.126 33.968C149.742 34.224 149.326 34.32 148.878 34.288L148.238 34.256C147.15 34.256 146.35 34.064 145.902 33.68C145.454 33.296 145.23 32.656 145.23 31.696V22.032C145.23 21.52 145.326 21.104 145.55 20.752C145.742 20.4 146.094 20.048 146.606 19.696C147.31 19.184 148.238 18.768 149.326 18.448C150.414 18.128 151.534 17.968 152.686 17.968C154.606 17.968 156.206 18.48 157.454 19.44ZM178.109 34.576C175.549 34.352 173.565 33.52 172.125 32.048C170.685 30.576 169.981 28.688 169.981 26.352C169.981 25.776 169.981 25.456 170.013 25.328C170.205 22.96 171.005 21.136 172.445 19.856C173.853 18.608 175.677 17.968 177.853 17.968C179.069 17.968 180.221 18.192 181.309 18.608C182.365 19.056 183.261 19.632 183.997 20.4C185.117 21.68 185.693 23.152 185.693 24.816C185.693 25.168 185.661 25.36 185.661 25.424C185.597 26.128 185.341 26.672 184.925 27.056C184.477 27.44 183.901 27.632 183.165 27.632H174.909C175.101 28.432 175.645 29.136 176.605 29.712C177.565 30.32 178.589 30.608 179.677 30.608C180.573 30.608 181.373 30.512 182.109 30.288C182.333 30.224 182.653 30.16 183.037 30.16C183.517 30.16 183.869 30.352 184.093 30.672C184.285 31.024 184.413 31.44 184.413 31.888C184.413 32.72 184.061 33.36 183.389 33.808C182.685 34.256 181.757 34.512 180.541 34.576L179.261 34.64L178.109 34.576ZM176.061 22.544C175.549 22.96 175.197 23.536 175.005 24.272L180.541 24.336C180.541 23.696 180.317 23.152 179.805 22.672C179.293 22.192 178.621 21.936 177.821 21.936C177.149 21.936 176.573 22.16 176.061 22.544Z" fill="#243A5A"/>
</svg>
