<svg width="70" height="16" viewBox="0 0 70 16" fill="none" xmlns="http://www.w3.org/2000/svg">
<path d="M65.3096 0.401315C65.5999 -0.133772 66.4001 -0.133772 66.6904 0.401315L67.7255 2.30953C67.7876 2.42552 67.8815 2.52356 67.9973 2.59389L69.6414 3.5979C70.1195 3.88996 70.1195 4.55721 69.6414 4.84926L68.0661 5.81082C67.9084 5.90742 67.7909 6.05562 67.7389 6.22784L66.7457 9.46591C66.5276 10.178 65.4724 10.178 65.2526 9.46591L64.2611 6.22784C64.2074 6.05562 64.0916 5.90742 63.9339 5.81082L62.3586 4.84926C61.8805 4.55721 61.8805 3.88996 62.3586 3.5979L64.0027 2.59389C64.1185 2.52356 64.2124 2.42552 64.2745 2.30953L65.3096 0.401315Z" fill="#00FFA4"/>
<path d="M5.42718 13.0428C4.86061 13.4527 4.02566 13.6577 2.93724 13.6577C2.02774 13.6577 1.31207 13.5405 0.805131 13.277C0.298197 13.0135 0.0447295 12.6475 0.0447295 12.1791C0.0447295 11.9448 0.089459 11.7545 0.193828 11.5935C0.298197 11.4324 0.447295 11.3446 0.656033 11.3446C0.820041 11.3446 0.969139 11.3885 1.11824 11.4471C1.71463 11.6813 2.28121 11.7838 2.83287 11.7838C3.13107 11.7838 3.35471 11.7399 3.53363 11.652C3.69764 11.5642 3.7871 11.4471 3.7871 11.3007C3.7871 11.1689 3.72746 11.0664 3.60818 10.9786C3.4889 10.9054 3.28016 10.8468 3.01179 10.7883L2.56449 10.7005C1.6699 10.5248 1.01387 10.2613 0.611303 9.89527C0.193828 9.54392 0 9.03153 0 8.38739C0 8.03604 0.0745492 7.69932 0.238557 7.40653C0.387656 7.11374 0.611303 6.8795 0.9095 6.67455C1.50589 6.26464 2.29611 6.05968 3.28016 6.05968C4.10021 6.05968 4.74133 6.1768 5.21844 6.41104C5.69556 6.64527 5.93411 6.98198 5.93411 7.40653C5.93411 7.64077 5.87448 7.84572 5.77011 8.00676C5.66574 8.18243 5.51664 8.25563 5.32281 8.25563C5.23335 8.25563 5.14389 8.24099 5.05443 8.21171L4.60714 8.07995C4.21948 7.99212 3.84674 7.93356 3.50381 7.93356C3.13107 7.93356 2.8776 7.97748 2.7285 8.03604C2.54958 8.12387 2.47503 8.24099 2.47503 8.38739C2.47503 8.5045 2.51976 8.59234 2.62413 8.6509C2.71359 8.7241 2.90742 8.78266 3.19071 8.84122L3.65291 8.94369C4.57732 9.14865 5.24826 9.44144 5.66574 9.80743C6.08321 10.1881 6.29195 10.6712 6.29195 11.286C6.29195 12.0473 5.99375 12.6329 5.42718 13.0428Z" fill="white"/>
<path d="M6.74146 7.58221C6.74146 7.39189 6.8011 7.23086 6.93529 7.0991C7.05457 6.98198 7.21857 6.90878 7.4124 6.90878L8.03861 6.89414V5.5473C8.03861 5.3277 8.08334 5.15203 8.1728 5.00563C8.26226 4.87387 8.41136 4.80068 8.59028 4.7714C8.7692 4.74212 8.94811 4.72748 9.15685 4.72748C9.66379 4.72748 10.0216 4.81532 10.2304 4.99099C10.4391 5.16667 10.5435 5.4741 10.5435 5.91329V6.85023H11.8704C12.3326 6.85023 12.601 7.01126 12.6756 7.30405C12.7203 7.50901 12.7501 7.67004 12.7501 7.78716C12.7501 8.43131 12.4668 8.75338 11.9003 8.75338H10.5435V10.964C10.5435 11.4324 10.8566 11.6667 11.4828 11.6667C11.617 11.6667 11.6915 11.6667 11.7213 11.652L11.9897 11.6374C12.2581 11.6374 12.437 11.7106 12.5414 11.8277C12.6308 11.9448 12.6905 12.1351 12.6905 12.3694C12.6905 13.2185 12.0494 13.6284 10.7671 13.6284C9.85761 13.6284 9.17176 13.4234 8.72447 13.0135C8.26226 12.6036 8.03861 11.9887 8.03861 11.1396V8.75338H7.42731C7.23348 8.75338 7.06948 8.69482 6.93529 8.56306C6.8011 8.43131 6.74146 8.27027 6.74146 8.07995V7.58221Z" fill="white"/>
<path d="M19.6401 12.6475C18.9393 13.3209 17.9851 13.643 16.7923 13.643C15.5995 13.643 14.6602 13.3063 13.9744 12.6182C13.2438 11.9595 12.8859 11.0372 12.8859 9.85135C12.8859 9.29504 12.9754 8.76802 13.1692 8.29955C13.3481 7.83108 13.6165 7.42117 13.9744 7.08446C14.69 6.41104 15.6294 6.07432 16.7923 6.07432C17.3589 6.07432 17.8807 6.16216 18.3728 6.33784C18.8499 6.51351 19.2674 6.77703 19.6252 7.0991C19.9681 7.43581 20.2365 7.84572 20.4154 8.31419C20.5943 8.78266 20.6987 9.29504 20.6987 9.85135C20.6987 11.0518 20.3409 11.9741 19.6401 12.6475ZM15.8232 11.2128C16.0617 11.5349 16.3898 11.6959 16.8072 11.6959C17.2247 11.6959 17.5378 11.5349 17.7615 11.2128C17.9851 10.8908 18.1044 10.4369 18.1044 9.85135C18.1044 9.26577 17.9851 8.82658 17.7615 8.5045C17.5229 8.18243 17.2098 8.0214 16.7923 8.0214C16.3748 8.0214 16.0468 8.18243 15.8232 8.5045C15.5846 8.82658 15.4803 9.26577 15.4803 9.85135C15.4803 10.4369 15.5846 10.8908 15.8232 11.2128Z" fill="white"/>
<path d="M23.6764 12.7207C23.6764 13.0574 23.5869 13.277 23.4229 13.3941C23.244 13.5113 23.0501 13.5552 22.8414 13.5405L22.5432 13.5259C22.0363 13.5259 21.6635 13.4381 21.4548 13.2624C21.2461 13.0867 21.1417 12.7939 21.1417 12.3547V7.96284C21.1417 7.58221 21.2759 7.26013 21.5741 7.01126C21.8574 6.77703 22.3196 6.54279 22.9756 6.33784C23.5571 6.1768 24.1236 6.08896 24.6753 6.08896C25.7041 6.08896 26.2259 6.48423 26.2259 7.2455C26.2259 7.36261 26.211 7.43581 26.211 7.45045C26.1663 7.8018 25.8979 7.99212 25.4059 8.03604C25.0779 8.06532 24.7648 8.12387 24.4368 8.18243C24.1087 8.25563 23.8553 8.32883 23.6764 8.40203V12.7207Z" fill="white"/>
<path d="M27.539 9.67568C27.2707 8.88514 27.047 8.07995 26.8383 7.26014C26.8085 7.15766 26.7936 7.05518 26.7936 6.9527C26.7936 6.70383 26.8979 6.51351 27.1365 6.36712C27.375 6.22072 27.6583 6.14752 28.0162 6.14752C28.4038 6.14752 28.702 6.23536 28.9108 6.38176C29.1195 6.52815 29.2686 6.79167 29.3879 7.15766L30.5657 11.1836H30.6254C30.8192 10.6419 31.028 9.96847 31.2516 9.14865C31.4603 8.32883 31.6393 7.61149 31.7585 6.98198C31.8182 6.65991 31.9524 6.44032 32.1611 6.3232C32.3698 6.20608 32.668 6.14752 33.0408 6.14752C33.8459 6.14752 34.2485 6.48423 34.2485 7.12838C34.2485 7.59685 34.1292 8.24099 33.8906 9.04617C33.6521 9.86599 33.3539 10.7005 32.9811 11.5788C32.5637 12.5304 32.1462 13.3502 31.7287 14.0383C31.2963 14.7264 30.8789 15.2241 30.4763 15.5462C30.1035 15.8536 29.6562 16 29.1344 16C28.8362 16 28.5678 15.9414 28.3442 15.8097C28.1205 15.6779 27.9565 15.4876 27.8372 15.2534C27.7776 15.1363 27.7478 15.0338 27.7478 14.9313C27.7478 14.741 27.8671 14.536 28.1205 14.3164C28.5827 13.9505 29.03 13.4966 29.4773 12.955C29.3133 12.911 29.1344 12.7939 28.9406 12.6036C28.7318 12.3986 28.5082 12.0619 28.2995 11.5935C28.0609 11.0957 27.8074 10.4662 27.539 9.67568Z" fill="white"/>
<path d="M34.6974 7.58221C34.6974 7.39189 34.757 7.23086 34.8912 7.0991C35.0105 6.98198 35.1745 6.90878 35.3683 6.90878L35.9946 6.89414V5.5473C35.9946 5.3277 36.0393 5.15203 36.1287 5.00563C36.2182 4.87387 36.3673 4.80068 36.5462 4.7714C36.7251 4.74212 36.9041 4.72748 37.1128 4.72748C37.6197 4.72748 37.9776 4.81532 38.1863 4.99099C38.395 5.16667 38.4994 5.4741 38.4994 5.91329V6.85023H39.8264C40.2886 6.85023 40.557 7.01126 40.6315 7.30405C40.6762 7.50901 40.7061 7.67004 40.7061 7.78716C40.7061 8.43131 40.4228 8.75338 39.8562 8.75338H38.4994V10.964C38.4994 11.4324 38.8125 11.6667 39.4387 11.6667C39.5729 11.6667 39.6475 11.6667 39.6773 11.652L39.9457 11.6374C40.214 11.6374 40.393 11.7106 40.4973 11.8277C40.5868 11.9448 40.6464 12.1351 40.6464 12.3694C40.6464 13.2185 40.0053 13.6284 38.7231 13.6284C37.8136 13.6284 37.1277 13.4234 36.6804 13.0135C36.2182 12.6036 35.9946 11.9887 35.9946 11.1396V8.75338H35.3833C35.1894 8.75338 35.0254 8.69482 34.8912 8.56306C34.757 8.43131 34.6974 8.27027 34.6974 8.07995V7.58221Z" fill="white"/>
<path d="M41.3169 3.38063C41.5704 3.13176 41.8984 3 42.3159 3C42.7184 3 43.0464 3.13176 43.3148 3.38063C43.5683 3.6295 43.7025 3.93694 43.7025 4.31757C43.7025 4.6982 43.5683 5.02027 43.3148 5.26914C43.0464 5.51802 42.7184 5.63514 42.3159 5.63514C41.8984 5.63514 41.5704 5.51802 41.3169 5.26914C41.0485 5.02027 40.9292 4.6982 40.9292 4.31757C40.9292 3.93694 41.0485 3.6295 41.3169 3.38063ZM43.5832 12.7207C43.5832 13.0574 43.4937 13.277 43.3446 13.3795C43.1955 13.4966 43.0017 13.5405 42.7781 13.5259H42.45C41.9431 13.5259 41.5704 13.4381 41.3616 13.2624C41.1529 13.0867 41.0485 12.7939 41.0485 12.3547V7.06982C41.0485 6.74775 41.1231 6.52815 41.2722 6.41104C41.4213 6.30856 41.6151 6.25 41.8537 6.25L42.1817 6.26464C42.6886 6.26464 43.0464 6.35248 43.2552 6.52815C43.4639 6.70383 43.5832 7.01126 43.5832 7.43581V12.7207Z" fill="white"/>
<path d="M49.8426 6.74775C50.2005 6.51351 50.5583 6.35248 50.9311 6.23536C51.3038 6.13288 51.7213 6.07432 52.1984 6.07432C52.5861 6.07432 52.9737 6.13288 53.3315 6.23536C53.6894 6.33784 54.0174 6.48423 54.2858 6.67455C54.8971 7.14302 55.2102 7.84572 55.2102 8.78266V12.7207C55.2102 13.0574 55.1207 13.277 54.9567 13.3941C54.7778 13.5113 54.584 13.5552 54.3752 13.5405L54.077 13.5259C53.5701 13.5259 53.1974 13.4381 52.9886 13.2624C52.7799 13.0867 52.6755 12.7939 52.6755 12.3547V8.85586C52.6755 8.29955 52.3624 8.0214 51.7362 8.0214C51.6169 8.0214 51.4827 8.06531 51.3336 8.12387C51.1696 8.18243 51.0354 8.25563 50.9311 8.31419C50.9311 8.32883 50.946 8.35811 50.946 8.41667V12.7207C50.946 13.0574 50.8565 13.277 50.6925 13.3941C50.5136 13.5113 50.3198 13.5552 50.111 13.5405L49.8128 13.5259C49.3059 13.5259 48.9331 13.4381 48.7244 13.2624C48.5157 13.0867 48.4113 12.7939 48.4113 12.3547V8.85586C48.4113 8.59234 48.3218 8.38739 48.1578 8.24099C47.9938 8.09459 47.7702 8.0214 47.472 8.0214C47.1887 8.0214 46.9203 8.10923 46.6818 8.25563V12.7207C46.6818 13.0574 46.5923 13.277 46.4283 13.3941C46.2494 13.5113 46.0555 13.5552 45.8468 13.5405L45.5486 13.5259C45.0417 13.5259 44.6689 13.4381 44.4602 13.2624C44.2515 13.0867 44.1471 12.7939 44.1471 12.3547V7.93356C44.1471 7.69932 44.1918 7.50901 44.2962 7.34797C44.3856 7.18694 44.5497 7.0259 44.7882 6.86486C45.1162 6.63063 45.5486 6.44031 46.0556 6.29392C46.5625 6.14752 47.0843 6.07432 47.6211 6.07432C48.5157 6.07432 49.2612 6.30856 49.8426 6.74775Z" fill="white"/>
<path d="M59.4664 13.6723C58.2736 13.5698 57.3492 13.1892 56.6782 12.5158C56.0073 11.8423 55.6793 10.9786 55.6793 9.90991C55.6793 9.6464 55.6793 9.5 55.6942 9.44144C55.7836 8.35811 56.1564 7.52365 56.8273 6.93806C57.4834 6.36712 58.3332 6.07432 59.3471 6.07432C59.9137 6.07432 60.4504 6.1768 60.9573 6.36712C61.4494 6.57207 61.8669 6.83559 62.2098 7.18694C62.7316 7.77252 63 8.44595 63 9.20721C63 9.36824 62.9851 9.45608 62.9851 9.48536C62.9553 9.80743 62.836 10.0563 62.6422 10.232C62.4334 10.4077 62.165 10.4955 61.8221 10.4955H57.9754C58.0648 10.8615 58.3183 11.1836 58.7656 11.4471C59.2129 11.7252 59.69 11.857 60.197 11.857C60.6144 11.857 60.9872 11.8131 61.3301 11.7106C61.4345 11.6813 61.5836 11.652 61.7625 11.652C61.9861 11.652 62.1501 11.7399 62.2545 11.8863C62.344 12.0473 62.4036 12.2376 62.4036 12.4426C62.4036 12.8232 62.2396 13.116 61.9265 13.3209C61.5985 13.5259 61.1661 13.643 60.5995 13.6723L60.0031 13.7016L59.4664 13.6723ZM58.5121 8.16779C58.2736 8.35811 58.1096 8.62162 58.0201 8.95833L60.5995 8.98761C60.5995 8.69482 60.4951 8.44595 60.2566 8.22635C60.018 8.00676 59.7049 7.88964 59.3322 7.88964C59.0191 7.88964 58.7507 7.99212 58.5121 8.16779Z" fill="white"/>
</svg>
