<svg width="108" height="24" viewBox="0 0 108 24" fill="none" xmlns="http://www.w3.org/2000/svg">
<path d="M3.30963 0.401315C3.59987 -0.133772 4.40011 -0.133772 4.69035 0.401315L5.72548 2.30953C5.78756 2.42552 5.88151 2.52356 5.99727 2.59389L7.6414 3.5979C8.11953 3.88996 8.11953 4.55721 7.6414 4.84926L6.06606 5.81082C5.90836 5.90742 5.79091 6.05562 5.7389 6.22784L4.74573 9.46591C4.52763 10.178 3.47237 10.178 3.25259 9.46591L2.26108 6.22784C2.2074 6.05562 2.09164 5.90742 1.93394 5.81082L0.358603 4.84926C-0.119534 4.55721 -0.119534 3.88996 0.358603 3.5979L2.00271 2.59389C2.11847 2.52356 2.21244 2.42552 2.27452 2.30953L3.30963 0.401315Z" fill="#97F7F5"/>
<path d="M12.3122 5.41644C12.601 4.86119 13.399 4.86119 13.6862 5.41644L15.8933 9.6644C15.9568 9.78456 16.0503 9.88643 16.1638 9.95939L19.6431 12.1744C20.119 12.4774 20.119 13.1693 19.6431 13.4724L16.2339 15.6433C16.077 15.7435 15.9601 15.8972 15.9084 16.0759L13.743 23.4458C13.5259 24.1847 12.4741 24.1847 12.257 23.4458L10.0916 16.0759C10.0382 15.8972 9.92303 15.7435 9.76609 15.6433L6.35687 13.4724C5.88104 13.1693 5.88104 12.4774 6.35687 12.1744L9.83453 9.95939C9.94973 9.88643 10.0432 9.78456 10.105 9.6644L12.3122 5.41644Z" fill="#FBF7B8"/>
<path d="M32.9888 16.1712C32.2592 16.7088 31.184 16.9776 29.7824 16.9776C28.6112 16.9776 27.6896 16.824 27.0368 16.4784C26.384 16.1328 26.0576 15.6528 26.0576 15.0384C26.0576 14.7312 26.1152 14.4816 26.2496 14.2704C26.384 14.0592 26.576 13.944 26.8448 13.944C27.056 13.944 27.248 14.0016 27.44 14.0784C28.208 14.3856 28.9376 14.52 29.648 14.52C30.032 14.52 30.32 14.4624 30.5504 14.3472C30.7616 14.232 30.8768 14.0784 30.8768 13.8864C30.8768 13.7136 30.8 13.5792 30.6464 13.464C30.4928 13.368 30.224 13.2912 29.8784 13.2144L29.3024 13.0992C28.1504 12.8688 27.3056 12.5232 26.7872 12.0432C26.2496 11.5824 26 10.9104 26 10.0656C26 9.6048 26.096 9.1632 26.3072 8.7792C26.4992 8.3952 26.7872 8.088 27.1712 7.8192C27.9392 7.2816 28.9568 7.0128 30.224 7.0128C31.28 7.0128 32.1056 7.1664 32.72 7.4736C33.3344 7.7808 33.6416 8.2224 33.6416 8.7792C33.6416 9.0864 33.5648 9.3552 33.4304 9.5664C33.296 9.7968 33.104 9.8928 32.8544 9.8928C32.7392 9.8928 32.624 9.8736 32.5088 9.8352L31.9328 9.6624C31.4336 9.5472 30.9536 9.4704 30.512 9.4704C30.032 9.4704 29.7056 9.528 29.5136 9.6048C29.2832 9.72 29.1872 9.8736 29.1872 10.0656C29.1872 10.2192 29.2448 10.3344 29.3792 10.4112C29.4944 10.5072 29.744 10.584 30.1088 10.6608L30.704 10.7952C31.8944 11.064 32.7584 11.448 33.296 11.928C33.8336 12.4272 34.1024 13.0608 34.1024 13.8672C34.1024 14.8656 33.7184 15.6336 32.9888 16.1712Z" fill="#D1D0D3"/>
<path d="M34.6812 9.0096C34.6812 8.76 34.758 8.5488 34.9308 8.376C35.0844 8.2224 35.2956 8.1264 35.5452 8.1264L36.3516 8.1072V6.3408C36.3516 6.0528 36.4092 5.8224 36.5244 5.6304C36.6396 5.4576 36.8316 5.3616 37.062 5.3232C37.2924 5.2848 37.5228 5.2656 37.7916 5.2656C38.4444 5.2656 38.9052 5.3808 39.174 5.6112C39.4428 5.8416 39.5772 6.2448 39.5772 6.8208V8.0496H41.286C41.8812 8.0496 42.2268 8.2608 42.3228 8.6448C42.3804 8.9136 42.4188 9.1248 42.4188 9.2784C42.4188 10.1232 42.054 10.5456 41.3244 10.5456H39.5772V13.4448C39.5772 14.0592 39.9804 14.3664 40.7868 14.3664C40.9596 14.3664 41.0556 14.3664 41.094 14.3472L41.4396 14.328C41.7852 14.328 42.0156 14.424 42.15 14.5776C42.2652 14.7312 42.342 14.9808 42.342 15.288C42.342 16.4016 41.5164 16.9392 39.8652 16.9392C38.694 16.9392 37.8108 16.6704 37.2348 16.1328C36.6396 15.5952 36.3516 14.7888 36.3516 13.6752V10.5456H35.5644C35.3148 10.5456 35.1036 10.4688 34.9308 10.296C34.758 10.1232 34.6812 9.912 34.6812 9.6624V9.0096Z" fill="#D1D0D3"/>
<path d="M51.2913 15.6528C50.3889 16.536 49.1601 16.9584 47.6241 16.9584C46.0881 16.9584 44.8785 16.5168 43.9953 15.6144C43.0545 14.7504 42.5937 13.5408 42.5937 11.9856C42.5937 11.256 42.7089 10.5648 42.9585 9.9504C43.1889 9.336 43.5345 8.7984 43.9953 8.3568C44.9169 7.4736 46.1265 7.032 47.6241 7.032C48.3537 7.032 49.0257 7.1472 49.6593 7.3776C50.2737 7.608 50.8113 7.9536 51.2721 8.376C51.7137 8.8176 52.0593 9.3552 52.2897 9.9696C52.5201 10.584 52.6545 11.256 52.6545 11.9856C52.6545 13.56 52.1937 14.7696 51.2913 15.6528ZM46.3761 13.7712C46.6833 14.1936 47.1057 14.4048 47.6433 14.4048C48.1809 14.4048 48.5841 14.1936 48.8721 13.7712C49.1601 13.3488 49.3137 12.7536 49.3137 11.9856C49.3137 11.2176 49.1601 10.6416 48.8721 10.2192C48.5649 9.7968 48.1617 9.5856 47.6241 9.5856C47.0865 9.5856 46.6641 9.7968 46.3761 10.2192C46.0689 10.6416 45.9345 11.2176 45.9345 11.9856C45.9345 12.7536 46.0689 13.3488 46.3761 13.7712Z" fill="#D1D0D3"/>
<path d="M56.489 15.7488C56.489 16.1904 56.3738 16.4784 56.1626 16.632C55.9322 16.7856 55.6826 16.8432 55.4138 16.824L55.0298 16.8048C54.377 16.8048 53.897 16.6896 53.6282 16.4592C53.3594 16.2288 53.225 15.8448 53.225 15.2688V9.5088C53.225 9.0096 53.3978 8.5872 53.7818 8.2608C54.1466 7.9536 54.7418 7.6464 55.5866 7.3776C56.3354 7.1664 57.065 7.0512 57.7754 7.0512C59.1002 7.0512 59.7722 7.5696 59.7722 8.568C59.7722 8.7216 59.753 8.8176 59.753 8.8368C59.6954 9.2976 59.3498 9.5472 58.7162 9.6048C58.2938 9.6432 57.8906 9.72 57.4682 9.7968C57.0458 9.8928 56.7194 9.9888 56.489 10.0848V15.7488Z" fill="#D1D0D3"/>
<path d="M61.4631 11.7552C61.1175 10.7184 60.8295 9.6624 60.5607 8.5872C60.5223 8.4528 60.5031 8.3184 60.5031 8.184C60.5031 7.8576 60.6375 7.608 60.9447 7.416C61.2519 7.224 61.6167 7.128 62.0775 7.128C62.5767 7.128 62.9607 7.2432 63.2295 7.4352C63.4983 7.6272 63.6903 7.9728 63.8439 8.4528L65.3607 13.7328H65.4375C65.6871 13.0224 65.9559 12.1392 66.2439 11.064C66.5127 9.9888 66.7431 9.048 66.8967 8.2224C66.9735 7.8 67.1463 7.512 67.4151 7.3584C67.6839 7.2048 68.0679 7.128 68.5479 7.128C69.5847 7.128 70.1031 7.5696 70.1031 8.4144C70.1031 9.0288 69.9495 9.8736 69.6423 10.9296C69.3351 12.0048 68.9511 13.0992 68.4711 14.2512C67.9335 15.4992 67.3959 16.5744 66.8583 17.4768C66.3015 18.3792 65.7639 19.032 65.2455 19.4544C64.7655 19.8576 64.1895 20.0496 63.5175 20.0496C63.1335 20.0496 62.7879 19.9728 62.4999 19.8C62.2119 19.6272 62.0007 19.3776 61.8471 19.0704C61.7703 18.9168 61.7319 18.7824 61.7319 18.648C61.7319 18.3984 61.8855 18.1296 62.2119 17.8416C62.8071 17.3616 63.3831 16.7664 63.9591 16.056C63.7479 15.9984 63.5175 15.8448 63.2679 15.5952C62.9991 15.3264 62.7111 14.8848 62.4423 14.2704C62.1351 13.6176 61.8087 12.792 61.4631 11.7552Z" fill="#D1D0D3"/>
<path d="M70.6812 9.0096C70.6812 8.76 70.758 8.5488 70.9308 8.376C71.0844 8.2224 71.2956 8.1264 71.5452 8.1264L72.3516 8.1072V6.3408C72.3516 6.0528 72.4092 5.8224 72.5244 5.6304C72.6396 5.4576 72.8316 5.3616 73.062 5.3232C73.2924 5.2848 73.5228 5.2656 73.7916 5.2656C74.4444 5.2656 74.9052 5.3808 75.174 5.6112C75.4428 5.8416 75.5772 6.2448 75.5772 6.8208V8.0496H77.286C77.8812 8.0496 78.2268 8.2608 78.3228 8.6448C78.3804 8.9136 78.4188 9.1248 78.4188 9.2784C78.4188 10.1232 78.054 10.5456 77.3244 10.5456H75.5772V13.4448C75.5772 14.0592 75.9804 14.3664 76.7868 14.3664C76.9596 14.3664 77.0556 14.3664 77.094 14.3472L77.4396 14.328C77.7852 14.328 78.0156 14.424 78.15 14.5776C78.2652 14.7312 78.342 14.9808 78.342 15.288C78.342 16.4016 77.5164 16.9392 75.8652 16.9392C74.694 16.9392 73.8108 16.6704 73.2348 16.1328C72.6396 15.5952 72.3516 14.7888 72.3516 13.6752V10.5456H71.5644C71.3148 10.5456 71.1036 10.4688 70.9308 10.296C70.758 10.1232 70.6812 9.912 70.6812 9.6624V9.0096Z" fill="#D1D0D3"/>
<path d="M79.2054 3.4992C79.5318 3.1728 79.9542 3 80.4918 3C81.0102 3 81.4326 3.1728 81.7782 3.4992C82.1046 3.8256 82.2774 4.2288 82.2774 4.728C82.2774 5.2272 82.1046 5.6496 81.7782 5.976C81.4326 6.3024 81.0102 6.456 80.4918 6.456C79.9542 6.456 79.5318 6.3024 79.2054 5.976C78.8598 5.6496 78.7062 5.2272 78.7062 4.728C78.7062 4.2288 78.8598 3.8256 79.2054 3.4992ZM82.1238 15.7488C82.1238 16.1904 82.0086 16.4784 81.8166 16.6128C81.6246 16.7664 81.375 16.824 81.087 16.8048H80.6646C80.0118 16.8048 79.5318 16.6896 79.263 16.4592C78.9942 16.2288 78.8598 15.8448 78.8598 15.2688V8.3376C78.8598 7.9152 78.9558 7.6272 79.1478 7.4736C79.3398 7.3392 79.5894 7.2624 79.8966 7.2624L80.319 7.2816C80.9718 7.2816 81.4326 7.3968 81.7014 7.6272C81.9702 7.8576 82.1238 8.2608 82.1238 8.8176V15.7488Z" fill="#D1D0D3"/>
<path d="M90.1844 7.9152C90.6452 7.608 91.106 7.3968 91.586 7.2432C92.066 7.1088 92.6036 7.032 93.218 7.032C93.7172 7.032 94.2164 7.1088 94.6772 7.2432C95.138 7.3776 95.5604 7.5696 95.906 7.8192C96.6932 8.4336 97.0964 9.3552 97.0964 10.584V15.7488C97.0964 16.1904 96.9812 16.4784 96.77 16.632C96.5396 16.7856 96.29 16.8432 96.0212 16.824L95.6372 16.8048C94.9844 16.8048 94.5044 16.6896 94.2356 16.4592C93.9668 16.2288 93.8324 15.8448 93.8324 15.2688V10.68C93.8324 9.9504 93.4292 9.5856 92.6228 9.5856C92.4692 9.5856 92.2964 9.6432 92.1044 9.72C91.8932 9.7968 91.7204 9.8928 91.586 9.9696C91.586 9.9888 91.6052 10.0272 91.6052 10.104V15.7488C91.6052 16.1904 91.49 16.4784 91.2788 16.632C91.0484 16.7856 90.7988 16.8432 90.53 16.824L90.146 16.8048C89.4932 16.8048 89.0132 16.6896 88.7444 16.4592C88.4756 16.2288 88.3412 15.8448 88.3412 15.2688V10.68C88.3412 10.3344 88.226 10.0656 88.0148 9.8736C87.8036 9.6816 87.5156 9.5856 87.1316 9.5856C86.7668 9.5856 86.4212 9.7008 86.114 9.8928V15.7488C86.114 16.1904 85.9988 16.4784 85.7876 16.632C85.5572 16.7856 85.3076 16.8432 85.0388 16.824L84.6548 16.8048C84.002 16.8048 83.522 16.6896 83.2532 16.4592C82.9844 16.2288 82.85 15.8448 82.85 15.2688V9.4704C82.85 9.1632 82.9076 8.9136 83.042 8.7024C83.1572 8.4912 83.3684 8.28 83.6756 8.0688C84.098 7.7616 84.6548 7.512 85.3076 7.32C85.9604 7.128 86.6324 7.032 87.3236 7.032C88.4756 7.032 89.4356 7.3392 90.1844 7.9152Z" fill="#D1D0D3"/>
<path d="M102.577 16.9968C101.041 16.8624 99.8508 16.3632 98.9868 15.48C98.1228 14.5968 97.7004 13.464 97.7004 12.0624C97.7004 11.7168 97.7004 11.5248 97.7196 11.448C97.8348 10.0272 98.3148 8.9328 99.1788 8.1648C100.024 7.416 101.118 7.032 102.424 7.032C103.153 7.032 103.844 7.1664 104.497 7.416C105.131 7.6848 105.668 8.0304 106.11 8.4912C106.782 9.2592 107.128 10.1424 107.128 11.1408C107.128 11.352 107.108 11.4672 107.108 11.5056C107.07 11.928 106.916 12.2544 106.667 12.4848C106.398 12.7152 106.052 12.8304 105.611 12.8304H100.657C100.772 13.3104 101.099 13.7328 101.675 14.0784C102.251 14.4432 102.865 14.616 103.518 14.616C104.056 14.616 104.536 14.5584 104.977 14.424C105.112 14.3856 105.304 14.3472 105.534 14.3472C105.822 14.3472 106.033 14.4624 106.168 14.6544C106.283 14.8656 106.36 15.1152 106.36 15.384C106.36 15.8832 106.148 16.2672 105.745 16.536C105.323 16.8048 104.766 16.9584 104.036 16.9968L103.268 17.0352L102.577 16.9968ZM101.348 9.7776C101.041 10.0272 100.83 10.3728 100.715 10.8144L104.036 10.8528C104.036 10.4688 103.902 10.1424 103.595 9.8544C103.288 9.5664 102.884 9.4128 102.404 9.4128C102.001 9.4128 101.656 9.5472 101.348 9.7776Z" fill="#D1D0D3"/>
</svg>
