<svg width="300" height="300" viewBox="0 0 300 300" fill="none" xmlns="http://www.w3.org/2000/svg">
<path d="M66.8937 54.1425L158.059 34.7218C164.34 33.3839 169.968 32.4609 175.129 32.327C202.591 30.4773 213.293 45.3024 222.861 89.8889L239.846 169.037C249.414 213.623 245.732 231.512 219.912 241.013C215.147 242.994 209.632 244.444 203.352 245.782L112.186 265.203C105.906 266.541 100.278 267.464 95.1165 267.598C67.6549 269.447 56.9528 254.622 47.3847 210.036L30.4 130.888C20.832 86.3016 24.5138 68.4124 50.3335 58.9117C55.0988 56.931 60.6134 55.4804 66.8937 54.1425Z" fill="#F1F4F9" stroke="#919FB6" stroke-width="2" stroke-linecap="round" stroke-linejoin="round"/>
<path d="M108.154 56.2008H201.38C207.802 56.2008 213.499 56.4706 218.575 57.4149C245.818 61.3268 253.172 78.0537 253.172 123.648V204.584C253.172 250.179 245.818 266.905 218.575 270.817C213.499 271.762 207.802 272.031 201.38 272.031H108.154C101.731 272.031 96.0343 271.762 90.9586 270.817C63.7158 266.905 56.3613 250.179 56.3613 204.584V123.648C56.3613 78.0537 63.7158 61.3268 90.9586 57.4149C96.0343 56.4706 101.731 56.2008 108.154 56.2008Z" fill="white" stroke="#919FB6" stroke-width="2"/>
<rect x="96.583" y="126.067" width="115.576" height="17.5388" rx="8.76939" fill="#F1F4F9" stroke="#919FB6" stroke-width="2"/>
<rect x="96.583" y="92.7881" width="17.5388" height="17.5388" rx="8.76939" fill="#F1F4F9" stroke="#919FB6" stroke-width="2"/>
<rect x="125.814" y="92.7881" width="17.5388" height="17.5388" rx="8.76939" fill="#F1F4F9" stroke="#919FB6" stroke-width="2"/>
<rect x="96.583" y="158.446" width="115.576" height="17.5388" rx="8.76939" fill="#F1F4F9" stroke="#919FB6" stroke-width="2"/>
<rect x="96.583" y="191.725" width="115.576" height="17.5388" rx="8.76939" fill="#F1F4F9" stroke="#919FB6" stroke-width="2"/>
<rect x="96.583" y="224.104" width="115.576" height="17.5388" rx="8.76939" fill="#F1F4F9" stroke="#919FB6" stroke-width="2"/>
<path d="M241.022 149.396H260.686C277.073 149.396 283.628 142.865 283.628 126.538V106.946C283.628 90.6188 277.073 84.088 260.686 84.088H241.022C224.635 84.088 218.08 90.6188 218.08 106.946V126.538C218.08 142.865 224.635 149.396 241.022 149.396Z" fill="white" stroke="#919FB6" stroke-width="2"/>
<path d="M239.483 116.964H262.224" stroke="#919FB6" stroke-width="4" stroke-linecap="round" stroke-linejoin="round"/>
<path d="M251.077 128.071V105.413" stroke="#919FB6" stroke-width="4" stroke-linecap="round" stroke-linejoin="round"/>
</svg>
