<svg width="26" height="33" viewBox="0 0 26 33" fill="none" xmlns="http://www.w3.org/2000/svg">
<path d="M10.7563 1.32434C11.6996 -0.441447 14.3004 -0.441447 15.2436 1.32434L18.6078 7.62144C18.8096 8.0042 19.1149 8.32774 19.4911 8.55983L24.8345 11.8731C26.3885 12.8369 26.3885 15.0388 24.8345 16.0026L19.7147 19.1757C19.2022 19.4945 18.8204 19.9835 18.6514 20.5519L15.4236 31.2375C14.7148 33.5875 11.2852 33.5875 10.5709 31.2375L7.34851 20.5519C7.17404 19.9835 6.79784 19.4945 6.28531 19.1757L1.16546 16.0026C-0.388487 15.0388 -0.388487 12.8369 1.16546 11.8731L6.50882 8.55983C6.88503 8.32774 7.19044 8.0042 7.39218 7.62144L10.7563 1.32434Z" fill="#00FFA4"/>
</svg>
