<svg width="23" height="32" viewBox="0 0 23 32" fill="none" xmlns="http://www.w3.org/2000/svg">
<path d="M10.37 0.70138C10.8445 -0.233793 12.1555 -0.233793 12.6273 0.70138L16.2533 7.85583C16.3576 8.0582 16.5112 8.22978 16.6977 8.35266L22.4137 12.0833C23.1954 12.5936 23.1954 13.7588 22.4137 14.2694L16.8129 17.9255C16.5551 18.0943 16.363 18.3532 16.278 18.6541L12.7206 31.0666C12.364 32.3111 10.636 32.3111 10.2794 31.0666L6.72199 18.6541C6.63422 18.3532 6.44498 18.0943 6.18715 17.9255L0.58628 14.2694C-0.195427 13.7588 -0.195427 12.5936 0.58628 12.0833L6.29959 8.35266C6.48884 8.22978 6.64244 8.0582 6.74392 7.85583L10.37 0.70138Z" fill="#FBF7B8"/>
</svg>
