<?xml version="1.0" standalone="no"?>
<!DOCTYPE svg PUBLIC "-//W3C//DTD SVG 20010904//EN"
 "http://www.w3.org/TR/2001/REC-SVG-20010904/DTD/svg10.dtd">
<svg version="1.0" xmlns="http://www.w3.org/2000/svg"
 width="1056.000000pt" height="1056.000000pt" viewBox="0 0 1056.000000 1056.000000"
 preserveAspectRatio="xMidYMid meet">
<metadata>
Created by potrace 1.14, written by Peter Selinger 2001-2017
</metadata>
<g transform="translate(0.000000,1056.000000) scale(0.100000,-0.100000)"
fill="#000000" stroke="none">
<path d="M5179 10556 c-2 -2 -22 -7 -44 -11 -22 -3 -47 -7 -55 -9 -67 -11
-221 -82 -289 -133 -54 -40 -165 -158 -187 -198 -10 -19 -22 -35 -27 -35 -4 0
-5 -4 -2 -10 3 -5 1 -10 -4 -10 -6 0 -11 -9 -11 -20 0 -11 -3 -20 -7 -20 -5 0
-42 -66 -83 -148 -41 -81 -78 -149 -81 -152 -4 -3 -23 -39 -44 -80 -21 -41
-43 -78 -49 -82 -6 -4 -7 -8 -2 -8 5 0 4 -6 -1 -12 -6 -7 -36 -62 -69 -123
-32 -60 -97 -184 -146 -274 -48 -90 -90 -173 -94 -183 -3 -10 -10 -18 -15 -18
-5 0 -9 -8 -9 -18 0 -10 -5 -23 -11 -29 -6 -6 -23 -34 -38 -62 -14 -28 -48
-95 -76 -149 -27 -53 -53 -99 -56 -102 -3 -3 -17 -27 -31 -55 -39 -77 -118
-226 -143 -270 -12 -22 -48 -89 -80 -150 -32 -60 -62 -111 -67 -113 -4 -2 -8
-8 -8 -14 0 -23 -101 -137 -171 -193 -39 -31 -88 -65 -94 -65 -3 0 -32 -18
-64 -40 -32 -22 -61 -40 -64 -40 -3 0 -40 -22 -81 -50 -42 -27 -78 -50 -81
-50 -4 0 -26 -13 -50 -30 -24 -16 -48 -30 -53 -30 -6 0 -12 -4 -14 -8 -1 -4
-88 -60 -193 -124 -104 -64 -195 -121 -200 -126 -6 -5 -15 -11 -21 -13 -14 -6
-348 -212 -354 -219 -3 -3 -22 -14 -42 -25 -21 -11 -38 -23 -38 -27 0 -5 -4
-8 -10 -8 -8 0 -120 -68 -350 -211 -25 -16 -50 -33 -57 -39 -7 -5 -15 -10 -18
-10 -19 0 -119 -84 -178 -149 -68 -76 -159 -238 -171 -306 -2 -16 -8 -41 -12
-55 -13 -50 -12 -252 3 -304 8 -28 16 -63 19 -79 16 -87 143 -277 236 -352 27
-22 55 -45 62 -51 6 -6 22 -15 34 -18 12 -4 22 -11 22 -15 0 -5 14 -14 30 -21
17 -7 30 -16 30 -20 0 -4 8 -10 18 -14 19 -6 53 -26 122 -71 84 -55 203 -125
212 -125 4 0 8 -4 8 -8 0 -5 12 -15 28 -23 15 -7 38 -21 52 -30 14 -9 104 -65
200 -125 236 -145 282 -174 341 -211 28 -18 55 -33 60 -33 5 0 9 -4 9 -10 0
-5 6 -10 14 -10 7 0 19 -7 26 -15 7 -8 16 -12 21 -9 5 3 9 1 9 -4 0 -5 17 -17
37 -28 21 -10 46 -27 57 -37 11 -9 26 -17 33 -17 7 0 13 -4 13 -9 0 -5 8 -11
18 -15 9 -3 31 -15 47 -26 17 -11 39 -24 50 -30 27 -14 59 -34 65 -41 3 -3 19
-13 37 -22 17 -9 37 -22 45 -29 7 -7 26 -20 43 -28 16 -8 43 -26 60 -40 42
-36 155 -147 155 -154 0 -3 13 -24 29 -48 30 -44 81 -149 86 -177 2 -9 4 -17
5 -18 2 -2 3 -6 5 -10 1 -5 4 -15 7 -23 3 -8 13 -40 21 -70 9 -30 25 -86 37
-125 12 -38 22 -74 23 -80 2 -5 6 -15 9 -21 4 -6 9 -24 12 -41 3 -16 16 -63
30 -104 13 -41 31 -101 41 -134 9 -33 21 -71 26 -85 19 -56 63 -206 65 -220 1
-8 11 -40 22 -70 10 -30 20 -59 21 -65 0 -5 5 -23 10 -40 53 -172 74 -240 75
-249 2 -6 13 -42 25 -81 12 -38 24 -77 26 -85 2 -8 8 -27 14 -42 6 -16 8 -28
5 -28 -4 0 0 -7 7 -17 8 -9 13 -19 12 -22 -1 -3 3 -24 9 -46 6 -22 12 -42 13
-45 1 -3 12 -39 25 -80 13 -41 24 -80 26 -86 4 -24 56 -192 69 -226 8 -21 12
-38 9 -38 -4 0 -1 -7 6 -15 7 -8 10 -15 7 -15 -3 0 4 -28 15 -63 11 -34 31
-100 44 -147 14 -47 27 -92 31 -100 3 -8 7 -19 9 -25 3 -15 55 -186 65 -220 6
-16 12 -37 14 -45 1 -8 10 -38 20 -66 9 -28 18 -60 20 -70 2 -10 4 -19 5 -19
1 0 3 -7 5 -15 2 -8 18 -60 35 -115 18 -55 36 -113 40 -130 21 -77 89 -294
103 -328 9 -20 17 -41 19 -45 1 -4 6 -11 10 -17 5 -5 23 -34 41 -62 37 -59
136 -165 179 -191 15 -9 28 -20 28 -24 0 -4 4 -8 10 -8 5 0 31 -13 57 -28 63
-37 191 -80 273 -91 124 -18 295 -3 397 33 22 8 44 12 47 9 3 -4 6 -1 6 6 0 7
5 9 10 6 6 -3 10 -1 10 4 0 6 3 10 8 9 10 -4 131 66 167 96 65 55 140 140 173
196 23 38 63 119 68 135 1 6 23 78 49 160 25 83 57 188 71 235 14 47 28 92 31
100 3 8 7 20 9 25 5 22 85 287 124 415 23 74 43 140 44 145 1 6 13 44 25 85
13 41 24 80 26 85 1 6 5 17 8 25 3 8 13 42 22 75 9 33 19 67 22 75 3 8 7 20 9
25 1 6 26 87 54 180 29 94 53 177 54 185 1 9 4 20 7 25 6 11 53 162 65 210 8
34 9 34 17 55 3 8 20 62 37 120 49 161 52 173 61 200 4 14 14 45 20 70 15 53
14 50 22 73 4 9 10 25 14 35 3 9 5 20 5 25 -1 4 4 22 11 40 8 17 14 34 14 37
1 3 7 25 14 50 15 54 13 45 28 100 6 25 16 54 21 65 8 18 28 90 30 107 0 4 8
27 16 50 9 24 17 50 19 58 2 8 4 15 5 15 1 0 3 8 5 17 2 9 14 52 28 95 13 43
32 105 42 138 24 87 46 149 56 159 5 6 9 15 9 22 0 21 70 128 123 188 61 68
131 124 241 190 43 26 85 54 93 62 8 8 19 14 24 14 6 0 37 18 69 40 32 22 62
40 65 40 3 0 18 8 33 19 50 35 191 121 197 121 3 0 11 5 18 10 28 23 103 70
113 70 7 0 15 7 18 16 4 9 9 14 12 11 4 -3 21 4 38 16 17 12 40 27 51 34 21
12 188 116 230 143 80 51 148 90 156 90 5 0 9 5 9 10 0 6 7 10 15 10 8 0 15 4
15 9 0 5 10 13 23 17 12 4 24 10 27 13 3 4 73 48 155 98 83 51 155 96 160 100
6 4 22 14 38 22 15 8 27 18 27 23 0 4 5 8 11 8 16 0 87 59 136 111 21 23 45
50 54 59 9 10 18 21 20 26 2 5 20 36 39 69 19 33 36 64 37 70 1 5 11 35 22 65
29 84 35 125 35 255 -1 95 -6 136 -23 195 -51 168 -163 326 -296 417 -22 16
-41 31 -43 36 -2 4 -8 7 -14 7 -5 0 -24 10 -41 22 -18 13 -34 23 -37 23 -3 1
-25 14 -50 29 -25 16 -70 45 -100 64 -30 19 -66 42 -80 52 -14 9 -35 20 -48
24 -12 4 -22 11 -22 15 0 5 -13 14 -30 21 -16 7 -30 16 -30 21 0 5 -4 9 -10 9
-5 0 -90 51 -190 113 -99 61 -200 123 -223 136 -23 13 -44 27 -47 30 -3 3 -16
13 -30 20 -93 54 -176 106 -178 113 -2 4 -8 8 -13 8 -5 0 -33 15 -62 34 -28
18 -101 64 -162 101 -60 37 -117 74 -126 81 -9 8 -18 12 -21 9 -3 -3 -13 4
-23 15 -10 11 -22 20 -27 20 -5 0 -36 18 -69 40 -33 22 -63 40 -67 40 -4 0
-20 11 -36 25 -16 14 -33 25 -37 25 -15 0 -144 136 -177 185 -17 28 -37 57
-42 65 -5 8 -35 65 -66 125 -32 61 -62 113 -68 117 -6 4 -8 8 -4 8 4 0 -6 23
-22 50 -16 28 -27 50 -23 50 3 0 -1 8 -9 18 -8 9 -27 40 -40 67 -14 28 -44 84
-67 125 -23 41 -53 100 -68 130 -14 30 -29 57 -32 60 -3 3 -13 19 -21 35 -8
17 -24 46 -36 65 -12 19 -25 46 -29 60 -4 14 -10 27 -14 30 -3 3 -16 23 -27
45 -30 56 -94 176 -144 270 -24 44 -61 114 -83 155 -22 41 -54 102 -72 135
-18 33 -54 101 -80 150 -26 50 -66 124 -88 165 -22 41 -51 98 -66 125 -14 28
-30 53 -36 57 -7 5 -7 8 0 8 7 0 7 3 0 8 -6 4 -23 27 -39 52 -36 55 -172 190
-192 190 -8 0 -14 4 -14 9 0 11 -160 91 -182 91 -9 0 -19 4 -22 9 -4 5 -25 12
-49 16 -23 4 -51 10 -62 12 -26 6 -241 14 -246 9z"/>
</g>
</svg>
